<svg xmlns="http://www.w3.org/2000/svg" viewBox="-11 2 80 80">
  <rect x="-11" y="2" width="80" height="80" rx="14" fill="#fdfcfb"/>
  <path fill="#2d3a4a" d="M1.74 43.41C1.74 47.36 0 48.86 0 52.05C0 54.55 2.26 55.48 5.92 55.48L12.01 55.48C15.72 55.48 17.52 55.71 18.68 55.94C27.26 57.74 27.49 47.47 23.37 47.47C19.55 47.47 18.04 52.58 14.21 52.58C11.95 52.58 10.27 51.65 10.27 49.21L10.27 41.50L12.24 41.50C15.02 41.50 16.59 44.05 19.26 44.05C21.52 44.05 21.69 42.37 21.69 40.05C21.69 37.73 21.52 36.10 19.26 36.10C16.59 36.10 15.02 38.60 12.24 38.60L10.27 38.60L10.27 31.99C10.27 29.55 11.95 28.62 14.21 28.62C18.04 28.62 19.55 33.73 23.37 33.73C27.49 33.73 27.26 23.46 18.68 25.26C17.52 25.49 15.72 25.66 12.01 25.66L5.92 25.66C2.26 25.72 0 26.59 0 29.14C0 32.33 1.74 33.84 1.74 37.79ZM35.09 38.54L38.45 44.40C38.16 47.65 36.71 49.15 36.71 52.05C36.71 54.61 39.03 55.48 42.75 55.48C46.46 55.48 48.78 54.61 48.78 52.05C48.78 49.10 47.33 47.65 47.04 44.40L50.75 37.90C52.61 34.65 57.01 32.51 58.41 29.90C59.74 27.35 58 25.66 53.82 25.66C49.94 25.66 47.73 26.88 47.10 28.62C46.28 30.88 49.76 33.78 47.62 37.50C47.62 37.50 46.81 38.95 45.94 40.40L42.75 34.71C41.41 32.33 41.93 31.12 40.66 29.09C39.09 26.59 36.54 25.66 32.54 25.66C28.54 25.66 26.10 27.35 27.67 29.84C29.75 33.09 32.89 34.48 35.09 38.54Z"/>
</svg>
