<?xml version="1.0" encoding="UTF-8"?>
<svg id="Layer_2" data-name="Layer 2" xmlns="http://www.w3.org/2000/svg" viewBox="0 0 252.14 255">
  <g id="Layer_1-2" data-name="Layer 1">
    <g>
      <path d="m56.66,228.37c-.12.02-.24.07-.36.07-1.83.08-3.64-.05-5.43-.45-.16-.04-.32-.1-.49-.16-.56-.42-1.01-.96-1.47-1.49-1.7-1.94-3.11-4.09-4.34-6.35-1.05-1.93-1.99-3.91-2.93-5.9-.71-1.5-1.43-2.99-2.23-4.44-1.15-2.07-2.45-4.04-3.88-5.92-2.11-2.77-4.19-5.56-6.09-8.48-2.19-3.38-4.14-6.89-5.81-10.55-1.7-3.71-2.92-7.57-3.77-11.56-.53-2.52-.97-5.05-1.19-7.61-.25-2.93-.39-5.87-.33-8.82.05-2.53.25-5.05.56-7.56.42-3.42,1.12-6.78,2.04-10.1,1.74-6.27,4.3-12.18,7.66-17.75,2.41-3.98,5.17-7.7,8.2-11.24,4.31-5.03,9.17-9.47,14.44-13.45,6.75-5.11,14.08-9.19,22.01-12.16,3.11-1.16,6.29-2.08,9.52-2.82,2.87-.66,5.76-1.2,8.68-1.57,1.52-.19,3.05-.33,4.57-.47,4.35-.41,8.7-.27,13.05-.15,1.95.05,3.89.23,5.83.34,2.44.14,4.89.18,7.33.06,1.29-.06,2.55-.29,3.79-.65,1.61-.48,2.9-1.39,3.86-2.77.43-.61.78-1.27,1.1-1.95.67-1.43,1.17-2.92,1.59-4.44.51-1.84,1.02-3.67,1.7-5.46.4-1.05.89-2.05,1.45-3.02,1.21-2.09,2.88-3.73,4.91-5.01.49-.31,1-.58,1.51-.86.69-.38,1.38-.77,2.06-1.15,1.64-.9,2.73-2.25,3.33-4.02.23-.67.45-1.33.66-2.01.28-.91.58-1.81.97-2.69,1.07-2.4,2.85-4.03,5.28-4.98,1.01-.39,2.05-.63,3.12-.8,1.4-.21,2.8-.28,4.21-.34.83-.03,1.66-.07,2.48-.11.58-.02,1.15-.13,1.72-.26.58-.13,1.1-.38,1.6-.67.63-.37,1.08-.91,1.27-1.62.17-.64.36-1.28.47-1.93.31-1.75.55-3.52.78-5.29.17-1.35.36-2.71.74-4.03.07-.24.15-.48.22-.71.28-.85.76-1.57,1.45-2.13.67-.55,1.35-1.1,2.04-1.63.99-.75,2-1.48,3-2.22,3.15-2.31,6.51-4.28,9.92-6.17.65-.36,1.31-.72,1.95-1.1,1.12-.66,2.1-1.47,2.87-2.53.71-.97,1.46-1.91,2.21-2.85,1.72-2.19,3.56-4.26,5.69-6.06.12-.1.26-.21.26-.4.5,0,1,0,1.49,0,.06.11.15.2.19.32.33.96.94,1.74,1.59,2.5,1.7,1.99,3.62,3.75,5.59,5.47,1.31,1.14,2.71,2.17,4.18,3.12.27.18.54.39.88.41.04-.01.09-.02.12-.04.37-.27.43-.69.48-1.1.05-.35-.11-.65-.32-.91-.18-.23-.37-.45-.55-.67-.83-1.03-1.66-2.06-2.5-3.09-.62-.77-1.23-1.56-1.88-2.32-1.17-1.35-2.45-2.57-4.05-3.32-.11-.15-.18-.25-.26-.35,1.49,0,2.99,0,4.48,0,1.58,1.24,2.89,2.73,4.01,4.39,1.05,1.54,2.1,3.08,3.25,4.55.31.39.6.79.79,1.26.13.32.15.64.03.97-.14.4-.37.74-.65,1.05-.54.58-1.07,1.16-1.63,1.71-.94.94-1.83,1.93-2.88,2.74-.05.04-.04.14-.06.22.32.13.66.08.98.02,2.24-.44,4.46-.94,6.58-1.8,1.81-.74,3.5-1.7,5.08-2.86.67-.49,1.32-1.01,1.97-1.52.75-.58,1.49-1.19,2.26-1.76.87-.65,1.81-1.17,2.85-1.49,1.3-.4,2.61-.41,3.93-.12,1.14.25,2.23.65,3.3,1.08,1.54.61,3.07,1.26,4.61,1.86,1.08.42,2.18.8,3.27,1.2,1.18.43,2.39.68,3.64.74.25.01.49.05.74.1.06.01.1.12.18.21-.16.17-.32.36-.5.53-1.51,1.43-3.11,2.73-4.74,4.01-3.56,2.79-7.27,5.36-11.18,7.65-4.33,2.53-8.78,4.85-13.39,6.82-3.81,1.63-7.64,3.21-11.46,4.79-3.79,1.57-7.53,3.25-11.15,5.19-3.37,1.81-6.58,3.84-9.55,6.26-1.45,1.18-2.81,2.46-4.08,3.82-2.34,2.51-4.18,5.35-5.57,8.48-.76,1.7-1.47,3.43-2.22,5.13-.52,1.18-1.04,2.35-1.6,3.5-1.52,3.11-3.68,5.69-6.48,7.74-.77.56-1.51,1.16-2.26,1.75-1.49,1.16-2.69,2.57-3.61,4.22-.81,1.45-1.52,2.95-2.21,4.45-1.01,2.18-2,4.37-2.77,6.65-.71,2.09-1.19,4.23-1.31,6.43-.08,1.5.07,2.98.5,4.43.13.44.25.88.43,1.3.94,2.26,1.88,4.51,3.01,6.69.9,1.73,2,3.34,3.1,4.95,2.14,3.16,4.17,6.38,6.03,9.71,4.46,7.96,7.85,16.35,10.11,25.19.72,2.81,1.3,5.65,1.76,8.52.32,2,.6,4.02.74,6.04.19,2.81.31,5.63.18,8.45-.03.58-.06,1.16-.08,1.74-.06,1.78-.24,3.55-.47,5.32-.27,2.1-.61,4.18-1.04,6.25-.78,3.78-1.87,7.47-3.26,11.07-1.58,4.11-3.52,8.04-5.84,11.79-2.56,4.14-5.53,7.96-8.95,11.43-5.5,5.57-11.8,10.02-18.79,13.51-3.38,1.69-6.89,3.04-10.53,4.07-2.51.72-5.07,1.24-7.67,1.54-1.77.21-3.55.3-5.34.3-2.82.01-5.64.01-8.45-.14-1.03-.06-2.07-.08-3.11-.09-2.86-.04-5.72-.22-8.57-.43-.45-.03-.91-.05-1.37-.07-.41-.02-.83-.03-1.24-.07-3.18-.33-6.37-.32-9.56-.15-1.57.08-3.14.21-4.71.33-2.15.17-4.31.18-6.46,0-.82-.07-1.65-.13-2.51-.09,0,.15-.05.28,0,.36.5,1.05.99,2.1,1.53,3.13.66,1.27,1.58,2.33,2.69,3.23.74.6,1.51,1.16,2.29,1.71.82.58,1.56,1.24,2.25,1.95.7.72,1.23,1.56,1.73,2.42.11.19.1.4.1.6h-1c0-.12.02-.24.03-.4-.9-1.04-1.97-1.87-3.23-2.44-.49-.22-.99-.43-1.5-.59-.95-.3-1.69-.86-2.27-1.65-.34-.47-.69-.94-.99-1.43-1.34-2.14-2.67-4.29-4-6.44-.39-.63-.81-1.25-1.23-1.87-.16-.23-.33-.48-.62-.58-.19.03-.28.16-.33.32-.45,1.46-.41,2.94-.13,4.43.17.94.52,1.83.85,2.72.52,1.37.8,2.79.65,4.26-.12,1.24-.31,2.47-.66,3.66h-.75c.19-.83.07-1.65-.1-2.45-.29-1.41-.67-2.81-1.01-4.21-.04-.15-.09-.31-.29-.37-.43.48-.85.99-1.31,1.46-.45.48-.95.92-1.4,1.4-.31.33-.6.68-.85,1.06-.41.64-.63,1.34-.56,2.11.03.33.02.66.03.99h-1c-.01-.08-.02-.16-.04-.24-.03-.13-.1-.21-.24-.22-.14,0-.21.09-.23.22-.01.08,0,.16,0,.24h-2.24c.04-.3.19-.54.37-.77.76-.91,1.01-1.96.86-3.12,0-.04-.02-.08-.04-.11-.02-.03-.06-.04-.09-.06-.08.02-.17.01-.23.06-.73.62-1.54,1.1-2.39,1.51-.55.27-1.1.56-1.65.84-.59.3-1.14.65-1.68,1.04-.22.16-.29.39-.38.61h-4.73c.03-.17.09-.32.23-.41.41-.25.83-.5,1.25-.75.28-.16.56-.32.75-.6.2-.02.43,0,.6-.07.49-.22.97-.46,1.44-.72,1.38-.79,1.7-1.17,2.18-2.71.9-2.88,1.79-5.77,2.44-8.72.02-.07-.03-.16-.05-.26-.1.07-.22.11-.28.2-.81,1-1.62,1.99-2.41,3-.54.68-1,1.43-1.35,2.22-.99,2.27-1.92,4.57-2.55,6.97,0,.04,0,.08.01.12-.14-.17-.2-.36-.18-.57.05-.37.09-.74.14-1.11.19-1.56.37-3.13.64-4.68.06-.32.15-.65.04-1.01-.09-.04-.2-.11-.31-.13-.12-.02-.25-.01-.37,0-1.08.05-1.21.05-1.88.94-1.35,1.79-3.15,2.9-5.26,3.57-1.31.42-2.64.68-4.01.79-1.37.11-2.73.15-4.09-.02-.78-.1-1.56-.23-2.31-.45-1.58-.47-3.16-.96-4.74-1.45.03-.16.17-.13.26-.13.41.03.83.07,1.24.11,1.81.21,3.62.41,5.45.45,3.02.06,5.94-.44,8.74-1.58.42-.17.85-.32,1.2-.62-.03-.08-.04-.19-.08-.21-.11-.04-.24-.06-.36-.06-1.45.07-2.9-.04-4.34-.26-.9-.14-1.81-.21-2.71-.35-.78-.12-1.55-.26-2.27-.6-.15-.07-.29-.16-.41-.26-.04-.03-.02-.13-.03-.21.04-.02.08-.05.11-.04.41.06.82.12,1.23.2,1.23.25,2.48.23,3.72.09,2.39-.26,4.75-.73,7.1-1.21.32-.07.64-.17.95-.29.32-.12.56-.35.69-.68.1-.27.2-.55.26-.83.02-.09-.08-.2-.14-.33-1.84.43-3.65.85-5.46,1.32-1.08.28-2.17.55-3.27.76-1.23.24-2.48.18-3.71-.02-1.35-.22-2.66-.6-3.91-1.18-.3-.14-.61-.25-.9-.37-.65.15-1.2.44-1.77.69-1.3.55-2.63,1.01-4.01,1.3-.69.14-1.38.29-2.08.37-1.57.17-3.14.3-4.72.23-.66-.03-1.32-.04-1.98-.06,0-.11-.02-.22.02-.25.26-.21.56-.34.9-.38.7-.08,1.4-.18,2.1-.24,1.16-.09,2.32-.14,3.47-.24,1.74-.15,3.43-.56,5.04-1.26.34-.15.7-.26.99-.58-.05-.08-.08-.21-.16-.27-1.04-.69-1.96-1.52-2.84-2.4-.44-.44-.93-.83-1.47-1.14-.27-.15-.55-.17-.83-.04-.26.12-.53.24-.78.39-.96.57-1.93,1.13-2.87,1.74-1.31.85-2.38,1.93-2.98,3.41-.04.09-.17.15-.26.22-.23-.2-.26-.46-.25-.7.03-.59.19-1.14.52-1.64.3-.45.64-.87,1.05-1.22.48-.4.96-.79,1.47-1.15.54-.39,1.1-.74,1.65-1.11.14-.09.27-.2.28-.41-.45-.21-.93-.26-1.43-.3-.91-.07-1.8-.25-2.69-.47-1.6-.39-3.02-1.12-4.32-2.12-1.38-1.07-2.58-2.33-3.66-3.71-.23-.29-.5-.55-.62-.88.02-.19.15-.28.25-.21.2.13.38.31.55.49,1.1,1.25,2.31,2.38,3.7,3.31,1.24.83,2.55,1.54,4.02,1.91.85.21,1.71.29,2.58.33.16,0,.32-.05.49-.08.16-.03.25-.25.17-.39-.17-.29-.34-.57-.51-.85-.13-.21-.27-.41-.41-.61.08-.07.17-.17.18-.16.24.16.48.32.7.5.68.55,1.42,1.02,2.24,1.32,1.13.41,1.41.54,2.54-.27.98-.7,1.96-1.39,2.84-2.15.06-.24-.03-.37-.15-.48-1.7-1.6-3.67-2.69-5.95-3.18-1.42-.3-2.86-.46-4.31-.52-1.82-.07-3.64-.16-5.46-.26-.41-.02-.82-.1-1.23-.18-.97-.19-1.77-.68-2.43-1.4-.53-.58-1-1.22-1.36-1.93-.32-.63-.63-1.26-.89-1.92-.83-2.13-1.8-4.18-2.97-6.15-.44-.75-.8-1.54-1.09-2.37-.67-1.85-.93-3.78-.98-5.73-.02-.66-.03-1.33.04-1.99.28-2.69-.35-5.18-1.52-7.58-.91-1.87-2.06-3.59-3.42-5.17-.3-.34-.57-.71-.84-1.07-.03-.04.03-.14.06-.21,0-.02.08-.02.1,0,.11.05.23.1.32.18.23.18.45.37.66.57,2.33,2.26,4.09,4.88,5.04,8.01.45,1.47.74,2.97.96,4.49.28,1.89.37,3.79.51,5.69.07.91.15,1.82.27,2.72.11.87.41,1.69.86,2.45.32.54.64,1.06.99,1.58.53.8,1.02,1.61,1.43,2.47.29.6.6,1.18.91,1.77.62,1.15,1.44,2.12,2.5,2.89.83.61,1.73.96,2.78.91.37-.02.75,0,1.12,0,1.99-.02,3.98.07,5.96.27,1.4.14,2.8.33,4.16.71,1.05.29,2.03.71,2.95,1.28.86.53,1.57,1.22,2.14,2.05.23.34.39.74.72.97.24.1.44,0,.62-.08.63-.3,1.28-.6,1.88-.95,1.11-.65,2.19-1.34,3.28-2.02.21-.13.39-.31.58-.47.12-.1.06-.34-.1-.4-.11-.05-.23-.1-.35-.13-.65-.15-1.29-.33-1.94-.42-1.52-.22-3.04-.39-4.56-.58-2.06-.25-4.12-.47-6.17-.76-1.97-.27-3.91-.71-5.81-1.31-1.78-.56-3.56-1.11-5.33-1.66-.16-.05-.32-.09-.39-.27l-.03.03c.72-.06,1.39.19,2.08.32,2.51.49,5.02,1,7.55,1.44,2.69.46,5.37.95,8.06,1.39,1.39.23,2.78.39,4.18.56,2.42.28,4.85.52,7.27.8,1.72.2,3.43.51,5.14.84,1.44.27,2.88.27,4.32.13.71-.07,1.34-.37,1.91-.8.58.21,1.17.41,1.74.64,1.56.63,3.16.98,4.85.89.33-.02.66-.07,1.03.11.08.07.22.18.33.3.17.18.34.37.49.56,1.45,1.81,2.42,3.85,2.98,6.09.34,1.38.42,2.79.19,4.2-.2,1.23-.58,2.41-1.09,3.55-.48,1.06-1.04,2.07-1.67,3.05-.25.38-.49.77-.7,1.17-.37.69-.28,1.35.14,1.97.26.02.44-.09.57-.24.33-.37.69-.73.96-1.14,1.13-1.66,1.97-3.46,2.39-5.43.38-1.79.5-3.61.5-5.44,0-1.38-.17-2.73-.47-4.07-.14-.61-.33-1.2-.58-1.77-.56-1.29-1.42-2.33-2.7-2.98-.22-.11-.44-.23-.65-.36-.1-.06-.18-.15-.3-.25.15-.22.29-.42.44-.62.85-1.09,1.49-2.29,1.94-3.59.21-.63.43-1.26.58-1.9.61-2.58,1.2-5.16,1.8-7.75.05-.2.08-.4.11-.55-.08-.13-.1-.23-.16-.27-.9-.6-1.86-1.09-2.83-1.56-.07-.03-.16-.04-.24-.03-.07.01-.18.05-.21.11-.08.14-.15.3-.16.46-.04.5-.07.99-.09,1.49-.07,1.74-.28,3.47-.65,5.17-.52,2.44-1.28,4.8-2.15,7.13-.07.19-.16.39-.27.56-.06.08-.19.12-.28.17-.22-.2-.3-.43-.34-.68-.08-.62-.18-1.23-.23-1.85-.27-3.47-.52-6.94-.79-10.41-.05-.7-.17-1.4-.21-2.1-.11-2.03-.36-4.05-.37-6.08,0-.41-.05-.83-.1-1.24-.01-.1-.14-.19-.2-.28-.32-.04-.6-.06-.84.29,0,1.39.03,2.84.12,4.28.15,2.39.14,3.61,0,4.45-.04-.07-.1-.14-.1-.21-.12-1.03-.23-2.06-.36-3.09-.29-2.47-.49-4.95-.45-7.44,0-.21,0-.42-.05-.61-.02-.08-.17-.13-.25-.18-.17.14-.23.29-.24.46-.06.91-.14,1.82-.17,2.73-.11,3.44.03,6.88.42,10.3.31,2.76.78,5.49,1.44,8.2.19.81.38,1.61.55,2.42.05.24.11.49-.04.72-.18.08-.33.01-.42-.13-.15-.24-.3-.5-.41-.76-.7-1.64-1.39-3.28-2.07-4.93-1.34-3.21-2.71-6.41-4.25-9.53-1.15-2.34-2.3-4.68-3.32-7.09-1.5-3.56-2.74-7.2-3.61-10.96-.55-2.38-.98-4.79-1.31-7.21-.34-2.47-.48-4.95-.6-7.43-.12-2.45.08-4.89.25-7.33.05-.79.13-1.57.25-2.35.22-1.48.45-2.95.7-4.42.42-2.45,1.03-4.86,1.74-7.25.66-2.23,1.49-4.39,2.39-6.53.27-.65.56-1.29.84-1.94.05-.11.1-.13.16-.02-.01.09-.02.21-.05.33-.29.91-.61,1.8-.89,2.71-1.17,3.94-2.01,7.95-2.56,12.02-.29,2.1-.49,4.2-.61,6.31-.21,3.73-.18,7.46,0,11.19.05,1.12.15,2.23.29,3.34.23,1.81.54,3.61.88,5.4.53,2.7,1.37,5.29,2.41,7.83.05.11.13.2.21.32.05-.07.13-.14.12-.18-.06-.32-.14-.65-.21-.97-.79-3.4-1.27-6.84-1.49-10.32-.11-1.65-.17-3.31-.16-4.97.01-2.74.05-5.47.35-8.2.13-1.15.19-2.31.35-3.46.32-2.38.69-4.75,1.19-7.11.78-3.74,1.74-7.42,2.93-11.05,1.16-3.55,2.49-7.03,4.08-10.41,1.71-3.64,3.67-7.15,5.99-10.45,1.98-2.81,4.12-5.51,6.28-8.19,1.58-1.97,3.21-3.91,4.82-5.86.05-.06.13-.1.19-.15.66-.03.78-.01,1.27.34.27.19.55.38.55.79-.15.39-.49.65-.78.94-1.34,1.3-2.63,2.65-3.86,4.05-.95,1.09-1.88,2.21-2.75,3.37-1.69,2.26-3.19,4.65-4.67,7.05-1.55,2.51-2.85,5.15-4.13,7.8-1.77,3.67-3.21,7.46-4.47,11.32-.72,2.21-1.31,4.45-1.85,6.71-.64,2.7-1.23,5.41-1.67,8.16-.31,1.92-.55,3.85-.76,5.79-.2,1.86-.3,3.72-.37,5.58-.06,1.61-.04,3.23-.04,4.85,0,2.7.21,5.39.55,8.06.3,2.3.76,4.58,1.33,6.83.72,2.85,1.41,5.71,2.12,8.56.06.24.15.47.24.7.02.04.11.05.19.08.26-1.4.36-2.81.47-4.21.04-.53-.01-1.08-.06-1.61-.1-1.12-.3-2.21-.55-3.31-.46-2.06-.84-4.14-1.17-6.23-.37-2.34-.53-4.7-.55-7.06-.04-3.07.16-6.13.6-9.17.37-2.54.81-5.07,1.42-7.57,1.07-4.39,2.37-8.71,4.09-12.9.61-1.49,1.17-3,1.76-4.51.01-.03,0-.08,0-.12.06-.03.15-.04.18-.08.05-.07.01-.15-.07-.17-.02,0-.07.04-.08.07-.01.07,0,.14,0,.21-.28.04-.56.08-.82.12-.09-.05-.17-.09-.22-.14-.05-.06-.08-.14-.14-.25.04-.13.07-.29.14-.44.07-.15.16-.29.26-.42.07-.1.16-.2.26-.26.32-.17.65-.32,1-.5-.01-.17-.04-.34-.03-.5.02-.69.46-1.03,1.16-.92.22.04.37.17.46.45-.09.13-.17.33-.31.47-.2.21-.45.37-.65.57-.11.11-.17.27-.26.42.21.11.39.2.59.31-.01.17,0,.33-.04.49-.13.44-.27.87-.42,1.3-.73,2.03-1.38,4.08-1.99,6.15-1.09,3.7-2,7.44-2.64,11.24-.24,1.43-.51,2.85-.64,4.3-.08.87-.21,1.73-.29,2.59-.14,1.53-.29,3.05-.36,4.58-.08,1.57-.1,3.15-.11,4.72-.02,3.32.06,6.63.31,9.94.01.18-.03.39.18.55.05-.12.12-.23.13-.34.08-.87.15-1.73.22-2.6.1-1.36.17-2.73.31-4.09.18-1.69.43-3.37.64-5.05.32-2.51.79-4.99,1.35-7.46,1.05-4.65,2.39-9.22,4.04-13.69,1.03-2.8,2.12-5.57,3.26-8.33,1.75-4.21,3.61-8.37,5.74-12.4,2.33-4.41,4.95-8.62,8.05-12.53,2.47-3.13,5.21-6.01,8.27-8.57,3.34-2.79,6.85-5.36,10.53-7.7.73-.47,1.47-.93,2.2-1.41,1.31-.87,2.61-1.76,3.92-2.63,2.49-1.65,4.97-3.3,7.39-5.05,2.65-1.92,5.23-3.93,7.81-5.96,1.4-1.1,2.75-2.27,4.08-3.45,2.15-1.91,4.01-4.08,5.62-6.45.77-1.13,1.51-2.28,2.26-3.42.12-.18.17-.37.09-.59.14.02.23-.05.3-.16.28-.46.55-.92.82-1.38,1.12-1.88,2.16-3.81,2.94-5.87.25-.66.55-1.29.8-1.95.22-.58.42-1.17.59-1.76.26-.91.5-1.83.75-2.75.29-1.07.66-2.13.58-3.14.1-.49.51-.71.46-1.13.04-.01.09,0,.12-.03.33-.33.5-.75.62-1.19.03-.1-.03-.23-.07-.45-.27.62-.5,1.13-.65,1.69-.43.09-.69.4-.99.7-.02.26-.04.51-.04.75,0,.25.04.49.06.74.05.51-.04.98-.28,1.43-.3.59-.58,1.19-.84,1.79-.12.27-.36.43-.54.65.05.52.26,1.04.14,1.59-.11.54-.44.97-.73,1.37-.01,1.02-.49,1.77-1.16,2.37q-.16,1.36-1.04,2.25c-.35,1.17-1.15,2.19-1.84,3.32.14.38.14.78.03,1.19-.45.3-.83.69-1.14,1.13-.76,1.1-1.71,2.02-2.64,2.96-1.14,1.15-2.36,2.2-3.7,3.12-1.23.85-2.43,1.73-3.64,2.59-.98.69-1.96,1.39-2.95,2.07-.72.5-1.46.94-2.26,1.29-.15.07-.33.12-.42.24-.32.41-.79.59-1.22.84-1.58.91-3.16,1.81-4.73,2.73-2.39,1.4-4.82,2.75-7.15,4.27-.03.02-.07.05-.11.06-.11.03-.23.05-.28-.14.65-.84,1.43-1.58,2.21-2.32.79-.75,1.7-1.31,2.72-1.69.54-.21,1.07-.44,1.59-.7.22-.1.4-.28.56-.4.1-.33.19-.61.28-.9,1.11-.74,2.44-.73,3.63-1.09.2-.19.39-.36.61-.57.48-.11,1-.23,1.52-.35-.03-.15-.07-.3-.1-.45.15-.28.44-.37.69-.5,1.39-.74,2.78-1.46,4.17-2.21,1.57-.85,3.04-1.86,4.38-3.03.97-.84,1.95-1.67,2.92-2.51.47-.41.92-.83,1.38-1.25.15-.14.14-.19-.03-.38-1.25.73-2.44,1.56-3.53,2.52-1.34,1.18-2.8,2.19-4.37,3.05-2.25,1.23-4.57,2.33-6.94,3.32-2.21.93-4.45,1.81-6.68,2.7-3.62,1.44-7.17,3.02-10.58,4.91-3.81,2.11-7.53,4.35-11.05,6.91-.54.39-1.08.77-1.62,1.15-.27.18-.56.34-.69.41-.53.12-.75-.29-1.11-.22l.04.04c-.05-.1-.08-.23-.16-.31-.37-.34-.81-.57-1.27-.76-.07-.03-.1-.18-.16-.29,1.4-.49,2.83-.79,3.99-1.62.19-.34.35-.63.49-.87.16-.08.27-.14.39-.19,1.81-.73,3.47-1.75,5.15-2.73.17-.1.32-.25.45-.35.06-.3.11-.54.15-.77.37-.45.88-.65,1.37-.86,1.14-.49,2.29-.97,3.43-1.45.5-.21.99-.42,1.41-.78.58-.5,1.25-.8,1.98-1,.56-.16,1.12-.31,1.68-.46,1.08-.29,2.13-.68,3.13-1.19.33-.17.67-.34.89-.66.25-.36.6-.57,1.01-.69.55-.16,1.11-.33,1.68-.44.7-.14,1.36-.35,2-.65.67-.32,1.37-.59,2.07-.84,4.11-1.48,7.96-3.47,11.56-5.95,1.16-.8,2.31-1.61,3.54-2.3.17-.1.32-.24.48-.37.02-.02,0-.08.01-.12.2.07.4.04.57-.07.22-.15.55-.12.67-.43.08,0,.15,0,.23-.01.13-.01.14-.06.05-.13-.02-.02-.09-.01-.11,0-.05.05-.09.12-.14.17-.46-.05-.83.15-1.2.38-.03.02-.03.07-.05.11-.16.02-.34.01-.48.08-.63.3-1.27.61-1.88.95-1.99,1.11-4.01,2.16-6.07,3.14-1.72.82-3.46,1.6-5.27,2.2-2.16.72-4.34,1.39-6.51,2.08-.95.3-1.9.59-2.83.94-2.56.96-5.11,1.95-7.66,2.92-2.05.78-4.04,1.73-6.18,2.26-.1.02-.17.14-.32.28.49.06.9.1,1.31.15-.03.09-.03.19-.07.21-.29.15-.6.28-.89.43-.55.29-1.11.55-1.74.64-.1.02-.19.12-.29.18.12.13.22.25.31.36-.04.04-.07.08-.11.09-1.2.46-2.44.78-3.67,1.14-.19.05-.41.02-.61-.02-.24-.05-.46-.16-.66-.23-.08-.24.01-.37.16-.46,1.11-.72,2.22-1.45,3.34-2.16.91-.57,1.85-1.11,2.76-1.68,3.85-2.4,7.91-4.34,12.19-5.83,2.94-1.02,5.92-1.87,8.91-2.74,4.39-1.27,8.66-2.82,12.74-4.9,1.44-.74,2.86-1.51,4.24-2.35,2.04-1.23,3.6-2.91,4.72-5,1.01-1.86,1.85-3.79,2.54-5.8.75-2.2,1.35-4.44,1.99-6.67.39-1.36.95-2.65,1.7-3.85.6-.96,1.34-1.79,2.22-2.5.81-.65,1.66-1.24,2.58-1.73,1.32-.7,2.59-1.48,3.8-2.35,1.56-1.13,2.67-2.59,3.28-4.42.22-.67.41-1.35.61-2.02.21-.71.41-1.43.64-2.14.57-1.75,1.71-3.01,3.37-3.79.56-.26,1.14-.49,1.71-.73.76-.33,1.52-.65,2.28-.99.49-.22.96-.5,1.34-.88.08-.08.07-.15-.05-.21-1.34.5-2.75.82-4.17,1.14-.32.07-.64.16-.96.26-1.75.56-3.05,1.65-3.79,3.34-.25.57-.46,1.15-.64,1.75-.2.67-.35,1.36-.53,2.04-.25.96-.55,1.91-.98,2.81-.34.72-.76,1.37-1.29,1.97-.92,1.03-1.98,1.88-3.22,2.51-.81.41-1.63.81-2.44,1.24-2.24,1.18-3.89,2.93-4.98,5.21-.5,1.05-.94,2.12-1.27,3.24-.32,1.11-.65,2.23-.96,3.35-.72,2.6-1.57,5.15-2.73,7.59-1.22,2.56-2.96,4.68-5.38,6.21-.7.44-1.42.85-2.15,1.25-1.06.57-2.15,1.07-3.27,1.51-2.5.99-5.02,1.95-7.51,2.97-2.84,1.17-5.79,2-8.77,2.73-2.13.52-4.26,1.05-6.35,1.74-4.54,1.49-8.91,3.36-13.08,5.7-4.12,2.32-8.11,4.84-11.93,7.64-3.71,2.73-7.32,5.57-10.71,8.69-3.21,2.96-6.1,6.21-8.75,9.67-1.71,2.24-3.24,4.62-4.67,7.04-2.03,3.43-3.66,7.07-4.99,10.82-1.36,3.83-2.37,7.76-3.12,11.76-.47,2.49-.84,4.98-1.1,7.5-.27,2.6-.4,5.21-.48,7.82-.1,3.32.04,6.63.36,9.93.25,2.61.71,5.17,1.33,7.71.54,2.22,1.28,4.37,2.04,6.52.99,2.77,2.14,5.48,3.32,8.17.57,1.29,1.11,2.59,1.64,3.89.89,2.19,1.76,4.38,2.63,6.58,1.12,2.85,2.2,5.72,3.16,8.64.4,1.22.89,2.41,1.34,3.61.15.39.3.77.44,1.12-.12.22-.27.27-.42.16-.16-.12-.33-.26-.44-.43-.93-1.47-1.87-2.93-2.76-4.43-1.76-2.96-3.25-6.06-4.78-9.14-.75-1.52-1.49-3.05-2.26-4.57-1.32-2.58-2.72-5.13-4.28-7.57-.15-.24-.33-.47-.49-.71-.18.17-.11.32-.05.46.49,1.19.99,2.37,1.48,3.56,1.3,3.14,2.7,6.23,4.16,9.31,1.19,2.51,2.44,4.99,3.88,7.37,1.19,1.96,2.53,3.79,4.09,5.47.37.4.71.81.96,1.29ZM187.97,18.14s-.07.04-.11.05c-.06.03-.11.06-.17.08.03.01.08.04.09.03.06-.05.1-.12.15-.18.07-.02.14-.03.29-.07-.14.05-.2.06-.26.08Zm-113.38,200.31q-.29.15-.21.54c-.13-.05-.23-.02-.25.13,0,.03.02.07.04.1.03-.02.08-.02.09-.05.04-.07.06-.14.09-.21.17-.14.25-.31.21-.53.28-.06.3-.26.26-.49.07-.03.17-.04.21-.09.15-.2.28-.41.4-.63,1.23-2.11,2.45-4.23,3.7-6.33,2.11-3.57,4.14-7.18,6.14-10.81,2.3-4.18,4.54-8.38,6.72-12.62,1.94-3.76,3.88-7.51,5.77-11.29,2.49-4.97,4.95-9.94,7.39-14.93,2.65-5.44,5.19-10.93,7.63-16.47,2.29-5.19,4.6-10.38,6.92-15.56,1.12-2.5,2.28-4.97,3.42-7.46.99-2.15,2.07-4.25,3.06-6.39,1.45-3.12,2.98-6.2,4.51-9.28,1.9-3.82,3.95-7.57,6.15-11.23.14-.24.32-.46.48-.7.18.2.05.34-.02.48-1.27,2.52-2.51,5.04-3.82,7.54-1.85,3.52-3.68,7.06-5.44,10.62-1.63,3.31-3.32,6.59-4.9,9.92-1.58,3.33-3.09,6.7-4.55,10.08-1.66,3.84-3.23,7.72-4.84,11.59-1.22,2.91-2.43,5.81-3.68,8.7-1.75,4.03-3.49,8.06-5.3,12.07-2.02,4.46-4.08,8.89-6.17,13.31-2.07,4.38-4.16,8.76-6.33,13.1-2.74,5.49-5.54,10.95-8.34,16.4-1.53,2.99-3.11,5.95-4.94,8.77-.14.21-.26.43-.36.65-.03.05.03.14.06.26.13-.13.25-.23.34-.35.77-1.02,1.55-2.05,2.31-3.08,2.02-2.73,3.94-5.54,5.77-8.4,3.59-5.62,7.16-11.27,10.64-16.96,2.38-3.89,4.75-7.78,7.11-11.69,1.44-2.38,2.84-4.77,4.26-7.16.17-.28.34-.57.54-.83.06-.08.21-.09.32-.13,0,0-.01-.03-.01-.03-.12.21-.25.43-.37.65-.37.74-.73,1.49-1.11,2.22-1.66,3.16-3.3,6.32-4.99,9.46-2.53,4.71-5.14,9.38-7.81,14.01-2.41,4.16-4.84,8.31-7.38,12.39-2.3,3.69-4.65,7.36-6.97,11.04-.51.8-1.03,1.6-1.49,2.42.08.08.15.17.18.16.15-.06.3-.13.43-.23,2.82-2.12,5.49-4.42,7.97-6.93,2.33-2.36,4.56-4.81,6.62-7.42,2.49-3.16,4.77-6.47,6.96-9.84,2.71-4.17,5.23-8.46,7.64-12.81,3.87-7.01,7.32-14.22,10.33-21.64,2.07-5.11,3.96-10.29,5.55-15.57,1.49-4.96,2.82-9.97,4.05-15,.81-3.3,1.61-6.6,2.41-9.9.8-3.3,1.52-6.62,2.19-9.95.45-2.23.89-4.47,1.33-6.7.46-2.36,1.08-4.68,1.75-6.99.69-2.4,1.6-4.71,2.86-6.87,1.92-3.3,3.46-6.79,4.9-10.32.63-1.53,1.26-3.07,1.96-4.57.83-1.81,1.79-3.55,2.96-5.17,1-1.38,2.15-2.63,3.37-3.81,1.55-1.5,3.03-3.06,4.37-4.76,1.39-1.76,2.7-3.57,3.74-5.56.33-.62.68-1.23,1.03-1.85.7-1.23,1.51-2.38,2.47-3.42.34-.37.67-.74,1.01-1.1.87-.89,1.65-1.86,2.38-2.87,1.67-2.33,3.49-4.53,5.43-6.64,1.21-1.31,2.47-2.57,3.79-3.77,2.09-1.91,4.41-3.5,6.87-4.89,2.74-1.56,5.6-2.89,8.51-4.1,3.18-1.32,6.4-2.53,9.67-3.58,3.83-1.23,7.73-2.18,11.69-2.93,1.14-.21,2.28-.45,3.39-.79,2.34-.72,4.6-1.65,6.76-2.8,3.49-1.86,6.71-4.12,9.76-6.62.51-.42,1-.87,1.48-1.32.08-.07.1-.21.15-.33-.21-.28-.5-.46-.76-.65-.06-.04-.15-.04-.26-.07-.12.07-.26.15-.39.25-1.42,1.01-2.84,2.02-4.24,3.05-3.48,2.55-7.27,4.45-11.48,5.47-1.65.4-3.31.76-4.97,1.13-1.62.36-3.24.71-4.83,1.16-2.91.83-5.76,1.84-8.57,2.95-3.55,1.41-6.99,3.04-10.32,4.89-3.41,1.9-6.68,4-9.84,6.3-1.98,1.44-3.88,2.99-5.64,4.69-1.43,1.38-2.81,2.82-4.18,4.26-.91.96-1.8,1.95-2.65,2.96-1.01,1.21-2.04,2.4-3.15,3.52-1.24,1.24-2.24,2.66-3.11,4.18-.31.54-.62,1.08-.94,1.61-.76,1.25-1.71,2.34-2.9,3.21-.5.37-1,.74-1.5,1.11-1.17.87-2.22,1.86-3.16,2.98-1.25,1.5-2.35,3.11-3.37,4.77-1.58,2.58-3.02,5.24-4.45,7.91-1.1,2.04-2.26,4.06-3.49,6.03-1.08,1.72-2.16,3.44-3.22,5.17-2.29,3.76-4.88,7.3-7.84,10.57-1.19,1.32-2.35,2.68-3.47,4.07-3.11,3.84-5.92,7.89-8.69,11.98-2.79,4.12-5.56,8.25-8.35,12.37-1.93,2.85-3.9,5.67-6.11,8.32-1.46,1.76-2.75,3.63-3.96,5.57-2.78,4.43-5.28,9.02-7.67,13.66-1.67,3.24-3.25,6.53-4.84,9.81-2.34,4.81-4.56,9.67-6.63,14.6-2.53,6-4.87,12.07-6.86,18.27-1.06,3.31-2.09,6.64-2.99,10-.39,1.48-.74,2.98-1.03,4.48-.09.49-.15.98-.1,1.44.15.12.26.12.36.02.3-.31.44-.7.58-1.09.44-1.2.89-2.41,1.29-3.63.98-2.95,1.95-5.9,3.1-8.79,2.04-5.13,4.33-10.14,6.86-15.03.27-.51.55-1.02.84-1.52.05-.09.16-.14.25-.22.01.12.05.2.02.27-1.12,3.3-2.23,6.59-3.36,9.89-1.67,4.9-3.36,9.8-5.02,14.71-1.17,3.45-2.31,6.91-3.46,10.38-.33.98-.62,1.98-.92,2.97-.04.14-.09.31.08.46.08-.15.17-.29.23-.44.3-.73.59-1.46.89-2.19.83-1.99,1.63-3.99,2.5-5.96,2.08-4.7,4.19-9.38,6.31-14.06,1.69-3.74,3.3-7.51,4.82-11.32,2.47-6.2,5.13-12.31,8.09-18.3,2.41-4.88,5.13-9.57,8.24-14.03.57-.82,1.18-1.6,1.78-2.4.12-.16.25-.32.47-.37.02.07.08.17.06.22-.1.22-.22.44-.35.66-1.73,3.02-3.41,6.08-4.99,9.17-2.29,4.46-4.44,8.99-6.46,13.58-2.72,6.14-5.19,12.38-7.4,18.72-.75,2.15-1.46,4.32-2.25,6.45-2.02,5.45-4.44,10.72-6.98,15.93-.18.37-.37.74-.54,1.12-.06.14-.04.32-.06.48-.28.08-.3.28-.23.52Zm36.55,10.94c-.09.03-.19.07-.28.1.03,0,.08.04.09.03.06-.05.11-.11.16-.17.21,0,.45.06.53-.23.16-.01.33.01.48-.04.35-.12.7-.27,1.04-.41,4.85-2.02,9.34-4.64,13.56-7.75,2.04-1.5,3.98-3.12,5.87-4.8,2.56-2.26,4.86-4.76,6.95-7.44,2.94-3.77,5.42-7.83,7.52-12.13,3.2-6.52,5.41-13.35,6.84-20.45.47-2.31.84-4.65,1.11-6.99.3-2.59.56-5.19.67-7.8.02-.54.04-1.08.08-1.61.22-3.19.17-6.38.06-9.57-.12-3.44-.28-6.88-.39-10.31-.05-1.54-.15-3.07-.34-4.59-.25-2.06-.62-4.1-1.08-6.12-.5-2.22-.94-4.46-1.13-6.74-.13-1.53-.49-3.03-1.1-4.45-.36-.84-.73-1.67-1.12-2.5-.63-1.35-1.28-2.69-1.75-4.11-.97-2.94-1.32-5.98-1.38-9.06-.03-1.74.13-3.48.36-5.2.38-2.85,1.02-5.62,2.05-8.3.94-2.44,1.85-4.89,2.93-7.26,1.23-2.7,2.8-5.17,4.94-7.25.54-.52,1.04-1.07,1.57-1.6.91-.92,1.69-1.94,2.37-3.03.44-.7.85-1.42,1.26-2.14.51-.9,1-1.81,1.52-2.71,1.09-1.91,2.19-3.81,3.3-5.7.52-.89,1.07-1.78,1.65-2.64,1.39-2.07,2.89-4.04,4.46-5.98,3.24-3.99,6.99-7.41,11.28-10.24,3.18-2.1,6.36-4.21,9.52-6.34,2.14-1.44,4.35-2.74,6.67-3.85.93-.45,1.87-.89,2.81-1.33,2.14-1,4.34-1.85,6.61-2.54,1.94-.59,3.89-1.16,5.84-1.73,4.47-1.31,8.77-3.02,12.87-5.23,2.67-1.44,5.22-3.06,7.55-5.01.32-.27.64-.52.97-.78.3-.23.6-.45.91-.65.35-.22.71-.42,1.1-.64-.1-.12-.16-.25-.25-.28-.62-.24-1.24-.46-1.86-.7-.16-.06-.3-.12-.49-.06-.69.69-1.39,1.39-2.1,2.09-2.35,2.3-4.96,4.27-7.88,5.81-2.35,1.24-4.8,2.25-7.35,3-2.58.75-5.19,1.44-7.78,2.14-2.96.8-5.93,1.54-8.89,2.36-2.63.73-5.22,1.62-7.75,2.67-2.15.89-4.22,1.92-6.24,3.07-2.41,1.38-4.8,2.78-7.07,4.4-2.8,2-5.48,4.16-7.98,6.53-1.83,1.75-3.56,3.59-5.12,5.59-2.12,2.71-4.05,5.56-5.97,8.42-1.6,2.37-3.08,4.82-4.78,7.12-1.09,1.47-2.23,2.89-3.52,4.18-.59.59-1.18,1.17-1.76,1.76-1.28,1.31-2.44,2.7-3.45,4.24-1.44,2.19-2.63,4.51-3.78,6.85-.42.85-.78,1.74-1.13,2.62-.25.61-.47,1.24-.65,1.88-.52,1.85-1.28,3.58-2.16,5.28-.63,1.21-1.24,2.44-1.76,3.7-1.73,4.18-3.09,8.48-4.1,12.9-.57,2.5-1.05,5.03-1.53,7.55-.72,3.83-1.52,7.64-2.42,11.43-1.53,6.45-3.21,12.86-5.02,19.24-1.15,4.03-2.35,8.03-3.68,12-1.8,5.39-3.78,10.71-5.99,15.94-1.39,3.29-2.94,6.49-4.83,9.53-.65,1.06-1.24,2.16-1.81,3.26-.88,1.7-1.86,3.33-3.02,4.85-.93,1.22-1.85,2.45-2.79,3.66-1.3,1.67-2.47,3.43-3.43,5.32-.26.52-.54,1.02-.83,1.53-1.08,1.92-2.3,3.74-3.59,5.52-1.9,2.62-3.92,5.14-6.33,7.32-.06.05-.12.13-.14.2-.01.04.06.1.1.16.26-.06.43-.24.6-.42.45-.49.94-.93,1.52-1.27.24-.14.42-.39.6-.62.15-.19.27-.41.4-.63.33-.18.66-.36.96-.53.23-.28.43-.54.64-.8.24-.3.62-.4.92-.57.14-.32.25-.64.41-.92.19-.32.42-.62.65-.91.37-.49.4-.5.75-.52.02.16.04.33.07.49.08.47.01.91-.24,1.31-.34.53-.57,1.1-.74,1.71-.09.33-.25.62-.52.83-.66.52-1.16,1.17-1.66,1.84-.27.36-.6.69-.91,1.02-.51.54-1.03,1.08-1.55,1.61q-.43.45-1.22.55c-.16.14-.36.29-.54.46-.81.77-1.69,1.47-2.63,2.08-.66.43-1.3.89-1.94,1.35-2.78,1.95-5.65,3.77-8.63,5.42-.51.28-1.01.57-1.51.86-.08.05-.13.16-.2.24.07.03.11.07.14.07.12-.02.24-.05.36-.1,4.34-1.68,8.44-3.85,12.33-6.41,1.31-.87,2.59-1.79,3.87-2.71,2.13-1.52,4.11-3.23,6-5.03,1.99-1.88,3.89-3.84,5.73-5.87,2.9-3.19,5.68-6.49,8.25-9.95,4.33-5.82,7.83-12.1,10.52-18.83,1.74-4.35,3.09-8.84,4.35-13.35.76-2.71,1.42-5.45,2.13-8.18,1.38-5.29,2.51-10.64,3.68-15.98.46-2.1.92-4.21,1.39-6.31.56-2.51,1.14-5.01,1.69-7.52.38-1.74.75-3.48.99-5.25.16-1.15.3-2.3.43-3.45.1-.86.13-1.74.25-2.6.27-1.89.39-3.79.66-5.68.3-2.13.61-4.26,1.02-6.38.68-3.43,1.66-6.76,2.97-9.99.91-2.23,1.98-4.38,3.14-6.49.64-1.16,1.28-2.32,1.91-3.49,1.17-2.14,2.36-4.28,3.51-6.44,1.1-2.06,2.46-3.93,4-5.68,1.24-1.4,2.37-2.88,3.32-4.5.65-1.11,1.28-2.23,1.89-3.36.9-1.68,1.82-3.35,2.87-4.95,1.57-2.39,3.15-4.78,4.77-7.13,1.68-2.42,3.5-4.73,5.59-6.82,2.49-2.5,5.14-4.82,7.93-6.97,1.55-1.19,3.19-2.23,4.93-3.13.96-.5,1.92-.98,2.87-1.48,1.95-1.01,3.87-2.08,5.74-3.24.92-.57,1.89-1.03,2.93-1.33.8-.23,1.6-.45,2.44-.38.06,0,.11.07.17.11-.05.2-.23.24-.38.29-1.69.6-3.27,1.4-4.82,2.29-2.95,1.69-5.85,3.46-8.7,5.32-2.51,1.63-4.9,3.39-7.18,5.33-3.61,3.06-7.03,6.31-10.07,9.96-1.7,2.05-3.26,4.18-4.54,6.52-.99,1.82-2.02,3.62-3.02,5.43-1.27,2.29-2.7,4.47-4.3,6.54-1.86,2.39-3.54,4.91-5,7.57-1.72,3.12-3.45,6.24-5.37,9.24-.92,1.43-1.66,2.96-2.27,4.56-.92,2.4-1.86,4.79-2.74,7.21-.71,1.95-1.29,3.94-1.66,5.98-.34,1.88-.66,3.75-1.02,5.62-.49,2.57-.77,5.16-1.13,7.75-.05.37-.08.74-.13,1.11-.22,1.56-.44,3.12-.65,4.68-.28,2.14-.57,4.27-.92,6.4-.54,3.23-1.23,6.43-1.95,9.62-1.25,5.58-2.59,11.14-4,16.68-1.35,5.34-2.77,10.67-4.33,15.95-1.64,5.58-3.75,10.98-6.48,16.13-1.96,3.71-4.13,7.29-6.7,10.6-3.21,4.13-6.63,8.07-10.31,11.79-4.19,4.23-8.75,7.99-13.78,11.18-3.08,1.96-6.31,3.65-9.59,5.24-1.9.93-3.81,1.83-5.71,2.74-1.42.68-2.84,1.36-4.26,2.03,0,.08-.01.18.03.23.33.37.67.73,1.17.89.17-.05.33-.09.48-.15.65-.27,1.29-.56,1.94-.84,3.89-1.68,7.61-3.67,11.23-5.86,2.84-1.71,5.64-3.49,8.4-5.33,2.55-1.7,5.05-3.48,7.46-5.38,2.99-2.37,5.95-4.78,8.83-7.27.34-.3.72-.56,1.08-.83.08-.06.15-.02.18.12-.29.37-.62.73-.98,1.07-1.47,1.4-2.93,2.82-4.43,4.18-2,1.81-4.04,3.57-6.06,5.35-2.18,1.92-4.5,3.66-6.95,5.23-3.03,1.95-6.14,3.78-9.34,5.45-.77.4-1.53.82-2.3,1.23-.11.06-.2.14-.19.28-.45,0-.44,0-.99.39.46,0,.64-.08.98-.41.21.07.41.01.6-.07,1.32-.59,2.67-1.14,3.97-1.77,3.24-1.57,6.45-3.21,9.51-5.12,2.43-1.51,4.81-3.09,6.95-5.01.15-.14.31-.28.49-.39.39-.25.71-.56.98-.94.12-.17.27-.31.55-.34.21.13.45.28.69.44.24.15.48.32.73.46.04.02.14-.05.21-.08-.17-.37-.62-.57-.63-1.1.07-.09.14-.24.26-.35.25-.22.51-.43.78-.62,2.16-1.53,4.33-3.07,6.5-4.59.68-.47,1.39-.9,2.09-1.34.05-.03.15.02.25.04-.08.1-.13.2-.22.27-.89.82-1.68,1.72-2.3,2.76-.35.58-.83,1.03-1.41,1.37-.43.25-.83.54-1.23.81-.26.51-.41,1.05-.99,1.36-.18.03-.42.07-.66.12-.34.07-.63.24-.77.56-.26.59-.71,1.01-1.22,1.37-.71.51-1.42,1.01-2.11,1.53-2.69,2.01-5.44,3.92-8.32,5.66-.64.39-1.27.78-1.91,1.17-.18.11-.35.22-.51.35-.05.04-.04.14-.06.22-.23-.07-.42-.02-.53.22-.47.1-.86.33-1.17.69-.02.02,0,.08,0,.11-.07,0-.14,0-.22,0-.11,0-.14.04-.09.12.01.02.07,0,.1,0,.06-.04.11-.09.17-.13.38-.2.76-.39,1.13-.6.04-.02.03-.13.05-.2.24.08.43.05.53-.22.22.03.4-.07.58-.17,1.13-.61,2.27-1.2,3.38-1.84,3.84-2.23,7.52-4.7,11.01-7.45,1.2-.95,2.39-1.92,3.56-2.91,1.23-1.05,2.44-2.12,3.63-3.22,2.26-2.08,4.42-4.25,6.53-6.49,2.28-2.41,4.5-4.87,6.52-7.51,2.07-2.7,4.03-5.47,5.64-8.48.1-.18.23-.34.36-.5.03-.03.12,0,.2,0-.04.81-.3,1.55-.65,2.25-.53,1.08-1.07,2.15-1.67,3.19-1.87,3.24-4.05,6.27-6.38,9.18-3.32,4.15-7.06,7.92-11.06,11.43-3.55,3.12-7.29,6.01-11.24,8.62-2.21,1.46-4.41,2.95-6.81,4.09-.04.02-.08.03-.1.07-.03.04-.04.1-.06.15.06.01.1.04.13.03.8-.2,1.58-.48,2.34-.82,3.64-1.67,7-3.78,10.09-6.3,2.57-2.1,5.09-4.25,7.61-6.4,3.19-2.73,6.18-5.65,8.88-8.86,2.65-3.14,5.04-6.47,7.06-10.06.49-.87.95-1.75,1.4-2.64.96-1.93,1.95-3.84,2.85-5.8,1.96-4.27,3.4-8.72,4.66-13.23.8-2.83,1.52-5.68,2.15-8.56.68-3.12,1.21-6.26,1.65-9.42.23-1.6.44-3.2.62-4.81.21-1.94.42-3.87.54-5.82.12-1.9.16-3.81.2-5.72.02-.83-.02-1.66-.05-2.49-.03-.95-.08-1.91-.12-2.86-.03-.83-.04-1.66-.09-2.49-.1-1.91-.1-3.81-.02-5.72.03-.7.07-1.41.05-2.11-.02-1.37-.09-2.73-.12-4.1-.03-1.45-.22-2.89-.43-4.33-.2-1.39-.43-2.78-.67-4.17-.51-2.91-.69-5.84-.46-8.79.05-.62.1-1.24.17-1.86.18-1.44.51-2.86.86-4.26.47-1.85,1.05-3.67,1.91-5.38.32-.63.67-1.24,1.03-1.84.08-.13.22-.23.34-.35.05.07.09.11.09.14,0,.12-.01.24-.05.35-.95,2.62-1.66,5.3-2.21,8.02-.38,1.87-.61,3.76-.63,5.67-.02,1.83.13,3.65.35,5.46.24,1.97.52,3.94.71,5.92.09.95.17,1.9.3,2.84.11.82.17,1.65.17,2.48,0,1.53-.02,3.07-.02,4.6,0,1.45,0,2.9.03,4.35.04,1.53.15,3.06.39,4.58.34,2.18.43,4.37.36,6.57-.07,2.24-.36,4.46-.68,6.68-.37,2.63-.65,5.26-.85,7.91-.15,2.02-.26,4.05-.47,6.07-.32,3.06-.87,6.07-1.68,9.03-.99,3.6-2.21,7.12-3.57,10.6-2.19,5.6-4.63,11.09-7.49,16.39-.59,1.09-1.19,2.19-1.84,3.24-1.41,2.25-2.89,4.45-4.46,6.59-.51.7-1.01,1.41-1.5,2.1.11.19.23.15.33.07,1.7-1.39,3.48-2.68,5.11-4.16.08-.07.15-.06.23.05-.35.44-.69.91-1.06,1.35-.32.38-.65.75-1,1.11-1.5,1.55-3.06,3.03-4.73,4.41-2.55,2.11-5.08,4.26-7.74,6.24-3.26,2.43-6.6,4.73-10.05,6.87-2.64,1.64-5.32,3.21-8.15,4.5-.94.43-1.88.85-2.82,1.27,0,.24.07.37.2.36.12-.01.25,0,.36-.04,1.15-.37,2.26-.82,3.35-1.31,2.57-1.16,5.08-2.43,7.55-3.8,3.63-2.01,7.17-4.16,10.45-6.71.23-.18.47-.34.72-.49.25-.16.6-.14.81.06.27.26.5.55.75.82.08.08.15.06.21-.05-.13-.46-.26-.93-.38-1.38.17-.6.59-.95,1.01-1.27.25-.19.48-.47.92-.41.44.43.9.9,1.37,1.36.02.02.02.08.03.12-.01.18-.15.29-.27.39-.95.8-1.92,1.58-2.97,2.25-.73.47-1.46.94-2.19,1.42-2.35,1.56-4.73,3.06-7.19,4.45-3.03,1.71-6.16,3.23-9.35,4.63-.23.1-.45.2-.67.32-.05.03-.06.14-.09.21-.18,0-.36,0-.53.04-.07.02-.12.15-.18.23-.09.01-.19.03-.11.02-.07.04,0,0,.08-.05.12,0,.24,0,.36-.01.16-.02.31-.07.36-.25.34.1.66.01.98-.07,2.65-.7,5.23-1.57,7.69-2.8,2.46-1.22,4.78-2.65,7.02-4.22,1.87-1.31,3.66-2.72,5.44-4.14.84-.67,1.67-1.36,2.4-2.16.05-.06.14-.08.21-.11h.74c.46-.19.65-.5.5-.99-.02-.08,0-.16,0-.27.09-.27.31-.46.57-.6.33-.17.64-.4,1.04-.31.27.03.37.46.72.31.02-.13.05-.25.06-.38.05-.84.44-1.5,1.05-2.04.12-.1.28-.15.32-.17.36-.03.51.31.82.12.03-.33.07-.7.09-.97.48-.48.91-.87,1.29-1.3.64-.71,1.26-1.43,1.87-2.17.87-1.06,1.73-2.12,2.57-3.2,1.29-1.68,2.44-3.45,3.57-5.24,2.29-3.62,4.19-7.43,5.83-11.38,1.14-2.76,2.06-5.6,2.96-8.44.38-1.18.7-2.38,1.05-3.58.07-.24.13-.48.38-.65.54.1.95.41,1.31.86-.03.21-.04.41-.09.61-.47,2.02-1.03,4.01-1.67,5.98-1.27,3.91-2.83,7.69-4.65,11.38-1.45,2.94-3.04,5.8-4.86,8.52-2.57,3.83-5.5,7.37-8.81,10.59-.89.87-1.8,1.72-2.7,2.57-1.97,1.84-4.03,3.57-6.18,5.2-3.11,2.36-6.34,4.52-9.79,6.35-.18.09-.34.22-.5.34-.02.02-.02.08-.02.12-.23-.05-.43-.03-.51.24ZM186.04,20.66c.21,0,.36-.14.51-.26.03-.03.04-.09.06-.15-.45.12-.45.13-.54.44-.47,0-.61.08-.77.47-.17-.05-.32-.02-.47.07-1.49.87-3.02,1.68-4.36,2.79-.38.31-.79.59-1.25.78-.05.02-.13-.05-.23-.1.15-.16.28-.31.42-.46.34-.35.69-.71,1.03-1.06.09-.09.12-.2.07-.33.07.01.14.04.2.03.1-.01.12-.08.06-.14-.02-.02-.08-.03-.1-.01-.05.04-.09.1-.14.16-.56.19-1.04.52-1.48.88-1.28,1.05-2.56,2.1-3.82,3.17-.35.29-.65.64-.95.97-.25.28-.46.59-.53.96-.01.05.07.12.11.18.27.02.46-.16.67-.29.92-.55,1.84-1.12,2.75-1.67l-.03-.03c.05.13.03.25-.07.34-.34.3-.68.61-1.05.87-1.14.79-2.02,1.83-2.92,2.87-.13.15-.2.36-.28.55-.07.15.05.3.35.42.36-.26.67-.6.98-.93,1.06-1.12,2.23-2.11,3.53-2.94.38-.25.77-.49,1.14-.75.62-.42,1.25-.82,1.84-1.27.46-.35.88-.76,1.3-1.15.2-.18.25-.42.21-.68.39-.26.77-.52,1.16-.8.05-.04.06-.13.09-.2.04,0,.09.02.12,0,.56-.17,1.05-.46,1.5-.83.04-.04.03-.14.05-.22.09-.02.19-.03.27-.04-.07.02-.15.04-.23.06-.51.25-1.02.5-1.52.75-.11.06-.17.16-.15.29-.15-.05-.29-.02-.43.04-.2.09-.41.18-.62.26.08-.1.14-.21.23-.29.72-.61,1.45-1.21,2.17-1.82.15-.13.36-.21.37-.45.36,0,.59-.2.77-.48Zm-3.5,7.21c-.34.03-.61.17-.74.5-.36,0-.62.15-.74.5-.36,0-.61.16-.76.49q-.53.19-.5.41c.21-.1.45-.15.48-.44.34-.02.61-.17.76-.49.35-.02.63-.13.75-.5.37.01.63-.13.74-.5.39.05.64-.12.76-.49.17.03.32-.03.46-.12.92-.64,1.82-1.29,2.65-2.05,2.51-2.3,4.75-4.85,6.91-7.47.39-.48.72-1.01,1.06-1.53.16-.24.32-.49.33-.84-.13-.16-.28-.34-.43-.52.03-.24.17-.38.33-.52.35-.29.7-.58,1.04-.88.07-.07.09-.2.13-.3-.29-.22-.66.24-.92-.18.11-.2.22-.42.35-.63.73-1.2,1.46-2.41,2.19-3.61.24-.39.47-.78.71-1.17.83-1.35,1.87-2.53,3.09-3.54.16-.13.31-.27.45-.39-.15-.34-.35-.48-.54-.37-.22.12-.45.23-.62.4-.39.37-.76.76-1.12,1.16-1.6,1.8-2.89,3.83-4.13,5.89-1.06,1.77-2.1,3.57-3.18,5.33-1.25,2.05-2.64,4.01-4.24,5.81-1.02,1.14-2.01,2.31-2.87,3.58-.28.41-.64.76-.98,1.12-.2.21-.42.4-.62.61-.05.05-.03.15-.05.23-.37-.02-.61.17-.76.49Zm-9.22,5.96c.25.03.37-.15.49-.31.67-.85,1.37-1.66,2.19-2.36.69-.59,1.41-1.15,2.13-1.7,1.31-1.01,2.7-1.91,4.08-2.82.55-.37,1.07-.78,1.59-1.17.08-.06.16-.18-.05-.25-.49.27-.99.56-1.51.81-.93.46-1.78,1.04-2.62,1.65-.3.22-.59.45-.88.68-.84.67-1.69,1.33-2.51,2.03-1.05.88-2,1.86-2.76,3.01-.09.14-.17.28-.14.46-.48.27-.57.38-.64.84.48-.31.48-.32.63-.74.01-.03-.01-.08-.02-.12Zm-92.55,54.74c-.29-.03-.57.02-.86.1-2.83.81-5.6,1.79-8.29,2.99-5.78,2.58-11.14,5.87-16.18,9.68-4.08,3.08-7.86,6.49-11.35,10.23-4.31,4.62-8.12,9.63-11.19,15.17-1.81,3.27-3.37,6.65-4.59,10.18-.87,2.51-1.56,5.06-2.08,7.67-.62,3.09-1.08,6.2-1.23,9.35-.01.25-.03.5-.05.74-.18,2.36-.15,4.72,0,7.08.12,2.07.33,4.13.59,6.19.39,3.13.97,6.22,1.79,9.26.46,1.68,1.06,3.31,1.75,4.91.07.15.15.29.35.34.09-.19.07-.39.04-.59-.28-1.59-.56-3.18-.84-4.77-.21-1.18-.42-2.37-.63-3.55-.23-1.31-.38-2.62-.54-3.94-.22-1.77-.39-3.54-.46-5.32-.01-.37-.03-.75-.06-1.12-.26-3.36-.11-6.71.2-10.06.19-2.1.5-4.19.92-6.27.48-2.4,1.05-4.78,1.79-7.1,1.78-5.56,4.33-10.75,7.49-15.65,2.75-4.26,5.92-8.19,9.4-11.88,4.12-4.35,8.65-8.22,13.45-11.78,2.8-2.08,5.71-3.98,8.7-5.77,3.13-1.87,6.34-3.59,9.71-5.01.65-.27,1.29-.56,1.94-.84.12-.05.2-.13.21-.27.12,0,.25,0,.37,0,.13,0,.16-.06.08-.14-.02-.02-.08-.02-.12-.01-.13.01-.24.06-.3.19Zm-44.28,69.9c.15-.1.2-.25.23-.42.12-.69.21-1.39.37-2.07.43-1.81.87-3.61,1.46-5.37.82-2.43,1.78-4.8,2.96-7.08.13-.25.21-.54.47-.71l-.03-.03c.06.4-.14.73-.29,1.07-1.34,3.18-2.29,6.48-2.93,9.86-.46,2.44-.86,4.89-1.07,7.37-.19,2.23-.36,4.46-.37,6.7,0,.7,0,1.41-.01,2.11-.04,2.2.13,4.39.29,6.58.06.91.13,1.82.26,2.72.21,1.52.44,3.03.71,4.54.37,2.08.91,4.12,1.56,6.14.33,1.02.73,2.02,1.11,3.03.06.15.11.31.3.35,0,.07,0,.14,0,.21.02.11.07.13.13.04.02-.02.01-.08,0-.1-.05-.05-.11-.08-.16-.12-.02-.25,0-.5-.06-.74-.17-.77-.39-1.53-.56-2.29-.33-1.5-.67-2.99-.87-4.51-.22-1.64-.47-3.28-.58-4.94-.11-1.57-.29-3.14-.35-4.71-.13-3.36-.15-6.71.15-10.06.13-1.49.22-2.98.39-4.46.23-1.93.51-3.86.87-5.77.56-2.98,1.25-5.91,2.11-8.82,1.3-4.39,3.06-8.58,5.26-12.59,3.69-6.74,8.34-12.75,13.91-18.05,3.97-3.78,8.21-7.23,12.7-10.37,3.1-2.16,6.28-4.18,9.61-5.95,3.44-1.83,6.95-3.51,10.6-4.9,3.21-1.23,6.43-2.43,9.71-3.46,1.5-.47,3.01-.92,4.51-1.38.12-.04.25-.07.34-.14.09-.07.28-.06.26-.27-2.12.09-4.21.37-6.29.81-1.7.36-3.38.81-5.06,1.28-4.07,1.15-8.02,2.65-11.88,4.38-7.12,3.21-13.91,7-20.34,11.43-1.5,1.04-2.95,2.14-4.36,3.31-2.01,1.67-3.92,3.45-5.76,5.31-.88.88-1.72,1.8-2.42,2.83-.09.13-.19.26-.36.29-.11-.15-.1-.32-.04-.47.23-.63.52-1.22.91-1.76.59-.85,1.25-1.65,1.99-2.39,1.15-1.14,2.39-2.18,3.63-3.21,1.24-1.03,2.49-2.07,3.72-3.12,2.33-1.99,4.69-3.95,7.16-5.78,2.9-2.15,5.92-4.12,9.14-5.76,4.33-2.2,8.86-3.91,13.52-5.28,4.66-1.37,9.4-2.32,14.21-3,1.52-.21,3.03-.44,4.55-.69,1.47-.25,2.91-.63,4.31-1.16.14-.05.28-.13.48-.23-.16-.1-.26-.2-.36-.21-.41-.02-.83-.03-1.24,0-.79.06-1.56.19-2.34.33-2.04.37-4.11.53-6.17.75-1.81.19-3.62.42-5.42.73-3.19.56-6.33,1.3-9.41,2.29-3.59,1.15-7.08,2.57-10.43,4.33-3.41,1.8-6.65,3.89-9.82,6.08-4.53,3.14-8.87,6.54-12.98,10.23-3.49,3.13-6.82,6.42-9.86,10-3.47,4.09-6.52,8.45-8.94,13.26-2.01,3.98-3.48,8.15-4.61,12.44-.49,1.84-.79,3.73-1.09,5.61-.28,1.76-.47,3.53-.59,5.31-.12,1.74-.14,3.48-.2,5.22-.01.46,0,.91,0,1.37.04,1.53.07,3.07.13,4.6.05,1.41.14,2.81.21,4.22.01.19,0,.41.2.61.13-.89.24-1.75.37-2.61.04-.24.09-.49.18-.72.12-.31.41-.4.71-.23.16.09.28.32.52.17.13-1.44.13-1.59-.04-2.35-.1.1-.18.18-.27.26-.35.33-.64.33-.94-.03-.1-.13-.13-.34-.05-.46.19-.3.45-.48.82-.44.15.02.3.06.49.09.15-.47.14-.93.17-1.38,0-.12-.04-.24-.08-.35-.01-.04-.05-.07-.11-.15-.37-.01-.77-.02-1.22-.04.02-.14,0-.28.07-.36.41-.57.84-1.13,1.25-1.71.15-.2.3-.4.4-.63.11-.24.11-.49-.21-.66-.25,0-.54,0-.83,0-.19,0-.3-.1-.28-.32.29-.45.68-.82,1.09-1.16.52-.43.75-.97.79-1.62.02-.25,0-.5.01-.75l-.03.04Zm121.2,37.12l-.03-.03c0,.25-.08.48-.17.72-.95,2.43-2.05,4.8-3.31,7.09-1,1.82-2.08,3.58-3.29,5.26-2.83,3.92-6.1,7.42-9.76,10.57-2.39,2.06-4.92,3.93-7.54,5.68-4.07,2.73-8.34,5.09-12.82,7.06-.72.32-1.45.62-2.17.92-.12.05-.21.12-.23.26-.12,0-.24,0-.36.01-.05,0-.08.08-.12.12.07.02.15.06.22.05.12-.01.23-.06.25-.21.3.08.57-.01.85-.09,5.44-1.56,10.61-3.76,15.5-6.63,3.62-2.13,7.01-4.57,10.1-7.42,3.74-3.45,6.9-7.39,9.59-11.7,3.52-5.63,6.02-11.71,7.7-18.12.61-2.33,1.07-4.68,1.45-7.06.33-2.05.59-4.1.77-6.17.17-1.94.28-3.89.29-5.84.03-3.98-.04-7.96-.46-11.92-.21-1.98-.39-3.96-.6-5.94-.07-.7-.15-1.4-.26-2.1-.36-2.5-.73-5-1.2-7.49-.28-1.46-.55-2.93-.86-4.39-.54-2.47-1.1-4.93-1.66-7.4-1.02-4.5-2.38-8.88-4.13-13.14-.54-1.3-1.06-2.61-1.6-3.91-1.1-2.69-2.03-5.43-2.55-8.3-.36-1.96-.55-3.94-.54-5.93,0-.66.09-1.32.12-1.99.13-2.63.68-5.17,1.51-7.66.89-2.68,2.03-5.26,3.24-7.8.16-.34.35-.66.53-.98.87-1.54,1.99-2.85,3.4-3.92.76-.58,1.51-1.17,2.26-1.75.89-.7,1.59-1.57,2.13-2.57.29-.55.58-1.1.81-1.68.71-1.78,1.64-3.44,2.72-5.02,1.24-1.81,2.37-3.69,3.5-5.58.97-1.64,1.96-3.28,3.02-4.86,2.05-3.04,4.53-5.72,7.21-8.21,3.99-3.7,8.26-7.04,12.76-10.11,1.89-1.29,3.84-2.45,5.89-3.46,1.83-.9,3.75-1.55,5.77-1.89,1.89-.32,3.71-.87,5.46-1.63,2.02-.87,3.98-1.86,5.94-2.85,1.81-.91,3.65-1.76,5.54-2.53,2.19-.89,4.34-1.86,6.43-2.97,4.33-2.29,8.48-4.87,12.51-7.65.51-.35,1.01-.73,1.5-1.11.09-.07.12-.2.19-.33-.98-.38-1.88-.35-2.74.25-.71.5-1.45.97-2.15,1.48-2.51,1.84-5.1,3.55-7.78,5.13-1.29.76-2.59,1.47-3.94,2.12-4.64,2.23-9.48,3.94-14.42,5.39-2.11.62-4.23,1.18-6.31,1.9-1.49.51-2.96,1.07-4.34,1.85-1.62.92-3.19,1.92-4.67,3.08-.88.69-1.77,1.36-2.66,2.05-1.38,1.07-2.79,2.09-4.23,3.06-1.96,1.32-3.93,2.63-5.87,3.98-2.93,2.04-5.7,4.27-8.22,6.82-1.94,1.96-3.61,4.1-5.02,6.47-.59,1-1.17,2-1.79,2.98-.58.91-1.16,1.82-1.81,2.68-2.36,3.11-2.43,3.5-3.57,6.09-.17.38-.34.76-.52,1.13-.15.3-.32.58-.49.87-.47.79-1.05,1.49-1.7,2.13-.8.78-1.6,1.56-2.39,2.36-1.14,1.16-2.08,2.48-2.83,3.92-.44.85-.86,1.71-1.22,2.59-.83,2.03-1.74,4.03-2.63,6.04-1.91,4.3-2.89,8.8-2.95,13.51-.02,1.62.02,3.23.19,4.84.2,1.99.55,3.94,1.06,5.86.35,1.32.86,2.59,1.33,3.88.48,1.32,1,2.64,1.42,3.98,1.35,4.31,2.48,8.68,3.37,13.12.42,2.08.68,4.17.78,6.29.13,2.73.21,5.47.3,8.2.06,1.7.1,3.4.15,5.1.08,2.65.14,5.31.04,7.96-.11,2.94-.29,5.88-.64,8.8-.27,2.26-.59,4.52-1.01,6.76-.72,3.88-1.74,7.67-2.94,11.43-.67,2.09-1.47,4.14-2.29,6.17-2.69,6.66-6.3,12.78-10.78,18.38-1.97,2.46-4.08,4.8-6.41,6.94-.91.84-1.84,1.67-2.75,2.51-.09.08-.07.15.1.21.41-.2.86-.41,1.29-.65,2.12-1.22,4.22-2.48,6.19-3.93.1-.07.21-.14.32-.18.05-.02.12.05.18.08-.04.07-.08.15-.13.21-1.47,1.34-2.86,2.77-4.48,3.93-2.4,1.72-4.86,3.31-7.61,4.43-1.3.53-2.58,1.14-3.85,1.74-.97.46-1.92.97-2.88,1.46-2.4,1.23-4.86,2.32-7.4,3.23-2.38.85-4.77,1.66-7.15,2.5-1.33.47-2.7.78-4.1.98-1.31.19-2.62.38-3.94.55-1.64.22-3.28.46-4.93.63-1.94.19-3.88.36-5.83.46-3.23.16-6.46.19-9.7.05-.54-.02-1.07-.12-1.6-.19-.06,0-.11-.11-.17-.17,2.21-.36,4.42-.71,6.62-1.08,2.25-.37,4.48-.83,6.69-1.37,5.02-1.21,5.82-1.44,6.48-1.76-.17-.33-.34-.66-.51-.99-.08-.15-.19-.27-.4-.31-.76.23-1.55.48-2.34.72-3.25.98-6.56,1.77-9.9,2.38-1.18.22-2.37.42-3.56.54-1.81.18-3.64.31-5.46.29-.16,0-.33.02-.53.03.04.14.04.28.11.36.63.62,1.09,1.35,1.5,2.12.07.14.2.25.3.37.94.06,1.85.12,2.76.19.87.06,1.74.15,2.6.17,2.82.08,5.64-.07,8.45-.34,1.94-.19,3.87-.44,5.8-.7,1.72-.24,3.44-.52,5.14-.92,1.09-.26,2.17-.52,3.26-.79,1.37-.34,2.76-.56,4.14-.83,4.65-.93,9.13-2.41,13.48-4.28,5.38-2.32,10.49-5.14,15.33-8.44,1.88-1.28,3.72-2.64,5.43-4.16,3.17-2.81,6.17-5.78,8.86-9.06,1.72-2.09,3.27-4.29,4.71-6.56,1.22-1.93,2.34-3.91,3.28-6,.07-.15.16-.28.25-.41.02-.02.08-.02.12-.03Zm-68.08-59.16c0,.22-.14.38-.26.54-1.02,1.41-1.96,2.88-2.86,4.36-1.75,2.86-3.38,5.8-4.94,8.77-1.72,3.27-3.27,6.61-4.77,9.98-2.03,4.55-3.78,9.2-5.31,13.93-1.45,4.5-2.66,9.06-3.6,13.7-.36,1.79-.67,3.58-.96,5.38-.22,1.35-.39,2.71-.53,4.07-.15,1.44-.21,2.89-.34,4.34-.2,2.19-.17,4.39-.16,6.59,0,.83.06,1.66.2,2.48.03.16.05.33.11.48.04.11.14.2.22.29.1.12.38.09.43-.04.08-.19.16-.38.21-.58.16-.6.3-1.21.46-1.8,1.18-4.28,2.65-8.46,4.17-12.62,2.55-6.97,5.3-13.85,8.17-20.7,2.87-6.84,5.92-13.6,9.41-20.16,2.12-3.99,4.41-7.89,6.89-11.67,2.68-4.1,5.61-8.01,8.62-11.87,2.43-3.1,4.73-6.29,6.86-9.61,1.79-2.79,3.62-5.55,5.47-8.31,1.04-1.55,2.12-3.07,3.2-4.59,2.75-3.89,5.63-7.69,8.78-11.28.52-.59,1.04-1.19,1.54-1.79,2.21-2.64,4.24-5.42,5.96-8.41,1.34-2.33,2.66-4.68,3.94-7.06,1.15-2.16,2.32-4.31,3.51-6.44,1.44-2.57,2.96-5.09,4.68-7.48,1.99-2.77,4.14-5.39,6.77-7.59,1.55-1.3,2.76-2.86,3.63-4.68.23-.49.47-.97.71-1.45.22-.45.44-.89.67-1.33.81-1.53,1.89-2.82,3.34-3.78.24-.16.48-.33.72-.49,1.12-.72,2.13-1.58,3.07-2.52,1.35-1.35,2.69-2.7,4.03-4.06.09-.09.15-.2.21-.3.01-.02,0-.07-.02-.09-.02-.03-.08-.06-.1-.05-.27.09-.55.18-.81.3-1.49.73-2.98,1.45-4.46,2.2-.63.32-1.24.68-1.84,1.05-1.95,1.2-3.48,2.8-4.48,4.87-.52,1.08-1.03,2.17-1.53,3.26-.35.75-.73,1.49-1.16,2.2-.5.82-1.11,1.55-1.82,2.19-.56.5-1.16.94-1.8,1.33-.6.36-1.21.72-1.81,1.08-1.7,1.04-3.41,2.05-5.08,3.13-1.93,1.24-3.35,2.95-4.44,4.94-.56,1.02-.95,2.11-1.32,3.22-.5,1.49-.99,2.99-1.53,4.47-.7,1.91-1.56,3.75-2.38,5.6-.61,1.36-1.27,2.7-2.02,3.99-2,3.45-4.3,6.69-7.01,9.64-2.64,2.88-5.46,5.56-8.58,7.92-1.79,1.35-3.6,2.67-5.44,3.93-3.32,2.27-6.67,4.49-10.01,6.73-.31.21-.6.44-1.03.53-.12-.05-.27-.12-.42-.16-.06-.02-.15.04-.23.06-.04.24-.09.48-.14.73-.19.17-.36.34-.56.49-.56.43-1.12.85-1.69,1.27-2.24,1.64-4.5,3.25-6.73,4.91-3.04,2.26-5.8,4.82-8.34,7.62-1.12,1.23-2.17,2.51-3.16,3.84-2.31,3.1-4.32,6.38-6.15,9.78-1.87,3.47-3.49,7.06-4.99,10.7-2.16,5.25-4.2,10.55-5.94,15.95-.85,2.64-1.68,5.29-2.35,7.99-.53,2.13-.94,4.29-1.38,6.44-.41,1.99-.7,4-.94,6.02-.18,1.52-.25,3.06-.39,4.58-.15,1.65-.15,3.31-.16,4.97,0,.19-.04.39.11.56.05-.07.1-.13.13-.2.27-.75.34-1.54.45-2.31.2-1.39.33-2.8.52-4.19.2-1.48.42-2.95.65-4.43.34-2.21.86-4.39,1.39-6.56,1.02-4.24,2.48-8.33,4.37-12.27.09-.19.2-.36.3-.54.06-.1.13-.1.18.02-.02.09-.04.2-.07.32-.37,1.32-.77,2.62-1.1,3.95-1.1,4.38-2.08,8.79-2.82,13.25-.35,2.13-.65,4.26-.9,6.4-.13,1.07-.24,2.14-.33,3.22-.14,1.65-.29,3.3-.35,4.96-.07,1.82-.06,3.65-.04,5.47.02,1.99.22,3.97.53,5.94.03.2.12.39.2.58.02.04.11.05.2.09,0-1.06,0-2.09,0-3.13-.01-2.37.15-4.72.42-7.07.22-1.97.53-3.94.84-5.9.35-2.17.74-4.33,1.18-6.48.86-4.22,1.86-8.41,3.07-12.55,1.33-4.54,2.85-9.01,4.62-13.39,1.31-3.23,2.77-6.39,4.31-9.51,1.32-2.68,2.78-5.28,4.23-7.89.56-1.01,1.15-2.01,1.78-2.99,1.45-2.27,2.93-4.52,4.4-6.77.11-.17.24-.34.39-.48.18-.17.4-.29.67-.29.26,0,.49.06.66.28Zm33.83,100.06c.26.05.38.11.48.09,1.3-.25,2.61-.42,3.92-.68,3.88-.77,7.61-1.96,11.26-3.47,3.65-1.51,7.09-3.4,10.38-5.6,6.66-4.45,12.29-9.96,16.81-16.57,3.01-4.4,5.41-9.11,7.23-14.13,1.57-4.34,2.67-8.79,3.34-13.36.1-.7.2-1.4.27-2.1.14-1.32.29-2.64.38-3.96.14-2.03.14-4.06.12-6.09-.03-2.16-.16-4.31-.39-6.45-.24-2.22-.58-4.44-1-6.64-.96-5.01-2.26-9.94-3.99-14.74-.99-2.73-2.07-5.42-3.29-8.05-1.93-4.14-4.05-8.17-6.46-12.04-1.07-1.72-2.15-3.44-3.21-5.18-1.75-2.87-3.27-5.86-4.44-9.02-.82-2.23-1.37-4.51-1.5-6.89-.08-1.42,0-2.82.22-4.21.29-1.85.81-3.64,1.51-5.38,1.11-2.77,2.3-5.51,3.6-8.19.49-1.01,1.03-1.99,1.57-2.96,1.11-1.97,2.56-3.66,4.31-5.1.67-.56,1.35-1.1,2.02-1.66.73-.61,1.47-1.22,2.18-1.85,1.24-1.11,2.3-2.38,3.15-3.82.55-.93,1.04-1.89,1.46-2.88.73-1.71,1.46-3.43,2.17-5.15,1.45-3.49,3.55-6.54,6.23-9.21,2.03-2.02,4.21-3.87,6.5-5.59,3.75-2.82,7.64-5.43,11.63-7.88,2.02-1.24,4.12-2.3,6.3-3.22,1.72-.72,3.48-1.34,5.24-1.94,2.9-.99,5.8-1.97,8.7-2.97,5.54-1.92,10.82-4.39,15.79-7.51,1.96-1.23,3.9-2.52,5.81-3.83,1.57-1.07,3.11-2.21,4.65-3.32.16-.11.35-.21.38-.44-.46-.32-.73-.41-1.96-.67-.4.13-.69.43-1.02.68-2.03,1.51-4.07,3-6.17,4.41-3.13,2.11-6.39,4.01-9.83,5.58-2.34,1.07-4.67,2.13-6.96,3.3-.66.34-1.34.65-2.02.97-1.2.56-2.43,1.07-3.69,1.47-2.21.7-4.42,1.4-6.63,2.12-2.09.68-4.16,1.4-6.18,2.27-3.25,1.39-6.3,3.15-9.19,5.17-2.92,2.04-5.75,4.22-8.48,6.51-3.35,2.81-6.37,5.93-8.96,9.46-2.16,2.94-4.2,5.97-6.11,9.08-.67,1.09-1.28,2.23-1.88,3.36-.58,1.1-1.12,2.22-1.69,3.32-.83,1.59-1.91,3.01-3.22,4.23-.36.34-.72.69-1.08,1.03-1.49,1.4-2.76,2.98-3.86,4.69-1.23,1.92-2.31,3.93-3.26,6-1.33,2.9-2.08,5.95-2.34,9.11-.32,3.83.05,7.61,1.11,11.32.68,2.39,1.53,4.73,2.52,7.01,1.47,3.39,2.75,6.84,3.77,10.39.86,3.03,1.58,6.1,2.25,9.17.63,2.91,1.19,5.85,1.75,8.77.51,2.64.95,5.3,1.32,7.97.21,1.48.43,2.95.62,4.43.12.9.21,1.81.29,2.72.12,1.36.2,2.73.34,4.09.22,2.11.29,4.22.32,6.33.05,3.19-.07,6.38-.36,9.56-.15,1.69-.34,3.38-.62,5.06-.64,3.85-1.6,7.62-2.87,11.31-1.37,3.97-3.12,7.76-5.25,11.38-2.53,4.31-5.56,8.24-9.01,11.85-3.92,4.1-8.33,7.58-13.29,10.35-1.59.89-3.23,1.7-4.88,2.45-2.15.98-4.35,1.84-6.61,2.54-2.92.92-5.88,1.72-8.89,2.32-1.29.26-2.6.45-3.95.86.19.04.31.09.41.07.82-.15,1.65-.18,2.47-.29,3.21-.43,6.37-1.08,9.49-1.96,3.83-1.08,7.6-2.35,11.26-3.9,4.02-1.7,7.84-3.77,11.46-6.21,4.18-2.82,7.95-6.09,11.35-9.82,2.66-2.92,5.02-6.07,7.12-9.41,2.54-4.05,4.68-8.3,6.4-12.76,1.06-2.75,2.02-5.52,2.68-8.4.05-.24.1-.49.29-.67.14.12.11.29.08.44-.25,1.38-.47,2.78-.79,4.15-1.11,4.82-2.77,9.46-4.96,13.9-2.84,5.77-6.51,10.97-10.9,15.66-2.7,2.89-5.65,5.49-8.86,7.79-3.65,2.61-7.52,4.85-11.62,6.68-3.68,1.63-7.44,3.03-11.31,4.14-.59.17-1.17.38-1.89.61Zm-92.27-60.12c.12-.38.1-.63.09-.87-.06-1.2-.14-2.4-.18-3.6-.14-4.19-.18-8.37-.05-12.56.07-2.28.33-4.55.64-6.8.25-1.81.63-3.59,1.04-5.37.35-1.49.75-2.97,1.21-4.43,1.87-5.94,4.65-11.43,8.13-16.57,1.63-2.41,3.42-4.69,5.26-6.93,4.39-5.34,9.35-10.09,14.73-14.42,5.53-4.46,11.44-8.36,17.72-11.7,4.73-2.51,9.66-4.56,14.85-5.92,2.25-.59,4.53-1,6.83-1.31.99-.13,1.98-.21,2.97-.31.15-.02.29-.06.67-.13-.98-.14-1.72-.11-2.47-.08-2.45.09-4.87.37-7.28.84-2.57.5-5.08,1.2-7.55,2.04-4.84,1.64-9.47,3.75-13.94,6.21-5.16,2.85-10.1,6.03-14.76,9.65-2.85,2.22-5.56,4.59-8.18,7.07-2.5,2.37-4.79,4.93-6.97,7.6-3.93,4.81-7.21,10.02-9.75,15.69-1.68,3.76-2.98,7.64-3.8,11.68-.63,3.09-1.01,6.21-1.14,9.37-.12,2.7-.07,5.39.03,8.08.03.79.05,1.58.11,2.36.24,3.18.6,6.35.96,9.53.02.16.05.33.1.48.04.11.11.24.21.29.14.07.31.07.54.11Zm28.09,74.04c.1.05.2.13.31.14.3,0,.56-.13.82-.27.7-.38,1.28-.91,1.85-1.46.43-.42.71-.92.84-1.5.12-.57.21-1.14.3-1.71.22-1.43.41-2.87.64-4.3.23-1.43.5-2.86.73-4.29.2-1.27.2-2.56.14-3.85-.03-.59-.18-1.14-.64-1.56-.09.01-.17.02-.26.03-.19.37-.29.77-.38,1.17-.23.97-.37,1.95-.49,2.94-.25,2.1-.63,4.18-1.17,6.22-.59,2.25-1.34,4.44-2.14,6.62-.21.58-.46,1.15-.54,1.81ZM146.52,60.11c.16,0,.29.03.39,0,1.39-.53,2.76-1.15,4.04-1.91,1.71-1.02,3.08-2.38,3.98-4.17.19-.37.37-.74.56-1.11.39-.78.78-1.56,1.16-2.34,1.15-2.36,2.84-4.26,4.97-5.79,1.49-1.07,3.07-1.96,4.74-2.71,1.13-.51,2.27-1,3.4-1.52.49-.22.96-.48,1.43-.75.14-.08.23-.22.35-.33-.19-.16-.33-.08-.48,0-1.35.64-2.7,1.27-4.09,1.8-.93.35-1.86.71-2.78,1.09-2.11.88-4.1,1.97-5.98,3.29-1.54,1.08-2.65,2.48-3.31,4.24-.25.66-.47,1.33-.71,1.99-.24.66-.46,1.33-.72,1.99-.6,1.51-1.58,2.72-2.96,3.57-.78.48-1.56.94-2.36,1.38-.51.29-.99.6-1.44.98-.08.07-.12.18-.2.31ZM35.26,233.43c.14.5.46.81.82,1.09.27.21.58.33.93.29.49-.06.99-.12,1.48-.19,1.97-.28,3.92-.67,5.82-1.28,1.86-.6,3.62-1.42,5.39-2.24.33-.15.68-.3.92-.61,0-.05,0-.1-.02-.13-.04-.06-.09-.15-.15-.18-.86-.4-1.77-.39-2.68-.26-1.68.24-3.36.53-4.99,1.01-1.71.5-3.42,1.01-5.15,1.42-.69.16-1.34.42-1.97.75-.14.07-.24.2-.38.32Zm16.62,3.53c-.2-.14-.35-.08-.51-.02-1.31.51-2.65.93-4.02,1.25-1.13.27-2.27.45-3.44.43-.74-.01-1.49-.02-2.23-.02-.37,0-.74.02-1.01.03-.63.33-.97.8-1.31,1.26-.49.66-.98,1.34-1.62,1.87-.05.04-.06.14-.1.26.22.09.44.22.68.27,1.05.25,2.12.35,3.2.4,1.09.05,2.14-.19,3.1-.73.09-.05.13-.18.24-.34-.67-.05-1.28-.1-1.88-.15-.01-.12-.02-.19-.03-.28.48-.12.96-.23,1.43-.36.44-.13.87-.27,1.29-.43.46-.17.92-.37,1.37-.57.42-.18.83-.38,1.23-.58.44-.23.88-.47,1.3-.72.39-.23.78-.47,1.15-.73.39-.27.86-.44,1.16-.85Zm23.01-14.82c-.15.15-.28.25-.38.37-.28.36-.55.72-.83,1.08-1.77,2.31-3.73,4.43-6.16,6.07-.07.05-.13.1-.2.15-.14.1-.22.23-.21.42.57.67,1.21,1.24,1.75,1.55.39.23.81.19,1.14-.14.23-.23.46-.48.67-.73.94-1.16,1.87-2.32,2.81-3.48,1.12-1.38,2.18-2.81,3.43-4.08.05-.05.05-.15.07-.22q-.58-.46-2.07-.99ZM187.64,25.9c.32.3.59.31.87.17.15-.08.28-.18.41-.28,2.11-1.49,3.95-3.27,5.55-5.29,1.33-1.66,2.39-3.47,3.01-5.52.08-.28.18-.55.28-.82.66-1.84,1.57-3.55,2.72-5.14.63-.87,1.36-1.67,2.1-2.45.28-.3.62-.55.74-.97-.08-.24-.13-.5-.51-.5-.16.12-.37.26-.55.42-1.35,1.2-2.41,2.61-3.21,4.22-.53,1.07-1.02,2.17-1.53,3.26-1.12,2.37-2.53,4.56-4.24,6.54-1.13,1.31-2.34,2.57-3.53,3.84-.73.79-1.47,1.57-2.11,2.53ZM38.68,235.72s0,.1.01.12c.04.07.09.16.15.18,1,.39,2,.46,3.03.11,2.31-.79,4.62-1.56,6.93-2.37.94-.33,1.81-.81,2.63-1.38.34-.24.67-.49.92-.83.13-.18.06-.45-.16-.5-.16-.04-.33-.07-.48-.06-.54.06-1.05.23-1.55.43-1.95.8-3.91,1.59-5.85,2.4-1.49.62-3.01,1.15-4.59,1.52-.36.08-.72.17-1.04.36Zm6.98,1.31c1.89-.25,3.66-.8,5.4-1.46,2.6-.99,5.05-2.28,7.32-3.88.26-.19.59-.32.7-.67-.01-.04-.02-.09-.04-.12-.53-.58-1.17-.74-1.91-.45-.7.27-1.33.66-1.96,1.06-.87.56-1.73,1.13-2.59,1.71-2,1.34-4.07,2.54-6.33,3.38-.22.08-.43.17-.59.42Zm-10.3-.46c-.6.21-1.18.42-1.77.6-.63.2-1.26.38-1.9.58-.08.02-.15.06-.23.1-.37.17-.47.55-.27.94.2.38.5.66.85.89.94.6,1.96,1.04,3.08,1.33.16-.14.33-.26.46-.42.68-.83,1.3-1.71,1.87-2.62.03-.05-.03-.15-.05-.25-.67-.37-1.35-.75-2.05-1.14ZM200.36,20.72c.06.04.12.11.18.11.85-.05,1.51-.4,1.88-1.2.02-.04.04-.07.07-.11,1.53-2.36,3.18-4.64,5.02-6.78.35-.41.68-.84,1-1.26.09-.12.15-.28.23-.44-.28-.38-.61-.57-1.07-.52-.61.6-1.06,1.3-1.54,1.97-1.33,1.9-2.65,3.8-3.97,5.7-.19.27-.38.54-.57.81-.21.31-.43.61-.63.92-.18.27-.5.44-.59.79Zm5.88-12.16c-.47.44-.92.92-1.32,1.44-1.22,1.56-2.45,3.12-3.66,4.69-.23.29-.43.61-.63.92-.07.1-.09.23-.14.34-.05.14.06.37.19.41.32.08.65.13,1.02-.04.15-.19.34-.41.5-.64,1.37-2.02,2.84-3.97,4.46-5.8.1-.12.18-.27.25-.38-.12-.4-.22-.76-.66-.95Zm-1.39,10.79c.22-.02.38-.15.54-.28.72-.56,1.41-1.15,2-1.85,1.25-1.48,2.5-2.97,3.74-4.46.1-.12.16-.28.23-.41-.4-.46-.73-.56-1.07-.3-.4.29-.79.6-1.13.96-1.48,1.56-2.78,3.27-3.96,5.07-.18.28-.33.57-.48.87-.04.07-.05.17-.03.24.02.06.1.1.15.16ZM55.37,238.11c-.15-.03-.19-.05-.22-.04-.8.43-1.58.9-2.39,1.28-2.79,1.33-5.6,2.62-8.5,3.7-.03.01-.07.04-.09.07-.02.03-.03.08-.05.14.11.03.22.09.33.09.84,0,1.63-.21,2.42-.46,1.85-.57,3.65-1.31,5.47-1.96,1.39-.49,2.41-1.38,3.04-2.83Zm6.62-6.2c-.12.06-.29.1-.39.21-.39.42-.79.85-1.13,1.31-1.09,1.46-2.05,3-2.99,4.55-.04.07-.08.15-.08.23,0,.07.06.13.09.2.08-.02.17-.03.23-.07.87-.69,1.75-1.39,2.61-2.09.22-.18.43-.39.62-.61.54-.63,1.02-1.3,1.29-2.1.12-.36.18-.72.12-1.1-.03-.22-.14-.38-.36-.54Zm4.54,8.07c-.1.01-.21-.01-.25.03-.14.14-.29.3-.39.47-.78,1.47-1.34,3.02-1.69,4.64-.08.36-.07.74-.08,1.11,0,.06.07.13.1.2.08-.02.17,0,.23-.05.35-.3.6-.68.82-1.08.67-1.25,1.1-2.58,1.29-3.99.06-.44.13-.89-.02-1.33ZM205.18,7.71c-.17-.4-.36-.66-.68-.84-.1.03-.24.04-.32.11-.22.19-.44.38-.61.61-.74.99-1.49,1.97-2.19,2.99-.33.47-.57,1-.84,1.51-.03.05.02.15.03.23.22-.02.32-.21.44-.35.9-1.08,1.9-2.06,2.97-2.96.35-.29.66-.62.98-.94.08-.08.13-.2.22-.35Zm-30.72,18.57c.11-.02.23-.03.33-.08.91-.49,1.73-1.12,2.47-1.85.71-.7,1.4-1.41,2.09-2.12.08-.08.12-.2.17-.31.01-.03,0-.1-.01-.11-.06-.04-.14-.1-.2-.09-.12.02-.24.07-.33.14-1.34,1.1-2.69,2.2-4.02,3.3-.19.16-.35.35-.5.55-.07.09-.1.22-.11.34,0,.07.06.14.11.23Zm33.59-7.84s.08.03.1.01c.76-.58,1.52-1.15,2.26-1.75.55-.45,1.03-.96,1.41-1.57.11-.18.21-.36.28-.55.08-.23.12-.49-.07-.69-.24-.05-.41.08-.55.24-.91,1.02-1.82,2.04-2.72,3.07-.27.31-.48.67-.7,1.02-.03.05,0,.15,0,.22Zm-25.22.35c.17.04.31.12.39.08.44-.23.85-.5,1.29-.73,1.47-.74,2.95-1.47,4.43-2.21.15-.07.29-.16.43-.24.1-.06.11-.12,0-.19-1.68.36-3.28,1-4.78,1.88-.49.29-.95.65-1.41,1-.12.09-.21.24-.35.41ZM54.83,243.54c.79-.35,1.39-.91,1.78-1.67.09-.18.12-.39.17-.59.02-.09-.15-.23-.25-.21-.12.02-.25.03-.36.08-.39.16-.72.41-.98.74-.33.43-.61.88-.69,1.45.11.07.21.13.32.21ZM198.83,18.35c.08.09.15.23.24.26.44.11.89.18,1.36-.04.27-.3.67-.55.74-1.08-.5-.14-.98-.18-1.42-.19-.48.24-.73.6-.92,1.05Zm-1.08,3.66c-.93-.27-1.05-.26-1.74.18-.28.18-.54.37-.81.57-.1.07-.19.16-.28.24-.11.1-.17.27-.1.29.07.03.17.06.23.04.85-.31,1.7-.62,2.55-.94.07-.03.12-.1.19-.15-.01-.07-.03-.15-.04-.22Zm.59-2.37c-.16.11-.27.18-.36.25-.06.05-.12.12-.16.19-.12.22-.23.44-.08.69.1.16.44.21.68.08.22-.12.42-.25.62-.4.16-.12.36-.27.33-.48-.03-.26-.3-.23-.49-.26-.16-.03-.33-.04-.56-.07ZM32.2,235.86c.92.09,1.56-.14,2.18-.39,0-.11.03-.2,0-.25-.17-.24-.39-.31-.62-.24-.5.16-.96.4-1.55.88Zm109.41-171.22c.58-.47,1.03-1.02,1.28-1.61.03-.08-.04-.23-.1-.32-.02-.03-.17-.03-.22,0-.58.44-.9,1.05-1.07,1.74-.01.05.08.12.12.17Zm41.86-35.32c-.06-.17-.18-.19-.28-.13-.68.37-1.31.82-1.91,1.31-.06.05-.11.12-.15.19-.02.03-.02.11,0,.12.06.04.15.09.2.07.8-.41,1.49-.98,2.16-1.55Zm-37.43,30.81c-.26-.07-.39-.14-.48-.11-.27.09-.54.22-.72.45-.2.26-.37.54-.54.82-.05.08,0,.16.09.2.03.01.09,0,.11-.02.16-.12.33-.25.48-.38.15-.14.29-.29.44-.43.15-.14.31-.26.62-.52Zm35.75-40.33s-.04-.07-.07-.09c-.03-.02-.07-.05-.1-.04-.56.19-.97.56-1.26,1.07-.02.03-.02.09,0,.12.05.09.13.12.2.06.38-.3.77-.59,1.14-.9.05-.04.06-.15.08-.22Zm4.1,7.64c.08.05.15.12.19.11.43-.16.76-.42.88-.89,0-.02-.05-.06-.09-.11-.38.25-.69.55-.98.89Zm-9.29,4.77c.13.05.17.09.19.08.36-.2.66-.45.94-.76-.06-.05-.12-.13-.15-.12-.38.16-.66.44-.98.8ZM59.64,239.56c-.57-.04-.85.21-1.18.33-.04.14.01.25.15.25.38,0,.66-.21,1.03-.58ZM172.41,36.45c-.11.12-.22.24-.31.37-.04.05-.05.13-.08.2.27-.14.28-.13.4-.57Zm5.95-3.62q-.69.34-.8.67c.29-.06.47-.26.8-.67Zm.47-.45c.42-.19.66-.31.68-.66-.28.09-.49.24-.68.66Zm.31-2.14c-.38.13-.39.12-.74.48q.32.06.74-.48Zm-100.94,187.84s-.06.07-.06.1c0,.03.02.07.04.11.02-.03.06-.07.06-.1,0-.03-.02-.07-.04-.11ZM185.25,19.5v.06s.09-.02.09-.02l-.09-.04Z"/>
      <path d="m28.55,255c-.09-.18-.13-.39-.34-.49-.18-.08-.37-.18-.46-.39q.55-.06,2.78.51c.07.1.17.23.27.36h-2.24Z"/>
      <path d="m23.37,248.72c0-.07-.03-.16,0-.2.25-.29.58-.47.97-.48.29,0,.58,0,.87.03.78.09,1.56.19,2.33.31.53.08,1.05.18,1.6.27,0,0,.02.03.04.06-.25.01-.49.05-.74.04-1.65-.07-3.3-.1-4.96.03-.04,0-.08-.03-.12-.05Z"/>
      <path d="m18.21,247.18c-.19-.02-.29-.15-.39-.28-.17-.24-.16-.47.02-.67.17-.21.17-.21.73-.4.05.05.15.12.14.15-.08.23-.17.46-.28.68-.08.17,0,.41-.22.52Z"/>
      <path d="m30.88,248.88h.32s0,.03,0,.04h-.34s.01-.03.02-.04Z"/>
      <path d="m16.15,223.62c-.12,0-.23-.01-.35-.01-.12,0-.16-.04-.09-.12.02-.02.08-.02.11,0,.1.05.2.11.3.17,0,0,.03-.03.03-.03Z"/>
      <path d="m143.73,100.01c-.02.25-.01.5-.06.74-.2,1.05-.46,2.1-.6,3.16-.11.86-.1,1.73-.11,2.6,0,.28.08.57.15.85.09.36.19.72.29,1.09-.24.88-.43,1.77-.41,2.68.02.93.39,1.77.61,2.64-.05.17-.11.32-.29.39-.21.08-.41.05-.59-.06-.25-.15-.48-.32-.61-.64.04-.2.08-.44.13-.72-.33-.44-.68-.89-.98-1.3,0-.5.49-.48.68-.84,0-.04.04-.18,0-.28-.18-.37-.38-.73-.56-1.07.02-.37.37-.45.61-.86.06-.11.03-.39-.09-.66-.17-.37-.37-.73-.57-1.13.65-.91.87-1.97,1.14-3.01.29-1.12.63-2.23,1.05-3.3.04-.1.16-.16.24-.24,0,0-.03-.02-.03-.02Z"/>
      <path d="m151.16,165.39c.37-.56.76-.79,1.91-1.09.05.1.12.21.13.32.01.2.03.42-.03.61-.31,1-.32,2.04-.4,3.06-.06.79-.2,1.56-.35,2.33-.01.07-.08.13-.15.23-.61-.19-1.09-.52-1.29-1.22.13-.21.23-.43.38-.62.72-.92.79-1.87.17-2.87-.15-.24-.25-.51-.36-.75Z"/>
      <path d="m151.08,176.58c-.61-.19-1.03-.56-1.36-.97-.08-.5.15-.87.28-1.25.35-1.05.62-2.13,1.13-3.12.04-.07.12-.11.18-.17.38.1.62.37.83.71,0,.14.03.32,0,.47-.38,1.42-.55,2.9-1.06,4.32Z"/>
      <path d="m152.08,132.6c-.18,0-.36.04-.49-.01-.14-.06-.26-.2-.33-.33-.15-.29-.25-.6-.4-.96-.31-.26-.66-.55-.99-.85-.23-.21-.3-.48-.25-.79.06-.31.33-.51.62-.46,1.16.22,1.64.56,1.91,1.92.06.32.07.65.06.98,0,.15-.08.31-.13.5Z"/>
      <path d="m123.69,214.51c.15.08.3.14.43.23.36.29.63.65.86,1.04.22.36.16.7-.18.98-.09.08-.19.16-.29.23-.23.16-.47.32-.72.49-.11-.08-.24-.12-.3-.2-.31-.39-.5-.85-.64-1.33-.15-.48-.03-.9.39-1.2.13-.09.28-.16.45-.25Z"/>
      <path d="m142.65,185.32c.55.31.66.9.73,1.45.09.7-.14,1.35-.52,1.94-.15-.06-.25-.07-.29-.12-.26-.42-.51-.84-.74-1.28-.28-.52-.23-1.03.11-1.5.17-.23.34-.47.7-.5Z"/>
      <path d="m151.03,164.14c-.24-.99-.14-1.96.14-2.92.05-.17.08-.2.4-.45.09.08.22.14.27.24.35.75.59,1.53.72,2.33-.28.45-.74.57-1.13.79-.09.05-.24,0-.4,0Z"/>
      <path d="m131.15,207.31c.56-.49,1.2-.84,1.95-.97.31-.06.57.06.77.3.21.25.21.55.06.82-.11.21-.29.4-.47.57-.18.18-.43.25-.69.22-.59-.05-1.12-.26-1.56-.68-.05-.05-.05-.15-.08-.25Z"/>
      <path d="m135.72,202.67s-.02-.08,0-.11c.47-.72.73-1.55,1.16-2.29.02-.03.07-.05.16-.1.52.03.96.28,1.29.78-.06.15-.09.32-.19.44-.46.54-1,.98-1.62,1.32-.1.06-.23.09-.35.1-.17.02-.33,0-.46-.14Z"/>
      <path d="m141.32,126.19c.14-.01.26-.05.37-.02.11.03.23.1.31.19.44.45.73.99.95,1.57.04.11.05.25.02.36-.03.11-.11.26-.2.28-.49.14-.97.12-1.4-.2-.03-.02-.05-.06-.12-.17-.06-.62-.1-1.31.06-2.01Z"/>
      <path d="m143.21,122.17c-.14.26-.35.28-.55.21-.45-.17-.75-.51-.91-.94-.19-.54-.33-1.09-.48-1.64-.02-.06.04-.16.09-.21.05-.04.15-.05.22-.04.42.09.75.34.96.71.34.61.59,1.25.66,1.92Z"/>
      <path d="m151.13,125.2c.25,1.09.3,2.15.35,3.16-.12.22-.27.26-.44.25-.12,0-.25-.02-.37-.04-.28-.05-.45-.25-.46-.5,0-.12-.02-.25,0-.37.14-.77.3-1.53.59-2.26.04-.09.18-.14.32-.25Z"/>
      <path d="m126.46,212.18c.08-.4.3-.57.58-.66.25-.08.49-.02.71.1.51.28.96.63,1.24,1.09,0,.31-.18.42-.37.48-.15.05-.33.09-.48.06-.7-.16-1.27-.53-1.68-1.07Z"/>
      <path d="m149.37,117.43c.07.02.19.02.22.07.43.72.63,1.52.72,2.35.04.34-.03.66-.22.95-.12.18-.27.31-.53.26-.05-.09-.12-.2-.14-.31-.12-.66-.13-2.21-.04-3.31Z"/>
      <path d="m126.48,215.17c-.5-.26-.97-.5-1.43-.76-.14-.08-.25-.21-.35-.33-.11-.14-.11-.3-.05-.46.12-.28.32-.46.7-.54.09.04.25.08.37.18.45.36.89.72,1.15,1.24.16.31.12.42-.4.66Z"/>
      <path d="m149.91,135.69c.07-.17.19-.27.37-.29.2-.02.41-.03.61,0,.85.13,1.39.66,1.56,1.52.06.28.05.4-.12.81-.08-.01-.18,0-.23-.05-.11-.12-.22-.25-.28-.4-.27-.61-.74-.97-1.35-1.19-.15-.05-.3-.13-.44-.22-.06-.04-.09-.13-.13-.2Z"/>
      <path d="m139.6,193.03c-.15-.27-.05-.46.13-.56.57-.34,1.18-.52,1.82-.37.31.27.37.57.35.91-.01.15-.17.33-.31.32-.68-.04-1.38,0-1.99-.3Z"/>
      <path d="m129.16,209.6c.37.11.6.41.86.66.22.21.33.47.32.77-.01.33-.08.65-.42.88-.12-.07-.28-.13-.39-.23-.26-.26-.51-.53-.74-.81-.34-.42-.29-.76.15-1.16.06-.05.15-.07.22-.1Z"/>
      <path d="m119.24,198.37c-.01.14.02.31-.04.36-.85.62-1.75,1.06-2.87.72,0,0,.01-.24.08-.29.49-.38,1.03-.67,1.62-.86.23-.07.48-.08.73-.07.15,0,.31.09.48.15Z"/>
      <path d="m143.44,130.73c-.15.04-.24.1-.29.08-.65-.33-1.36-.58-1.87-1.13-.04-.04,0-.15,0-.25.43-.08.88-.02,1.33-.03.16,0,.32.04.5.07.17.4.3.77.34,1.27Z"/>
      <path d="m143.16,125.77c-.07.02-.16.07-.23.06-.48-.07-.97-.14-1.45-.25-.19-.04-.38-.16-.53-.28-.13-.1-.18-.27-.13-.44.03-.12.23-.27.37-.26.72.02,1.36.23,1.89.75.12.12.18.26.08.43Z"/>
      <path d="m143.63,118.09c-.73-.14-1.18-.59-1.46-1.23-.04-.09-.03-.26.02-.33.06-.08.22-.13.32-.13.52.03.94.29,1.27.68.14.16.18.37.17.58,0,.17-.05.32-.33.44Z"/>
      <path d="m121.75,193.95c.36-.3.78-.41,1.24-.4.35,0,.63.14.87.4.11.12.19.37.1.44-.09.08-.2.15-.31.17-.63.08-1.21-.14-1.78-.38-.06-.02-.08-.13-.13-.22Z"/>
      <path d="m119.65,196.74c.01-.1,0-.2.03-.22.57-.33,1.19-.52,1.84-.63.11-.02.24.03.35.07.19.06.25.36.13.51-.17.2-.39.29-.64.33-.57.08-1.14.02-1.71-.05Z"/>
      <path d="m143.59,119c.04.16,0,.3-.14.3-.73-.02-1.37-.26-1.93-.73-.06-.05-.12-.12-.15-.2-.02-.07,0-.15.02-.22,0-.03.07-.07.1-.06.28.05.58.07.84.18.46.18.9.41,1.26.74Z"/>
      <path d="m131.41,210.15c-.07-.03-.17-.04-.21-.1-.39-.53-.92-.95-1.23-1.54-.02-.03,0-.08-.01-.16.1-.03.24-.11.32-.07.55.23,1,.58,1.28,1.11.15.28.15.55-.15.75Z"/>
      <path d="m150.45,138.19c.36.06.72.12,1.01.37.19.16.27.42.18.66-.13.34-.55.44-.8.2-.31-.29-.49-.64-.54-1.06,0-.05.09-.11.15-.17Z"/>
      <path d="m133.82,205c-.08-.02-.16-.03-.24-.05-.08-.02-.17-.22-.13-.31.05-.11.09-.24.17-.32.33-.31.72-.35,1.13-.16.2.09.23.35.08.5-.28.29-.63.35-1.01.34Z"/>
      <path d="m141.55,123.41c.07-.1.12-.22.2-.26.1-.04.24-.04.36-.02.33.05.62.2.87.41.11.1.2.25.24.4.02.09-.04.23-.11.32-.03.04-.15.04-.22.02-.49-.2-.94-.46-1.34-.86Z"/>
      <path d="m124.48,191.73c.04-.08.05-.17.11-.21.45-.3.95-.49,1.47-.66.18-.06.31.03.43.3-.23.41-.68.45-1.06.58-.3.11-.63.18-.95,0Z"/>
      <path d="m113.5,203.19c.01-.07,0-.19.04-.21.5-.29,1.02-.52,1.62-.44.11.01.22.09.31.17.04.03.02.14.02.21,0,.03-.05.07-.08.09-.65.28-1.04.31-1.91.19Z"/>
      <path d="m142.62,115.03c.06-.08.12-.22.22-.25.15-.05.32-.06.47-.02.3.07.46.32.57.59.09.23-.12.51-.37.51-.26,0-.48-.1-.67-.26-.17-.14-.22-.33-.22-.57Z"/>
      <path d="m121.43,172.5c.06.11.16.22.15.31-.05.52-.48.87-1.01.82-.1,0-.23-.11-.26-.2-.03-.09,0-.26.07-.33.27-.31.62-.51,1.05-.6Z"/>
      <path d="m150.05,133.98c.06-.05.11-.13.17-.15.35-.09.63.08.91.26.14.09.24.21.24.39-.65.29-1.04.15-1.32-.5Z"/>
      <path d="m146.38,178.86c-.48.16-.48.17-1.04,0-.12-.15-.1-.29,0-.44.16-.21.37-.3.64-.27.17.02.3.11.4.25.07.1.07.1,0,.45Z"/>
      <path d="m112.68,206.11c-.17.37-.5.37-.84.34-.13,0-.13-.01-.32-.31.67-.41.78-.42,1.16-.03Z"/>
      <path d="m115.5,185.25c-.14.24-.35.31-.61.27-.16-.02-.25-.22-.16-.36.09-.14.2-.25.38-.25.23,0,.36.11.4.34Z"/>
      <path d="m143.76,100.04c0-.12-.02-.25,0-.37,0-.05.08-.1.12-.14.02.07.06.14.06.21,0,.12-.06.24-.2.27l.03.02Z"/>
      <path d="m124.12,111.04c.26-.54.46-1,.7-1.43,1.18-2.04,2.37-4.08,3.58-6.11.89-1.5,1.92-2.9,2.94-4.31,1.3-1.77,2.63-3.52,3.91-5.3,1.46-2.01,2.86-4.07,3.94-6.32.07-.15.13-.31.3-.37.03-.01.08-.02.1,0,.03.02.07.07.07.1-.02.43-.19.8-.39,1.16-.48.87-.94,1.75-1.47,2.59-1.11,1.75-2.26,3.47-3.41,5.19-2.59,3.9-5.19,7.79-7.77,11.69-.52.79-.99,1.63-1.48,2.44-.17.29-.36.56-.67.71-.06.03-.15-.02-.36-.07Z"/>
      <path d="m87.64,171.57c.33.29.6.49.81.73.19.21.32.48.46.73.09.16.02.44-.11.58-.03.03-.05.07-.08.09-.6.38-1.08.88-1.48,1.47-.12.19-.39.28-.56.39q-.62-.16-.78-.56c.38-.54,1.11-.51,1.54-.93.17-.25.12-.5.03-.73-.1-.27-.25-.52-.38-.78-.11-.22-.3-.4-.3-.61,0-.24.12-.36.25-.46.42-.34.79-.73,1.08-1.19.26-.41.15-.65-.18-.82-.07-.04-.15-.07-.22-.11-.03-.02-.05-.05-.08-.1.08-.09.15-.2.25-.26.43-.26.9-.41,1.39-.51.23-.05.5.1.61.33.27.52.43,1.07.41,1.67-.01.38-.2.65-.57.7-.41.06-.82.09-1.23.14-.2.02-.41.05-.61.07-.04,0-.07.04-.25.17Z"/>
      <path d="m126.99,122.6c-.22-.39-.41-.7-.57-1.03-.1-.19.07-.42.29-.43.67-.04,1.31.15,1.95.31.26.06.43.25.5.5.1.31-.04.56-.23.79-.05.06-.12.11-.2.15-.79.43-1.62.62-2.51.43-.36-.08-.72-.18-1.07-.28-.09-.03-.12-.12-.08-.21.01-.03.05-.07.08-.07.2-.03.41-.06.61-.07.37-.03.74.04,1.23-.08Z"/>
      <path d="m92.22,159.67c.27-.78.69-1.34,1.12-1.88.22-.27.52-.41.85-.44.33-.03.66,0,.9.28,0,.09.02.19-.02.24-.6.83-.84,1.86-1.43,2.71-.53-.23-.98-.49-1.41-.91Z"/>
      <path d="m127.27,120.23c.07-.28.14-.55.21-.88-.2-.27-.41-.57-.62-.86.07-.41.2-.56.49-.59,1.28-.12,2.19.96,1.87,2.23-.06.25-.23.44-.49.5-.41.1-.82.08-1.2-.13-.1-.06-.17-.17-.27-.27Z"/>
      <path d="m124,112.05c-.34.29-.56.67-.79,1.04-.94,1.56-1.89,3.11-2.8,4.67-.44.75-.82,1.53-1.1,2.35-.06.19-.18.36-.27.55-.16-.05-.28-.08-.39-.13-.07-.04-.11-.12-.16-.18.01-.07,0-.17.04-.22.34-.42.59-.89.85-1.36,1.04-1.88,2.1-3.74,3.26-5.55.24-.38.5-.75.78-1.12.14-.19.35-.19.59-.05Z"/>
      <path d="m109.47,138.52c-.42-.32-.95-.53-1.35-.94-.02-.02-.02-.08-.04-.16.63-.24,1.18-.68,1.93-.78.1.14.25.26.27.4.08.6-.08,1.13-.64,1.46-.03.02-.08.01-.17.03Z"/>
      <path d="m104.97,143.03c-.44-.25-.53-.42-.4-.68.09-.18.2-.36.33-.5.21-.22.48-.32.78-.23.27.09.53.21.78.34.06.03.09.13.14.21-.22.26-.58.21-.84.39-.24.16-.48.3-.79.48Z"/>
      <path d="m92.66,163.98c-.03.07-.05.2-.12.29-.07.08-.21.18-.3.16-.48-.1-.95-.28-1.34-.59-.04-.03-.06-.17-.03-.22.24-.38.61-.55,1.05-.53.43.02.76.4.74.88Z"/>
      <path d="m114.28,128.14c.38.31.54.7.5,1.18,0,.13-.17.31-.31.34-.38.06-.72-.02-1.02-.28-.12-.1-.16-.32-.08-.44.22-.35.48-.65.91-.8Z"/>
      <path d="m128.74,124.51c-.78.17-1.02.17-2.08.04-.07-.08-.16-.17-.25-.27.06-.11.12-.21.19-.31.13-.02.25-.06.37-.04.52.09,1.05.19,1.56.31.08.02.13.17.21.27Z"/>
      <path d="m128.52,117.02c.58-.17,1.13-.07,1.67.15.19.08.38.16.43.39-.07.03-.13.1-.2.1-.62-.01-1.2-.2-1.77-.42-.06-.02-.08-.13-.13-.21Z"/>
      <path d="m100.62,148.91c-.12.08-.23.21-.38.26-.31.12-.64.12-.97.04-.11-.03-.11-.02-.31-.35.27-.38.67-.43,1.09-.41.26.01.48.13.57.45Z"/>
      <path d="m130.72,116.04q-.48.18-1.57-.22c-.05-.12-.04-.24.09-.29.44-.18.86-.14,1.26.11.14.09.23.22.22.4Z"/>
      <path d="m98,153.99c-.45.05-.87,0-1.22-.4.08-.1.13-.25.21-.26.27-.04.56-.06.83-.04.37.02.44.33.17.7Z"/>
      <path d="m113.18,132.03c-.32.12-.64.08-.95-.05-.09-.04-.17-.21-.13-.31.04-.12.1-.23.24-.25.38-.04.71.16.87.51.01.02-.02.06-.04.1Z"/>
      <path d="m107.7,139.29c.14.04.25.08.37.12.03.01.06.06.06.09,0,.07,0,.19-.05.21-.32.2-.67.29-1.05.23-.11-.02-.28-.17-.24-.24.05-.1.12-.23.21-.26.23-.08.48-.11.7-.15Z"/>
      <path d="m117.17,124.64c-.1-.05-.29-.11-.46-.21-.13-.08-.15-.31-.06-.43.08-.11.2-.14.32-.13.25.02.46.14.62.34.04.06.07.15.05.22-.01.06-.08.14-.14.16-.07.03-.16.02-.33.04Z"/>
      <path d="m103.35,144.94c-.36.27-.77.27-1.2.31-.05-.11-.14-.22-.13-.31.02-.17.14-.3.32-.33.39-.06.74,0,1.01.34Z"/>
      <path d="m122.55,117.24c.05-.08.12-.18.17-.27q.45.08.75.36c-.15.29-.24.35-.43.28-.2-.07-.38-.16-.49-.38Z"/>
      <path d="m109.54,135.25c-.34.21-.69.15-1.04.02-.03-.01-.07-.06-.06-.08.02-.08.03-.17.08-.22.21-.19.46-.14.7-.08.17.04.29.15.32.36Z"/>
      <path d="m122.91,133.22c-.06.38-.29.54-.66.54-.13-.13-.2-.27-.08-.42.2-.27.45-.3.74-.11Z"/>
      <path d="m123.72,124.56c.25-.02.48.04.68.2.02.02.05.08.04.1-.03.07-.07.17-.13.18-.25.06-.49.02-.68-.18-.06-.06-.06-.06.08-.3Z"/>
      <path d="m123.13,131.21c.33-.32.39-.34.72-.19.07.03.12.11.16.17.05.08-.07.24-.18.27-.35.1-.47.05-.7-.25Z"/>
      <path d="m83.94,177.71c.02.19-.13.34-.37.37-.14.02-.22-.06-.26-.18-.07-.19.09-.41.28-.43.16-.02.34.11.35.25Z"/>
      <path d="m123.79,111.1c-.14.06-.23.13-.32.14-.12.01-.23-.11-.22-.21.01-.11.14-.21.25-.17.09.04.17.13.3.24Z"/>
      <path d="m125.17,112.7s-.04-.09-.03-.1c.07-.07.12-.04.11.07,0,.01-.05.02-.08.03Z"/>
      <path d="m109.98,169.03c0-.11-.02-.22,0-.13,0-.1,0,0,0,.1,0,0,.01.03.01.03Z"/>
      <path d="m82.76,112.91c-.04.28.24.42.28.7-.05.09-.09.22-.17.3-.27.26-.55.5-.84.74-1.18.97-2.37,1.94-3.57,2.9-.41.33-.78.74-1.34.93-.79-.4-1.62-.76-2.23-1.36.01-.29.12-.42.26-.5.36-.2.73-.38,1.1-.56.41-.2.83-.37,1.24-.57.47-.23.8-.58.85-1.14,0-.07.07-.14.14-.25,1.01-.47,2.18-.72,2.87-1.62.38-.07.59.06.8.2.2.13.37.35.66.29l-.04-.04Z"/>
      <path d="m71.32,114.01c.11-.12.2-.26.32-.35.43-.32.87-.64,1.33-.92.86-.52,1.62-1.14,2.23-1.95.76-1.01,1.72-1.78,2.87-2.32,1.35-.63,2.63-1.41,3.82-2.31.44-.33.92-.56,1.46-.66.54-.1,1.07-.1,1.57.17.25.14.51.26.8.41-.13.12-.21.24-.31.26-.79.14-1.48.52-2.18.88-1.4.72-2.79,1.45-4.26,2.01-.82.32-1.55.78-2.27,1.28-.72.5-1.35,1.08-1.86,1.81-.7,1-.75,1.08-2.07,1.42-.44.11-.88.24-1.32.35-.03,0-.07-.04-.14-.09Z"/>
      <path d="m45.91,154.86c-.14-.63-.58-1.09-.57-1.73.29-.03.53-.05.77-.09.23-.04.4-.35.31-.58-.04-.12-.08-.24-.15-.34-.15-.2-.32-.38-.47-.58-.1-.13-.2-.27-.27-.41-.2-.36-.13-.87.13-1.02.26-.15.79-.02,1.01.27.45.61.76,1.28.79,2.05.03.8-.14,1.56-.46,2.29-.13.3-.29.6-.45.88-.57,1-.63,2.04-.23,3.11.07.19.13.39.18.55-.06.21-.14.35-.31.41-.35.13-.7.25-1,.36-.21.19-.27.38-.25.6.05.58.11,1.15.17,1.73.02.16.05.32-.05.47-.07-.03-.19-.03-.22-.08-.5-.79-.71-1.67-.71-2.59,0-.34.12-.65.37-.89.15-.14.3-.28.44-.41.04-.19-.02-.33-.14-.46-.32-.32-.7-.59-.91-1-.03-.19.04-.34.17-.44.26-.2.53-.39.81-.57.54-.36.91-.83,1.03-1.53Z"/>
      <path d="m77.58,124.6c.15-.4.42-.65.78-.77.27-.1.56-.15.83-.25.15-.06.26-.18.35-.25.16-.4-.1-.7-.09-1.05.05-.08.11-.19.17-.28.1-.03.17-.07.25-.07.67,0,1.06-.4,1.32-.96.17-.37.3-.76.46-1.18.17-.03.33-.09.48-.07.49.07.98.15,1.46.25.17.03.26.17.25.36-.22.15-.48.1-.72.12-.25.02-.49.04-.74.08-.25.04-.37.39-.23.59.16.23.49.32.54.65-.05.05-.1.12-.16.14-.24.06-.49.07-.72.15-.38.13-.62.41-.7.8-.06.28-.08.57-.13.88-.24.17-.46.35-.69.51-.2.14-.41.28-.57.39-.25.3-.34.62-.43.94-.15.51-.48.86-.98,1.04-.7.25-1.4.49-2.15.54-.16.01-.32-.02-.52-.04.09-.15.13-.3.22-.34.36-.19.74-.35,1.12-.52.34-.15.71-.23.96-.52.08-.42-.3-.67-.35-1.13Z"/>
      <path d="m47.91,144.94c.16,1.66.32,3.26.48,4.89-.1.05-.2.16-.3.16-.37,0-.74-.02-1.1-.03-.08-.13-.18-.23-.19-.34-.04-.37-.08-.75-.05-1.11.12-1.16.38-2.28.87-3.34.04-.08.16-.13.29-.22Z"/>
      <path d="m95.23,110.72c.02-.07.03-.18.08-.22.33-.24.67-.48,1.02-.7,1.29-.81,2.59-1.62,3.89-2.42.07-.04.15-.06.23-.08.11.04.13.1.06.18-.88,1.05-1.79,2.05-2.84,2.9-.82.26-1.63.38-2.47.31,0,0,.02.02.02.02Z"/>
      <path d="m94.76,113.74c.04.12.06.19.1.28-.35.35-.84.48-1.25.76-.37.25-.78.47-1.12.77-.37.32-.69.7-1.03,1.05-.26-.09-.31-.15-.24-.33.19-.54.38-1.09.6-1.62.25-.58.71-.9,1.35-.91.53-.01,1.07,0,1.59,0Z"/>
      <path d="m64.48,140.05c.07-.05.14-.13.2-.12.54.06,1.03.26,1.47.57.41.29.53.7.43,1.13-.24.32-.59.16-.97.41-.18.17-.46.47-.77.73-.22.19-.45.35-.7.49-.14.08-.32.07-.44-.08-.01-.22.13-.38.24-.54.26-.37.52-.74.76-1.12.19-.3.2-.62.02-.94-.1-.17-.26-.32-.25-.54Z"/>
      <path d="m52.95,131.65c1.29-.6,2.39-1.25,3.67-1.48.07-.01.15.05.26.08-.02.11,0,.26-.06.33-1,.97-2.16,1.5-3.58,1.32-.06,0-.11-.09-.28-.24Z"/>
      <path d="m67.81,139.62c-.03.27-.2.42-.41.38-.78-.13-1.46-.49-2.08-.99-.08-.06-.09-.21-.13-.31.12-.2.28-.33.49-.37.29-.06.57-.06.84.06.11.05.23.11.32.19.28.24.55.49.81.75.08.08.12.21.16.3Z"/>
      <path d="m72.42,126.45c.22.12.19.35.15.53-.03.15-.13.3-.22.42-.07.09-.19.15-.3.21-.19.09-.38.17-.57.24q-1.21.49-2.02,1.41c-.04-.12-.11-.23-.09-.31.05-.19.13-.39.24-.56.25-.4.62-.66,1.02-.88.58-.32,1.14-.66,1.67-1.05.03-.02.08,0,.13,0Z"/>
      <path d="m68.09,131.44c.88-.04,1.09.06,1.2.57-.34.2-.69.4-1.03.62-.34.23-.66.49-1,.71-.17.11-.37.16-.56.22-.11.04-.29-.06-.29-.15,0-.08.02-.16.06-.23.04-.07.09-.14.16-.18.47-.28.8-.69,1.08-1.15.1-.17.27-.3.39-.42Z"/>
      <path d="m87.29,116.56c.03-.09.03-.19.09-.24.56-.5,1.21-.85,1.89-1.14.16-.07.32-.02.44.19-.19.86-.92,1.25-1.56,1.74-.24-.12-.43-.2-.61-.3-.1-.06-.17-.17-.25-.26Z"/>
      <path d="m95.21,110.7c-.04.15-.08.3-.13.47.17.21.34.43.54.67-.1.09-.17.21-.27.23-.7.17-1.37.06-2.01-.27-.11-.06-.13-.11-.17-.43.58-.28,1.22-.41,1.82-.65.07-.03.16,0,.24.01,0,0-.02-.02-.02-.02Z"/>
      <path d="m60.85,121.94c1.03-.53,1.87-.82,2.76-.95.11-.02.24.03.35.06.09.02.15.23.09.31-.05.06-.08.15-.15.19-.86.57-1.78.75-3.06.39Z"/>
      <path d="m61.83,145.23c.19-.55.6-.98,1.29-1.35.37.16.75.31,1.13.47.04.02.08.04.1.07.05.06.11.14.11.21,0,.06-.07.15-.12.17-.76.18-1.52.35-2.28.51-.07.01-.15-.04-.23-.07Z"/>
      <path d="m55.85,128.8c.02-.12.01-.25.07-.32.2-.28.51-.43.82-.51.65-.18,1.3-.19,1.91.17.06.04.1.12.15.17,0,.04,0,.09-.03.12-.06.05-.12.12-.19.13-.77.1-1.55.19-2.32.27-.12.01-.24-.02-.41-.03Z"/>
      <path d="m64.51,146.94c-.07.09-.14.18-.21.27-.49.15-.97.18-1.46.09-.38-.06-.68-.26-.88-.59-.06-.09-.04-.23-.06-.36.12-.05.23-.14.34-.14.74,0,1.44.22,2.1.54.07.03.11.12.17.19Z"/>
      <path d="m60.81,153.34c-.12.41-.3.62-.61.68-.29.06-.57,0-.82-.15-.28-.18-.51-.4-.58-.75.06-.17.19-.29.36-.27.57.05,1.13.12,1.65.49Z"/>
      <path d="m68.53,137.96c-.21.18-.41.17-.61.12-.64-.17-1.24-.45-1.77-.86-.08-.06-.1-.21-.16-.35.54-.21,1-.02,1.44.2.43.21.91.38,1.1.89Z"/>
      <path d="m57.5,155.19c.12-.23.31-.32.53-.3.29.03.57.07.85.15.56.14.67.55.32,1.18-.56-.12-1.06-.39-1.53-.74-.09-.06-.12-.2-.17-.29Z"/>
      <path d="m82.82,118.01c.37-.32.8-.41,1.25-.24.38.15.72.37.81.82-.07.04-.1.07-.14.08-.68.11-1.29-.11-1.88-.42-.04-.02-.03-.14-.05-.24Z"/>
      <path d="m59.9,123.81c-.05-.2.08-.3.23-.35.15-.05.32-.07.49-.07.54,0,1.06.11,1.54.37.12.07.12.18.03.29-1.15.08-1.26.07-2.29-.24Z"/>
      <path d="m53.49,134.94c-.09.11-.14.26-.23.29-.48.12-.96.22-1.44.32-.14.03-.29-.06-.28-.15,0-.08.02-.18.07-.22.45-.42.98-.58,1.58-.46.1.02.18.14.29.24Z"/>
      <path d="m72.86,130.72c.07-.07.14-.21.23-.23.59-.14,1.14-.03,1.66.27.06.04.09.13.13.2-.02.03-.03.08-.06.09-.55.23-1.12.25-1.69.07-.17-.06-.25-.2-.28-.4Z"/>
      <path d="m59.53,126.29c-.07.1-.14.2-.2.29-1.1.04-1.26.02-2.08-.32.31-.42.75-.49,1.21-.46.4.03.84.03,1.08.48Z"/>
      <path d="m60.86,125.01c-.09.06-.15.14-.21.14-.72.05-1.37-.22-2.03-.45-.03,0-.04-.07-.04-.11,0-.03.02-.08.04-.1.11-.06.21-.13.33-.15.64-.11,1.24,0,1.78.36.08.05.1.21.14.31Z"/>
      <path d="m54.35,133.28c-.18.13-.38.11-.58.07-.4-.09-.79-.19-1.18-.29-.13-.03-.24-.2-.18-.27.04-.06.1-.14.16-.15.57-.08,1.14-.1,1.65.23.14.09.22.23.13.41Z"/>
      <path d="m72.62,133.23c-.03.1-.03.23-.09.32-.09.13-.25.2-.42.21-.26,0-.48-.08-.64-.28-.07-.08-.1-.23-.07-.32.03-.1.14-.21.24-.23.37-.1.73-.07.99.31Z"/>
      <path d="m70.39,136.05c-.21.01-.4-.04-.56-.19-.14-.13-.19-.3-.11-.43.09-.14.22-.23.4-.23.21,0,.4.09.53.25.07.08.12.23.1.32-.03.1-.16.17-.25.24-.03.02-.08.02-.12.03Z"/>
      <path d="m74.04,128.25c.14-.21.34-.19.54-.17.25.03.48.11.57.4-.04.15-.13.29-.31.32-.11.02-.25,0-.36-.04-.22-.1-.46-.21-.45-.52Z"/>
      <path d="m58.08,158.27c-.16.37-.28.44-.51.3-.13-.08-.27-.18-.36-.31-.06-.08-.05-.23-.03-.34.02-.12.27-.18.42-.12.25.09.38.28.49.48Z"/>
      <path d="m90.07,135.87c-.63,0-1.16,0-1.72-.09.06-.16.08-.29.16-.37.44-.5.97-.88,1.53-1.25.38-.25.73-.53,1.08-.81.07-.06.06-.22.08-.32-.1-.03-.18-.09-.25-.08-.37.05-.73.12-1.09.17-.14.02-.28-.07-.27-.17.01-.08.02-.17.06-.23.22-.31.52-.53.85-.7.72-.37,1.25-.92,1.63-1.64.03-.07.12-.1.22-.18.08.06.17.13.25.2.03.03.05.07.06.1.35,1.1.54,1.36-.33,2.52-.54.73-1.09,1.45-1.64,2.17-.17.23-.38.43-.6.68Z"/>
      <path d="m71.19,159.83c.49-.55,1.11-.8,1.84-.83.13,0,.26.05.28.18.02.11,0,.26-.07.34-.36.44-.84.65-1.41.66-.26,0-.48-.09-.65-.35Z"/>
      <path d="m80.87,145.37c.13.16.19.32.14.48-.07.23-.17.46-.28.68-.24.46-.6.78-1.15.83-.16.02-.33.05-.49.04-.13,0-.19-.12-.15-.27.11-.04.22-.09.34-.12.55-.16.94-.48,1.07-1.07.03-.15.12-.31.22-.43.06-.08.2-.09.3-.13Z"/>
      <path d="m75.06,156.19c0,.15.05.26.01.29-.49.5-1.1.64-1.78.6-.16-.01-.3-.1-.35-.28.04-.07.07-.16.13-.2.59-.31,1.23-.4,1.98-.41Z"/>
      <path d="m83.93,140.01c-.1-.08-.21-.18-.34-.29.27-.55.75-.73,1.27-.92.04.15.12.28.08.36-.2.42-.52.71-1.01.86Z"/>
      <path d="m110.53,110.69c.19.08.41.16.63.27.05.03.08.12.11.19.03.08-.12.23-.23.24-.08,0-.17.04-.24.02-.23-.07-.46-.14-.68-.24-.05-.02-.1-.13-.09-.19,0-.07.06-.16.12-.19.1-.05.23-.06.39-.1Z"/>
      <path d="m116.49,112.33s-.06.06-.09.07c-.48.13-.89-.04-1.26-.33-.08-.06-.1-.27-.03-.34.06-.05.14-.12.21-.12.43,0,.81.14,1.09.49.05.06.06.15.08.23Z"/>
      <path d="m78.15,150.61s-.09.02-.12,0c-.37-.26-.48-.63-.44-1.05,0-.05.11-.14.16-.13.37.04.62.31.6.63-.01.2-.04.4-.2.55Z"/>
      <path d="m111.76,114.49s-.05.07-.08.08c-.37.15-.82.02-1.1-.32-.02-.03-.03-.09-.02-.12.03-.07.08-.16.14-.17.39-.1.74,0,1.01.3.05.05.04.15.05.22Z"/>
      <path d="m94.66,130.06c-.17.15-.33.33-.52.46-.08.06-.23.05-.33.02-.14-.04-.23-.25-.18-.4.04-.11.09-.23.16-.32.11-.13.26-.16.43-.15.2.02.26.06.44.38Z"/>
      <path d="m107.96,118.02c.02-.19.12-.29.3-.29.29,0,.55.08.76.29-.29.4-.48.4-1.06,0Z"/>
      <path d="m106.62,113.04c.06-.08.11-.23.19-.25.34-.08.62.05.82.35.05.08-.05.26-.15.27-.35.05-.63-.05-.85-.37Z"/>
      <path d="m96.46,127.99c-.15.35-.4.42-.72.32-.1-.03-.15-.22-.09-.31.15-.23.35-.34.66-.28.05.09.1.19.15.28Z"/>
      <path d="m69.27,163.56c.07-.11.11-.25.2-.3.14-.07.31-.11.47-.1.22.02.36.16.35.43-.33.25-.66.19-1.02-.03Z"/>
      <path d="m71.43,161.83c-.27.27-.59.24-.91.14-.06-.02-.13-.11-.14-.17,0-.07.03-.17.08-.21.29-.24.62-.23.88.01.05.05.06.15.08.23Z"/>
      <path d="m82.46,143.49c-.21.31-.49.37-.83.23-.06-.26.12-.35.29-.43.15-.07.3-.12.45,0,.03.02.05.05.07.09.01.04.01.08.02.12Z"/>
      <path d="m108.99,115.52c-.24.33-.44.36-.75.11-.04-.03-.03-.14-.02-.21,0-.03.06-.06.09-.07.25-.04.47.02.68.17Z"/>
      <path d="m114.24,115.31c.15-.16.31-.13.47-.09.17.04.31.24.24.34-.08.12-.2.12-.33.1-.21-.03-.35-.14-.39-.35Z"/>
      <path d="m99.27,123.19c.11.08.21.14.29.22.08.08.03.25-.1.28-.1.02-.23.02-.33,0-.13-.04-.2-.18-.13-.28.07-.08.17-.14.27-.21Z"/>
      <path d="m97.69,125.58c.04-.1.05-.19.09-.22.15-.12.34-.06.34.09,0,.06-.06.15-.11.16-.1.01-.21-.02-.32-.03Z"/>
      <path d="m161.16,207.24c-.07-.27.09-.48.19-.7.57-1.24,1.18-2.47,1.69-3.74,1.91-4.73,3.51-9.56,4.61-14.56.44-2.02.85-4.05,1.16-6.1.24-1.64.37-3.29.57-4.94.23-1.94.28-3.89.36-5.83.07-1.74.04-3.48-.01-5.22-.07-2.36-.18-4.72-.4-7.08-.17-1.77-.36-3.54-.62-5.31-.24-1.64-.51-3.27-.82-4.9-.94-5.02-2.27-9.93-4.08-14.71-.53-1.4-1.17-2.74-1.95-4.02-.06-.1-.1-.22-.15-.31.05-.13.12-.17.19-.1.18.17.37.33.51.54.36.56.71,1.12,1.03,1.7.77,1.42,1.42,2.9,2.02,4.4,1.43,3.54,2.61,7.16,3.52,10.87.74,3.02,1.36,6.06,1.81,9.14.27,1.84.48,3.7.65,5.55.22,2.44.33,4.88.31,7.33-.02,2.65-.14,5.3-.42,7.94-.78,7.17-2.45,14.12-5.22,20.78-1.18,2.83-2.5,5.6-4.14,8.2-.2.31-.4.63-.62.93-.04.06-.14.07-.21.1,0,0,.02.02.02.02Z"/>
      <path d="m161.13,207.22c-.15.63-.15.63-.61,1.05.06-.55.13-.66.63-1.03l-.02-.02Z"/>
      <path d="m156.38,188.72c.18.35.46.32.68.43.24.12.39.32.4.58,0,.24-.02.49-.07.73-.03.18-.18.26-.36.3-1.1-.33-1.84-.68-2.24-1.06.29-.88.54-1.79.91-2.67.14-.34.44-.48.81-.38.32.08.65.16.83.54-.18.57-.93.82-.98,1.53Z"/>
      <path d="m158.98,163.54c.4-.73,1.02-.91,1.77-.86.07.11.16.21.19.32.24.89.2,1.79.1,2.68-.01.12-.09.23-.14.34-.05.11-.32.19-.44.13-.11-.05-.23-.11-.3-.2-.52-.74-.88-1.56-1.18-2.42Z"/>
      <path d="m155.28,195.88c-.12-.02-.19-.03-.31-.05,0-.19-.04-.4-.02-.6.11-1.03.24-2.05.49-3.06.05-.19.18-.36.25-.5.46-.17.87-.13,1.28-.04.17.04.28.16.36.38-.13.3-.24.66-.42.98-.28.51-.62.98-.9,1.48-.26.46-.49.95-.72,1.41Z"/>
      <path d="m160.86,161.07c0,.31-.13.5-.26.56-.17.07-.33.04-.45-.08-.55-.56-.98-1.2-1.36-1.88-.08-.14-.1-.31-.12-.47-.05-.33.08-.63.31-.74.25-.12.48-.04.69.09.35.22.63.53.8.91.25.57.38,1.16.4,1.61Z"/>
      <path d="m150.33,204.32c.36.17.41.51.55.75-.04.4-.25.65-.48.88-.64.63-1.25,1.3-2.06,1.67-.34-.02-.45-.23-.48-.49.06-.3.26-.51.48-.7.65-.56,1.25-1.18,1.71-1.91.06-.09.19-.14.27-.2Z"/>
      <path d="m157.44,176.63c-.09-.22-.18-.41-.25-.6-.07-.19.06-.47.24-.5.68-.14,1.31-.05,1.81.49.05.05.05.15.08.24-.06.1-.1.22-.19.3-.55.5-1.1.99-1.65,1.49-.03.03-.07.05-.11.05-.08,0-.19.02-.23-.02-.07-.08-.17-.23-.14-.31.11-.35.26-.69.44-1.13Z"/>
      <path d="m157.57,172.69c.81-.36,1.56-.86,2.21-1.41.26,0,.37.11.38.3.06.65,0,.8-.51,1.49-.35.11-.74.24-1.14.36-.34.1-.62.4-1.02.37-.15-.37-.15-.73.07-1.1Z"/>
      <path d="m140.69,214.86c.02-.45.42-.62.59-.94.15-.29.34-.56.53-.88.19-.02.39-.06.59-.06.45,0,.91.03,1.36.05.03,0,.06.04.08.06,0,.08.01.18-.03.23-.58.6-1.24,1.08-1.98,1.46-.26.14-.54.22-.83.2-.11,0-.21-.09-.32-.13Z"/>
      <path d="m147.19,209.34c-.07.14-.09.28-.17.35-.63.48-1.34.76-2.13.84-.08,0-.16-.04-.23-.06-.08-.02-.19-.22-.16-.3.19-.56.55-1,1.04-1.32.1-.06.23-.1.35-.09.5.03.95.18,1.31.57Z"/>
      <path d="m153.5,197.98c.41.07.64.31.82.59.33.49.11,1.23-.42,1.46-.34.15-.69.25-1.07.24-.11,0-.21-.08-.34-.13.18-.66.42-1.27.7-1.85.06-.13.22-.22.3-.3Z"/>
      <path d="m160.81,157.33c-.12.19-.29.23-.44.16-.45-.21-.89-.43-1.32-.66-.14-.08-.24-.25-.21-.42.01-.11.1-.22.14-.3.42-.2.75,0,1.07.18.41.24.67.59.76,1.04Z"/>
      <path d="m157.48,181.84c.4.15.51.46.61.81-.05.08-.08.23-.17.27-.43.22-.88.41-1.38.35-.03,0-.06-.04-.13-.09.22-.57.51-1.07,1.07-1.35Z"/>
      <path d="m159.72,170.28c-.47-.05-.67-.37-.75-.8-.03-.17.11-.4.28-.49.19-.1.39-.11.57.02.25.18.34.44.32.74-.02.27-.14.45-.42.53Z"/>
      <path d="m152.07,194.58c.42.3.47.66.28,1.07-.26.03-.42-.09-.53-.28-.11-.19-.14-.4-.04-.59.05-.09.18-.14.28-.21Z"/>
      <path d="m151.58,201.16c0,.14-.2.28-.36.26-.15-.02-.3-.19-.29-.34,0-.15.18-.28.35-.25.15.02.3.2.29.33Z"/>
      <path d="m157.7,195.59c0-.08.01-.16.02-.24.17.11-.03.14-.05.21,0,0,.03.03.03.03Z"/>
      <path d="m41.53,138.82c-.11-.02-.29-.01-.42-.09-.53-.31-.99-.72-1.38-1.2-.02-.02,0-.07,0-.13.38-.12.77-.24,1.16-.36.19-.44.17-.82-.1-1.19-.1-.13-.17-.27-.27-.42.15-.66.62-1.03,1.12-1.43.13.18.23.27.25.37.09.44.16.89.23,1.34.02.16.04.33.03.49-.07.7-.14,1.39-.23,2.08-.03.2-.13.39-.38.53Z"/>
      <path d="m45.01,133.26c.28.12.61.27.96.43-.03.15,0,.29-.07.37-.41.48-.93.81-1.52,1.03-.06.02-.15-.04-.26-.07-.37-.74-.47-1.55-.47-2.38,0-.29.06-.58.24-.82.3-.39.61-.78.93-1.16.06-.07.21-.06.31-.09.18.21.12.42.08.61-.11.48-.24.96-.36,1.44-.05.21-.01.41.16.64Z"/>
      <path d="m39.11,138.93c.1-.04.18-.11.24-.09.94.28,1.76.71,2.05,1.75,0,.03,0,.09-.02.12-.47.59-1.07,1.02-1.78,1.27-.4.14-.91-.25-.98-.71-.02-.15.13-.37.26-.37.2,0,.41.03.61.03.16,0,.32-.01.48-.04.19-.04.31-.34.21-.5-.11-.17-.21-.35-.35-.51-.19-.22-.41-.4-.6-.62-.07-.08-.09-.21-.13-.32Z"/>
      <path d="m38.38,143.37c.52-.07.92-.11,1.23.25-.06.15-.08.28-.15.37-.59.73-1.19,1.46-1.79,2.18-.07.09-.19.13-.32.22-.01-.15-.06-.27-.03-.38.22-.92.59-1.77,1.06-2.63Z"/>
      <path d="m46.6,127.99c-.45-.14-.66-.47-.74-.95.25-.32.72-.34.99-.65.24-.28.48-.56.72-.83.09,0,.21,0,.23.03.25.52.16,1.04-.07,1.54-.22.48-.57.79-1.12.85Z"/>
      <path d="m36.53,158.43c-.15.19-.29.4-.46.58-.3.31-.66.49-1.11.45-.22-.02-.39-.13-.47-.37.03-.1.05-.23.12-.33.3-.41.67-.73,1.14-.93.39-.16.67.02.74.52,0,.04,0,.08,0,.12,0,0,.03-.04.03-.04Z"/>
      <path d="m36.73,155.39c-.09.3-.19.6-.28.87-.41.3-.8.24-1.2.14-.11-.03-.26-.26-.26-.38,0-.69.85-1.24,1.49-.94.1.04.15.18.25.3Z"/>
      <path d="m38.15,149.41c.05.1.14.2.15.31,0,.25-.07.48-.21.69-.14.22-.32.35-.58.39-.29.04-.41.02-.79-.17-.04-.32.13-.54.33-.75.3-.3.41-.34,1.1-.48Z"/>
      <path d="m44.92,136.29c-.02.42-.38.76-.74.71-.11-.02-.23-.09-.3-.18-.18-.23-.07-.64.22-.86.18-.14.49-.12.67.06.08.08.11.2.15.27Z"/>
      <path d="m35.93,153.66c.19-.39.55-.45.93-.53.07.06.2.13.22.22.02.09-.04.26-.12.31-.32.19-.66.26-1.03,0Z"/>
      <path d="m37.56,147.62c.32-.23.64-.45.96-.68.08.07.16.12.17.17,0,.07-.02.16-.07.21-.25.27-.55.48-.93.52-.03,0-.07-.12-.12-.22Z"/>
      <path d="m43.58,139.06c-.15,0-.28-.08-.24-.17.03-.06.09-.13.16-.16.06-.02.16-.02.21.02.05.04.09.15.07.2-.03.06-.13.07-.2.11Z"/>
      <path d="m42.76,141.6c-.1.16-.2.33-.31.49-.07.1-.16.16-.29.14l.04.04c.1-.17.19-.34.3-.5.07-.1.17-.16.3-.13,0,0-.03-.03-.03-.03Z"/>
      <path d="m41.99,142.83c.07-.19.14-.37.21-.56,0,0-.04-.04-.04-.04.04.23.08.46-.21.57,0,0,.03.03.03.03Z"/>
      <path d="m42.8,141.63c-.02-.08-.04-.16-.05-.23,0-.04,0-.1.03-.11.09-.05.14,0,.1.11-.03.07-.08.14-.12.21l.03.03Z"/>
      <path d="m182.3,23.88c-.07.17-.06.34.01.51-.11.03-.24.03-.33.09-.41.25-.81.52-1.22.76-.13.08-.3.09-.45.13l.03.03c-.01-.19.12-.3.25-.38.57-.39,1.14-.76,1.71-1.14Z"/>
      <path d="m180.31,25.37c-.05.06-.09.11-.15.16-.01,0-.09-.03-.09-.03.05-.14.16-.1.26-.1,0,0-.03-.03-.03-.03Z"/>
      <path d="m177.27,27.08c.06-.04.12-.08.19-.11.03-.01.09,0,.09,0,.04.08,0,.12-.1.12-.07,0-.14-.03-.21-.05,0,0,.03.03.03.03Z"/>
      <polygon points="178.36 26.54 178.27 26.5 178.37 26.47 178.36 26.54"/>
    </g>
  </g>
</svg>