<svg id="Слой_1" data-name="Слой 1" xmlns="http://www.w3.org/2000/svg" viewBox="0 0 1000 1000">
  <title>Meat_43_1</title>
  <g>
    <g>
      <path d="M693.47074,777.16682c-2.32255,1.44193-3.35884,3.99744-4.54153,6.30277a49.2411,49.2411,0,0,0-5.232,14.11657c-3.39328,18.727,23.303,22.5776,36.78029,24.35606,15.757-.88041,5.87128-20.82477.19873-27.9737C715.02088,785.68,705.90358,771.00229,693.47074,777.16682Zm27.447,41.47728c-10.08446-1.2432-28.3451-3.842-33.49962-13.75377-2.15848-6.43238,1.27787-13.037,3.90271-18.89968a13.91147,13.91147,0,0,1,2.32254-3.39307,1.65326,1.65326,0,0,0,.50943-1.623,5.84709,5.84709,0,0,1,4.63691-1.927,14.73742,14.73742,0,0,1,9.41894,4.08529C712.87962,787.98506,735.561,816.7793,720.91778,818.6441Z"/>
      <path d="M999.973,705.72273c-.76-33.07675-.65626-70.565-23.15613-97.14024-.70019-.76952-1.41933-1.52052-2.14815-2.26183-3.85641-9.95722-8.41947-20.80086-17.42007-26.41528-5.6381-2.1587-11.81146.09495-17.622.44871-3.78321.5781-7.619,1.00592-11.46008,1.44257a88.73509,88.73509,0,0,0-26.68441-1.17473C884.96532,582.6424,870.6244,592.2,858.26066,602.82855c-36.841,32.55829-64.78025,73.76815-101.19839,106.74973a307.57568,307.57568,0,0,1-28.88037,22.69c-9.85,6.92695-20.23072,13.72471-28.8696,22.201a24.4187,24.4187,0,0,0-7.09359,2.39532c-10.90458,6.916-17.38,18.81334-23.27714,29.93387-4.25646,10.6714-1.91669,24.25271,5.10284,33.26665a24.50159,24.50159,0,0,0,2.72173,2.593,178.83139,178.83139,0,0,0,9.83858,16.873c27.11913,42.53057,78.0765,58.56383,126.3834,58.80584q2.44485.04165,4.8927.04177c27.84645-.00022,56.17562-4.16237,81.20473-16.8523,15.39444-7.684,29.17383-18.21758,42.10749-29.47591,12.10493-10.52477,23.38932-22.13751,32.41187-35.44257C995.41429,784.12714,1000.422,744.03129,999.973,705.72273ZM678.21927,819.51137a21.16642,21.16642,0,0,1-1.99915-2.01939c-6.60506-9.29-8.54759-23.06119-2.32255-33.04187,5.0854-8.92739,10.74912-18.71839,19.68513-24.555a16.42724,16.42724,0,0,1,1.54657-.78071c.32145-.14361.64485-.28292.97384-.40651.16428-.06179.33136-.11626.49758-.17332.3079-.1055.61751-.20476.93057-.29368.16665-.04759.334-.09345.5021-.13651.33653-.08612.67608-.16191,1.01756-.23017.14167-.02842.28249-.0605.425-.0859.48509-.08656.97342-.16062,1.466-.21424l.00065-.00064a24.147,24.147,0,0,1,2.61537-.13888,28.28538,28.28538,0,0,1,3.9055.281c.13349.01873.2657.04651.399.06675a32.447,32.447,0,0,1,3.47187.72279,40.392,40.392,0,0,1,3.66221,2.21145c.21315.143.42351.29239.63451.44031q.48639.34105.96308.69631c.24761.18474.49672.36667.7411.55658l.00086-.00044c6.4382,4.97668,11.66656,11.675,16.28517,18.47272l-.00258.00431c.44052.639.87222,1.27786,1.2953,1.9253l.00259.00021q.72764,1.09744,1.4387,2.19078a81.64751,81.64751,0,0,1,6.9306,14.11248c.13651.35785.26871.71978.40091,1.08193a67.0095,67.0095,0,0,1,2.947,10.60875q.14856.801.2672,1.59695c.01356.08978.02906.18021.042.26978q.13371.9324.22758,1.85511c.65842,6.46446-.26095,12.41606-3.89108,16.454-.27624.31-.57164.60545-.87932.89116-.07665.07062-.15632.13909-.2349.20842-.22586.2-.46249.39165-.7045.5794-2.68771,2.06482-6.41257,3.36443-11.434,3.58448-13.5122-.49371-40.59666-6.78786-51.77921-16.70847Zm266.00447,25.36414c-36.73745,34.72559-73.50934,50.24081-124.294,50.19754-54.71323.82033-109.15862-15.98116-136.46787-67.01647-.25686-.45538-.50361-.917-.75724-1.37475,13.47839,7.65211,34.98849,12.40529,47.01117,12.86993,6.82489-.20842,11.67194-2.13265,14.97264-5.18079q2.00206.41566,4.02263.76241c3.17733.54388,6.363,1.02746,9.55782,1.42471a194.17608,194.17608,0,0,0,23.80379,1.4936c1.63162,0,3.27228-.02605,4.9039-.06911,4.66231-.12962,9.32463-.45753,13.96111-.93251,4.7056-.48337,9.40258-1.07913,14.06468-1.89063a187.581,187.581,0,0,0,53.60783-17.94134,205.967,205.967,0,0,0,24.27015-14.98,186.5406,186.5406,0,0,0,21.59321-18.02746c3.39328-3.26388,6.68278-6.63111,9.79961-10.15379q4.68847-5.30953,9.06583-10.90458a158.17588,158.17588,0,0,0,15.10915-23.61367,172.55541,172.55541,0,0,0,10.8529-25.6083A122.60778,122.60778,0,0,0,963.1,700.53053a.02723.02723,0,1,0-.05167-.01722c-.12962.354-.26785.71655-.39725,1.07052-.51825,1.3642-1.01,2.737-1.511,4.101-1.47638,4.06677-3.11661,8.073-4.85223,12.03581a218.13057,218.13057,0,0,1-12.91621,24.65c-.14685.24179-.36259.59555-.57876.94973a240.801,240.801,0,0,1-16.04165,22.81939l-.00862.00861c-.03444.04307-.07751.095-.11239.138a207.97929,207.97929,0,0,1-17.58715,18.848l-.02583.02584c-.03445.03466-.07773.0689-.1124.10378a206.922,206.922,0,0,1-18.632,15.1436c-.32792.22478-.81151.56992-1.29488.91549a170.61741,170.61741,0,0,1-18.468,11.198c-.02583.00883-.08655.04306-.15545.07773-3.67814,1.94252-7.53757,3.82476-11.44006,5.61205-3.81593,1.73539-7.71,3.29833-11.63835,4.79193-3.88527,1.4331-7.8052,2.78008-11.76819,3.98022-3.885,1.18269-7.805,2.16688-11.75053,3.11661-3.69536.85478-7.6239,1.66649-11.57828,2.33137-4.02328.69072-8.06422,1.19153-12.11333,1.62322a198.52023,198.52023,0,0,1-24.00231.77684,189.47784,189.47784,0,0,1-22.46542-2.03748c-2.06331-.32684-4.30663-.72215-6.55037-1.15169,3.02963-4.404,3.93716-10.2369,3.48867-16.44127,3.05029.53289,6.12341.94327,9.18317,1.30908a141.1649,141.1649,0,0,0,14.40983.96718c.67348.00861,1.347.00861,2.01164.00861a155.31164,155.31164,0,0,0,17.458-1.07935q3.69116-.41436,7.33883-1.02724a162.86588,162.86588,0,0,0,27.48171-7.03676c4.619-1.63183,9.152-3.43634,13.633-5.4047,4.41213-1.94274,8.71165-4.11845,12.98555-6.37188,4.17873-2.20176,8.22806-4.65371,12.2255-7.17477q5.86665-3.717,11.48312-7.82242c.03445-.02584.10356-.08634.1815-.13823.03445-.02584.16386-.121.30208-.21574.06029-.0605.20713-.15545.33653-.259.17268-.12078.34558-.24179.518-.37119,3.81636-2.78891,7.49429-5.74167,11.0947-8.78959A206.89964,206.89964,0,0,0,911.262,752.10089a203.26543,203.26543,0,0,0,17.596-22.34464c2.69374-3.98043,5.28371-8.01232,7.74448-12.13938,2.4091-4.04933,4.64509-8.18478,6.74307-12.407A170.48981,170.48981,0,0,0,953.551,679.2562c1.29487-4.239,2.4864-8.50409,3.41869-12.83849.35418-1.68372.74282-3.35861,1.03629-5.05073.14662-.82895.259-1.64928.38-2.478l-.00861.00861c.32791-2.219.69071-4.42053.93229-6.63951a.03083.03083,0,0,0-.06029-.00861c-.51825,2.098-.9844,4.23062-1.57133,6.3202-.21617.77684-.46636,1.61439-.70837,2.45173-.28485,1.01907-.54366,2.05492-.82873,3.08259-.00861.02584-.03445.12941-.0605.24158-.095.34536-.20691.734-.32792,1.12263-1.226,4.22179-2.49522,8.4438-3.963,12.58808-1.53688,4.36-3.22039,8.65976-5.00767,12.92483-.04328.10378-.11218.26785-.18151.42309a.24227.24227,0,0,1-.02584.05189.30689.30689,0,0,1-.03445.07772c-.09516.23319-.216.518-.33653.8029-.49219,1.14846-1.06212,2.45216-1.64044,3.74725a239.45484,239.45484,0,0,1-12.73514,24.71885,206.53144,206.53144,0,0,1-14.68628,21.26529c-.08634.11239-.17268.22457-.26785.33674-.11218.12962-.233.3023-.371.46636-.16428.20713-.35418.44871-.53547.68211-.03467.03444-.095.11217-.15524.1899-2.67673,3.29811-5.4482,6.59623-8.37512,9.75633-2.92671,3.1601-5.95741,6.1992-9.057,9.18641-3.20316,3.00465-6.50128,6.01791-9.929,8.88433q-5.29693,4.41621-10.84408,8.49569l-.04306.03466a189.89719,189.89719,0,0,1-19.07235,12.04443c-1.61461.8634-3.212,1.73519-4.85244,2.57274-1.88224.95834-3.79031,1.88224-5.69839,2.78891-3.46218,1.64884-7.01092,3.10821-10.55922,4.5327q-.531.207-1.06213.41447c-.36258.138-.76822.29347-1.18269.45753a173.98489,173.98489,0,0,1-40.39815,9.91179l-.3109.03445c-.20713.01744-.63883.0605-1.07914.121a155.05379,155.05379,0,0,1-18.99463.82012,145.8834,145.8834,0,0,1-17.57014-1.27786c-.06889-.01723-.3798-.06029-.6821-.11218-2.00345-.29777-4.00584-.66552-6.0052-1.05933a63.73453,63.73453,0,0,0-2.59513-10.4802q.385.01938.7693.0394c2.6074.138,5.215.22436,7.831.22436.38,0,.75983-.01744,1.13964-.01744a151.24457,151.24457,0,0,0,28.17242-2.98721c4.67115-.93229,9.2904-2.14126,13.85755-3.488,4.61926-1.38143,9.16058-2.97,13.6416-4.73143a185.077,185.077,0,0,0,25.38373-12.58809,223.88743,223.88743,0,0,0,23.1303-15.9902c1.90808-1.485,3.82477-2.95276,5.68117-4.50686q2.7972-2.33117,5.491-4.80055c1.75284-1.58855,3.4624-3.229,5.16313-4.88667.04328-.05189.09517-.08634.13823-.13823a1.46783,1.46783,0,0,1,.12079-.10356,1.65166,1.65166,0,0,1,.17268-.17268c1.70956-1.67511,3.39328-3.35,5.05956-5.05957,3.24623-3.33256,6.44939-6.68257,9.47126-10.20525,3.03071-3.53991,5.94019-7.2006,8.77216-10.896A276.139,276.139,0,0,0,917.46956,697.198c2.452-3.97182,4.72282-8.02976,6.91575-12.15661,2.10681-3.95459,4.13567-7.96065,6.0093-12.0356A265.41923,265.41923,0,0,0,940.53075,647.639c2.20176-6.49267,4.222-13.05445,6.00929-19.6679.44031-1.60621.84617-3.26388,1.19131-4.93878.00862-.03445-.04306-.03445-.05167-.01722-.4922,1.24341-.94973,2.48661-1.41588,3.747-.69071,1.83035-1.33836,3.69536-2.0463,5.54294q-2.25365,5.90605-4.69677,11.72491c-.03467.08655-.121.27624-.20734.4838-2.98721,7.06237-6.225,14.19386-9.69583,21.18756q-3.05622,6.13859-6.29415,12.20828c-2.14126,4.04072-4.39469,8.01211-6.7,11.94926-.07752.13823-.3107.53548-.54388.93272-.03445.04306-.21574.33653-.3798.63861-.19873.32813-.39725.67349-.59577,1.01885l-.01744.01744c-.03445.0689-.0689.12079-.09495.17268,0,0-.07751.138-.15545.27624l-.27624.46614c-1.04447,1.74423-2.15827,3.62647-3.31534,5.491a275.46308,275.46308,0,0,1-16.016,22.86288c-.76822.967-1.57994,1.96837-2.39144,2.97-2.98743,3.66069-6.01791,7.28694-9.14335,10.82706-3.16871,3.59159-6.47544,7.02772-9.88595,10.39516-3.20316,3.07376-6.57018,6.1992-9.99791,9.2383-3.43634,3.05632-6.9502,5.99185-10.63716,8.75471-3.37584,2.48661-6.959,5.00767-10.64556,7.37328q-5.50429,3.54874-11.198,6.75169c-3.22922,1.74422-6.65673,3.50546-10.145,5.14612-3.50524,1.65767-7.07981,3.14244-10.68022,4.57576-3.324,1.2953-6.72585,2.52128-10.17081,3.64369-3.40168,1.10518-6.84663,2.0547-10.30881,2.93532a180.44549,180.44549,0,0,1-20.60041,3.7817h-.00862a.05589.05589,0,0,1-.04327.01744,170.72964,170.72964,0,0,1-20.592,1.10518c-.613-.00883-1.24061-.03746-1.86566-.06244a73.50414,73.50414,0,0,0-4.31674-9.68743q-1.723-3.3062-3.662-6.528c.861.01658,1.72226.02864,2.5835.02864,3.41891,0,6.83781-.121,10.24832-.31974a107.94829,107.94829,0,0,0,13.52942-1.74379,141.33671,141.33671,0,0,0,26.316-8.00371c4.32557-1.7354,8.57342-3.66091,12.74354-5.71583,4.2739-2.098,8.47869-4.29952,12.58852-6.69118a269.50924,269.50924,0,0,0,23.23386-15.35977,273.77693,273.77693,0,0,0,21.51569-17.94112c3.53991-3.16871,6.98487-6.42377,10.32605-9.79961,3.26388-3.29833,6.39793-6.71723,9.49753-10.1708,3.20316-3.56575,6.43238-7.12288,9.51454-10.78379,3.02187-3.58319,5.90573-7.26972,8.72887-11.00815q4.23471-5.63379,8.21967-11.44005c2.62462-3.82477,5.30114-7.61508,7.66675-11.60391,2.45194-4.13567,4.70538-8.37512,6.89852-12.65741,2.10659-4.10984,4.13567-8.26273,5.923-12.5278q2.66769-6.35886,4.93856-12.87316c1.49339-4.23924,2.7368-8.54758,3.81615-12.90761.75983-3.05654,1.45915-6.13891,1.97719-9.24691.1899-1.088.354-2.18453.52643-3.2811.00861-.03445-.04306-.05168-.05167-.01723-.24179.81172-.50081,1.62322-.75961,2.43494q-1.32126,4.1052-2.76308,8.17639c-1.485,4.21318-3.18593,8.34024-4.88667,12.46708-.07772.18129-.16406.39725-.2504.60438-.60438,1.44214-1.28648,3.05653-2.003,4.66231-1.89085,4.23945-3.98883,8.38374-6.087,12.528q-3.0953,6.11243-6.49267,12.06144c-2.59879,4.42052-5.39609,8.95344-8.14172,13.5122q-3.61365,5.98323-7.61508,11.69046-4.028,5.711-8.30579,11.23271c-2.31393,2.97859-4.67114,5.94858-7.05419,8.86688q-4.42914,5.43938-9.2467,10.52478c-3.26366,3.43634-6.58762,6.795-9.95506,10.12774a.80111.80111,0,0,1-.12079.12079c-.37119.36236-.777.75983-1.18291,1.15686-2.34839,2.29671-4.88667,4.76588-7.5113,7.14893-6.92458,6.26831-14.30669,12.01838-21.7577,17.639-.79449.59576-1.78729,1.32975-2.78869,2.05491a242.03938,242.03938,0,0,1-23.33743,14.77262.03162.03162,0,0,1-.02584.00862c-.06071.03445-.11239.06911-.17267.10378-3.42774,1.89085-6.89853,3.74682-10.44727,5.44776-3.41912,1.64045-6.89852,3.15149-10.40376,4.58481-.10357.04306-.20735.09474-.31091.1294-.24158.09495-.50081.19873-.751.3023l-.27646.11217a159.99118,159.99118,0,0,1-18.96858,6.10425,135.35254,135.35254,0,0,1-14.75539,2.78869,76.9982,76.9982,0,0,1-9.13473.56993,61.01937,61.01937,0,0,1-6.88088-.512,98.03008,98.03008,0,0,0-6.975-9.57612c1.01131-.32059,2.01853-.65217,3.02618-.979,1.60578-.518,3.20295-1.01885,4.80916-1.51944,4.317-1.3642,8.64232-2.70257,12.91622-4.21361,4.4033-1.56272,8.76354-3.25484,13.09773-5.0249,4.29091-1.75263,8.54758-3.57436,12.74354-5.55155q6.42377-3.01746,12.70909-6.31138c4.07538-2.13264,8.15916-4.27368,12.1566-6.55338,4.24807-2.4259,8.40957-4.96418,12.54524-7.55436,1.98559-1.24341,3.94577-2.5385,5.90552-3.825,1.9253-1.26042,3.85082-2.51245,5.75889-3.7901,3.98861-2.66812,7.95161-5.37908,11.77659-8.27134q6.17766-4.62388,12.24272-9.57525c7.34767-6.03492,14.626-12.17384,21.36907-18.89085,3.117-3.07377,6.36327-6.38049,9.60109-9.70466,3.06494-3.15989,6.05215-6.38911,8.82361-9.81684,2.94437-3.65187,5.68138-7.4424,8.37491-11.27577,2.57317-3.6523,5.13729-7.313,7.3735-11.18943,2.27066-3.93716,4.4033-7.96065,6.32-12.08771.9325-2.003,1.77006-4.05773,2.57295-6.11265.70815-1.82173,1.39025-3.6523,2.003-5.5087a105.56275,105.56275,0,0,0,3.212-11.69885c.00861-.03467-.04328-.04328-.05189-.00862q-1.049,3.08238-2.27927,6.10425c-1.2348,2.98721-2.599,5.94018-4.058,8.82383-1.52826,3.01326-3.212,5.9574-4.87827,8.88432l-.02584.03467a.24924.24924,0,0,1-.02583.05167c-2.18454,3.77309-4.56737,7.42518-6.97626,11.05142-1.26925,1.89947-2.5469,3.79893-3.8422,5.68117-1.20853,1.76123-2.46939,3.46218-3.76426,5.16313-2.2276,2.8578-4.53292,5.6465-6.85546,8.4354-2.89226,3.45357-5.76729,6.94138-8.71165,10.36071-1.52806,1.77846-3.09078,3.53969-4.697,5.24925-1.57972,1.6749-3.21156,3.307-4.835,4.93878-.29347.28485-.58694.57832-.8804.86339-3.2725,3.2374-6.674,6.50968-10.15337,9.687-3.5229,3.22039-7.10608,6.36327-10.79262,9.38514-3.62624,2.97-7.32161,5.83662-11.06,8.66-5.4566,4.08378-10.99092,8.17639-16.71536,11.99232-3.81593,2.54712-7.72747,4.9644-11.65558,7.33022q-6.22934,3.74316-12.53663,7.33044c-4.36,2.44312-8.81521,4.74844-13.29624,6.976-8.27134,4.10983-16.68069,7.94321-25.23689,11.43144a215.15549,215.15549,0,0,1-23.99369,8.461c-1.01023.25923-2.13264.53547-3.24644.82033-.068.01722-.14167.03639-.21144.05426a78.27681,78.27681,0,0,0-8.09048-8.05237c1.58727-.62634,3.19606-1.27636,4.80809-1.95846,4.36024-1.83035,8.66-3.82476,12.91665-5.87968,4.27368-2.06353,8.5127-4.18735,12.64837-6.50128.39725-.216.872-.48359,1.347-.7426,3.93694-2.18432,7.89132-4.50687,11.80242-6.88109,4.29112-2.6074,8.55641-5.25808,12.82148-7.90876,4.16151-2.59018,8.30579-5.2148,12.38118-7.93459,8.27995-5.5171,16.32672-11.39678,24.30438-17.337,1.7354-1.28648,3.60041-2.711,5.448-4.14429q11.889-9.208,23.303-18.986c7.42517-6.33722,14.72934-12.85594,21.6367-19.76307q5.11544-5.12868,9.99812-10.48171c3.21178-3.51386,6.3286-7.07961,9.19481-10.88736q2.09862-2.771,4.03232-5.65511c1.14825-1.73518,2.33116-3.47941,3.37584-5.27531A57.37127,57.37127,0,0,0,894.184,623.68c.06912-.16428.13823-.31973.20713-.4838a28.6212,28.6212,0,0,0,1.28648-4.13567c.00861-.03423-.04306-.05167-.05168-.017-.06911.16385-.13822.31931-.19851.48337a41.576,41.576,0,0,1-2.39188,4.66232c-.75961,1.31231-1.57111,2.6074-2.45173,3.868-1.46777,2.08937-2.90108,4.19617-4.45541,6.21642-.12078.16407-.30208.397-.48337.63043-1.269,1.597-2.59879,3.22017-3.95438,4.81756-1.51944,1.80451-3.06493,3.56574-4.61042,5.33559-1.57155,1.7959-3.13405,3.609-4.75749,5.353-3.29811,3.55735-6.69958,7.01092-10.15315,10.4126-.40586.38863-.82894.80289-1.252,1.21736-2.45217,2.39188-5.08541,4.90411-7.72726,7.39072-7.16637,6.72585-14.53965,13.236-22.15494,19.45238-7.62369,6.23365-15.41145,12.25134-23.30277,18.14846-.42308.3107-.99279.73378-1.56293,1.15686-1.06191.77706-2.262,1.65767-3.47079,2.52989-4.01467,2.89226-8.08984,5.707-12.16522,8.51292-3.93694,2.71118-7.88271,5.43076-11.87154,8.07283-4.07517,2.70213-8.20222,5.33559-12.39818,7.83943-4.30856,2.56434-8.66859,5.04234-13.04605,7.47706-1.89946,1.03585-3.94555,2.15848-6.00047,3.25484-4.2134,2.27087-8.45263,4.49846-12.76959,6.58783-4.11845,1.99441-8.33163,3.8422-12.59692,5.52571-1.06535.41856-2.14814.84552-3.24493,1.237-.51179-.4035-1.024-.80656-1.54765-1.19584a19.35518,19.35518,0,0,0-4.73961-2.523c.23318-.177.46485-.35612.69954-.53138,1.06191-.76844,2.25343-1.61461,3.42773-2.46056,1.21736-.872,2.50362-1.6665,3.747-2.48661,2.07214-1.37282,4.18756-2.67652,6.26831-4.0235,4.66232-3.01326,9.28136-6.0868,13.92645-9.14334,4.91273-3.23783,9.83406-6.46662,14.72073-9.76495q3.72993-2.52525,7.434-5.07679c2.18431-1.49382,4.29952-3.08216,6.43237-4.63626,1.44172-1.0449,2.82315-2.21037,4.23041-3.31556,1.23459-.96695,2.44355-1.96857,3.6523-2.96137,2.4259-1.99441,4.835-4.02349,7.25228-6.02652q3.60041-2.9787,7.20082-5.96623c.93251-.76823,1.865-1.54528,2.78008-2.33956,1.07913-.93251,2.20176-1.83918,3.255-2.81474,4.2739-3.98022,8.47847-8.02955,12.68326-12.07006,2.49522-2.32254,5.04212-4.602,7.49429-6.95924,2.58156-2.47778,5.11985-5.00767,7.70141-7.49407,1.33815-1.269,2.68513-2.53829,4.01467-3.825.01744-.01722.03466-.02584.05189-.04306l.00861-.01723c1.71817-1.54549,3.42773-3.117,5.15452-4.66231,4.1615-3.704,8.23667-7.5029,12.37234-11.24133,2.14126-1.94274,4.27369-3.89388,6.441-5.802,2.06353-1.81312,4.13568-3.63508,6.12126-5.53432,2.1587-2.05492,4.30835-4.12706,6.38049-6.27715,1.95975-2.01142,3.83359-4.10079,5.71583-6.18154,1.7959-2.01185,3.69515-3.92876,5.53432-5.89712.613-.66488,1.24342-1.32114,1.7959-2.03769a10.88,10.88,0,0,0,.76823-1.20014c.2504-.40564.53526-.79428.8031-1.19131.1294-.19873.27625-.38863.42287-.57853a1.41939,1.41939,0,0,0,.3023-.48359c.00861-.02584-.03445-.04306-.04306-.01722-.00862.01722-.01723.02583-.02606.04306a.14532.14532,0,0,1-.03445.04327.15149.15149,0,0,1-.0605.0689c-.45753.4233-.88062.85478-1.32092,1.29531a7.22949,7.22949,0,0,0-.70816.75121,5.27639,5.27639,0,0,1-.48337.52665c-1.13963,1.088-2.41771,2.098-3.67814,3.12522-1.65767,1.347-3.30672,2.68535-4.90389,4.10984-2.10659,1.87362-4.17873,3.79052-6.32021,5.6381-2.21015,1.90807-4.47219,3.77287-6.71723,5.64671-4.28251,3.583-8.677,7.0107-12.90761,10.65418-4.317,3.704-8.52174,7.56318-12.70047,11.42261-1.93392,1.78729-3.87666,3.56575-5.7589,5.42215q-3.43182,3.39306-6.795,6.86407c-1.83013,1.882-3.66048,3.76426-5.51709,5.62045-1.93392,1.93391-3.89367,3.825-5.82779,5.75889-4.09261,4.09261-8.13312,8.22806-12.2774,12.26878-2.219,1.99442-4.58459,4.14429-7.00209,6.24248-4.10122,3.54852-8.185,7.11427-12.30345,10.63695-2.40867,2.05492-4.835,4.06634-7.29555,6.061-2.003,1.63183-4.12706,3.12544-6.19059,4.67093-4.07517,2.82314-8.1245,5.66394-12.24294,8.41818q-6.56621,4.41623-13.158,8.78916c-4.5932,3.06494-9.16918,6.14753-13.81427,9.13474q-3.8336,2.47357-7.64092,4.99906c-1.91173,1.27937-3.75414,2.68491-5.60774,4.06074a24.67335,24.67335,0,0,0-5.08153-.66229c13.43856-12.081,29.58378-20.95783,43.43983-32.59015,19.01207-15.16147,35.68415-33.1717,51.51028-51.60524,13.78823-15.97254,28.0863-32.01462,42.85871-47.27923,12.08749-12.43284,24.77074-24.76191,40.32924-32.77424a65.84408,65.84408,0,0,1,33.5795-6.32494c.38842.02476.77705.05814,1.16569.08893.59791.04693,1.19583.09387,1.79331.15459.45474.04651.90947.10464,1.36421.1589.53181.0633,1.06406.12272,1.59523.19658.57724.08074,1.153.17633,1.72915.26935.41447.06653.82937.12531,1.2432.1983q1.49307.26387,2.97859.57854c1.49425-.17376,2.98614-.34773,4.47285-.53139.50684-.06265,1.00937-.13564,1.51513-.2011.95835-.1238,1.91841-.24373,2.87051-.3811l-.01485-.0043c.15976-.02326.32146-.04134.481-.065,6.087-.26763,12.55364-2.7973,18.48521-.92368,5.52119,4.24032,9.90618,11.02731,13.38581,18.77416.43363.9676.85822,1.94381,1.26408,2.93747.05792.14167.113.28571.17031.4276q.62139,1.54152,1.20337,3.11575c.02863.07773.05878.15459.08741.23232l.02756.03036c.65777.6976,1.29078,1.40985,1.9126,2.12812.19335.22349.38368.44892.57358.67435q.68114.80807,1.33148,1.63334c.188.23835.38153.47368.56562.714.414.53741.81064,1.08473,1.20724,1.632.06847.09559.14167.18882.20971.28485l-.00064-.00194c18.26709,25.48364,18.02164,61.28191,18.62795,91.8447C997.45177,760.7811,986.02054,808.69937,944.22374,844.87551Z"/>
    </g>
    <path d="M306.47357,129.01052a18.16768,18.16768,0,0,0,5.56027,3.75586,46.32263,46.32263,0,0,0,6.16464,2.36582,86.62572,86.62572,0,0,0,12.45869,2.70236,111.42191,111.42191,0,0,0,11.43144,1.03607c1.44171.05167,2.87514.07772,4.317.07772,2.8492,0,5.70711-.11239,8.54758-.354a59.56748,59.56748,0,0,0,12.899-2.35722,24.40592,24.40592,0,0,0,5.16313-2.22759c1.69222-1.01,3.49663-2.44334,4.08378-4.4117a5.45729,5.45729,0,0,0,.19012-2.65951,6.136,6.136,0,0,0-.94112-2.22737,13.49348,13.49348,0,0,0-4.36885-3.85943c-.24158-.14684-.52654-.31091-.81172-.46636a40.80328,40.80328,0,0,0-7.684-3.14267c-.22457-.06889-.44031-.13822-.65626-.19851-.16407-.05168-.328-.09517-.492-.14684-.518-.14684-1.0448-.28486-1.56294-.42287-2.40867-.63043-4.85222-1.14846-7.313-1.56293-.05167-.00862-.11217-.01744-.16395-.02606-1.15686-.18968-2.31394-.36236-3.47941-.5092a110.27186,110.27186,0,0,0-13.60715-.94974h-.5007a87.71467,87.71467,0,0,0-10.93042.54388,52.37673,52.37673,0,0,0-13.1494,2.94414,19.03459,19.03459,0,0,0-2.98753,1.44193,11.35374,11.35374,0,0,0-2.58167,2.03748,5.86545,5.86545,0,0,0-1.718,4.68815A7.44439,7.44439,0,0,0,306.47357,129.01052Zm1.131-4.54993c.003-.02368.00689-.05706.00883-.08526v.13693a1.21461,1.21461,0,0,0,.01723.15546c-.00862-.10335-.01712-.19809-.01712-.29282a1.24805,1.24805,0,0,1,.01712-.16472c.01733-.07772.03455-.16406.05178-.24179q.03876-.12951.07783-.23318c.08613-.16406.164-.31952.25019-.47476.12079-.16406.23318-.31952.35408-.475.14673-.15545.29358-.31091.44892-.46636q.27177-.23286.544-.46593a16.68833,16.68833,0,0,1,1.52816-.95856c.4922-.25041,1.18291-.57832,1.88224-.872a37.08637,37.08637,0,0,1,4.09229-1.32092,67.14047,67.14047,0,0,1,7.45983-1.35559,95.69764,95.69764,0,0,1,11.44856-.613h.46636a114.82709,114.82709,0,0,1,13.98685,1.03607,86.59092,86.59092,0,0,1,11.05142,2.27949,49.99545,49.99545,0,0,1,5.94018,2.08936,28.95066,28.95066,0,0,1,2.97,1.49361l.026.01722c.04306.026.08612.05168.12929.07773a1.49026,1.49026,0,0,0,.16428.10356c.50921.31952,1.00152.66488,1.47628,1.02746.30229.24179.57853.50081.85488.76844-.00893-.00861,0,0,.00862.00861q.06475.06492.1295.12941c.12069.14684.31942.38023.50921.62181.09517.14684.18151.28507.26763.4317a2.09263,2.09263,0,0,1,.121.24179c.04306.11218.08644.22435.12089.34536.02584.10356.04317.19851.0604.31069.00861.05189.00861.11217.01722.16406q-.01292.16827-.02594.337c-.01723.0689-.02584.1294-.04306.1983-.03456.11218-.07784.22457-.1209.337-.05168.10357-.10367.20692-.16407.3107-.07772.12078-.164.24179-.2504.36279a6.12629,6.12629,0,0,1-.45754.49177c-.24179.22478-.50081.44052-.75982.639-.42309.29368-.872.57854-1.34677.84617a20.56927,20.56927,0,0,1-2.07214.96717l-.01744.00861c-.01722.0084-.02584.0084-.03445.017-1.19141.45753-2.42611.84617-3.68675,1.19174a62.92517,62.92517,0,0,1-7.41634,1.38143,98.83155,98.83155,0,0,1-12.48485.66466,111.02373,111.02373,0,0,1-13.961-1.0533l-.18129-.03445c-.02584,0-.07751-.00882-.13823-.01744a.10924.10924,0,0,0-.05167-.00861,87.8738,87.8738,0,0,1-10.39537-2.1757,53.973,53.973,0,0,1-5.81929-2.02908,31.90529,31.90529,0,0,1-3.28929-1.68351q-.84213-.531-1.63183-1.13963c-.29357-.25041-.57843-.50082-.85467-.77706-.1729-.18129-.32835-.36279-.49231-.55248-.14673-.20735-.285-.41447-.42308-.62182-.02584-.03466-.12951-.2588-.23318-.48337.00872.017,0,0,0-.00861-.00861-.00883-.00861-.026-.01723-.03467a2.7307,2.7307,0,0,1-.069-.34535.68047.68047,0,0,1-.02606-.18129Z"/>
    <path d="M687.28833,642.5784c.60416-30.05466-8.6772-59.48773-20.86826-86.66714-8.94482-18.64066-20.47122-36.21941-35.41652-50.59479-26.88573-24.76235-58.935-43.10071-89.88753-62.242-24.08886-14.9397-49.61641-28.13862-71.90119-45.712-.67521-.5316-1.354-1.05351-2.02618-1.59695l.0014.00366q-4.79133-3.8717-9.35693-8.047-4.11134-3.882-7.97959-8.00285-.955-1.01024-1.893-2.03489-.57552-.62817-1.14523-1.26128-.77317-.85845-1.53828-1.72507a204.31337,204.31337,0,0,1-18.49221-24.555q-1.19754-1.86447-2.357-3.75716c-.20229-.33028-.40521-.66014-.60567-.99128q-1.38132-2.28433-2.70989-4.60117l.00345.01335a217.16,217.16,0,0,1-25.68-72.60419c-4.69677-33.983-3.22039-68.56174-3.03049-102.8298-.01657-10.96077.18625-21.914-.12358-32.8666a10.74908,10.74908,0,0,0,.58133-2.05923,12.2131,12.2131,0,0,0-.57832-6.31977,16.73331,16.73331,0,0,0-3.48834-5.46542,30.812,30.812,0,0,0-5.05935-4.35141,55.35272,55.35272,0,0,0-10.82707-5.63789,89.63209,89.63209,0,0,0-15.36827-4.51569c-.03456-.00862-.069-.01723-.11239-.02584-.05168-.00861-.10335-.02584-.15535-.03445-.27635-.0521-.55259-.11239-.82883-.16428a1.03627,1.03627,0,0,0-.17268-.02584,124.40678,124.40678,0,0,0-12.87316-1.7959,126.22733,126.22733,0,0,0-13.5207-.46614,114.621,114.621,0,0,0-13.86595,1.07073c-.16428.01723-.50092.0689-.82884.112-.75132.1124-1.71838.26785-2.67673.44053a73.86216,73.86216,0,0,0-13.53792,3.61763,42.716,42.716,0,0,0-6.5789,3.09077,32.88061,32.88061,0,0,0-2.88386,1.87385,28.2368,28.2368,0,0,0-2.69374,2.279,15.23732,15.23732,0,0,0-3.77309,5.62088,11.66817,11.66817,0,0,0-.27624,7.01931c.099.37981.22424.7538.36064,1.12435-.02142.09538-.05167.189-.06373.28485-2.62484,35.51126-5.49987,70.6946-11.04281,105.96407-4.33418,28.00857-10.15368,56.69925-26.92061,80.261C230.16,336.092,211.70066,355.406,189.98635,370.48087c-.82884.57746-1.66488,1.14308-2.50233,1.70655q-.4113.27839-.82388.55356c-3.36713,2.23987-6.80121,4.3695-10.27889,6.42657q-2.05131,1.213-4.12491,2.397c-.2124.121-.42373.24416-.63645.36516h-.00065l-.00022.00043c-10.7165,6.08423-21.76717,11.60736-32.58153,17.48316-52.39919,27.57645-89.80141,60.938-117.46441,113.85538-39.22,70.71936-25.15292,184.0186,43.75332,225.928l.009.02217c.15954.09711.32383.18732.48391.28357.4712.28334.94833.55851,1.4246.835q1.01313.58812,2.04135,1.15664.80289.44311,1.61428.87416c.20444.10809.4036.22306.60911.33007l-.01108-.02239a108.6164,108.6164,0,0,0,12.77572,5.65166l.01389.03015q2.05923.76413,4.17012,1.4331l-.01044-.02239c2.167.70018,4.36142,1.359,6.60861,1.93585,18.76554,35.25913,53.59147,53.91637,98.45686,54.38488l.00689.01034c.27624.00861.5612.00861.83745.00861.38551.003.77113.00538,1.15664.00517.50523,0,1.01056-.00819,1.51578-.0168,13.64138-.144,27.15929-2.13566,40.56652-4.79753,11.53942,9.55782,27.05507,15.25448,47.20721,15.83022q8.06814.38691,16.14995.38584a345.34445,345.34445,0,0,0,54.49276-4.34905c13.90922-2.29649,27.93946-5.11124,40.78678-11.10309a55.48843,55.48843,0,0,0,18.79923-13.34383q5.55709,2.2782,11.229,4.21921l-.00947.01378c.393.13436.78868.25407,1.18194.38519.49565.16493.99237.32534,1.4893.48553.42524.13629.84778.28442,1.27453.41555l.00624-.0084a141.44227,141.44227,0,0,0,16.31219,4.11134l-.00926.0155c.4894.09345.97579.17419,1.4626.25859l.12284.02153c.23684.04048.47336.08828.71127.12574l.00689-.0112a113.85186,113.85186,0,0,0,11.42111,1.33342l-.014.02476c.40521.025.81139.03423,1.21574.05533.34934.01895.69954.03251,1.04942.048.505.02153,1.00744.05533,1.51632.06911l.00915-.01765c.43138.0127.86092.03638,1.29326.0437q3.24548.17343,6.47049.17354c17.61794,0,34.64184-3.90593,49.3475-11.96089,4.715.71871,9.4662,1.22275,14.24672,1.48521l-.01625.01055c.45408.02584.9086.04263,1.36269.06395.18151.00818.36269.01808.54409.02562,1.18711.051,2.37508.09194,3.56725.10873l.01055-.00775q1.68879.02583,3.38177.01141,2.01062.05072,3.99776.0506,4.03963,0,7.9783-.20928l-.0043.00387c.21617-.01141.42717-.03229.6427-.04457q1.90194-.10753,3.78062-.26224c.14211-.01184.287-.01744.4289-.02972l.00947-.00968C637.27079,783.20519,684.04942,718.76835,687.28833,642.5784ZM285.75926,122.36584c.06029-.27624.12068-.55248.18991-.82873.11228-.35418.22456-.69071.35386-1.03628.216-.45754.44041-.90646.69071-1.35538.22446-.34535.44914-.6821.69072-1.01023.4318-.53526.88072-1.04468,1.34687-1.54549.639-.613,1.30391-1.19153,1.99463-1.744a37.83824,37.83824,0,0,1,3.229-2.13243c1.25181-.69072,2.71979-1.39887,4.222-2.06353a69.04366,69.04366,0,0,1,7.218-2.47822,90.63321,90.63321,0,0,1,10.05841-2.08054c.18991-.026.50932-.07794.829-.11239l.16406-.02583a122.56967,122.56967,0,0,1,14.43566-1.01885,133.48471,133.48471,0,0,1,16.59447.967,115.5565,115.5565,0,0,1,14.764,2.84919l-.00861-.00861q.12968.03876.25913.07773c.73377.1899,1.50221.41447,2.27937.63882,2.57285.77727,5.11135,1.66628,7.59785,2.68534a59.01145,59.01145,0,0,1,6.28544,3.06494,43.61664,43.61664,0,0,1,4.07527,2.67651,28.642,28.642,0,0,1,2.51245,2.1671,24.5742,24.5742,0,0,1,1.891,2.13264c.30208.41447.57832.82012.85467,1.24341a11.89123,11.89123,0,0,1,.65594,1.27765c.1124.2418.26763.6821.41447,1.13124l.00883.017c.00861.02584.01723.0605.02584.09517.09484.35375.1899.80289.26763,1.25181.04317.41447.06911.81172.07762,1.21736-.00323.16062-.02573.31672-.03607.4754-.01679.25945-.02691.52041-.059.77792l-.00022.00129c-.03477.18172-.10356.50791-.18107.835l-.00851.02584c-.00872.03445-.01722.06028-.02594.09495-.095.30208-.23318.6821-.38842,1.06169l-.02132.04393c-.01765.02949-.034.05641-.05662.096l.00129.01723c-.1224.24717-.30316.58758-.49327.93939-.28486.44031-.587.86361-.89785,1.2867-.40575.48337-.82022.94951-1.252,1.40726-.73378.69071-1.48489,1.33815-2.28788,1.96858-.2306.1632-.49048.34191-.76134.52492l.00043-.00452c-.45753.31091-.967.63883-1.485.95835-.31941.1899-.64765.3798-.9929.56131l-.00151.01162c-1.08247.59275-2.27518,1.17517-3.49415,1.71258a65.51333,65.51333,0,0,1-6.795,2.41771c-.05167.01723-.09495.02584-.13812.04306H370.337a.29172.29172,0,0,1-.06912.02584.64428.64428,0,0,0-.12089.03445c-.069.01744-.164.04328-.25881.06933-.65077.183-1.31629.34794-1.98181.51265-.32986.08548-.66187.16515-.99517.24309-2.54087.59038-5.16345,1.06471-7.79809,1.45442-1.86479.26181-3.75952.45753-5.6648.6216-.42179.03531-.84143.07729-1.26408.10571l.00022.00409c-2.71119.20412-5.44788.324-8.18953.35656.06912,0,.14684-.00862.22457-.00862q-4.10149.01938-8.1794-.21918l-.10314-.00625q-4.07387-.238-8.13063-.71569-3.66871-.47959-7.30266-1.16288c-.40242-.07321-.80332-.15912-1.2066-.23921-2.27443-.45258-4.53755-.96179-6.7815-1.55949q-2.34408-.65626-4.67126-1.42535c-.675-.22435-1.34493-.45452-2.0139-.69847-.982-.35138-1.961-.715-2.93284-1.1054a66.48027,66.48027,0,0,1-6.57911-3.21156c-.38444-.225-.78287-.4711-1.18636-.72645l-.00022-.00539c-.68167-.43126-1.38939-.89719-2.08829-1.39779-.25008-.17763-.50038-.35483-.74852-.53827-.79439-.63043-1.55411-1.27787-2.29682-1.96858a27.05945,27.05945,0,0,1-1.83024-2.02025c-.37991-.50964-.73388-1.02767-1.07063-1.57155-.27635-.50059-.53536-1.01023-.76833-1.53688-.11228-.31069-.22457-.61277-.32824-.92368-.11228-.475-.21574-.9325-.29347-1.40748-.02583-.30208-.04306-.59576-.05178-.89784A12.55233,12.55233,0,0,1,285.75926,122.36584ZM89.54789,746.60037c-1.04426-.32856-2.06752-.69287-3.09336-1.05244C69.4119,708.66967,66.66627,667.25032,66.38895,627.10279c-.05167-5.99185.03477-11.99254.08655-17.98439-.49209,4.8266-.76844,10.13614-1.12241,15.1268-3.10648,40.39276.61,82.62879,16.94747,119.74088a101.64152,101.64152,0,0,1-13.35588-6.51549c-7.895-16.67854-13.46322-34.53505-19.1503-52.04964-.00883-.03466-.0605-.01744-.05189.01723,3.60149,16.36548,7.5155,32.76283,13.4672,48.41865-32.00193-21.53529-51.47476-59.91167-57.2554-97.84818-5.05956-32.9902-2.88375-67.5866,8.53036-99.083,18.35581-45.87218,50.06814-86.84865,91.65759-113.91589,19.63991-13.73913,41.49407-23.90864,62.4013-35.57025a328.88325,328.88325,0,0,1-24.12977,35.49274c-15.515,19.39166-30.67626,39.40514-40.05279,62.61317,10.68884-19.51267,25.71187-36.55595,39.48308-54.0742a346.366,346.366,0,0,0,30.34824-47.20171l.02584-.04888q3.27921-1.89645,6.51226-3.8661c-6.85536,14.11226-14.76283,27.74288-22.32946,41.45962-21.37768,39.04255-50.2926,75.11512-59.61734,119.53655,3.43634-9.62693,6.79507-19.83219,11.43144-29.14821,7.88271-16.29228,18.19174-31.41025,27.24853-47.0721,17.26709-28.583,34.36183-57.47458,48.22961-87.87331q5.4975-3.51772,10.79154-7.35886c-6.806,15.65-15.33652,30.70662-22.98335,45.80931-28.49184,54.61807-57.57976,109.31386-78.47363,167.37709-14.72095,42.7207-22.89734,89.47328-12.06166,134.03293a129.03743,129.03743,0,0,0,10.05927,30.56408C91.86247,747.3419,90.70173,746.98879,89.54789,746.60037ZM465.63832,797.005c5.108-10.98188,6.98475-23.80638,8.68624-35.49791.6821-5.12007,1.40726-10.23109,2.1152-15.35116-.56109,1.47638-.87189,3.48823-1.34665,5.172-3.51343,12.93495-5.87785,31.649-13.041,45.496-3.80754-.24545-7.58946-.64378-11.31905-1.17861.585-.98009,1.15363-1.96836,1.696-2.96955,12.80415-23.47565,16.35256-50.48282,14.42716-76.87679-.38853,3.1601-.492,6.82963-.77684,10.171-.89817,22.595-5.94018,45.06025-15.7483,65.53126-.63624,1.27721-1.31662,2.53118-2.02,3.77416-.242-.03875-.48574-.0732-.7271-.113a119.38826,119.38826,0,0,1-15.39056-3.71064c6.1669-9.09189,10.16337-20.10778,14.1662-29.9272,15.49789-38.21383,11.48311-75.88378,4.20467-115.39248-1.45926-7.27855-3.19455-14.82451-5.01628-21.844q1.11357,8.67741,2.167,17.38023c1.95125,25.47869,5.30136,51.12165,3.7127,76.72952-1.62333,22.36208-9.1089,44.05045-18.84779,64.12442-1.39327,2.61214-2.82788,5.1754-4.41213,7.62714-3.64175-1.23674-7.243-2.60181-10.80877-4.07,8.97347-10.75882,14.54482-24.54231,17.1561-38.36713,5.49126-28.05164,4.3948-56.94061,3.52269-85.37227-1.82174-37.93737-6.23365-75.96969-16.09355-112.70714-12.63158-45.47493-29.79586-89.59406-47.73709-133.19558q-5.32261-12.67894-10.08446-25.58225a1.6578,1.6578,0,0,0-3.11672,1.131c5.25808,14.43609,11.37945,28.55245,17.16418,42.78981,24.39965,61.35252,48.24629,123.98312,53.78922,190.32631a653.63393,653.63393,0,0,1,3.281,82.14306c-1.01088,26.6026-3.05352,56.9335-21.24128,77.70659q-.42985.49219-.872.97751c-.23038.25212-.46808.50016-.70363.74927-.21467.22651-.426.4556-.64443.67866l.00528.00215c-.719.73808-1.45582,1.46562-2.22124,2.17549-23.00069,19.53894-63.69251,22.198-92.996,24.27015-23.47566.53526-49.09235,2.27066-70.07279-10.11891a58.6604,58.6604,0,0,1-5.2134-3.57091c-.20917-.1589-.41522-.31995-.62106-.48144q-.93627-.73668-1.82949-1.505c-.12391-.10744-.2532-.20993-.376-.31845l-.00872.00173c-23.71443-20.65769-25.97669-56.926-25.1316-86.92336,1.226-40.82123,8.798-81.20215,18.26947-120.84908,15.40283-64.68509,31.97135-129.09415,46.0877-194.06474,1.20886-5.232,2.27087-10.4296,3.71259-15.59273a1.65714,1.65714,0,1,0-3.14245-1.0533c-.41447,1.38143-.75993,2.75424-1.09657,4.17012-17.36291,81.19354-39.37952,161.325-56.85449,242.49222-6.68257,34.5964-11.44867,69.84-10.17941,105.15278.74992,28.108,8.14247,51.99408,24.38684,67.41306q-3.531.64851-7.06646,1.21758c-31.775-40.33958-38.85653-90.74361-28.8639-141.83533,3.29823-18.848,8.17629-37.39371,11.25855-56.29339-3.53118,14.7554-7.61518,29.86476-11.21538,44.767-11.50034,47.08933-10.41248,100.14489,16.98289,141.70872,2.55131,4.20414,5.31675,8.26187,8.23893,12.20871q-5.06054.74379-10.12419,1.27442c-.5035-.6567-1.00668-1.31339-1.51373-1.95286-15.90364-21.47242-26.77377-46.34672-33.15426-72.23127q-1.25617-5.37477-2.50384-10.74073c.337,3.29834,1.07073,7.04537,1.55411,10.50755a164.42989,164.42989,0,0,0,32.02044,74.7618c-5.051.44031-10.10029.69395-15.14231.71526-7.246-10.28556-12.16242-22.4904-16.10969-34.20023-.65616-1.70956-1.21737-3.842-1.9253-5.37887,3.2262,13.65236,7.11663,27.542,14.38,39.558a126.12111,126.12111,0,0,1-46.66678-9.32291c-20.6045-8.4029-35.28906-23.12578-45.29537-41.05893q-.26337-.46733-.52105-.93789c-.23921-.43859-.473-.88083-.70675-1.32308-.19421-.37033-.392-.7398-.58059-1.11207l-.00226-.00065c-15.44761-30.0116-18.53526-68.12961-14.66959-100.72063,4.507-37.38509,17.38863-73.1037,32.54989-107.40621,14.66044-33.07632,30.71082-65.514,47.43468-97.60617,9.532-18.494,19.54712-36.72022,28.794-55.36949,3.49416-7.15647,6.956-14.404,10.017-21.80442.59458-.46658,1.191-.93014,1.78007-1.40555,26.74772-22.43958,51.035-50.24942,61.888-83.99945,10.85269-37.25527,14.27181-76.26337,18.131-114.74483.999-11.01159,1.4823-22.133,2.56068-33.11744.02067.0239.04005.04931.06083.0732a29.6459,29.6459,0,0,0,5.163,4.64531c.60007.42825,1.21585.83476,1.8381,1.23158.42136,26.9964-2.94835,53.84036-4.31955,80.77561-2.27065,40.31181-10.70606,79.92429-21.66264,118.70761a428.13376,428.13376,0,0,0,24.08014-125.65781c1.24234-24.18617,4.0024-48.317,4.01187-72.55961a59.10373,59.10373,0,0,0,8.49354,3.90012c.71741.26806,1.44365.51287,2.16795.7622,1.24848,33.81376-3.77739,67.49639-5.946,101.2111-1.22608,21.66253-.63043,43.40258.03445,65.07372,1.03618-26.3593,1.75284-53.02089,3.87665-79.51842,2.29779-28.58388,5.40363-57.29544,4.37423-85.99667,2.86664.90129,5.77375,1.6777,8.71133,2.31028.25342.05447.50878.10012.76252.15287-.00592.1533-.00151.31047-.01087.46248-.10367,6.41494-.09506,12.83871-.14674,19.245-1.29508,41.13213-2.01185,82.28128-2.50383,123.42181,4.25064-47.18751,4.87633-95.04162,5.53087-142.56608a123.62322,123.62322,0,0,0,13.89136,1.72743,25.65729,25.65729,0,0,1,.16966,3.5638c.26774,9.08285.34536,18.15708.33675,27.24014-.29358,35.92551-.45753,71.86847,1.30359,107.76836.077-45.895,3.06483-92.38.56142-138.43,1.99894.09689,3.99917.15114,5.99832.15114.50081,0,1.00162-.00861,1.50221-.00861q4.02-.0465,8.04182-.34363c1.6383,33.47722-1.3698,67.25244-.25815,100.81019.24179,17.22457,3.44485,34.242,6.29415,51.17311-6.06678-50.334-1.63614-101.50263-3.39414-152.204a96.89772,96.89772,0,0,0,11.46923-1.78513c-.68006,13.3083-1.63173,26.63942-1.54065,39.9869-.53526,11.91482-.95835,23.83846-.90667,35.77071.52675,32.34254,7.192,64.43468,17.30229,95.08511-4.81777-17.58715-8.841-35.88245-10.56783-54.23826-1.89947-13.68466-3.59159-27.34348-3.747-41.201-.08634-21.55036-.12951-43.15239.67349-64.68531-.07127-.97212.58693-6.93986.61665-11.13776.86059-.20906,1.72075-.42114,2.575-.65863h-.0085c.12918-.03445.25019-.06911.371-.10378A61.47423,61.47423,0,0,0,379.23,143.9851c.36409-.16041.72473-.33309,1.08559-.50447-.61665,6.22288-.70126,12.55471-1.56143,18.72441-2.56423,22.40514-1.37281,45.026-1.131,67.53471.62149,38.71443,11.20677,76.95409,28.76819,111.34315-10.63706-22.75049-16.79287-46.82191-21.41213-71.5666-3.72992-18.57176-4.37725-37.60945-4.45508-56.55219-.97934-23.66664.42793-47.191,2.33062-70.81216a27.03609,27.03609,0,0,0,6.19209-4.75124c.19292,14.11291.02928,28.45319-.10378,42.60679-.15534,34.17311-1.51955,68.94176,5.89712,102.5105a222.002,222.002,0,0,0,29.4321,69.88094,415.81663,415.81663,0,0,0,48.72988,107.206c34.22489,52.35624,75.21007,101.85445,90.90659,163.75085,13.91784,50.2238,9.95485,115.194-30.32251,152.50973a74.78717,74.78717,0,0,1-13.39248,9.54705c-.359.20325-.72086.40048-1.08269.59727-.589.31866-1.1799.63323-1.7762.9366q-.19345.09882-.38766.19636C501.34465,794.97187,483.3187,797.68757,465.63832,797.005ZM564.663,786.02165c14.90676-15.84723,25.46619-35.7369,28.96971-57.40568.27625-1.63161.81151-3.51385.94952-5.03351a142.13779,142.13779,0,0,1-29.98533,58.28781c-1.41308,1.59759-2.91982,3.13318-4.47845,4.62227q-7.4314.64754-15.23273.55377c9.471-8.171,16.4488-19.88472,22.56446-30.34813,16.80149-26.817,22.93157-59.08208,18.20014-90.29382a228.50224,228.50224,0,0,0-8.08962-37.30715,311.09261,311.09261,0,0,1,5.16291,49.79211c.80289,26.195-4.35162,51.40629-17.87222,74.053-6.7506,11.88208-14.04175,25.3889-25.0134,33.969q-4.38924-.1899-8.88411-.61255-2.6328-.1841-5.251-.47648a84.22784,84.22784,0,0,0,28.52725-29.8751c24.54618-41.73629,24.99531-93.69528,11.25855-139.153-15.99-57.64876-53.78072-105.01455-86.46023-153.94284A422.44866,422.44866,0,0,1,430.406,361.40406a200.29372,200.29372,0,0,0,18.42632,22.06322c2.5553,5.828,5.0854,11.66721,7.4,17.59942,11.42273,31.33274,28.38838,60.16143,47.62481,87.29779,13.04562,18.31252,28.12936,35.27807,41.85719,53.14168-21.03222-31.29807-45.50067-60.86054-64.34006-93.83351-10.18781-17.84638-18.26064-36.75467-25.87571-55.8098q-.64609-1.547-1.322-3.08389,3.18733,3.04879,6.5143,5.954,4.24764,3.48316,8.62219,6.7829c4.059,10.9892,8.21191,21.96354,13.76206,32.29927,10.61122,18.2264,24.07993,34.65669,36.52139,51.6569-10.801-17.596-22.43076-35.20939-33.21455-53.01249a300.23831,300.23831,0,0,1-13.17728-28.04c32.36159,23.7506,68.91915,41.437,102.24835,63.81416,24.02814,15.895,49.08374,31.64322,66.9734,54.69579,25.263,33.29227,42.63435,80.32153,41.4945,122.32545C679.04089,719.81971,634.8632,777.67237,564.663,786.02165Z"/>
    <path d="M214.4239,566.03685c.07751.07019.04414-.07859.03467-.06051,3.45077-21.96159,12.57947-42.96743,18.19131-64.53006,6.08594-21.8688,11.02472-44.42422,15.16233-66.61061-8.77065,28.14013-16.48165,56.59246-23.94224,85.10464C220.318,535.14571,215.1454,550.39244,214.4239,566.03685Z"/>
    <path d="M222.24977,480.34786c-1.268,3.84651-2.14481,8.26509-3.15149,12.3549-3.21049,15.10958-8.23291,29.71534-13.09773,44.35253-4.83952,15.5557-9.64545,31.11786-14.99729,46.50217-11.35684,31.11571-17.41017,58.75159-13.977,92.06389.56939-7.55372.78222-15.5641,1.484-23.25992,2.07677-19.78159,7.92523-39.02124,14.01247-57.899,10.14216-31.96575,21.74176-63.79672,27.43122-96.92428C220.74755,491.81375,221.41243,486.07208,222.24977,480.34786Z"/>
    <path d="M92.18392,501.04085c-2.06891,3.26194-3.95179,7.16917-5.87117,10.70585-9.36544,17.88837-20.4259,35.13188-26.9724,54.342-5.92145,18.6807-10.335,38.06483-11.4056,57.6746-.57488,13.95336,1.70245,27.81458,3.74747,41.56383-.63743-13.57119-1.90873-27.72781-.55249-41.49472A353.96925,353.96925,0,0,1,62.224,568.7997c5.85384-19.34278,15.63063-37.15041,24.11459-55.41256C88.27282,509.26009,90.129,505.10719,92.18392,501.04085Z"/>
    <path d="M426.5794,517.48944c-9.85462-25.16455-16.38378-51.53569-27.08511-76.38416-1.60707-3.95976-3.50977-7.92254-3.94577-12.19105-.02153,3.04275,1.19949,6.31029,2.20165,9.29879,8.41829,22.20835,13.75173,45.37611,20.5833,68.087,6.07776,18.744,12.51488,37.40254,17.68253,56.42257,3.66457,15.80568,5.33925,31.9763,7.33011,48.0565.309-14.4643.5091-29.45567-1.459-43.96389C439.00923,549.79624,432.60721,533.59612,426.5794,517.48944Z"/>
    <path d="M458.54666,588.03978c-3.99109-21.01918-8.86807-41.83964-12.10526-62.99318-.72322-4.17895-1.05921-8.71187-1.51954-12.75215.16578,3.1756.34471,6.37984.73356,9.54059,2.62247,21.82681,6.57093,43.471,9.93783,65.1859,1.61666,12.01687,2.8464,24.119,5.30976,36.00345,4.77406,22.62045,4.09325,45.996,4.16151,69.0111,1.93735-18.62839,4.10983-38.02134,1.96018-56.89777C464.50751,619.38071,460.66035,603.87883,458.54666,588.03978Z"/>
    <path d="M478.66424,677.35954c-1.39575-18.49791-3.246-36.93209-6.13859-55.2571a38.102,38.102,0,0,1-.3276-4.7056,24.958,24.958,0,0,0-.00883,4.455c2.36766,20.51579,2.71732,41.12869,3.79861,61.71553,1.766,19.31264,3.49835,38.74478,1.14824,58.06324C482.83963,720.77827,480.86018,698.70729,478.66424,677.35954Z"/>
    <path d="M572.44963,615.71183a119.85162,119.85162,0,0,0-18.865-62.47537C562.281,573.28482,566.7943,594.70384,572.44963,615.71183Z"/>
    <path d="M566.06009,536.89919c-4.38-8.11976-10.96508-15.12035-14.89276-23.354,1.64906,5.55155,7.97378,12.86562,11.05939,19.08872,4.98808,8.59495,9.02019,17.74992,13.31389,26.68722-.00818-.02067-.01851-.04177-.02885-.0633l-.00517-.01443a223.039,223.039,0,0,1,20.99788,79.242c1.02509,11.527.36925,23.07626-.4668,34.58758-1.26774,18.89989-2.83,37.87041-6.60484,56.47468,14.289-42.41711,18.39844-90.25528,3.56575-133.23C587.23193,575.14574,576.87919,555.85485,566.06009,536.89919Z"/>
  </g>
</svg>
