<svg id="Слой_1" data-name="Слой 1" xmlns="http://www.w3.org/2000/svg" viewBox="0 0 1000 1000">
  <title>Meat_8</title>
  <g>
    <path d="M998.86207,392.76858l.00679.00981c-.26566-4.80609-.51925-9.6001-.72453-14.40618-.4468-.57963-.90567-1.15926-1.36454-1.73889-.0483-.06037-.10868-.12075-.157-.18113h0q-3.188-3.64078-6.5329-7.11252l-.01509-.0151c-.07925-.08226-.16076-.16151-.24-.24377-.73963-.76831-1.486-1.52983-2.25662-2.28908.00528.02264.00905.04415.01434.06641-34.52638-34.72713-81.54119-58.38774-127.14617-74.31922-43.07363-16.14507-89.782-21.02361-130.8994-42.40948-48.725-24.9844-96.641-53.50694-149.94262-67.63538-32.18145-8.1631-65.3531-10.25218-98.27116-13.52467-38.3883-4.09362-76.28151-11.73747-114.58528-16.36242-22.23116-2.58418-44.66761-3.32079-67.00745-4.51627-45.39215-1.56983-94.89-1.25586-132.59,27.629-28.63123,21.60323-50.86239,50.14993-70.06258,80.16985-10.576,16.26393-20.94361,32.73542-30.25615,49.77257l.043-.11774c-.1985.36151-.38114.73133-.57888,1.09359q-2.11926,3.90118-4.15249,7.84838c-.53284,1.031-1.07775,2.05512-1.60153,3.091-1.75926,3.47777-3.47852,6.97554-5.12684,10.51067-.00755.0166-.01585.03321-.02415.04981l-.01132.02717c-1.6053,3.56985-3.11777,7.17328-4.59023,10.79067q-.63624,1.564-1.25436,3.134-1.77059,4.474-3.428,8.98876c-.2566.70114-.52755,1.397-.78038,2.09965q-1.95511,5.42609-3.75777,10.905c-.33208,1.00227-.65284,2.0087-.97813,3.01362q-1.43661,4.43721-2.79851,8.90046c-.2702.88567-.54643,1.76907-.81209,2.65663q-1.68681,5.62647-3.28,11.2854c-.16755.597-.32982,1.19623-.49661,1.794q-1.44114,5.1657-2.82342,10.351-.26945,1.00642-.53737,2.0121c-5.74119,21.65908-10.90275,43.50495-16.9096,65.012-14.973,50.159-16.373,98.30588-7.14648,147.29051-.00378.0668-.00982.13359-.01359.20076q1.46606,7.77064,3.29588,15.57751v.01208c.18114.79661.37435,1.58152.56756,2.36681-.01208.02415-.03548.02415-.04755.03623a.08965.08965,0,0,0,.04755-.02415c.06868.286.14717.57359.2166.85963.18642.77057.39019,1.54341.58265,2.314q1.05851,4.26231,2.22191,8.53669.446,1.64379.90491,3.2906c.20151.71586.38567,1.42945.591,2.14644.01057-.00755.01811-.01774.02868-.02491.33208,1.16152.67472,2.32455,1.01812,3.48834-.00226.02868-.00679.05773-.0083.08679.45661,1.60077.93812,3.19022,1.43171,4.79024l.00453.01585c.02491.08679.05585.17094.08076.25736q.80038,2.77248,1.72681,5.50269c.18189.53284.39321,1.05435.58264,1.58493.474,1.33246.94417,2.66719,1.46191,3.98192l.00754-.00453q1.20454,3.04305,2.56531,6.01893v.01094c.05208.11472.11623.22378.16906.3385,1.0619,2.30266,2.20983,4.56306,3.40683,6.79856q.44151.82245.89284,1.63812c1.16755,2.10644,2.38115,4.18608,3.66418,6.22535.12831.20491.2385.42114.36831.62567v.00452l-.00076.00755c.157.24151.31472.471.47171.71246.30189.46869.63472.917.9434,1.3819.83322,1.25435,1.67172,2.50493,2.5472,3.7306.49208.68869,1.006,1.36,1.511,2.03927.806,1.08454,1.61813,2.16417,2.45739,3.22456.19094.24113.366.49359.55849.73322l-.00226-.04906c.05736.0717.11623.14189.17434.21359l-.003.04075c.17434.21661.37208.41359.54718.62944,1.97134,2.41587,4.00607,4.78043,6.14044,7.05592.00905.01019.01735.02113.02641.03094v-.00339c.28453.3034.5834.59283.87095.89321l-.00151.02793c.17434.18377.36906.34642.54491.52906,2.13587,2.21021,4.32986,4.36306,6.61064,6.42421.03924.03548.07471.07548.114.111v-.00377c.65435.58943,1.32982,1.15472,1.99474,1.73133l-.00227.03548c.38114.33056.78265.637,1.16756.963q1.49775,1.27077,3.02871,2.50041c.38114.30566.74491.62981,1.12907.93208l-.00227-.05057q2.82795,2.21211,5.76459,4.274l-.00151.02679c.17359.12264.35774.22906.53208.35133q2.55964,1.77284,5.19477,3.4272c.18717.1166.36378.2483.5517.36378v-.00755c.14264.0883.28.18528.42265.27321,1.54492.851,3.13286,1.594,4.71023,2.36606l-.00075.07321c.63019.30944,1.27171.58717,1.90719.88416.474.22075.94491.44566,1.4219.66.28075.12491.55547.26642.837.38793l-.00453-.04377c2.043.89888,4.09287,1.77851,6.17515,2.5555,1.111.43472,2.24606.83321,3.36909,1.21963a161.70363,161.70363,0,0,0,23.8493,6.09817h0c1.0717.19586,2.154.37812,3.2355.55624.18642.03094.37057.06566.55623.09585,1.41285.22943,2.83777.44679,4.26269.65208,1.44907.21736,2.91021.41057,4.35928.5917,1.751.22944,3.50192.43472,5.25289.64,1.24378.13283,2.48757.26566,3.74343.38642,1.85964.18113,3.73136.36226,5.60307.51925,1.40077.12075,2.80154.24151,4.19023.35019h.00076c1.97964.157,3.96.30189,5.94043.4468l4.81816.326c2.00455.13283,3.98495.26566,5.97742.38642.77284.06037,1.5336.10868,2.30644.157.797.01207,1.594.03623,2.391.0966a44.55848,44.55848,0,0,1,4.78193.55548,49.6498,49.6498,0,0,1,5.61515,1.26794q1.88379.52528,3.73136,1.19548c2.13738.76076,4.23929,1.64228,6.31553,2.6204q2.717,1.28606,5.36157,2.77739c2.391,1.32832,4.72155,2.76531,7.00384,4.26268.90567.59171,1.79926,1.18341,2.69286,1.79927l1.01434.68831q2.53588,1.72077,5.05968,3.46569c.84529.57963,1.69058,1.17133,2.53587,1.751,1.95625,1.36454,3.91249,2.717,5.86874,4.08155.96605.67623,1.92,1.35247,2.88606,2.0287h0l3.505,2.43625,2.43625,1.6936c.954.67624,1.90794,1.34039,2.874,1.99248q2.82569,1.97435,5.6876,3.91249,2.62644,1.7751,5.265,3.55022,2.64454,1.757,5.30118,3.47777,2.69891,1.757,5.434,3.45362c1.87171,1.18341,3.75551,2.33059,5.65137,3.46569,1.28.76077,2.56,1.52153,3.85212,2.25814h0c.9351.54755,1.8936,1.05812,2.83852,1.58907,1.20152.6751,2.39323,1.36568,3.60984,2.02153,2.22191,1.20756,4.4559,2.36682,6.72611,3.50192.43472.21736.86944.43472,1.31624.65209.17283.08339.34642.16226.51925.24377.15321.07208.30566.14717.45887.2151,54.799,25.96252,116.05851,36.89093,176.48476,36.3113a781.86216,781.86216,0,0,0,78.323-2.26719l-.00075.00905c.2634-.02113.52529-.04754.78793-.069l.26944-.02378c1.16454-.0966,2.32681-.19434,3.49588-.30566l-.00226-.02642c2.89134-.266,5.77817-.54189,8.64838-.85019l-.00075.01924c1.35246-.1449,2.69286-.30189,4.03325-.45887l-.00076-.02415q4.54646-.523,9.0582-1.11926l-.00075.02038c1.72681-.21736,3.46569-.45887,5.18043-.71246l-.00076-.01358q6.685-.95832,13.296-2.08531v.00944c2.24682-.38642,4.4808-.78454,6.70271-1.21926l-.00151-.01585c4.4491-.83548,8.87858-1.71436,13.27183-2.6838l.00076.00679q3.02493-.6702,6.03779-1.38869l-.00377-.02944q4.15929-.98377,8.28461-2.05285c.00075.01359.00151.02755.003.04151,1.85813-.483,3.70343-.99359,5.548-1.50567.45208-.12453.90717-.24227,1.35925-.36868.09963-.02831.20152-.05359.30189-.08189l-.0015-.00679c2.41058-.67548,4.80457-1.391,7.19629-2.114l.00151.03132c.47925-.14453.95624-.30641,1.43473-.45321.93435-.28679,1.86266-.58906,2.79324-.883,1.30416-.41245,2.61134-.806,3.911-1.23548l-.00377-.03623c1.93285-.63472,3.86494-1.27095,5.78571-1.93851l.00227.03057c2.34191-.81963,4.66042-1.67322,6.97743-2.53738.49434-.18416.994-.35472,1.48756-.54114.0566-.02113.11321-.04.16981-.06113l-.00075-.00529c1.19623-.45208,2.37964-.943,3.57135-1.40907l.003.03774c1.10567-.42906,2.197-.89812,3.29815-1.33964,1.24529-.50227,2.49285-.9985,3.73286-1.51624.65737-.27359,1.323-.52491,1.97814-.803l-.00755-.04792c2.1887-.9302,4.38042-1.84945,6.55176-2.82908l.00076.003c2.64455-1.19548,5.26495-2.41511,7.88536-3.69513l-.00378-.02c2.08682-1.0102,4.16-2.06341,6.23025-3.12229.00151.01283.00227.026.00453.03887,1.231-.62227,2.45437-1.28077,3.68-1.92606.54265-.2868,1.08831-.563,1.62945-.85284.46717-.24906.93661-.48529,1.40454-.7351-.003-.01359-.006-.02717-.0083-.04076,2.68229-1.45435,5.35628-2.93323,8.01064-4.474q2.99325-1.7253,5.957-3.53966l-.0083-.03774q4.05174-2.4753,8.05669-5.09967l.006.05359c.98869-.64605,1.96531-1.314,2.9472-1.97172.47322-.31661.94718-.62944,1.41889-.94907.30566-.2083.61736-.40679.923-.61736l-.006-.02491a328.80331,328.80331,0,0,0,48.92274-41.04946l.00151.04151c.38491-.39246.76831-.79623,1.15322-1.19058.3585-.36717.71548-.73774,1.07322-1.1068.643-.6634,1.28907-1.317,1.92757-1.98946l-.00755-.05283c.86416-.9068,1.72454-1.82643,2.58417-2.74757.01208.00943.01887.026.03095.03509,1.0385-1.111,2.077-2.24606,3.1155-3.38116.07245-.07245.14491-.157.20529-.22944v-.00415q12.56955-13.7905,23.78061-28.7316c.03472-.00642.07094.00339.10566-.00415.82114-1.08681,1.6302-2.18569,2.43927-3.29664v-.01208c-.00226-.03547-.00755-.07019-.00981-.10566.33132-.45019.66944-.8951.9985-1.34643,0,.03321.00075.06642.00151.09963.50566-.68982.97737-1.40153,1.47775-2.09512q1.5385-2.143,3.04078-4.31174c.78869-1.13284,1.61134-2.24228,2.38871-3.38645-.00453-.04453-.01132-.0883-.01585-.13207q.65547-.96567,1.30492-1.93436c.00075.049.0015.09736.003.14641,1.29209-1.90794,2.548-3.828,3.79174-5.77213.90567-1.40077,1.79926-2.81361,2.68078-4.22645-.00226-.0151-.00226-.02718-.00453-.04265q2.6106-4.20117,5.16383-8.43668.35434-.58416.71019-1.16643,1.49322-2.46965,3.00456-4.92722c1.53964-2.50417,3.11248-5.00835,4.73514-7.465.64831-.9268,1.32379-1.86379,2.00757-2.8004a50.28308,50.28308,0,0,1,4.00155-4.87477c.34642-.36642.70491-.71963,1.06793-1.06718.29057-.27812.58491-.55208.88605-.81623.38944-.34038.79472-.66,1.20379-.9736.29736-.22792.594-.45623.90265-.66831.4566-.31358.93585-.59434,1.41888-.86906.29434-.16755.58264-.34265.88755-.49435a17.6561,17.6561,0,0,1,1.70493-.71321c.39094-.14566.76151-.32227,1.16906-.44076h.00151l.0151-.00264q3.96-.67982,7.871-1.39662c.29585-.05358.597-.10453.89284-.15849l-.00151-.00491c7.31177-1.34152,14.50429-2.7838,21.564-4.37363.08151-.01849.16453-.03434.24528-.0532v-.00227c.81737-.18453,1.63775-.36642,2.4521-.5551v.00189c.04-.00943.08-.01962.12076-.02943q4.637-1.07548,9.18877-2.25361v.00075c.0249-.006.04981-.01358.07471-.01962q2.52909-.65208,5.031-1.33775c.26566-.07283.5351-.13887.8-.21245l-.00151-.00453q2.3004-.63624,4.5774-1.30379v.00415c.1683-.0483.33359-.10113.50114-.14943q1.35624-.39963,2.70568-.80831c.48-.14566.963-.28491,1.44228-.431l-.00226-.0151c1.06944-.3317,2.1404-.66264,3.20229-1.00567v.006c.66039-.21094,1.31624-.44038,1.97512-.66q4.41739-1.46267,8.74273-3.06532c.49208-.18377.98793-.36189,1.47926-.54906l-.00227-.01019a209.24649,209.24649,0,0,0,22.87344-10.21368v.01962c.66415-.35208,1.323-.7185,1.98568-1.07511.62264-.33585,1.24755-.66755,1.86643-1.0102.07623-.04264.15321-.08151.22943-.12415l-.00075-.006q1.65171-.91812,3.28456-1.86907v.0034c.03245-.01887.06491-.04.09736-.05887,1.11473-.65133,2.21587-1.3253,3.31626-2.00153.45434-.27887.91624-.54227,1.36832-.82567l-.00076-.00717c1.21435-.76189,2.41512-1.54907,3.61136-2.34342v.00793c.05434-.03585.10641-.07661.16075-.11246q3.26268-2.17022,6.43478-4.50872c.166-.12227.33887-.2317.50491-.35435l-.00226-.02151c.56529-.41962,1.13209-.83774,1.6936-1.26567v.00755c.03774-.02944.07472-.06264.11321-.09208q3.42343-2.61568,6.73365-5.45062c.18642-.15849.38189-.29887.56755-.45887l-.0015-.02566q2.11926-1.82493,4.19173-3.74079v.023c.18265-.16906.36-.35057.54265-.52076.90341-.843,1.797-1.70568,2.68682-2.57588.5351-.52264,1.07246-1.04038,1.60228-1.57322.88907-.89435,1.76606-1.81436,2.64078-2.737.38114-.40151.77058-.7834,1.14869-1.191l-.00075-.01585c1.10869-1.19322,2.20228-2.41663,3.28682-3.6574l-.00151.02642c.13887-.15812.2717-.32755.40982-.4868.88-1.01359,1.74719-2.05436,2.61134-3.10078.471-.56907.94718-1.12681,1.4136-1.70606.78416-.97548,1.55323-1.98342,2.32455-2.9872.47775-.62114.96681-1.21812,1.44-1.85058l.00151-.07472q.27057-6.92385.36076-13.84844c-.01887.03019-.04076.05887-.06038.08906.09887-7.52762.10415-15.05675-.06038-22.57381-1.35247-34.029,1.437-67.99765,1.5819-102.01459C1000.31341,419.687,999.58585,406.22984,998.86207,392.76858ZM119.86244,236.26665c42.67514-57.91453,80.52-82.47628,153.61359-80.834a930.15485,930.15485,0,0,1,94.3949,5.08382c32.08485,3.97287,63.8678,10.059,95.9285,14.12844,38.60566,5.02345,77.92378,5.89289,115.76869,15.7828,43.37552,11.91861,83.29742,33.49769,123.002,54.24355,19.22434,10.5903,38.91963,20.51643,59.7621,27.56858,21.4221,6.95554,43.58081,11.351,65.15989,17.82357,55.68055,16.12092,111.09543,40.46531,153.63774,80.834,2.70569,2.66719,5.22345,5.46194,7.6431,8.32234,2.58568,49.43974-15.14355,91.70506-54.21865,124.37633-31.33616,23.92174-71.02863,31.2637-107.7505,43.89477-33.2441,11.04917-63.83158,29.01765-90.86882,51.18843-77.10265,66.11386-123.88349,127.6873-231.62192,143.929-57.47981,9.6484-115.974-1.54567-172.74133-11.19407-39.55963-8.12687-79.34871-17.77527-116.85549-33.01467C163.09306,674.828,112.96728,644.68729,74.59105,602.302c-28.55877-30.24936-42.73552-71.13731-43.448-112.42375-.78114-19.86737-1.68756-40.32946.07774-60.43381,5.84157-22.3055,11.942-44.54157,18.76019-66.55311C65.3653,316.79877,92.34217,275.9712,119.86244,236.26665ZM985.88081,574.46509c-.48755-7.128-1.02567-14.25637-1.34492-21.39531-1.42492-24.03042-2.13738-48.09707-3.09135-72.13958-1.81058,33.12222-3.25437,68.009-3.47475,102.10667-1.523,1.52115-3.0906,2.99249-4.67325,4.4491-.01434-.20981-.01283-.41925-.02717-.62868-1.37662-16.47111-2.91022-32.94221-4.26269-49.41332-1.123,13.33145-.72453,27.484-1.55775,41.08116-.28981,4.90533-.56453,9.82349-.78491,14.74354-1.05511.8702-2.10568,1.74379-3.18192,2.5872-.234-1.80681-.44906-3.6174-.683-5.42421-1.44907-10.61444-2.97059-21.60323-4.89061-31.96409-.32378,13.98505-.37057,27.89839-.36529,41.86306-1.50265,1.07548-3.04455,2.09549-4.58193,3.12343-1.0951-9.52651-2.27021-19.05265-2.33436-28.59991-1.10114,9.97972-.72076,20.61341-1.11247,30.86672q-2.33889,1.487-4.72382,2.90343c-.9434-7.548-1.80982-15.07487-2.2053-22.57645-1.15926,2.75361-.326,7.64422-.57963,11.10992.04227,4.374-.00151,8.748-.06943,13.122a196.525,196.525,0,0,1-24.441,11.7322c-.65736-3.48947-1.29058-6.98234-1.791-10.49633-.15019,3.62494-.11245,7.391.02566,11.19482q-3.02719,1.17681-6.08836,2.25738c-1.01737-4.74419-1.95625-9.49028-2.49889-14.27334,0-.01208,0-.01208.01207-.01208a.04806.04806,0,0,0-.02415-.08453,75.70169,75.70169,0,0,0-.89133,15.559c-1.317.44038-2.64078.85473-3.96532,1.26907-1.12907-6.60988-2.26267-13.21937-3.02871-19.93152a136.76172,136.76172,0,0,0-.82944,21.1104c-1.8121.53019-3.63174,1.0219-5.4544,1.50417-1.42643-7.96159-2.7721-15.939-4.10041-23.93081a18.25991,18.25991,0,0,0-.49586-2.76531c-.52227,9.31406-.89208,18.70132-.48076,28.05311q-1.88379.56491-3.79853,1.03737c-1.26718-7.11479-2.55927-14.28844-3.557-21.3621-.68831-3.86419-1.32832-8.151-2.08908-11.76162-.01057,11.49294-.0951,22.86966.30717,34.31883q-1.7219.34018-3.45513.64227c-2.51625-14.23713-5.16533-28.46444-6.89969-42.82231-.72453,4.92684-.19321,10.71105-.30189,15.90355.28152,9.39783.08,18.66773.437,28.024q-2.39324.37189-4.78344.74982c-1.13888-5.85327-2.23248-11.71446-3.0672-17.616-1.474-8.47707-2.19776-19.90058-4.0574-27.10971,1.89436,15.03411,1.5102,30.35125,1.76152,45.63366q-2.51775.45624-5.00759.99926c-3.72306-21.29191-5.945-44.645-8.902-64.90329.77284,18.18584.84529,36.56489,1.29209,54.81111.05132,4.02834.07094,8.04838.09887,12.07446-.49585.157-.98718.33019-1.48.4985-3.84683-25.4044-7.79252-50.90315-9.59632-76.45283.06038-.02416.06038-.18114-.02415-.16906-.72453,15.95185.64,32.1573.85737,48.19368.39623,10.7552.39548,21.43342.56378,32.13617a37.0414,37.0414,0,0,0-4.42042,3.771q-.76416-5.3078-1.60077-10.60879c-2.57286-16.78507-3.97363-35.05544-5.34949-51.36956.07094,23.18325-.126,46.40272.57435,69.64748q-1.02681,1.46944-1.99927,2.98267c-1.97134-11.37369-4.56608-22.67645-4.70948-34.21807h.06038a20.43393,20.43393,0,0,1,.5917,3.671,16.64294,16.64294,0,0,0-.21736-3.17551c-.68831-2.46342-1.111,1.26756-.9902,3.22419.61057,12.58842.82416,24.85609,1.01586,37.35622-1.13888,1.89171-2.27776,3.76984-3.44381,5.59741-1.87473-12.11974-4.49966-24.17835-5.16759-36.31206a.36138.36138,0,0,1,.0483-.0966c-.72454-.45887-.73661,6.09817-.71246,6.78648.30113,12.75484.34491,25.4712.54114,38.22906-.8068,1.28907-1.63021,2.56757-2.45059,3.84758-.20831-1.56756-.41133-3.13663-.62643-4.70269-1.00227-10.26425-3.73135-20.64926-3.41739-30.90143.02415-.04831-.01207-.10868-.06038-.06038a2.7617,2.7617,0,0,0-.37434.89322c-1.52152,14.34467-1.4453,28.88821-1.203,43.39137-.62793.92378-1.2785,1.83209-1.91549,2.74984-1.1419-9.09745-2.754-18.13075-4.00608-27.27876a38.10663,38.10663,0,0,0-.94189-5.22873c-.474,13.299-.52982,26.60818-.34189,39.91813q-1.6472,2.23473-3.33513,4.44117c-1.514-11.03709-4.11174-21.92889-5.10571-33.04787-.99775,9.60122.4234,25.85157.6468,38.77283q-2.67287,3.36231-5.41892,6.66875c-.714-8.63405-2.15248-17.23413-2.32758-25.84177-.90793,5.4627-.31849,11.768-.67623,17.50961-.13962,4.16382-.33283,8.32537-.48755,12.48956-1.3253,1.54681-2.6755,3.07173-4.0257,4.5974-.84076-7.83781-1.97738-15.65147-2.10191-23.521-1.917,5.92534-1.61133,17.38432-1.33284,27.39876-.97812,1.0751-1.98568,2.123-2.97588,3.18644q-1.11624-8.1714-2.2838-16.36016a183.415,183.415,0,0,0-.7834,19.644,347.591,347.591,0,0,1-50.599,43.85326q-2.78493-11.90955-5.89213-23.73231c.12679,8.78688.71623,17.76584,1.58794,26.74064q-4.36873,2.98589-8.83783,5.82119c-.57208-2.66719-1.13208-5.33741-1.7102-8.00007-1.92078-9.202-4.06948-18.85038-6.062-27.76217.55548,13.02089,1.2385,26.104,2.37361,39.13473q-4.174,2.53644-8.42952,4.94005-.943-4.59854-1.87775-9.20009c-2.04078-10.6869-4.37137-21.36172-5.77214-32.14523-.44679,1.00228-.25358,2.70494-.326,3.9608.10038,13.55485.63322,27.1531,1.98946,40.65436q-3.29664,1.76663-6.63554,3.45589c-2.78493-16.89489-5.70723-34.07242-9.08386-50.55862a487.563,487.563,0,0,0,1.74115,54.12733c-2.29135,1.03322-4.59929,2.01813-6.91026,2.99626-.58869-4.26156-1.14718-8.5265-1.81059-12.782-2.58417-16.82129-4.36-34.826-7.1729-51.81636a535.66141,535.66141,0,0,0,.40982,68.07464c-1.29964.50793-2.59248,1.03435-3.8974,1.52567q-1.22944-9.58595-2.671-19.14849c-2.5004-16.19337-4.637-33.232-7.874-49.20841a707.7822,707.7822,0,0,0,2.17587,71.36071c-1.98719.691-3.97287,1.386-5.97213,2.04115-2.05738-17.86584-4.21665-35.71356-6.10572-53.58544-1.15926-9.45518-2.45135-19.40585-4.06872-28.53462,1.34643,28.15613,1.09888,56.39226,2.511,84.5348-2.56682.77925-5.14647,1.51322-7.72989,2.23738-.2551-2.05172-.4868-4.10344-.7585-6.15553-3.46645-26.0229-5.98949-52.1424-8.6831-78.24983-.19321-2.88607-.84454-5.92912-.49435-8.75481a.04661.04661,0,0,0-.04906-.07245c-.13207.06038-.18113.57963-.18113.5917.591,31.48182,1.34794,63.04138,3.4272,94.49754q-4.32456,1.12869-8.67782,2.15248-.63057-5.53534-1.25737-11.0703c-2.41512-23.39042-3.97362-46.84122-6.00157-70.26787-.24151-3.77966-.68906-7.64385-.70114-11.41143-.31321.42265-.08377,1.5819-.15622,2.29436.85585,30.552.73359,61.20438,2.48757,91.73487q-6.591,1.46663-13.23108,2.72267c-1.16756-21.67418-3.2906-43.30382-4.50872-64.96894-1.43624,11.80955-.82039,27.82216-1.35247,41.03285q-.24792,12.55089-.34717,25.10855c-4.65891.81662-9.3367,1.54-14.02278,2.21663-1.05058-11.81068-2.31323-23.598-3.17588-35.39167-.55548,11.80766-.87925,23.89193-1.151,35.983q-4.80231.64982-9.61669,1.21133c-.40906-8.29744-.82114-16.59526-.84907-24.91345-1.634,8.01743-1.80455,16.82054-2.34795,25.275q-4.82835.52981-9.66424.97209c-.46944-6.68988-.917-13.40957-1.28228-19.847-1.037,6.68837-1.74417,13.416-2.23549,20.16624-16.82508,1.43624-33.70826,2.14266-50.51145,2.25813-49.42539,1.0385-99.11645-.82114-146.79088-15.25147-20.27492-5.67553-40.19964-12.67937-58.941-22.27947-.47095-5.08382-.82114-10.17972-.92982-15.28769q-.163,7.28157-.30189,14.65976h0c-2.72909-1.42492-5.44534-2.90984-8.12612-4.44344V801.839c-1.26869-9.04462-2.69361-18.053-4.38419-27.0614-.56756,7.837-.84454,15.8794-.86869,23.94589v.00038l-.00076-.00038c-.314-.19321-.61585-.37434-.91774-.56755-1.35247-.76076-2.69286-1.5336-4.02117-2.34266h0c-.77284-5.88082-1.594-11.74955-2.29437-17.64244-.56755-3.52645-.966-7.48687-1.48529-10.80766-.50718,8.5133-.80907,17.07489-.80907,25.624v.00038h0c-2.14945-1.36454-4.28683-2.777-6.41214-4.21438h0c-.20528-1.84757-.42264-3.69513-.61585-5.5427-.83246-8.05442-1.70266-16.47111-2.25814-24.36854-.44679,9.02046-.90491,18.08923-1.15925,27.158h0c-2.24606-1.56983-4.47929-3.1638-6.71328-4.75778h0c-1.35246-10.91634-2.58417-21.8689-3.27248-32.83353-.16906,9.81745-.56756,19.82812-.88228,29.86293-1.37661-.9902-2.75248-1.99209-4.12909-2.97059-1.08756-10.61445-2.39173-21.19266-3.828-31.69843.04755,9.23783-.363,18.81377-.76151,28.42594-1.40077-.9902-2.81362-1.98039-4.22646-2.94644-.02415-.28982-.04755-.59171-.08453-.88152-1.1102-11.78578-1.85964-23.63193-2.58418-35.45393a15.455,15.455,0,0,0-.35019,2.99474c-.62793,10.01067-1.44907,20.05756-1.751,30.10445v0c-1.01359-.68831-2.04-1.36416-3.06644-2.0287h0c-.73661-15.77072-1.71474-31.52937-3.28456-47.21556-.04831,14.32165-1.05058,29.15048-1.89587,43.96723h-.00076c-1.18039-.72265-2.37361-1.4219-3.56607-2.1087-.7585-17.28357-1.58039-34.67657-2.61587-51.33787-.94794,16.00393-2.35625,31.99126-3.43777,47.99746l-.01661-.00906c-1.96832-1.01435-3.96079-1.99247-5.98874-2.91022h0c-.24151-13.06579-.89435-26.13158-.95472-39.18529-2.31852,10.02274-2.57135,21.18059-3.92382,31.60182-.19321,1.78719-.38641,3.57438-.56755,5.36156H184.648c-1.42492-.43472-2.87324-.797-4.32231-1.12265v-.00038c.16906-10.50576.13208-21.03568,1.34039-31.39653.01208-.01208.01208-.01208.02415-.01208.0483.03623.10793-.03623.0483-.06038-.22943-.16906-.37434.38642-.57962.9419-1.9321,7.78876-2.91022,15.68619-4.32307,23.57155-.36226,2.04078-.71246,4.08155-1.06265,6.12233h-.00075c-1.84757-.28982-3.70721-.50718-5.56685-.68831.29057-8.48914.04906-17.02658,1.4619-25.31044.01208-.01208.04755-.06038.0717-.06038a.04088.04088,0,0,0-.03547-.07245c-.19321.06038-.33887.42264-.3985.51925-2.04153,5.917-2.62115,12.3171-3.81664,18.46358-.35019,2.05285-.71246,4.09362-1.074,6.14647h-.00076c-2.31851-.157-4.66117-.27773-6.99176-.38642.1449-7.88536-.20529-15.819.71246-23.62023h.01207c0,.03661.07321.03661.07321-.01207.01208-.07208-.04906-.08416-.10868-.08416-2.36682,5.32534-2.60908,11.66465-3.79249,17.38886q-.506,3.06116-.97812,6.12232c-2.13738-.10868-4.27476-.22944-6.388-.41057.483-9.02047.27774-18.19792.43472-26.989-2.18493,8.76688-3.26041,17.66659-4.43174,26.60253-2.0287-.21736-4.06948-.4468-6.1095-.68831.157-7.72838.01208-15.54166,1.594-22.93155-2.403,4.625-2.403,11.25408-3.5872,16.62772-.32529,1.98039-.65208,3.96117-.966,5.95364h0c-1.95625-.22944-3.92381-.483-5.89213-.74869h0c.10792-8.17517-.50793-17.65451-.13359-20.13-2.00379,4.468-2.29436,11.47144-3.32079,16.83338-.13283.91774-.25358,1.84756-.38642,2.76493v.00038c-1.81134-.26567-3.634-.55548-5.44533-.85737h0c-.13359-4.35929-.30265-8.71858-.45888-13.06579.02416-.66416.01208-1.32831.04831-2.00455-1.05133,2.78946-1.2687,6.50875-1.72681,9.63632-.20529,1.65436-.3985,3.30872-.59171,4.96307A147.88621,147.88621,0,0,1,92.201,735.17121c-.37888-2.96833-.72982-5.9378-.93284-8.90122-.70643,2.38417-.68831,5.448-.91775,8.182-2.557-1.017-5.04911-2.17587-7.50573-3.40607-.57888-5.76345-1.17058-11.52426-1.69662-17.29828-.72907,5.0808-1.20077,10.35557-1.43172,15.67072Q76.825,727.82151,74.056,725.993q-.56491-14.26485-1.40907-28.51122c-1.57511,8.04762-2.92,16.3662-3.77891,24.74439-.24528-.194-.50642-.35925-.74944-.557-2.18191-1.65511-4.24532-3.351-6.24232-5.07024-.30491-6.47327-.56152-12.9473-.61661-19.43114-.157-9.3465-.14491-19.42962-.18114-28.6433-1.13737,14.72694-2.37361,29.48633-3.37965,44.24572-.95775-.90529-1.951-1.79775-2.86569-2.71927-.22566-10.32161-.44227-20.63643-.54114-31.09314-.16906-11.96691-.18113-24.74288-.84454-36.64942q-3.17324,30.25955-5.01212,60.70023c-.68831-.81737-1.34869-1.64606-2.00832-2.47475q-.12-2.54719-.23774-5.09288c-.68831-19.92472-.53133-39.95813-.41057-59.97946-.02415-6.73818.30189-13.87485.42265-20.39567-2.11323,20.20246-2.63248,40.53776-4.0574,60.8006-.34944,5.76157-.76907,11.51709-1.17209,17.27413-.54793-.81133-1.08831-1.62643-1.6136-2.44681-.12076-2.3004-.25057-4.59929-.34114-6.90573-1.02642-28.67953-.77283-57.44359.03548-86.13519,0-.04831-.05963-.06038-.0717-.01208-3.2589,26.49121-5.90119,53.19487-6.97064,79.91815-.40378-.83133-.77586-1.67851-1.163-2.51814-.12151-2.53436-.25887-5.068-.35623-7.60309-.94189-22.9557-.47019-46.28574.49586-69.326.41057-5.60308.15622-11.39936,1.43624-16.85753-.79624,1.05058-1.02567,3.17588-1.32832,4.637-3.43324,23.41608-6.194,47.11481-7.3963,70.83768-.17887-.54981-.33736-1.11322-.5117-1.66567.01887-3.00343.01585-6.00761.01056-9.01141.12151-28.909,1.35247-57.92661,3.20079-86.71482-3.68985,23.98665-6.05364,49.70992-8.89745,74.64828-.44075-1.91323-.85963-3.85249-1.27925-5.79251.16453-31.29616,1.93586-62.58024,5.04382-93.71942.09736-1.32831.326-2.64455.31472-3.96079-.13359-.03623-.0483.36227-.08453.41057-4.15476,24.88779-6.988,49.959-9.65594,75.03735-.10642-.61209-.21736-1.223-.32-1.83587.10265-4.154.25435-8.305.33963-12.46126,1.01435-29.60935,1.1102-59.46021,5.748-88.75559.08453-.19321.15623-.61586.314-.74869a.03819.03819,0,1,0-.02416-.07245.60541.60541,0,0,0-.27773.43472C11.89986,527.8718,10.53,554.00338,8.487,579.90779a275.63955,275.63955,0,0,1,7.91178-92.65q3.09852-12.1054,6.17289-24.227c.12981,42.04683,4.03626,86.04236,28.53236,121.61668,40.61021,57.76962,103.7897,95.90434,167.52467,123.66612,38.93171,14.68392,79.59022,24.70666,120.4661,32.29013,39.02831,6.77441,78.39473,12.945,118.0872,13.48844a313.28834,313.28834,0,0,0,136.59909-31.51729c52.64957-27.43575,93.71866-71.3426,137.80664-110.15355a295.66981,295.66981,0,0,1,120.27289-64.82177c29.45237-8.64612,59.68965-17.8115,84.86725-35.96111A159.135,159.135,0,0,0,992.022,429.76592c.0634-.21283.1034-.42943.16453-.64264-.07169,19.83529-.92453,39.67888-1.55322,59.51115-1.15548,26.74894.566,53.53374-.21887,80.28532Q988.21027,571.75337,985.88081,574.46509Z"/>
    <path d="M511.03914,381.72922c-24.13911,5.13213-49.64276,5.19251-72.50185,15.44468-11.07332,4.73364-23.04023,10.84388-27.78518,22.65381-14.43109,36.14225,27.1814,69.5071,53.85638,87.17369,16.68847,10.95257,36.99961,14.61147,56.6949,14.539,44.16044-.33812,100.81986-8.45292,117.33852-56.17565a1.61965,1.61965,0,0,0,.08528-.21736c5.08307-12.945,5.83176-27.315,5.554-41.14154a158.10189,158.10189,0,0,0-1.29133-23.161,3.81314,3.81314,0,0,0-1.12379-2.28228c-7.16082-23.004-35.03053-32.00032-56.92434-33.79958C559.01546,362.81885,535.8907,377.03182,511.03914,381.72922Zm70.37654,65.07536c-16.4945,9.97444-33.76335,20.98738-53.44656,22.54513a53.42191,53.42191,0,0,1-34.54752-11.44766c-13.97221-12.8122-13.16314-29.83878,5.554-37.08414,11.6771-5.85666,24.82742-4.34721,37.386-5.61515,2.403-.5917,5.0959-.61585,7.26951-1.83549,3.15173-1.92,6.68988-2.36681,10.32463-2.51172,11.96691-1.0385,25.29836-3.1155,36.25092,3.043C603.985,424.44059,593.04448,440.0181,581.41568,446.80458Z"/>
    <path d="M244.12631,658.47649c16.56771-1.65474,33.11127-3.63476,49.76351-4.21438,10.25218-.45888,20.52851-.14529,30.80483.157,10.74728.31359,21.49456.62793,32.22976.09623,26.204-1.18341,52.54089-5.88044,78.74493-3.09136,36.92715,5.4827,66.35537,32.03692,102.3044,40.53814a77.33227,77.33227,0,0,0,16.15714,1.70266c44.48648,0,85.37443-37.92943,65.59461-85.09707-15.89147-30.43011-49.96879-43.33929-80.80985-53.32581-16.53148-5.39779-32.54372-12.2205-48.83369-18.24584-58.59077-23.04023-129.54694-14.87713-178.53761-59.7621-.21737-.21774-.43473-.423-.65209-.64038a.0943.0943,0,0,1-.0483-.04831c-2.64455-2.7287-5.16835-5.55477-7.60762-8.47706-.45887-.53133-.91775-1.07435-1.35247-1.62983-.01207-.02415-.03622-.03622-.0483-.06075-.24151-.28944-.45887-.56756-.67623-.857-.3985-.49548-.78492-.9902-1.14718-1.48568-.74869-.97812-1.47323-1.98039-2.18569-2.99437-6.37591-9.08084-11.70124-19.13981-19.09151-27.39951-16.39865-24.23571-32.61617-48.80992-45.97177-74.82037-8.47707-16.84544-18.43943-33.075-31.10672-47.0831-25.0327-26.55385-59.72588-41.15324-74.94112,2.86229-9.47934,26.05913-2.58418,54.11072-7.36611,81.01476-2.58418,18.3549-9.745,35.55054-14.7443,53.29-4.38344,16.53149-7.354,33.40109-9.99859,50.29446-6.6295,34.47619,14.539,65.29272,31.638,93.33225,10.542,17.69111,22.26739,35.78035,39.451,47.67443A111.18446,111.18446,0,0,0,244.12631,658.47649Zm136.49041-51.4424a167.26255,167.26255,0,0,1,32.93542,12.79334,222.119,222.119,0,0,1,21.2719,12.20351.085.085,0,0,1-.01207.14491.32693.32693,0,0,1-.14491.0483.48931.48931,0,0,1-.14491-.03622c-.0483,0-.0483-.04868-.02415-.06076-5.04759-1.41247-10.08312-2.75324-14.99788-4.6008a147.51231,147.51231,0,0,1-17.07489-7.54724h.01208a238.59734,238.59734,0,0,1-21.84475-12.87221C380.55634,607.08277,380.58049,607.022,380.61672,607.03409Zm-34.97092-1.594h.01208a168.35379,168.35379,0,0,1,33.703,11.03709c5.73591,2.51173,11.38729,5.39779,16.89376,8.38084a127.94123,127.94123,0,0,1,13.102,7.66762c.03623.02416.02415.06076-.01207.06076h-.02415c-11.182-2.51172-22.07418-5.37364-32.64033-9.92651a196.04039,196.04039,0,0,1-31.05842-17.15942C345.58543,605.47634,345.60958,605.44011,345.6458,605.44011Zm-24.77911,3.20041a123.36154,123.36154,0,0,1,15.92771,4.5159q-.14491-.05377-.28982-.10831a189.61542,189.61542,0,0,1,22.78664,9.49142c3.828,1.90794,7.58347,3.96041,11.30276,6.07364,3.26041,1.86,6.88308,3.68306,9.73292,6.13478.02415.01208.01208.06-.02415.06h-.01207c-2.72909-.954-5.66346-1.46077-8.465-2.20945-4.14193-1.111-8.23556-2.39135-12.28088-3.79212a148.49217,148.49217,0,0,1-19.61076-8.39216.20411.20411,0,0,1,.06038.02415,124.73265,124.73265,0,0,1-19.15189-11.72577A.03956.03956,0,0,1,320.86669,608.64052Zm-27.1097,1.5819h.01208c14.91335,3.86419,29.27123,10.26388,42.86834,17.41263-.07245-.03585-.1449-.08415-.21736-.12076a125.568,125.568,0,0,1,13.06579,7.26951.0386.0386,0,0,1-.02415.07245h-.01207c-10.20388-2.65625-20.27492-5.3008-29.93539-9.61179a137.35469,137.35469,0,0,1-25.76932-14.95C293.70869,610.27035,293.72076,610.22242,293.757,610.22242ZM270.439,612.867a95.1358,95.1358,0,0,1,14.225,4.468v-.01208c1.83549.7,3.6589,1.41285,5.47024,2.16153-.0966-.03622-.18113-.07283-.27774-.10905,10.94049,4.39551,22.02588,9.8416,31.50522,16.91828a.04778.04778,0,0,1-.02415.08415l-.01208-.01208c-6.66572-2.20945-13.34352-4.27476-19.90057-6.78648a149.11446,149.11446,0,0,1-18.4515-8.6582.58947.58947,0,0,1,.08453.03623,90.20971,90.20971,0,0,1-12.65522-8.01782C270.37865,612.91528,270.39072,612.8549,270.439,612.867Zm20.601,22.35154c.03623.02415.01208.07283-.03623.07283a134.40617,134.40617,0,0,1-25.46742-8.10272,111.75667,111.75667,0,0,1-13.69372-7.53517,77.15621,77.15621,0,0,1-10.31255-7.451c-.03623-.02415-.01208-.06.02415-.06h.01208a163.14674,163.14674,0,0,1,21.55493,7.74046A152.666,152.666,0,0,1,291.04,635.21852ZM159.48849,314.06818c-.03622-.02378,0-.07208.03623-.06,16.68847,6.21893,34.343,16.57978,43.52043,32.38635a.04245.04245,0,0,1-.03623.06076c-.01207,0-.01207,0-.02415-.01208-1.21963-.894-2.46342-1.751-3.671-2.65663a.43454.43454,0,0,0,.09661.06q-2.60833-1.66643-5.15628-3.47777c-2.30644-1.42454-4.58873-2.91021-6.83479-4.48A172.41908,172.41908,0,0,1,159.48849,314.06818Zm12.29295,24.09118c-.02415-.02415.01208-.07283.04831-.0483,11.15784,5.84458,22.33984,12.06351,32.53164,19.5017,2.33059,1.69058,22.13456,16.30242,20.10586,18.56056h-.02415c-.02415,0-.04831-.02453-.03623-.03661v-.02415a.3687.3687,0,0,0,.01208-.1083c-.09661-.12113-.18114-.24189-.26567-.36227-.43472-.266-.84529-.5434-1.26793-.80906.02415.01207.03622.01207.06037.02415-5.44609-2.58455-11.04916-4.77024-16.4228-7.52309a101.99805,101.99805,0,0,1-12.38956-7.511A106.81317,106.81317,0,0,1,171.78144,338.15936Zm10.97672,26.578a.04125.04125,0,0,1,.03622-.07208,204.56331,204.56331,0,0,1,32.435,19.06736c5.12,3.69513,10.02274,7.72838,14.76845,11.89408,2.4755,2.17361,4.85439,4.45589,7.16082,6.81063.70039.72454,2.35474,2.16191,2.43927,3.39324,0,.02415-.01207.03623-.02415.03623-.02415,0-.03622,0-.0483-.02415a.01183.01183,0,0,0-.01208-.01208h.01208a.52242.52242,0,0,1-.0966-.13283c0,.01208,0,.01208.01207.02415-.21736-.1566-.43472-.33774-.66416-.49472a26.05052,26.05052,0,0,0-2.53587-1.26831A144.83585,144.83585,0,0,1,182.75816,364.73736ZM202.5259,398.3075c-.03623-.02377,0-.07208.03623-.06a147.65031,147.65031,0,0,1,26.96479,14.78015,111.00141,111.00141,0,0,1,10.25218,8.28385,89.033,89.033,0,0,1,6.30346,6.328c1.25586,1.38831,3.00682,3.44154,3.38116,5.36156a.05194.05194,0,0,1-.0483.0483.04214.04214,0,0,1-.02415-.01207.14553.14553,0,0,0-.06038-.06038,15.059,15.059,0,0,0-2.95852-2.017c.03623.02415.06038.03623.09661.06038-8.71858-4.70948-17.53376-9.02009-25.3829-15.15449A145.00967,145.00967,0,0,1,202.5259,398.3075Zm13.8507,217.26441h.01208c17.23187,5.42194,32.54372,15.7462,47.87972,25.02025.03622.02415,0,.07245-.02415.07245h-.01208c-17.3164-4.99891-34.2826-13.04126-47.87972-25.03232A.03387.03387,0,0,1,216.3766,615.57191Z"/>
    <path d="M940.02451,430.65084v-.01208c.14491-.26566.28981-.53132.42265-.79661.44679-.85774.89359-1.71511,1.32831-2.57248,1.73889-3.39324,3.41739-6.81063,5.07175-10.2401A41.02962,41.02962,0,0,0,945.531,412.151c-.42265-1.32831-.88152-2.59587-1.36454-3.81588-.157-.38642-.314-.77284-.483-1.15926-.08453-.24151-.19321-.483-.30189-.72416-14.76844-33.98071-51.45409-26.28894-83.10421-28.0882-38.21925-4.5042-44.63139-47.602-86.2318-52.09372-.50717-.06076-1.02642-.10906-1.54567-.14529-.314-.02377-.64-.04792-.966-.07245-.5434-.03623-1.08681-.07245-1.64228-.09661h-.06038c-.71246-.03622-1.437-.04792-2.17361-.06a57.75668,57.75668,0,0,0-10.84388.7c-.80906.53133-1.594,1.07473-2.37889,1.63058-.61585.43435-1.23171.88114-1.83549,1.32832q-1.03247.7602-2.0287,1.55775c-.67623.51887-1.34039,1.06227-1.99247,1.60568-.92982.77283-1.84757,1.56982-2.75324,2.37889-.78491.70038-1.56982,1.42529-2.33058,2.14945-.36227.33812-.72454.68831-1.08681,1.0385-.45887.4468-.90567.8936-1.35246,1.34077-20.79417,20.96285-33.88411,50.21031-50.08956,74.54225-13.92315,20.4802-29.392,40.39323-38.026,63.83157-16.71262,47.34839-10.02274,91.41223,43.17024,107.44861a52.39138,52.39138,0,0,0,14.57523,2.077c29.77841,0,54.81111-25.5395,79.63853-40.18756,41.56418-27.56858,88.345-48.90577,125.69482-82.60912C926.0289,454.82617,933.49161,443.02832,940.02451,430.65084Zm-53.39826,15.662a325.36644,325.36644,0,0,1,34.42751-8.96009h.01207c.03623,0,.0483.0483.01208.07246a198.83412,198.83412,0,0,1-32.61617,14.61146,184.81165,184.81165,0,0,1-37.49471,9.08084H850.955a.03826.03826,0,0,1-.01208-.07245A212.41582,212.41582,0,0,1,886.62625,446.31288ZM755.64231,542.08477a.04238.04238,0,0,1-.02415-.07283,149.61911,149.61911,0,0,1,21.9904-11.24653l.0317-.0132a141.19956,141.19956,0,0,1,38.25925-10.64539c.03623-.01208.06038.0483.02415.07245C797.32725,531.313,777.37837,539.80211,755.64231,542.08477Zm23.25759-22.19494a.03881.03881,0,0,1-.02415-.07283,138.98333,138.98333,0,0,1,17.099-7.93366c-.12075.0483-.24151.08491-.36226.13283,1.93209-.78491,3.87626-1.50945,5.84458-2.20983a.81851.81851,0,0,0-.0966.0483.62068.62068,0,0,1,.157-.06038h-.02415l.10868-.03622a214.915,214.915,0,0,1,30.81691-8.98424c.03622-.0117.07245-.0117.10868-.02378,2.88606-.70076,5.79628-1.31661,8.7065-1.84794a.03977.03977,0,0,1,.02415.07245A118.80269,118.80269,0,0,1,778.8999,519.88983Zm72.84-34.3192a136.5429,136.5429,0,0,1-17.03866,7.28158,148.41928,148.41928,0,0,1-34.86223,7.48686.03978.03978,0,0,1-.02415-.07245,158.16807,158.16807,0,0,1,32.41089-14.81675c6.00157-1.94417,12.17219-3.55022,18.33075-4.90269,4.6974-1.03812,9.431-2.36681,14.24919-2.6204.04831,0,.06038.06038.02415.07245C860.42221,480.463,856.24406,483.27626,851.73986,485.57063ZM888.78778,460.961a.038.038,0,0,0-.02415.0117,1.31691,1.31691,0,0,1-.13284.07245c.02416-.02415.06038-.03623.08453-.06038-19.804,12.13635-42.3974,18.57226-65.38932,21.09606-.03623,0-.06038-.06-.02415-.07208a185.50454,185.50454,0,0,1,47.771-19.67151c.01208-.01208.01208-.01208.02416-.01208a.01183.01183,0,0,0-.01208.01208,133.60207,133.60207,0,0,1,23.004-4.794.03977.03977,0,0,1,.02415.07245C892.35008,458.75074,890.587,459.88584,888.78778,460.961Z"/>
    <path d="M210.61277,223.82615c-5.53062,7.294-5.277,18.07754,2.11323,23.958,34.7294,23.78929,48.90614,43.99175,55.64432,85.85783,2.11323,24.50137,13.08994,41.15361,39.2336,43.12193,1.41284.09623,2.81361.14491,4.21438.14491,17.20772,0,33.546-7.1729,50.57258-9.27406,20.91492-3.01889,42.15588-2.13738,63.17949-4.27476,38.20717-3.57437,74.30111-17.896,111.92865-24.71873,20.77-4.06947,42.26457-5.108,63.2278-1.71473,38.72642,4.80608,73.7094,27.629,104.81613-8.48914,23.75268-25.26214-.27774-52.92732-23.18514-67.52709-22.25531-14.03146-48.47142-19.62246-73.84224-25.28628-21.01153-4.38307-42.32494-7.10007-63.55383-10.2035-32.41089-4.68571-64.55611-11.03709-96.95492-15.67412-24.73081-3.297-49.60653-5.265-74.47017-7.13667-29.66973-2.49965-59.48437-4.26269-89.20239-1.59436C261.3061,204.02256,226.19028,204.7471,210.61277,223.82615Zm363.04057,76.83737a.4897.4897,0,0,0,.10868-.06038c0-.01208,0-.01208-.01207-.02415l-.01208-.01208c-.03623-.02453-.01208-.06038.02415-.06038h.02415c.35019.25359-2.99474,1.85964-3.30871,2.0287-6.78648,3.77929-13.56089,7.60763-20.4319,11.2303a230.65544,230.65544,0,0,1-37.67584,15.96393l-.01208.01208a.03979.03979,0,0,1-.02415-.07245,200.85048,200.85048,0,0,1,28.32934-16.58017c10.62652-5.14382,21.79644-8.82688,33.00259-12.4254Zm-42.08343,7.29365c2.64455-.91774,5.51854-2.21021,8.308-2.59663,1.00228-.13245,1.25586-.22906,1.49738-.22906a5.56132,5.56132,0,0,1,1.02642.20529.13833.13833,0,0,1,.09661.157,1.15156,1.15156,0,0,1-.3502.67624c-.02415.03622-.08452,0-.06037-.04868.01207-.02378.02415-.06.03622-.08416a1.338,1.338,0,0,0,.10868-.22943,1.2437,1.2437,0,0,0,.01208-.20529h-.68831c-.483.19321-.954.37435-1.41284.55548a.04377.04377,0,0,0,.01207-.02453c-11.14577,5.98949-21.74814,12.933-33.13542,18.52434a194.25159,194.25159,0,0,1-28.93312,11.83407c0,.01208,0,.01208-.01207.01208a.04634.04634,0,0,1-.02415-.07245,186.782,186.782,0,0,1,28.76405-17.96848c5.22874-2.70494,10.66275-5.05968,16.14507-7.23328C525.80985,310.10663,528.67176,308.97152,531.56991,307.95717Zm-24.24779,2.25814a6.27286,6.27286,0,0,1,1.0385-.326c1.13511-.30189,2.75324-.60378,2.5721.157-.01207.03623-.07245.03623-.07245,0v-.01208a.04225.04225,0,0,1-.01208-.02452v.01245a.22188.22188,0,0,0-.02415-.08453v.01208c0-.01208-.01207-.02416-.01207-.03623-.06038-.01208-.12076-.03623-.18114-.0483-.37434.14453-.77284.27774-1.14718.42264q-.85133.45227-1.70266.9419c-6.14647,3.828-12.20842,7.7646-18.48773,11.38728a202.27471,202.27471,0,0,1-20.99945,10.44539c.02415-.01208.0483-.01208.07245-.02415a128.954,128.954,0,0,1-20.25076,7.088h-.01208a.03971.03971,0,0,1-.01207-.07208c11.496-8.99669,24.47722-16.02431,37.90528-21.69983C493.00047,315.39536,500.05261,312.48552,507.32212,310.21531Zm-52.93939,13.416c5.79628-2.56,11.665-4.91477,17.66659-6.95554a41.10828,41.10828,0,0,1,11.43558-2.63286h.14491a1.65709,1.65709,0,0,1,1.19548.423c.03623.02415-.01207.07245-.0483.06037-.01207-.01207-.02415-.01207-.0483-.02415l.01207.01208a1.8745,1.8745,0,0,1-.25358-.06076c-.30189.06076-.59171.10906-.8936.15736-.44679.19321-.89359.38642-1.32831.56756a.01183.01183,0,0,1-.01208.01207c-1.00831.54-1.99322,1.10416-2.96606,1.69209l.00754-.00151c-9.53971,6.01365-18.97075,12.11182-29.33161,16.62809-9.02046,3.93665-18.85,7.68008-28.71575,8.53707-.04831,0-.06038-.06-.02415-.07208C432.2844,335.85179,442.766,328.76342,454.38273,323.63129Zm-24.74289,2.49965c2.65663-.97813,5.32534-1.89587,8.00612-2.78984,2.03247-.66189,4.277-1.65851,6.43327-1.65851.086,0,.17132.00151.25661.00453a.04439.04439,0,0,1,.01207.08415c-.03622.01208-.07245.01208-.0966.02415-.26567.12114-.55548.24189-.84529.37435-.483.29019-.97813.57962-1.47323.88189.01208-.01207.03623-.02415.04831-.03622-2.4838,1.59246-4.91024,3.26644-7.39177,4.85023l.01358-.00792c-.02264.01434-.046.029-.06793.04339a.55879.55879,0,0,1-.06113.03887l-.00453.003A177.18987,177.18987,0,0,1,383.342,350.3542H383.33c-.03623,0-.06038-.06-.02415-.07208a146.20108,146.20108,0,0,1,29.82671-17.47338C418.54237,330.36947,424.08507,328.20794,429.63984,326.13094Zm-55.81338-103.0897a79.47036,79.47036,0,0,1,13.51259-1.71473c1.1834-.06,2.43927-.13246,3.7072-.13246a18.115,18.115,0,0,1,5.69968.74869,3.01633,3.01633,0,0,1,1.594.86944c.02415.02415-.01208.07245-.03623.04793a.04434.04434,0,0,1-.03622-.01208,2.93081,2.93081,0,0,1-.314-.08415.04438.04438,0,0,0,.03623.01207c-.4468.03623-.90567.07208-1.35247.10868-.5434.14491-1.0868.27774-1.6302.41057.03622-.01207.07245-.02415.10868-.0366-8.03027,2.54833-15.85525,5.27741-24.13911,6.90762a113.99016,113.99016,0,0,1-20.4319,2.30643.03825.03825,0,0,1-.01207-.07245A83.68087,83.68087,0,0,1,373.82646,223.04124Zm-16.41073-5.168c2.4755-.483,5.02345-1.00265,7.53517-1.25586.90567-.08453,2.077-.36227,3.15173-.36227a3.87072,3.87072,0,0,1,1.64228.314c.01208,0,.02415.02415.02415.03623a.1775.1775,0,0,1-.01207.08415.03816.03816,0,0,1-.07246-.01208c0-.01207-.01207-.02377-.01207-.03585a2.99244,2.99244,0,0,0-.326-.03622l.01207-.01208a27.27755,27.27755,0,0,0-4.16608,1.41285c.02415-.01208.06038-.02416.08453-.03623a219.17913,219.17913,0,0,1-30.70068,9.87557,111.34018,111.34018,0,0,1-12.67484,2.39323h-.01208a.03825.03825,0,0,1-.01207-.07245,107.71553,107.71553,0,0,1,24.1391-9.68463C349.77188,219.44309,353.58777,218.62157,357.41573,217.87326Zm-25.33459.04831a32.91034,32.91034,0,0,1,5.69968.47094.03708.03708,0,0,1,.01208.07246c-7.31781,1.96832-14.2975,4.98684-21.67569,6.81063a109.76944,109.76944,0,0,1-19.40547,3.00645c-.04831,0-.07246-.06-.02416-.07208a102.1918,102.1918,0,0,1,18.367-7.41441A60.37515,60.37515,0,0,1,332.08114,217.92157ZM304.07785,218.948a40.1973,40.1973,0,0,1,8.29593-1.36454,10.19172,10.19172,0,0,1,3.39324.53133c.0483.01207.02415.07245-.01208.07245-.0483,0-.10868.01207-.157.01207H315.61c-.30189.03585-.60378.08453-.8936.12076h.02415c-.83321.27736-1.66643.55548-2.49964.82114h.02415c-11.87031,4.83024-23.59571,9.84161-36.55282,10.71105a.03979.03979,0,0,1-.02415-.07245,99.464,99.464,0,0,1,17.98056-8.0182A88.26191,88.26191,0,0,1,304.07785,218.948Zm-17.59414.92982c-.13283.02415-.25359.03623-.37434.0483a15.16789,15.16789,0,0,0-3.17588.83322v-.01245c-10.84388,4.06985-20.86662,10.34916-32.27806,12.873h-.01207c-.03623,0-.04831-.03622-.01208-.06037,5.21666-3.64683,11.07332-6.0861,16.97828-8.36877,2.80154-1.08642,5.67553-2.01624,8.52537-2.97021,3.30871-1.09926,6.82271-2.29437,10.3367-2.41512C286.51994,219.80536,286.532,219.87781,286.48371,219.87781Z"/>
    <path d="M87.66816,319.37125c14.32844-26.8014,35.72715-48.93218,52.69637-74.01168,7.23705-10.39934,16.17-19.32811,24.94968-28.40141,10.85671-11.75106,20.96172-24.595,35.34148-32.26409,16.5662-8.78235,36.03357-5.77968,53.98167-8.419,17.68546-2.5355,35.48035-4.74873,53.0843-7.46272-12.76088.87095-26.24781,2.22908-39.294,2.84946-19.16019,2.52229-38.54528-.67963-57.673,2.17361-19.75944,2.96871-35.25469,17.18772-48.0367,31.60258-8.40159,9.08726-17.533,17.533-25.10516,27.36291-17.53224,25.3927-39.24114,50.15672-53.725,76.47434a269.33023,269.33023,0,0,0-16.81149,47.26839c-4.96835,15.00166-10.47558,29.76369-15.27261,44.8329,5.64383-12.38239,11.26955-25.40441,17.07489-37.94151C74.60463,348.51,80.49526,333.69705,87.66816,319.37125Z"/>
    <path d="M447.511,371.2461c-20.09529,5.24684-41.08116,4.68684-61.28362,9.29821-23.59042,3.75588-44.931,15.81411-69.14484,16.242-7.12912.31284-14.42429.09548-21.28926-2.1253-.22869-.02377-.65133-.10868-.83246.10906-.16906.19321,0,.61585.09585.80906a.04142.04142,0,0,0,.0732-.03623,2.41783,2.41783,0,0,1-.13132-.50189c.01962-.06188.03245-.12415.05132-.18679,3.60457.57246,7.554,2.50455,11.99861,2.80116,20.56473,2.94493,40.78757-2.10115,60.69192-6.62648a405.79956,405.79956,0,0,1,53.5311-6.69177c28.36858-2.37549,54.53186-13.839,81.59477-21.74927,16.68544-4.53853,32.65994-12.03257,49.94389-14.11636a81.409,81.409,0,0,1,11.15784.5683,53.76848,53.76848,0,0,0-13.63259-1.5102C515.53126,352.50931,481.68639,363.1147,447.511,371.2461Z"/>
    <path d="M295.64757,425.0538c12.58579,14.04958,20.9421,31.48786,35.05394,44.17553,16.86884,16.21224,39.131,25.935,61.90023,30.418,13.15938,2.96984,26.86291.46076,39.99436,3.17513-11.92691-4.65288-26.06139-3.51778-38.497-7.511a157.17457,157.17457,0,0,1-62.08287-35.34413c-8.94575-8.048-15.70507-18.14319-24.41459-26.43384a119.17769,119.17769,0,0,0-18.08923-15.07034C291.28149,420.54244,293.70491,422.82548,295.64757,425.0538Z"/>
    <path d="M739.37272,283.65391c26.718,15.40544,57.264,22.52325,86.15858,32.73806,11.9722,3.93816,22.62891,10.776,32.64033,18.29415,10.99407,7.55215,24.22514,11.32615,36.98753,14.73259,25.18289,5.51515,59.28361,4.0091,71.34259,31.73692,2.83626,7.29894,6.07931,14.79638,6.82347,22.69909a8.034,8.034,0,0,1-.59246,3.23626c-.27774.55548-.86944,1.20756-.62793,1.85964.163.12227-.02415-.34226.0483-.45887,2.75248-3.9057,1.394-9.0699.483-13.44013a110.485,110.485,0,0,0-5.7593-19.3451c-14.1292-29.84822-51.14239-28.66745-78.34719-38.02528-6.85667-2.4321-13.87108-4.60231-20.38662-7.88876-7.09818-4.15475-13.41069-9.67443-20.8153-13.59447-21.72625-11.65672-46.73178-14.80543-69.929-22.59419-14.373-4.58-28.86972-8.9065-42.02381-16.47035-11.28087-5.88345-20.84624-15.04279-30.97389-22.71418-.03623-.03623-.08453.02415-.0483.06037.443.4068.88529.814,1.32831,1.23247C716.28947,265.77,726.43146,276.52592,739.37272,283.65391Z"/>
    <path d="M958.90847,441.09321c.04226-.00453.04076.10566.11094.12264.34793,1.93209-1.33661,3.58117-2.25738,5.12684q-7.39253,9.97482-15.03713,19.74737c-5.7042,7.1178-11.07331,14.57788-17.20243,21.33455-15.096,16.23563-37.46754,22.4689-57.07453,31.81012,36.14074-6.43931,57.20434-11.88653,75.09659-46.685,5.48383-8.96084,11.0386-17.93112,15.83186-27.29008.483-1.22039,1.57888-3.0555.58038-4.22683C958.90847,440.997,958.87224,441.057,958.90847,441.09321Z"/>
    <path d="M592.49579,699.58444c-13.79561,7.80159-29.032,14.35939-43.79817,20.39567-15.23864,6.345-30.77011,9.04085-47.38462,6.55592-29.36482-1.63889-57.34471-10.962-86.20764-15.7345-11.4137-2.03172-22.83042-4.37551-34.42751-4.914-12.2839-.54114-24.54817.94-36.81848-.07245-22.83343-.05246-44.06836-8.27329-66.12593-13.00655-23.61684-5.5359-48.12878-10.8152-72.03091-3.75324,29.51879-6.025,58.94927,5.69062,86.83558,14.93675,16.98885,7.154,34.82374,11.74465,53.30166,12.40012,14.60392,1.05473,29.28482-1.11133,43.85628.7702,38.70529,4.54042,75.98868,17.29866,114.986,19.50623,25.47875,3.2906,49.29106-8.47933,70.64221-21.04851,24.17232-12.77748,44.29629-31.97428,62.59987-52.03334a80.12174,80.12174,0,0,1,6.13364-5.89289c-3.82192,2.491-7.33064,6.38761-10.86728,9.58764C621.02513,679.66651,606.83178,689.86472,592.49579,699.58444Z"/>
    <path d="M386.03035,671.29058c-.03622.01056-.01207.08339.02416.07132,45.51214-8.35254,57.6866-7.35064,100.92779,7.72988C448.36908,659.27385,430.89872,653.38134,386.03035,671.29058Z"/>
    <path d="M445.47321,676.89516a17.38593,17.38593,0,0,1,3.44682,2.00417c-3.48607-4.04268-9.12763-5.025-14.056-6.30384-10.80312-2.36568-22.22588-4.48532-33.18372-1.95624-12.56012,3.26569-25.10893,6.60572-38.014,8.21253-4.01664.51963-8.034,1.0985-12.06352,1.617a119.25741,119.25741,0,0,0,13.1624.85774c15.43411,1.04039,29.81765-3.791,44.63138-7.30686A98.29893,98.29893,0,0,1,445.47321,676.89516Z"/>
    <path d="M333.60116,685.15562c-9.51255-2.76946-19.76624-5.13854-29.521-4.3057,14.38278,1.80492,26.95951,10.32764,41.47966,11.2303,18.41829,1.36491,36.1445-4.95439,54.35223-6.19554C378.1933,683.57183,355.381,690.56926,333.60116,685.15562Z"/>
    <path d="M673.48829,593.3283c.20981-.48114-.72-.43624-.92982-.471-11.32615-1.27851-18.66283-10.92011-26.0229-18.64471-25.07194-28.29311-58.73416-28.8652-93.23564-21.107-.0483.01095-.02415.07095.01208.07095.18264-.00868.55019.01207.67623-.01208,90.68618-3.16192,83.35932,36.62112,119.42911,39.99964.03019.057-.01283.11887-.00151.17623C673.4264,593.38641,673.49961,593.37848,673.48829,593.3283Z"/>
    <path d="M639.51135,588.09806a.07256.07256,0,0,0,.0483-.01208c0-.01208.01208-.01208.02415-.01208-19.20773-15.72883-43.00948-35.03129-69.35012-26.312,25.58063-1.15775,48.46313,12.85937,69.20824,26.20441a.0323.0323,0,0,0-.0151.04717A.19034.19034,0,0,0,639.51135,588.09806Z"/>
    <path d="M625.69537,542.74364c-20.13454-12.26351-46.242-11.0786-69.30182-9.47933-10.542.65661-20.63794,2.26379-31.30673,1.1502-7.92611-1.09964-15.40392-3.31023-23.17834-5.58157a78.13719,78.13719,0,0,0,7.89744,4.214c18.82132,10.90765,41.12569,7.59252,61.76665,5.51854C589.47991,536.11943,608.72237,536.14471,625.69537,542.74364Z"/>
    <path d="M430.59985,191.187c19.08321,2.7955,38.35585,1.44492,57.55227,1.32794,11.16464-.246,22.71343.24755,33.67882.67661-32.075-7.46951-65.03762-4.92307-97.56021-9.56726-15.17826-3.48872-30.81842-6.68422-46.562-5.0676,5.2393.92378,11.10275,1.76681,16.527,2.88C406.48037,184.12463,417.98539,189.63412,430.59985,191.187Z"/>
    <path d="M480.24638,204.01426c24.48326-.02793,48.09934,9.56009,72.73053,9.78047,8.40914-.10339,18.0198.2,25.795-1.606-16.19865-.02264-32.64787-2.90116-48.57482-6.21591C513.75388,201.92745,496.91145,199.80516,480.24638,204.01426Z"/>
    <path d="M85.94361,452.89747c-1.40605,1.16945-1.52152,4.11174-2.05285,6.03742C80.38658,478.37131,73.64312,497.28282,73.24085,517.2c1.26643,34.409,27.47348,64.36969,45.74083,91.93223-11.98578-25.03535-26.6131-49.5137-36.09545-75.91509a58.11617,58.11617,0,0,1-3.48683-15.63073c-1.08228-17.98583,3.428-36.39658,4.98722-54.35223C84.87794,459.84622,84.42737,456.013,85.94361,452.89747Z"/>
    <path d="M63.11245,441.30793c-1.317,4.92646-2.24682,9.962-3.14041,14.98543-10.428,52.57372-13.31259,76.614,21.62889,121.06987-23.30589-42.79174-28.04782-62.27571-21.12021-111.18C61.21507,457.9579,62.02338,449.26461,63.11245,441.30793Z"/>
    <path d="M85.47342,593.29207a222.69116,222.69116,0,0,1-33.52259-42.52986c-2.27474-3.877-4.45741-8.28423-6.79781-11.87068,9.76916,21.99116,22.08173,43.47892,38.68944,61.01834,14.64317,14.25825,32.46825,24.42288,48.56878,36.84225C118.66847,620.73951,100.98376,607.82127,85.47342,593.29207Z"/>
    <path d="M673.04829,361.15393a226.51932,226.51932,0,0,1-24.35421-2.594c-10.30048-2.91324-21.4553-6.3329-31.90975-7.80385,15.22883,3.71022,29.20784,11.99672,44.8729,14.105,18.27112,5.13175,37.429-3.75966,49.09935-17.63149-5.21892,2.90833-9.89821,6.51666-15.333,9.039A93.508,93.508,0,0,1,673.04829,361.15393Z"/>
    <path d="M668.18484,438.59016c1.25662-13.15673,12.37975-22.39871,19.42887-32.96561,12.23484-17.28168,26.02441-34.11581,33.752-54.02695a5.19329,5.19329,0,0,1,.60378-1.123c-.6083.246-1.0551,1.47926-1.46643,2.13587-13.27032,21.60626-33.22372,38.343-45.2895,60.94778C670.36675,420.92848,666.68294,429.61913,668.18484,438.59016Z"/>
    <path d="M628.35652,369.70269c8.51782,5.028,15.942,12.80579,26.047,14.7326,7.27706,1.90228,15.84544,2.06606,21.95343-2.53625-15.57072,5.33741-30.08558-4.94383-42.57854-13.259-12.60389-7.468-27.27272-11.57748-40.92417-15.95186C604.665,358.40371,617.24094,362.63092,628.35652,369.70269Z"/>
    <path d="M171.60333,267.33262c-6.89894-.79208-16.68922.86378-21.01,5.32534,34.22147-18.30735,62.95987,39.094,79.55324,61.63306-9.342-21.48286-19.61831-45.4329-40.10379-58.86775C184.35289,271.86021,178.39132,268.20244,171.60333,267.33262Z"/>
    <path d="M198.19,216.26721c-2.57965,1.77549-2.7072,6.46082-3.0189,9.551-3.30267,32.435,28.25386,50.52352,44.42685,74.386,8.69141,12.66125,11.933,27.67838,15.86658,42.39777-1.56681-16.91413-2.97211-35.25695-12.776-49.99294-9.9118-15.54733-24.7059-26.99536-36.73621-40.76871-6.85818-8.68725-9.89821-20.12322-9.29594-31.16559C196.88886,219.18648,196.97943,217.3476,198.19,216.26721Z"/>
    <path d="M235.25377,314.17686c-.24378,1.37209.63774,3.2955,1.111,4.76948,11.72465,29.75916,8.20763,64.82253,40.07965,82.85025-24.93535-21.827-24.06968-58.31491-40.48946-85.49518A10.31805,10.31805,0,0,1,235.25377,314.17686Z"/>
    <path d="M680.37741,723.65562c-.01811-14.99-3.40984-30.31426-7.64384-44.72761C672.16148,693.48929,675.80077,709.27284,680.37741,723.65562Z"/>
    <path d="M693.28622,722.92278c.91246-17.0462-.61887-34.68977-5.92911-51.17635C684.00085,688.62924,687.40013,706.80413,693.28622,722.92278Z"/>
    <path d="M709.63053,728.6236c-.33283-18.94661-1.74039-40.294-10.44538-57.21416C700.6546,690.77907,702.60631,710.32681,709.63053,728.6236Z"/>
    <path d="M723.76577,728.92435c-1.30417-20.6402-3.88759-42.30608-10.02274-62.10476C716.00343,687.619,718.13251,708.6683,723.76577,728.92435Z"/>
    <path d="M738.75837,725.24054c-.9902-16.24808-2.98041-33.33731-8.67027-48.70086A115.77538,115.77538,0,0,0,738.75837,725.24054Z"/>
    <path d="M752.0302,708.00792c.33132-14.77222-2.24983-30.16181-9.54047-43.35137A108.35746,108.35746,0,0,0,752.0302,708.00792Z"/>
    <path d="M761.11255,682.953c-.17434-12.48843-.90944-28.4433-6.99554-38.794C755.16608,657.221,756.034,670.66264,761.11255,682.953Z"/>
    <path d="M771.69228,658.99574a140.40838,140.40838,0,0,0-8.21216-37.83283A86.77154,86.77154,0,0,0,771.69228,658.99574Z"/>
    <path d="M781.69691,646.459c.526-12.97975-1.41134-28.93312-8.46424-39.64454C773.93155,620.48064,776.16855,633.72568,781.69691,646.459Z"/>
    <path d="M916.26578,589.43241c1.64983-15.50544-.31094-31.38748-4.04607-46.61178C909.11024,558.07361,912.14122,574.4666,916.26578,589.43241Z"/>
    <path d="M925.89229,582.20517c.91473-14.67449-1.957-29.5969-6.074-43.81025C919.10506,552.78261,922.0832,568.13861,925.89229,582.20517Z"/>
    <path d="M933.17539,566.90313a180.76975,180.76975,0,0,0-3.8408-33.37693C927.69005,544.34743,929.75045,556.40114,933.17539,566.90313Z"/>
    <path d="M939.03356,562.74837a82.663,82.663,0,0,0-4.38344-35.40563C932.4584,538.98663,934.93012,551.61619,939.03356,562.74837Z"/>
    <path d="M330.06376,809.11382a205.24807,205.24807,0,0,0-2.77663-54.7145C325.64032,772.29422,326.23278,791.28535,330.06376,809.11382Z"/>
    <path d="M337.98158,809.96364c2.69512-13.99938,2.61889-29.07274-2.56078-42.67513C331.78982,781.20034,333.92267,796.2254,337.98158,809.96364Z"/>
    <path d="M347.71073,814.68029c1.60077-12.18842,1.69511-25.59006-3.52683-37.02338A57.6285,57.6285,0,0,0,347.71073,814.68029Z"/>
    <path d="M358.76669,817.95693c.51548-10.84011-.55472-22.24777-4.28684-32.66447A85.021,85.021,0,0,0,358.76669,817.95693Z"/>
    <path d="M370.16,824.80455A122.47263,122.47263,0,0,0,364.9675,789.568,80.40168,80.40168,0,0,0,370.16,824.80455Z"/>
    <path d="M475.08935,823.61246c4.12985-17.68886,4.00079-36.85169-2.05436-54.26733C467.921,786.97662,470.11722,806.04587,475.08935,823.61246Z"/>
    <path d="M484.89473,817.60674c.14038-16.60922.86189-34.4294-2.29436-50.91107C481.06677,783.49961,480.49921,801.26846,484.89473,817.60674Z"/>
    <path d="M496.8473,812.87386c1.91172-16.06318,2.308-33.33089-2.403-49.00312A119.5215,119.5215,0,0,0,496.8473,812.87386Z"/>
    <path d="M504.14624,767.21605c-2.65663,12.45031-1.82115,29.14972,3.1555,41.80608.17585-.17472-.13962-.76794-.15321-1.10152a.09058.09058,0,0,0,.00906.01471C507.83684,794.2684,507.9093,780.50411,504.14624,767.21605Z"/>
    <path d="M517.75845,802.52885c.64-13.9224.97963-28.89236-1.88379-42.59061C514.22106,774.06669,514.53427,788.66079,517.75845,802.52885Z"/>
    <path d="M527.425,791.11214c2.08455-10.64464,2.01889-22.60023-1.52228-32.93014C522.97812,769.04852,524.13964,780.4509,527.425,791.11214Z"/>
    <path d="M534.72541,754.70121c-5.02948,12.68881-4.10042,27.18631-.04755,40.16342.81963-3.3989,1.21888-7.43743,1.70266-11.07294-.0083.054-.01585.11321-.0234.17434A77.6087,77.6087,0,0,0,534.72541,754.70121Z"/>
    <path d="M85.12247,695.16968c2.91551-15.86318,3.8657-32.86636.34491-48.8869C82.38358,661.24368,82.79641,679.33971,85.12247,695.16968Z"/>
    <path d="M95.45692,704.9011c1.78869-16.99753,2.60078-34.8762.0166-52.01184C93.68256,668.5547,92.51349,688.15867,95.45692,704.9011Z"/>
    <path d="M103.3136,712.84268a.46767.46767,0,0,0,.89359-.25358c2.66191-16.66281,3.4506-34.02336-.35019-50.65748C99.12639,678.254,100.00413,696.21761,103.3136,712.84268Z"/>
    <path d="M110.85179,718.95482c2.64908-16.40431,3.69815-34.47468-.27774-50.742C107.43062,684.89448,107.00118,702.34334,110.85179,718.95482Z"/>
    <path d="M88.33081,406.42569c2.25059-16.08921,7.27856-32.5339,8.84084-48.94425-2.57361,5.80458-4.49212,14.97524-6.305,22.05153C89.355,388.33155,86.88476,397.52749,88.33081,406.42569Z"/>
    <path d="M94.59049,418.18883c5.67553-14.73,9.27934-31.24144,8.74273-47.08311C95.2388,385.36473,93.71577,402.09584,94.59049,418.18883Z"/>
    <path d="M103.4253,429.15762a224.66435,224.66435,0,0,0,6.30346-32.76108c-.01208.0966-.02416.18113-.03623.26566.803-6.29289,1.54115-12.982,1.87172-19.15189C104.53474,393.68179,102.51812,411.64876,103.4253,429.15762Z"/>
    <path d="M578.476,425.42739c-9.92085.17246-19.65529-1.23812-29.74746-.42114-6.08384.83284-12.933.19133-18.58509,2.42569-.76982,1.72039,2.59625.84,3.59852,1.08793.117-.1449-.31321-.14792-.4-.223,3.40833.47661,6.82724.75284,10.26652.95964,11.85294.65925,24.23193.40868,35.53846-3.50155C579.76812,425.244,577.39074,425.05342,578.476,425.42739Z"/>
    <path d="M513.73954,438.466c16.36167.2551,33.63882-.266,49.40124-3.39286C560.60642,435.74,503.92058,433.06105,513.73954,438.466Z"/>
    <path d="M508.9878,446.9344c-1.05511,1.01435.58793,1.09963,1.18869.96265,13.61825,1.26793,27.69008.88076,40.66606-3.81249C537.06807,443.90682,522.57284,443.65134,508.9878,446.9344Z"/>
    <path d="M497.80127,456.78883a93.88082,93.88082,0,0,0,48.33784-3.10456C530.53442,448.8563,512.94029,451.61708,497.80127,456.78883Z"/>
    <path d="M384.25373,412.51707c-17.136,3.60872-32.59051,13.60354-46.63517,23.95873A111.1383,111.1383,0,0,0,384.25373,412.51707Z"/>
    <path d="M339.81707,446.43967c16.17827-4.437,31.19049-12.965,44.69176-22.83532C368.26263,426.584,352.78927,436.23769,339.81707,446.43967Z"/>
    <path d="M350.72661,451.30651c13.01069-4.27362,25.71874-10.96086,37.10829-18.4515C374.07627,434.83277,361.17879,442.37926,350.72661,451.30651Z"/>
    <path d="M348.13111,462.85682a121.3804,121.3804,0,0,0,40.03059-21.49493C372.56607,443.07549,358.9916,451.92992,348.13111,462.85682Z"/>
    <path d="M733.553,309.50813c8.0348-1.62869,20.62059-4.84193,25.601-8.7665-11.42351,2.57474-23.13306,4.82533-34.029,9.46689a.48052.48052,0,0,0,.277.88151C728.1243,310.47342,730.82848,310.10323,733.553,309.50813Z"/>
    <path d="M758.71932,307.03565a189.2235,189.2235,0,0,0-35.61092,12.06352C735.1455,317.21236,747.99922,313.40251,758.71932,307.03565Z"/>
    <path d="M720.19592,326.78528l-.02339-.00037a117.53167,117.53167,0,0,0,32.3256-11.16993,98.33962,98.33962,0,0,0-33.27958,11.30314C719.33629,327.0917,719.90082,326.79321,720.19592,326.78528Z"/>
    <path d="M747.14034,323.01845c-12.02427.60718-23.475,5.56874-33.83505,11.43559C724.91521,332.82044,736.78627,328.40492,747.14034,323.01845Z"/>
    <path d="M612.54882,214.5838a433.0133,433.0133,0,0,0,46.29857,12.67937C644.99216,219.72536,628.70219,214.11775,612.54882,214.5838Z"/>
    <path d="M659.83608,235.99231c-12.985-7.02686-28.13688-11.11369-42.75589-13.88806C626.40707,226.0858,646.52727,231.82472,659.83608,235.99231Z"/>
    <path d="M620.487,228.58167c12.4756,6.2544,26.0946,9.462,39.78606,11.802-12.40315-5.61741-26.44479-9.21065-39.84946-11.84577C620.404,228.57,620.46663,228.60846,620.487,228.58167Z"/>
    <path d="M661.73949,604.3635c-1.14189-1.51775-2.4536,4.32344-.86189.7834l.11623-.05358c-1.74568,15.77487-8.01744,30.9154-9.86878,46.81178C658.88211,638.10534,665.65425,620.40932,661.73949,604.3635Z"/>
    <path d="M672.17507,609.60431c-5.86194,12.41031-7.90951,28.11273-12.80013,41.371C669.81354,641.49707,674.75925,623.3218,672.17507,609.60431Z"/>
    <path d="M680.81666,609.46808c.05133.01547.10642.02717.16.04075-1.67549,13.87033-8.55556,27.292-11.36766,41.411,9.01367-10.40086,14.62354-24.89308,12.82276-38.90793C682.47706,611.15074,681.471,608.77977,680.81666,609.46808Z"/>
    <path d="M907.028,372.27856c11.20539,3.11664,23.72325,6.52912,32.19428,14.75562a.04751.04751,0,0,1,.01132.03661c.28906-.41171-.63322-1.36191-.9902-1.751-5.4642-5.24571-12.16163-9.10084-18.97075-12.34163a135.45536,135.45536,0,0,0-30.73238-9.962c-8.21065-1.93247-16.79338-1.346-24.93232-3.56758-12.58654-4.49062-23.7693-12.88881-35.7113-18.39754,11.51332,10.78463,22.96324,24.5859,39.14831,27.71385C880.35524,369.96307,893.95085,368.88117,907.028,372.27856Z"/>
  </g>
</svg>
