<svg id="Слой_1" data-name="Слой 1" xmlns="http://www.w3.org/2000/svg" viewBox="0 0 1000 1000">
  <title>Meat_19</title>
  <g>
    <path d="M994.69994,693.02561c1.78512-1.13774,3.54136-2.29515,5.28716-3.49189l.0129-.00829q-1.96147-2.50716-3.923-5.01432l-.00369.00215c-5.23554-6.67623-10.48828-13.33924-15.6003-20.1184-7.68861-9.90081-14.6005-21.14861-22.56441-31.05925-2.56615-3.133-6.28694-7.58293-10.538-7.94978q-1.92462-3.59621-3.83571-7.20132c-11.0616-22.01382-22.84032-43.654-33.64506-65.78584-18.15047-38.099-45.1485-72.62891-78.64609-98.39855-22.565-15.47555-46.0727-29.83026-70.87942-41.45167-27.91241-12.9389-57.25168-22.30878-86.34454-32.18993-28.965-9.96964-58.33258-18.85776-87.12064-29.378q-35.58689-13.83361-71.13506-27.77537c-24.73667-9.96964-47.15361-24.639-71.04534-36.3587-34.28415-16.16379-71.489-27.2936-109.39133-29.9974-17.4315-1.111-34.73581,2.04506-51.74576,5.56491-14.90468,2.99876-29.83948,5.968-44.5678,9.773-11.71973,3.02825-22.82,6.99054-34.75608,9.38955-25.3567,4.92582-51.63761,5.034-76.35523,13.20436-21.6015,6.73491-42.13007,16.53741-61.65641,27.92285-27.41158,14.57654-39.17494,37.337-42.7925,66.05684-.01536.02458-.03073.04854-.04547.07312-.04548.36624-.06453.75092-.10693,1.119-.295,2.51146-.5512,5.05119-.72941,7.65114q-.45994,7.35555-.94448,14.71111-.3512,5.23507-.73126,10.47107-.71528,9.71892-1.63887,19.41756c-.13765,1.42656-.27529,2.85312-.42216,4.27784-.17452,1.67851-.36563,3.35547-.55489,5.03275-.15854,1.40444-.30848,2.8098-.48054,4.21178-.01229.1017-.027.2034-.03933.3051-.11675.01843-.22921.04486-.346.06268l-.0043.00061a2.19188,2.19188,0,0,1,.32445.12782l-.00307.02581c-.00983.08848-.02335.17636-.03318.26484-.70729,5.77476-1.50184,11.54-2.44079,17.28894C11.21648,504.01545,1.51169,533.44259.07622,563.95126A102.70943,102.70943,0,0,0,4.481,596.97691c2.3308,8.2982,5.23062,16.72421,10.79614,23.45913,12.4768,13.00772,28.93555,21.46323,43.01434,32.6127,15.9481,11.74923,30.25365,25.75982,44.49037,39.56393,7.97374,7.11836,15.64269,16.69472,26.73318,18.44481a24.25221,24.25221,0,0,0,4.82013-.3306c2.26627,2.018,4.594,3.96414,7.04646,5.76769.63908.413,1.288.82589,1.93691,1.23883l.00921-.0046c3.07864,1.94919,6.21505,3.83109,9.42151,5.59348.10569.05837.20708.12474.31339.1825l.01168-.0086q1.28767.70375,2.58765,1.38324l-.0043.00184c.02765.01413.05592.02642.083.04056q2.62883,1.36419,5.31726,2.59564c.1481.06821.29189.14748.44.21508l.01721-.00861q1.9071.86829,3.84246,1.66222l-.02458.008c.17759.07374.36256.12843.54076.20094.24027.0971.47931.196.71958.29128l-.01167.00921c.29127.12014.5807.22676.86951.33767.17636.0676.35088.13765.52663.20432.03257.01229.06514.02581.09832.0381.38283.14748.76689.295,1.15956.43261.856.30479,1.7206.60958,2.58643.89471.58008.16714,1.14973.32446,1.73043.47194.42277.118.8351.22613,1.25849.32445l.46088.11522.01106.00277h.00983c.02581.00614.05223.01044.07866.0172,1.704.41479,3.41784.78226,5.13844,1.123.13642.02673.27038.06237.4068.08879l.01782-.00737q1.76791.34473,3.54259.6612l-.01106.00492c.43629.0765.87443.14563,1.31134.2206q2.58458.44429,5.17408.87075c2.48995.41325,4.97868.83387,7.45634,1.30735l.0043-.00215c1.61183.30479,3.22.624,4.81952.985l.00307.00061c2.34.51127,4.67019,1.05172,7.01021,1.58295l.02151-.0043c4.9799,1.13191,9.96963,2.22664,15.05154,2.87524,12.23038,2.11388,23.77314-3.06758,35.36567-6.086,12.89957-2.74312,26.3104-3.77548,38.42341-9.40921,12.309-5.69272,22.98658-14.35471,34.0574-22.08265,13.165-9.29123,26.5857-18.46448,39.70219-27.87369,23.71414-16.95035,49.45429-30.61682,75.98161-42.72983,18.59168-8.662,37.1256-17.13715,56.72014-23.47879,14.14823-4.53255,28.77823-7.33466,43.30008-10.38258,33.06559-6.72508,66.53307-13.47966,100.42394-13.14537,16.04642.87874,31.8919,3.765,47.60526,7.11406l.01168.0043c2.74251.58009,5.47642,1.17984,8.20971,1.77959q6.962,1.63427,13.91472,3.32014c.38222.09279.76383.1905,1.14605.2839q6.22,1.51627,12.4264,3.08909c.99979.2544,1.99528.52324,2.99384.78041a338.90907,338.90907,0,0,1,74.02259,54.80228q3.24547,3.10262,6.48051,6.212c.77857.7503,1.55038,1.508,2.32465,2.2632,2.41683,2.35906,4.81584,4.73594,7.14294,7.18718,1.66345,1.79987,3.29741,3.6489,4.91293,5.52619l.04178.04855.00861.0086.00122.00123c.03872.03257.07559.06575.11369.09832,2.24046,1.90434,4.4416,3.85476,6.62553,5.82423.4959.447.99549.89071,1.48893,1.34237,7.26031,6.62215,14.25946,13.53926,21.19961,20.50062,8.74986,8.84879,17.52061,18.58246,25.927,27.94251,3.23472,3.41171,6.49894,7.82627,11.6208,7.99341,3.62493.06237,6.97518-1.24252,10.2142-2.81379l.00185.00184c.13826-.06759.27345-.13918.41171-.2077.84617-.41724,1.68557-.8437,2.51945-1.2714.86522-.44213,1.72674-.88057,2.58458-1.29352,1.20934-.61941,2.42789-1.24866,3.63784-1.88774l-.00246-.00246q.73188-.38068,1.46313-.76075l.0043.00615h.00983q2.24722-1.17292,4.49445-2.34616c2.8568-1.48832,5.7173-2.97111,8.60176-4.40842l.04793-.024c1.8521-.90638,3.714-1.8226,5.55569-2.729l-.01168-.01167q2.36153-1.16923,4.71567-2.35108,3.133-1.57343,6.24946-3.18249l-.01106-.01167c2.12985-1.1061,4.24127-2.24508,6.35146-3.38712l.0209.02642h.00983c.86767-.467,1.71814-.96231,2.57967-1.43854q1.437-.79317,2.86725-1.59893c.71528-.40434,1.43977-.79086,2.15321-1.20012l-.03442-.03318c1.56268-.89963,3.13026-1.79188,4.67573-2.72223l.0086.01229c.295-.177.58009-.34412.86583-.5211.03441-.02028.06883-.03994.10324-.06022q4.50181-2.64127,9.02884-5.25151l.00123.00246c2.49794-1.44531,5.00509-2.90075,7.49259-4.37524l-.00492-.00491c1.00471-.59515,1.99344-1.21456,2.99323-1.81708l.01044.01291c1.21364-.72327,2.41314-1.47173,3.61572-2.21466.49221-.30479.99057-.60006,1.48156-.90762.13519-.0848.27345-.1656.40864-.2501l-.00922-.01044c.69438-.43691,1.37095-.90147,2.061-1.34514ZM187.31663,681.87614c-14.39711,9.42642-28.75181,19.39606-43.753,28.02086-.64584-.48576-1.29045-.97367-1.92707-1.472,8.292-3.84431,15.37539-11.12521,22.31-16.72667,12.34837-10.91351,25.36654-21.19777,39.66225-29.44681,23.85241-13.12571,49.64171-22.4366,73.63177-35.32634,23.94028-13.06672,48.01882-26.47755,73.07135-37.59753,22.93741-9.9598,46.55447-18.29733,70.25878-26.20225,50.38956-14.276,91.73246-41.28453,146.281-30.64631,35.32634,7.26584,66.53308,26.72334,99.36209,40.83225,11.42416,4.97376,23.04557,9.50354,34.56682,14.25393-3.49651-1.162-6.63414-2.32926-10.2941-3.75859-16.22217-6.15175-31.95888-13.47075-48.01943-20.02776-68.73544-30.21708-99.3498-35.94944-171.2241-9.51645a352.52443,352.52443,0,0,0-32.95683,13.00681c18.1308-6.49618,36.76918-11.54,55.16729-17.21582,20.07324-5.71761,40.85929-11.04286,61.9059-9.27832,21.88293,2.64818,42.57128,9.3579,62.81965,17.54825-30.69117-9.10657-62.411-11.19126-93.1538-3.68976a162.80292,162.80292,0,0,0-34.12991,5.54832c-11.33813,2.96834-21.631,8.80577-32.24892,13.59641-16.20435,6.18463-32.63852,11.76275-49.16,17.06925-33.14057,11.43492-66.91468,20.87516-100.11915,32.12081-11.088,3.99762-21.00912,10.46093-31.4722,15.77051-10.32973,5.35905-21.2881,9.39723-31.522,14.91451-22.86122,14.2441-45.736,28.81941-67.1402,45.25419a241.52036,241.52036,0,0,0-27.57873,16.54908c-.61511-.38467-1.23207-.76566-1.83981-1.16263a74.31212,74.31212,0,0,0,7.05322-4.60321c16.98968-11.43461,31.5994-25.868,48.1663-37.90232,4.31625-3.4412,9.00611-7.02,12.9389-10.62838C208.25877,668.80942,197.73854,675.21988,187.31663,681.87614ZM548.22684,578.31856a176.89814,176.89814,0,0,0-23.10026,4.335c6.80988-2.94529,13.594-5.96218,20.74366-7.99525,8.37132-2.10712,16.76477-4.43361,25.25776-6.11119a399.93245,399.93245,0,0,1,62.94317,7.55742c-9.2433-.40219-18.5081-.48423-27.73911-.49652a239.04164,239.04164,0,0,0-31.2307,2.32588C566.1524,578.06784,557.19915,578.21379,548.22684,578.31856ZM158.66252,719.482c4.29535-3.07526,8.63311-6.10228,13.16934-8.94557.652-.40864,1.32486-.78287,1.98237-1.1823,20.013-10.19362,40.63193-19.67442,60.95711-29.135,16.24-7.51778,32.63975-15.07121,47.86335-24.52928,7.72488-4.7255,14.22259-11.132,21.82579-16.03259,13.27687-8.34828,29.12911-10.7055,44.05776-14.6638,19.79241-4.8567,39.83185-9.008,58.78485-16.69472,19.83051-7.28028,39.17372-15.90416,58.33443-24.73636,8.10831-4.3144,15.75883-9.45162,24.12524-13.28,21.66356-8.59162,44.9027-11.76182,68.03921-13.12939,5.09051-.09218,10.24985-.24519,15.42455-.37239,19.10908,1.38386,37.34312,5.63373,56.04541,12.05709-2.98954-.507-5.98522-.98258-8.9932-1.39614q-1.68126-.25071-3.36745-.50389c-10.08394-2.25828-20.09782-4.77619-29.97282-7.79431-15.27953-2.03522-30.87306.54076-46.04321,2.635-11.81805,1.36664-22.34811,6.83323-33.43921,10.58905-7.28551,1.80908-14.17773,4.68986-21.10928,7.51164a196.537,196.537,0,0,0-32.16966,12.81108c-8.82912,3.32321-17.28464,7.47231-25.78931,11.53292-13.25413,5.07331-26.91015,9.0356-40.05614,14.4432-14.925,6.65625-29.928,13.09621-44.7251,20.04742-11.31662,4.52272-20.39216,12.68327-30.5185,19.20188a374.59345,374.59345,0,0,1-39.42689,19.89011q-4.37,1.54578-8.76768,3.02027c.9236-.49222,1.86194-.9534,2.78-1.457,18.78955-9.73367,35.27779-23.09534,53.408-33.85154,1.12085-.77673,2.57537-1.4748,3.50019-2.23186-2.66509,1.36665-5.25028,2.88077-7.89509,4.26708-33.95969,20.07693-68.972,38.3251-105.83215,52.54215-16.05932,7.05507-32.23848,13.87417-48.08273,21.39872Q160.69591,720.53491,158.66252,719.482Zm24.61378-2.27272c-3.64276,2.63128-7.232,5.34368-10.79737,8.09664-1.21548-.39482-2.42174-.81237-3.617-1.26095Q176.01568,720.51878,183.2763,717.20924ZM270.899,706.407c-14.67916,5.57443-30.09572,8.62266-45.25727,12.60461a301.40813,301.40813,0,0,0-30.191,10.97189q-1.50522-.30234-3.01351-.5721c3.13886-1.14727,6.29985-2.22787,9.49955-3.18311,12.59478-5.093,25.87841-7.7771,38.75831-11.8967,9.83138-3.6575,19.624-7.39366,29.614-10.59889,17.95321-7.26584,34.80462-17.17648,51.83363-26.35956,6.44979-3.82465,12.02514-8.80947,17.6982-13.65664,17.48127-12.53578,36.339-22.97736,55.58945-32.48489,6.16159-2.70994,12.50383-4.93166,18.8639-7.10115-5.08006,3.44457-10.12019,6.94875-15.23528,10.28917-14.83524,8.49822-29.96545,16.46859-44.68947,25.161a712.8141,712.8141,0,0,1-71.74464,42.71876c-17.84752,12.44392-37.91461,20.21488-57.85757,28.63966-4.01022,1.11163-8.06776,2.03154-12.14374,2.87033q-2.44447-.52724-4.88588-1.092c.48238-.22921.974-.4363,1.45575-.66858,18.24817-9.93031,38.21694-15.741,57.34938-23.61644,2.60609-1.08152,5.211-2.24169,7.8957-3.058A19.06817,19.06817,0,0,0,270.899,706.407Zm146.26989-63.78011c-26.65452,13.401-50.61447,31.28539-75.02791,48.2554-19.78135,12.9094-37.70507,30.71514-61.65641,35.47382-6.145,1.33715-13.11587,2.00572-19.369,3.451-8.68165,1.79925-16.86186,5.5649-25.71065,6.60709a67.815,67.815,0,0,1-9.38095-.3521c2.15812-.585,4.3058-1.20473,6.43135-1.89973,4.033-1.46281,7.93749-3.09861,11.84939-4.68341,1.6444-.342,3.298-.66458,4.92153-1.05448a149.64237,149.64237,0,0,0,18.11482-5.95818c27.88967-5.9797,41.3214-13.21358,56.49523-24.65433,1.06431-.56319,2.13477-1.11747,3.18065-1.70554,13.20559-7.89171,24.45093-18.404,36.092-28.34225a239.97261,239.97261,0,0,1,34.73765-22.56749c14.826-8.03335,29.07995-17.46591,45.17615-22.86091,11.19311-3.05253,22.6529-5.09635,33.9941-7.5863C456.68549,623.15581,436.91459,633.037,417.16888,642.62684ZM539.17711,596.042c3.54505-1.48463,7.19763-2.93577,11.20662-4.16907,17.429-3.55365,34.7057-7.91107,52.36088-10.20776,10.02187-.30694,20.09413-.49006,30.14-.20493C601.33065,583.16972,570.07291,589.1064,539.17711,596.042Zm219.23,13.73682c.02336.00646.04671.01229.06944.019-.23781-.15485-.48422-.29526-.722-.4492-3.59851-2.316-7.22529-4.58723-10.89938-6.77731q-4.4244-2.56615-8.93728-4.92583c-.02581-.00706-.05161-.01352-.078-.02089-23.66252-12.41012-49.05057-21.13417-73.43574-32.0019-33.09386-14.63-65.14615-34.40213-101.3967-40.10468a155.81616,155.81616,0,0,0-67.61459,5.18146c-26.861,8.65215-52.95571,19.62465-80.09138,27.5099-22.23075,7.6198-44.451,15.37724-66.03165,24.70779-25.70082,11.28713-50.26174,24.94376-74.8706,38.39392-23.853,12.83075-49.49485,22.02366-73.19916,35.11a209.96738,209.96738,0,0,0-29.46708,20.4407c-10.28365,7.15493-26.66067,26.77681-39.96213,27.80548q-.28758.02213-.57271.032a12.704,12.704,0,0,1-2.35169-.10139c-13.50915-5.49609-22.72234-18.62179-33.60574-28.031a347.58087,347.58087,0,0,0-44.81482-36.95844c-10.39241-8.10156-22.78072-14.17773-31.26511-24.44233-11.002-17.442-14.12857-39.34762-12.3201-59.64085,3.23534-27.35259,10.94362-53.96779,14.68961-81.25156.66366-4.28736,1.256-8.58425,1.82875-12.88359l.02949-.00615c.08665-.66028.16653-1.31871.25195-1.97776q.071-.55029.1401-1.10088c.15486-1.21149.314-2.42266.46333-3.63661l-.043.01014c.432-3.54351.86522-7.08671,1.23391-10.63729,5.86479-10.601,11.13166-21.54312,17.56793-31.82738,9.36066-14.18756,21.631-26.12359,34.353-37.2829,4.95593-4.50305,10.29471-9.12409,14.7191-13.96143-20.11686,16.82254-43.12311,31.16741-57.7826,53.46636-2.5514,3.98718-4.94918,8.05209-7.30886,12.13759.34781-4.64869.65875-9.30045.8984-13.95651.02028-.593.04609-1.18014.07005-1.77006,1.00164-1.79465,1.994-3.5939,3.0172-5.37779,18.58246-30.62665,45.72858-57.53681,79.95373-69.817,7.58969-3.17573,15.741-6.35147,22.94787-10.11712-7.0692,2.9201-14.31538,5.63373-21.57139,8.17039-20.94213,6.5186-40.59628,17.15682-55.885,33.07481A219.54511,219.54511,0,0,0,28.6191,399.467q.188-2.31083.42892-4.57925c3.7085-5.98092,7.46187-11.9428,11.05484-17.96059,15.03312-24.78644,37.45988-46.03337,65.4024-55.19679,19.63448-6.03684,40.085-9.0356,59.867-14.59067,18.36616-4.6702,36.34887-10.943,54.42006-16.44892-14.79714,3.01842-29.71227,7.77711-44.73555,11.10032-24.3735,6.45961-49.58272,9.29123-73.73992,16.48824C75.02609,327.66888,51.12452,345.5926,35.767,369.00257q-1.43977,2.308-2.87832,4.61857c5.265-18.9871,15.84057-34.83043,37.30011-45.92276,21.54189-12.42763,44.2925-23.07568,68.38149-29.44681,22.26946-5.791,45.45329-6.09583,67.93843-10.6972,24.11849-6.086,47.89224-13.519,72.45255-17.78607,17.91388-3.61817,36.01457-7.61,54.39056-6.74475,37.05616,2.399,73.31715,13.14537,106.972,28.68975,29.2895,14.58084,56.98621,32.4554,88.0553,43.25092,38.20649,15.11177,76.52237,29.84992,115.77106,42.06125,33.41955,11.32645,67.24159,21.68937,99.86352,35.19852,23.66621,9.67468,45.84718,22.45627,67.41856,36.10307a199.48506,199.48506,0,0,1,48.70706,41.29436,255.49891,255.49891,0,0,1,43.40824,64.12423c12.08228,24.87678,25.23626,49.2343,38.00064,73.77618-.95432.60989-1.908,1.221-2.85435,1.84472-9.81048-12.49461-18.6224-25.69836-25.35363-40.30439-5.52558-11.35595-11.4936-22.48576-17.55993-33.55658-8.43585-16.06547-16.07469-33.1928-27.65739-47.41969a280.92629,280.92629,0,0,0-40.76343-40.99939C812.26738,455.819,795.73,446.518,779.35971,437.24641a113.17021,113.17021,0,0,0-17.17587-7.30548,146.2133,146.2133,0,0,1,17.42167,9.03591c15.64269,10.19577,31.66945,20.22409,46.171,32.06211,19.664,17.25515,38.82714,35.84744,51.4803,59.05093,12.29,24.05888,24.72745,48.0388,36.261,72.4716,5.46167,10.79706,12.62182,20.649,18.81413,31.0316-3.39757,2.27887-6.83692,4.49168-10.35,6.58313a136.71536,136.71536,0,0,1-9.0061-17.20536c2.65587,3.09769,5.40883,6.11242,8.32524,8.9852-1.1018-1.37279-2.19684-2.77385-3.29065-4.17552,1.04711,1.18783,2.09668,2.375,3.134,3.56441-7.05507-10.06151-13.01878-21.05183-19.14288-31.95-.03994-.074-.075-.15147-.11491-.22552-9.69434-23.01669-22.31862-45.119-38.23661-64.39953-10.849-15.019-25.92327-25.36162-41.1862-35.44371l-.01967-.02028c-.00983,0-.00983,0-.01966-.00983-6.99116-5.909-14.21706-11.52309-21.71887-16.75371q-6.50385-4.3359-13.17486-8.39652a.00963.00963,0,0,1-.00984-.00983c-.00983,0-.00983-.00983-.01966-.00983-.07866-.04793-.15793-.09279-.236-.14072-25.29648-19.09-52.37623-36.05391-81.25156-49.06839C670.62835,409.943,633.83705,405.05647,597.03591,395.018c-17.99254-4.59154-35.45415-10.84468-53.04358-16.74388-21.39441-8.10156-41.0289-19.87045-60.53556-31.66883A365.41948,365.41948,0,0,0,434.287,318.19085c-18.70045-8.96678-37.84333-17.73691-58.12672-22.37761-28.385-5.04381-57.85143-3.628-86.3937-4.51289,19.7918,2.92011,37.93182,11.10032,56.3963,18.29734,8.44567,2.83161,17.07816,5.0733,25.46423,8.09172,11.1206,4.68,21.86635,10.24494,32.93778,15.05247,14.58084,6.9417,29.12236,14.08955,43.08378,22.23044,17.29447,11.238,34.90356,21.92534,53.25006,31.40337,17.10766,9.23224,35.32633,16.06547,53.8498,21.85652a300.41056,300.41056,0,0,0,44.48976,12.6341c18.317,3.1659,36.37836,7.551,54.63636,11.07082,27.48041,6.69559,53.70233,17.68744,78.4685,31.28539,19.80224,10.73654,38.66982,23.01669,57.20312,35.78845,8.03335,5.27947,16.23139,10.40716,24.24323,15.79324,11.23551,9.33363,22.20678,18.96837,32.09715,29.78479,5.24291,6.10566,10.2099,12.43623,15.04356,18.87158,2.61715,4.15555,5.198,8.33261,7.8324,12.45621,4.6364,6.27526,9.18185,12.61383,13.79674,18.89585,10.51224,16.55646,20.233,33.64292,29.6201,50.76256-1.17246.5933-2.3566,1.16264-3.54074,1.73166q-1.7716-2.62974-3.52785-5.26994c-8.22937-12.75209-15.33728-26.21209-23.6361-38.93468a292.43643,292.43643,0,0,0-60.2406-67.53594c-3.21506-2.59564-6.71525-5.40759-9.97947-7.66895,2.04506,1.9369,4.1491,3.79515,6.204,5.72222,36.24256,32.55863,61.60294,74.379,85.54445,116.31q-2.061.92543-4.13742,1.818c-5.7892-14.36115-15.63655-27.13936-27.35321-37.4098-5.42357-8.60944-13.24185-15.7447-20.96918-22.554a291.78846,291.78846,0,0,0-21.65926-20.76331c-27.92346-23.99006-58.05789-46.12187-91.44733-61.79406-.02028-.00983-.03011-.01966-.04916-.01966-.1782-.08357-.36133-.15854-.53953-.2415-1.59647-.88611-3.17389-1.8054-4.79-2.65894-17.11688-10.41238-36.771-15.23958-54.99954-23.30181-18.52347-6.90206-36.67332-14.63-54.79429-22.56442-8.48439-3.36254-17.048-6.45962-25.30693-10.37275-12.8799-7.17735-27.11662-11.48376-39.55409-19.39851a78.73339,78.73339,0,0,0,5.89919,7.82626c6.01718,5.78029,11.91576,11.73079,17.95875,17.51692.03441.0338.06821.06851.102.102.03011.0295.06944.06883.09894.09832.34289.33952.69377.66551,1.03789,1.00287q1.36326,1.32917,2.73759,2.64511c.48669.46548.96538.94356,1.45452,1.40567.027.01475.05531.02519.083.03871a293.20221,293.20221,0,0,0,43.67984,34.59939c17.39341,11.97843,35.81548,22.09555,54.5319,31.68358,30.40113,19.94266,63.56873,35.33,94.15728,54.99524,23.19305,16.38992,45.27631,34.65776,64.69449,55.44258,1.54055,1.56944,3.06267,3.14133,4.59093,4.71229,1.73964,2.30407,3.45287,4.63,5.11324,6.99761,3.59175,5.35475,7.31009,10.74453,10.60872,16.35122-2.49487,1.01484-4.99281,2.02293-7.50058,3.00428a2.78119,2.78119,0,0,0-.617-1.256c-1.68372-1.8816-3.4756-3.67317-5.20358-5.52128q-7.40347-7.96345-13.96818-16.64986c-11.99994-16.21264-25.57362-31.37326-42.02254-43.20115-35.03445-24.84543-74.85769-41.762-110.44212-65.74712-4.50735-2.78737-9.26358-5.75663-13.82378-8.13075,3.63784,2.48749,7.28551,4.94518,10.86435,7.51164,39.873,31.85749,88.89409,50.47743,126.54815,85.22276,14.2232,13.04459,24.62483,29.44927,37.32162,43.85129,1.88037,1.75562,3.2507,4.45082,5.16118,6.274-.22921.086-.45719.17574-.687.26147-1.92154-2.55048-5.034-5.07546-6.2003-6.95521-9.655-11.01153-20.9065-20.49048-32.23971-29.712-26.201-19.75032-53.66853-38.25228-82.74541-53.50661-5.096-2.29177-10.47537-4.83549-15.53516-6.734,4.30642,2.163,8.662,4.22776,12.92907,6.46976,18.99172,10.122,36.21675,23.24282,53.81109,35.57152,23.45483,16.16195,45.46435,34.89619,63.15026,57.31743-1.45821.51065-2.9072,1.04588-4.374,1.535-.6993.29373-1.41642.55489-2.1446.79669-.38775-.33213-.78656-.65136-1.17615-.98166a242.64488,242.64488,0,0,0-17.7492-18.25A364.74275,364.74275,0,0,0,758.40712,609.77877Zm161.013,31.88023c-.8222-1.437-1.669-2.85865-2.50163-4.28921,1.11716,1.269,2.23555,2.537,3.38589,3.77764C920.00878,641.317,919.71689,641.49247,919.42009,641.659Zm69.00766,47.78531c-6.90575-8.1077-13.89875-16.13644-20.88315-24.18423-5.86048-6.80374-11.75906-14.04009-17.70741-20.55869,9.84182,16.83851,21.4786,32.53958,33.38882,47.98686-1.1995.742-2.39655,1.48894-3.60219,2.22142-3.4455-3.52753-6.899-7.04923-10.2603-10.664C959,673.30234,949.27677,660.92417,938.33376,650.95422c12.85963,14.94248,23.65331,31.533,34.7862,47.83847-1.60446.94664-3.20462,1.90126-4.81768,2.83284q-15.2614-15.75729-30.16577-31.87224c-4.001-4.3359-8.25826-9.0061-11.78856-13.45016,8.8193,11.96553,18.57263,23.25266,27.26472,35.31651,3.188,4.29873,6.2808,8.66321,9.37911,13.02q-2.84913,1.60892-5.713,3.19294-4.59954-4.5433-9.19168-9.09459c-12.57512-12.51612-24.96343-25.19939-38.22678-36.98794.27468.79639,1.406,1.68127,2.00511,2.47766,13.43787,15.27707,25.93,31.3705,38.49593,47.38588-2.31113,1.24068-4.63579,2.45616-6.95921,3.67256q-7.07442-7.37676-14.23242-14.67025c-7.57063-7.61979-15.38706-15.57387-23.70431-22.10231,10.50917,13.31128,20.76148,26.85853,31.17355,40.26875-1.42318.72757-2.84267,1.46067-4.26954,2.18025-1.53748-1.52888-3.0559-3.07526-4.60567-4.59584-11.002-10.44158-21.76741-22.39727-33.20263-31.76716,9.17325,9.7435,17.10828,20.834,25.01258,31.67867q2.87126,4.099,5.74987,8.19128c-1.1442.56472-2.28348,1.13958-3.42952,1.6997-.62064.28113-1.23207.59514-1.84657.90024-10.959-12.39138-22.21292-24.52528-33.50926-36.61986-2.399-2.694-5.26934-5.19129-7.14725-8.25887-.0891.56043.7964,1.49446,1.1694,2.04506,12.36618,14.48866,23.32271,30.03611,34.1594,45.67512-.671.37638-1.34391.74907-2.01679,1.12484-3.74414-4.14572-7.59644-8.18544-11.5151-12.1717-9.61568-10.01879-19.21171-20.11625-30.14426-28.7389-3.84493-3.03809-7.99341-6.19416-11.9557-8.79963A245.47734,245.47734,0,0,1,894.46342,722.089c3.121,4.45327,6.247,8.89549,9.4467,13.28424a31.14957,31.14957,0,0,1-5.93729,1.7292,3.95213,3.95213,0,0,1-2.517-.96353c-5.466-5.08314-10.12633-10.98233-15.2193-16.42926-12.32317-13.29162-24.95974-26.43453-38.48917-38.53126,8.59562-2.87493,17.08431-6.07217,25.479-9.52934l.01229.0215q2.49149-1.0176,4.98481-2.08438l.00861-.00369q3.32659-1.4181,6.679-2.7889c.05162-.01967.10078-.04209.15547-.05869h0c.18681-.08879.37361-.15731.55981-.236.4492-.18558.90516-.37147,1.36111-.55674q2.88693-1.18031,5.7763-2.35445l.00123.00061.00123-.00154q.271-.11061.5426-.22183c.06821-.027.1358-.05408.2034-.08111.04916-.02.10754-.04947.16714-.06914.27468-.10815.55059-.22582.83572-.334,1.33715-.55089,2.68413-1.10118,4.02128-1.64194a.93544.93544,0,0,1,.177-.0762c.00983-.00307.019-.00952.02888-.01229h.00983c.54076-.22613,1.08152-.45227,1.61245-.66857h.00061c.31463-.12782.61942-.25563.934-.39328.36317-.14748.7374-.30479,1.10119-.45227.75706-.32446,1.51412-.63908,2.27119-.96354.4916-.20647.993-.41294,1.48463-.62924l-.00062-.00031h.00062c.20032-.09.40188-.17606.60343-.26331,1.79742-.77366,3.58069-1.57681,5.36274-2.38119l.01168.01966c.39266-.17759.781-.36808,1.17308-.54751.77058-.35211,1.535-.71467,2.30191-1.07415.85661-.40188,1.71814-.79025,2.57107-1.20012l-.02028-.03041c4.29535-2.07886,8.51389-4.31041,12.63472-6.73584l.03011.03134c.26546-.14748.53031-.30479.78656-.4621-.01045-.01291-.01844-.02735-.02827-.04056,1.12392-.671,2.26382-1.31011,3.37053-2.01433,2.77692-1.65054,5.45307-3.50695,8.12921-5.35966l.01168.00123c.58131-.405,1.16877-.79947,1.75193-1.20135,2.62207-1.80294,5.25889-3.57147,8.01062-5.09481l.01044-.00615a10.92149,10.92149,0,0,1,1.39983.797c.14687.09709.28329.20893.42524.31216.295.21446.58746.43261.86583.671.14993.12781.29373.26423.43936.39819.26055.24027.518.48515.7669.74232q.20279.21015.40065.42584.38253.41664.75031.852c.11184.13242.22429.26423.33428.39881q.40834.49913.80377,1.01054c.07865.102.15977.20279.23781.30541q.36041.47008.71528.942c.41294.54905.824,1.09626,1.23821,1.62965l-.01474-.02765c.38344.49221.76935.97459,1.16447,1.43362,10.90737,15.7994,22.48453,31.21718,34.34621,46.3775C989.96891,688.4479,989.202,688.95271,988.42775,689.44431Z"/>
    <path d="M421.84891,401.56612c-2.19254-24.27519-8.19-50.5266-28.36468-66.29711-20.52-17.03884-47.59727-20.50953-72.66885-26.70368C285.411,299.687,248.334,303.13807,212.89025,310.109c-6.05282,1.26341-12.15726,2.49026-18.21069,3.91743l.00123-.0043c-.05039.012-.10016.02612-.15055.0381q-3.37085.79686-6.71218,1.69848c-.14625.03933-.29557.07189-.44183.11184l-.00737.01659a136.0936,136.0936,0,0,0-14.71234,4.86437c.00676-.01812.024-.035.03011-.05346-.295.11737-.5807.26362-.87505.38345-1.296.5297-2.57537,1.10395-3.85168,1.68865-.52171.24-1.05694.44-1.57558.69069-.0043.01475-.008.03011-.01167.04486-.53093.255-1.07415.47562-1.60077.74139-1.52826.78441-3.02027,1.62136-4.49384,2.4832l.00123-.00523c-.05407.031-.10385.06791-.15792.09924q-2.827,1.66055-5.53111,3.49251c-.0848.05715-.17514.10631-.25932.16407l-.00185.0083q-3.94508,2.691-7.64805,5.70593v-.00184c-.02581.0212-.05039.04424-.07682.06575q-2.56522,2.08131-5.02783,4.29351c-.06944.06268-.14441.12013-.21446.18312l-.00062.00676q-3.02886,2.721-5.92377,5.60208l-.00369-.00461c-.06575.06452-.12781.133-.19356.19787q-2.18732,2.17579-4.30949,4.42194c-.01659.0169-.03318.03318-.04916.05039l-.00061.00215q-2.485,2.62651-4.90063,5.32l-.00492-.00308c-.47931.53769-.94694,1.07845-1.42072,1.61675q-.92268,1.04435-1.8392,2.093c-.09955.11429-.20033.22675-.29926.341l-.00061.00615q-2.73945,3.157-5.41559,6.34624l-.00123-.00092c-.67226.80806-1.34391,1.6063-2.01555,2.40423l-.02028.02427-.0043.00553c-.47993.57824-.95063,1.13682-1.44039,1.71507l-.00983.00983-.00062.01106c-8.71053,10.41269-17.39033,20.85426-26.177,31.20919-.51741.60836-1.02868,1.21917-1.54916,1.82507l.00062.004Q81.02975,409.524,76.225,415.06544c-3.83325,4.79186-7.873,9.502-12.15541,13.94913-1.73351,1.79741-3.48852,3.56809-5.31235,5.2595l-.01352.01291h0l.00062.00246c.11061,1.50122.26669,3.00183.44612,4.5009.06453.54475.14257,1.088.21508,1.63241.067.48792.11982.97706.19356,1.46436l.01905-.01721A119.41563,119.41563,0,0,0,66.37271,467.289l-.01843.004c.06943.18189.153.361.22367.5426q.95033,2.438,1.99958,4.84717c.08235.188.15117.381.23413.56841l.0043-.00123c.03626.082.0676.1653.10447.247,7.36416,17.265,5.92868,36.25055,3.88363,54.45939-.25256,1.93445-.459,3.89347-.65567,5.8611q-2.4878-1.37248-5.02169-2.66048c-.00307-.004-.00307-.01106-.00614-.015h-.00984c-.63907-.33429-1.27815-.64891-1.92707-.97337-.01229,0-.024.00307-.03625.00307-3.75152-1.849-7.56633-3.56932-11.46656-5.08621a3.17675,3.17675,0,0,0-4.06122,1.81892c-.899,3.41969,2.33509,4.5264,5.40144,5.564a2.64082,2.64082,0,0,0,.1143.48269c5.24967,15.694-2.25951,31.5994-1.71875,47.55887l-.01168.0083c.00184.06268.01229.12536.01413.188.04548,1.18476.126,2.37013.26916,3.55519l.00184.02243c.06882,1.111.16714,2.19253.29557,3.26391.01414-.00676.02581-.015.04056-.02181C55.383,598.31959,60.14476,606.933,66.7156,614.315l.00246.02519c.2882.32569.601.63662.89717.958.47193.51065.939,1.025,1.42687,1.524.58623.60037,1.19335,1.1866,1.80171,1.77284.295.28328.58131.57271.88119.85261.12905.12137.25072.24795.381.369.00184-.00737.00061-.01659.00246-.024q2.36059,2.18,4.8908,4.237l.00246.01475c.08357.06851.17328.13334.25747.20155q1.93014,1.56882,3.92911,3.08387c.0676.05131.13089.10446.19848.15577l.00492-.00461q2.93208,2.215,5.9631,4.346l.00062.0043q1.79832,1.26788,3.60834,2.517c.44182.33429.89409.67841,1.33653,1.02222l.00185-.00522c3.3779,2.56676,6.79943,5.16609,10.33465,7.57278.11491.07835.22613.16131.341.23935l.0043-.00246a75.04317,75.04317,0,0,0,11.38176,6.47744c.06145.02765.12536.051.18681.078q1.13559.50144,2.29331.94879c.032.01229.06329.027.09525.03932l.00184-.0043A45.48874,45.48874,0,0,0,122.6,652.4662l.00245.01229c.08726.02151.17821.03011.26547.051,1.19458.27837,2.40208.52417,3.63845.69623.47193.09832.934.18681,1.406.26546l-.008-.03625a42.97056,42.97056,0,0,0,4.7464.57271l.01044.0338c.32569.023.64707.02059.97153.03564.37791.01536.75645.03564,1.13252.04148,1.04526.01813,2.08622.00645,3.118-.05438a48.43358,48.43358,0,0,0,5.45921-.63355l.00615.02058c.20647-.03379.40618-.094.612-.13027q1.68679-.30557,3.35393-.71313c.27776-.0679.56412-.10631.84187-.17882l-.0086-.02826c1.46373-.38161,2.91887-.80438,4.36171-1.28922l.00185.00983c.0596-.02.118-.04547.177-.06575,1.42625-.483,2.84145-1.0127,4.248-1.57927.14686-.05837.29557-.10538.44182-.16407l-.00492-.01966q1.9707-.80607,3.918-1.70216v.00122c.027-.01229.05346-.02642.0805-.03871q2.04813-.94019,4.0729-1.955c.17821-.08941.35887-.16776.53708-.25778l-.00246-.00922q1.37709-.69592,2.74374-1.414l.00184.00737h.00983c.33552-.177.66366-.35948.99672-.53768q1.45636-.77474,2.90044-1.56391c.28635-.15608.57455-.30786.86153-.46456l-.00123-.00368q1.10517-.60744,2.203-1.2161l.00061.00062c.08542-.04732.1696-.09464.255-.14195,2.46967-1.36911,4.91968-2.7333,7.35371-4.0517l.00123.00522c.24519-.14748.50082-.2756.74662-.41325q3.37821-1.72183,6.76748-3.42276c1.09442-.55152,2.18577-1.10518,3.28081-1.65024v-.00553c21.06135-10.58383,42.20566-20.99406,62.06935-33.76736,17.64842-10.9725,36.37836-19.95893,54.597-30.11538,17.22564-10.10728,33.55658-21.75819,49.49423-33.78271,22.52571-19.45751,64.34116-47.01658,66.2289-78.84273C425.25139,436.48934,423.49085,419.00807,421.84891,401.56612Zm-22.11153,62.46263c-6.66609,12.37847-18.14,21.30592-28.21781,30.80362-12.63472,11.07082-26.76268,20.19491-40.7241,29.4763-19.82129,12.73243-38.27655,27.45092-58.37253,39.75074-23.91139,13.52882-49.58272,24.30468-71.28192,41.44183-3.33,2.43342-6.74659,4.82843-10.29041,7.01574a68.60993,68.60993,0,0,0-12.68756-23.13037,48.77326,48.77326,0,0,0-3.39634-3.55088c-.01352-.01567-.02888-.02673-.043-.04148a55.08594,55.08594,0,0,0-9.23346-7.05875l-.00984-.02643c-.28389-.17237-.57885-.33183-.86521-.50174-.44859-.26485-.89594-.52908-1.35067-.78318-.18435-.10385-.36256-.2163-.54752-.31769l-.02642.00737a74.14014,74.14014,0,0,0-7.22836-3.45656l-.00061-.00184-.03073-.01168c-.32814-.1358-.66243-.25931-.993-.39082-.62433-.24887-1.24743-.50266-1.87668-.738l-.00553.00246c-2.08192-.774-4.19519-1.46989-6.32566-2.10282l-.00123-.00369c-.08172-.02427-.16407-.0427-.24641-.067q-2.44816-.72081-4.91722-1.33285c-.10447-.02642-.20832-.059-.31217-.0848l-.00061.0043c-2.0979-.51679-4.20011-.982-6.29248-1.40044-.24395-.051-.491-.09279-.73555-.14256l-.00185-.00492c-.1739-.03564-.35088-.06237-.52478-.09709q-2.16888-.42676-4.35926-.80438c-.024-.004-.04731-.0086-.07128-.0129v.00061c-1.5725-.27253-3.14746-.5426-4.71751-.83142l-.00184-.00491c-1.43117-.25625-2.85743-.54937-4.2677-.87474a42.55448,42.55448,0,0,1-12.44607-4.61151c-1.34514-.72327-2.62576-1.53748-3.89286-2.36951-.33736-.22215-.687-.42524-1.01945-.65475a93.80387,93.80387,0,0,1-7.96022-6.21781c-1.11839-.94818-2.211-1.90495-3.31154-2.89061l-.00062.00062c-.62371-.5509-1.25357-1.0932-1.87729-1.64379.12044-.50328.23289-1.00962.35457-1.5129,1.80355-7.44773,3.4203-14.98764,4.58908-22.58592.08234.34258.15362.67165.24149,1.0213-1.33039,11.87059,3.2292,15.63962,10.03847,24.21649,10.46185,13.89322,28.69036,14.04408,44.38958,16.16042,11.18451,3.15729,22.57671,7.80721,30.15533,16.96356,25.77272,24.38978,115.73358-46.27088,140.61773-62.816,10.9725-7.01973,19.90855-16.6136,29.5058-25.32751,5.26687-5.83375,11.94095-10.02034,17.3338-15.69186a136.653,136.653,0,0,0,21.886-31.73766c11.952-19.35181,1.594-41.95,2.6448-62.86605-1.76607-11.47024-4.892-24.71793-14.65888-32.01326-15.97514-10.76572-36.36914-10.98787-54.92825-12.87192-15.86576-1.80847-31.761-3.024-47.719-1.71753-8.97722.65352-18.13879-1.00163-27.12646.15639-24.90566,2.9327-51.15707,9.56714-68.34154,29.12266-8.112,9.12747-13.84283,20.151-19.35981,30.97046-4.73594,9.777-5.06286,21.219-11.13841,30.37778-3.59789,4.539-6.93217,9.49616-10.89876,13.77953a43.9641,43.9641,0,0,1-3.26484,3.19294c-.56534.49805-1.12945.997-1.72551,1.45974-.85784.38192-1.65116.773-2.458,1.16172q1.626-1.51952,3.14562-3.14225l.008.01291c.08849-.09525.17022-.196.25871-.29158.45165-.48822.88856-.99027,1.32486-1.49293.255-.29373.51556-.58254.76444-.88119.5131-.6145,1.00777-1.24528,1.49753-1.881.134-.17452.279-.34044.41171-.5168l-.00061-.00768a57.72931,57.72931,0,0,0,5.86417-9.63013c.0086-.00061.0172.00308.02581.00246.1229-.25809.23351-.52662.35333-.78717q.29035-.62495.566-1.26034c.20524-.471.40127-.94756.59483-1.42748.21016-.52017.416-1.04342.612-1.57435.05592-.15055.11983-.295.17391-.44674-.00062-.01352-.00062-.02765-.00185-.04148.59976-1.66437,1.15158-3.36745,1.61491-5.14,3.47069-11.86567,6.38219-24.006,10.44034-35.69258q1.131-3.2805,2.40515-6.50632c.07866-.19848.16284-.39389.24212-.59176.84124-2.09729,1.72551-4.1786,2.68229-6.23164l.00061-.00491c.79885-1.71937,1.65485-3.41539,2.54526-5.09758,1.00286-1.89666,2.05427-3.77456,3.18925-5.61253l.00737-.01168.01352-.02273c.75092-1.25973,1.54116-2.50808,2.35292-3.74231,3.24517-4.96515,6.85412-9.73674,10.34387-14.57285,17.48373-7.3703,36.79192-7.91413,55.47454-9.67345,29.22067-4.16876,59.00177-6.61693,88.3011-1.56328,20.1058,2.96926,41.84494,7.95408,56.59231,22.879,5.81132,6.71525,8.8789,15.26908,11.66074,23.57711,2.95021,9.69434,6.05712,19.31986,8.04319,29.26983,1.77959,8.65215,1.55283,17.50094,1.43547,26.29074C402.52966,441.35618,405.06631,453.40037,399.73738,464.02875ZM186.36415,627.06648c-1.80355-7.59121-3.70543-15.15662-5.78-22.67318a63.97638,63.97638,0,0,1,4.97192,11.79593q.2968.97521.55673,1.95718c.083.3134.1653.62679.24273.94111.17575.71835.33367,1.43885.4787,2.16088a48.25541,48.25541,0,0,1,.7589,5.18576Q186.97835,626.74618,186.36415,627.06648ZM88.08236,602.54181c-4.07045-18.906-5.49363-38.29682-9.67837-57.1386.38161.31646.77366.617,1.1442.94878.37177.33245.70237.625,1.06493.94818,4.51165,14.04807,6.88362,28.67377,9.48541,43.19746,2.3351,13.90059,5.40206,27.71668,8.00508,41.565-2.07209-1.57711-4.12513-3.18434-6.17264-4.78572C90.93548,618.9978,89.35744,610.76566,88.08236,602.54181Zm10.4514,5.75172c-3.738-18.21438-6.02946-36.82572-10.86619-54.78938q1.767,1.51767,3.40924,2.86787c4.19826,13.138,6.52169,27.12523,9.35453,40.713,2.93669,14.516,6.83507,28.79667,9.85718,43.29732-2.11019-1.22747-4.17552-2.5554-6.2046-3.95984C102.35718,627.02378,100.29676,617.68677,98.53376,608.29353ZM76.75038,464.79042a16.8219,16.8219,0,0,0-.4363-1.96118c-1.13068-5.04381-2.23186-9.90081-2.92071-15.0626-.70545-5.63619-1.76239-11.38791-2.36153-17.10705.346-.37085.69377-.738,1.03789-1.11225a331.2596,331.2596,0,0,0,5.38118,35.052C77.2174,464.66291,76.98634,464.72682,76.75038,464.79042Zm5.587-1.59463c-.42707-2.06256-.86337-4.1236-1.27508-6.18708a289.61941,289.61941,0,0,1-4.36418-32.63115c.84494-.96415,1.68988-1.928,2.52867-2.90474,1.34944,13.70641,2.882,27.44539,5.713,40.93641Q83.66135,462.807,82.3374,463.19579Zm6.16773,4.71659c.7374-.2458,1.47542-.48177,2.2122-.72756l.00246-.01045q3.41784-1.14851,6.78039-2.44632c.09832-.0381.19786-.07067.29618-.10938v-.00553q1.97532-.76782,3.92358-1.58726h0l.00369-.00153q3.48422-1.47434,6.848-3.13856l.00061.00369c.08665-.0424.169-.09095.25564-.134q1.85916-.92866,3.66856-1.92277c.04854-.027.09832-.04977.14625-.07681-.13949.15577-.263.322-.4.47931-.25256.29127-.49652.58992-.73986.88764-.381.46518-.75645.93742-1.11654,1.41919-.2286.30479-.45289.6145-.67288.926-.17452.24641-.36133.48115-.53154.73187.00676.0086.016.01229.02273.02089-4.29535,6.35085-7.10361,14.04069-9.96656,23.92983-1.42564,2.77508-2.61285,5.332-3.58806,7.78018-1.01147-8.63-3.83325-16.95158-6.82156-25.12381h.00123C88.72205,468.5023,88.61329,468.20734,88.50513,467.91238Zm6.46945-21.90567c-1.74087-12.63441-3.22858-25.68423-3.926-38.56475q2.07762-2.29515,4.12267-4.66344a490.69452,490.69452,0,0,0,4.52948,54.37613q-1.39646.58024-2.85927,1.15065C96.20911,454.2072,95.56635,450.11064,94.97458,446.00671Zm9.55977,9.01778q-.74294-5.90888-1.47726-11.8199c-2.04075-15.349-2.65033-30.81038-2.91457-46.27825q2.02047-2.4219,4.02989-4.8779c-.42831,20.48526,1.52949,40.96806,3.70482,61.34394Q106.26232,454.21827,104.53435,455.02449Zm41.02951,2.88661c4.492-3.70728,7.825-8.53448,11.56119-12.949,10.41146-10.35708,14.85552-24.22418,20.38908-37.42608,7.3783-11.50589,13.334-24.47428,24.08285-33.30034,11.23-8.528,25.86612-12.82859,40.89-15.27645a52.37016,52.37016,0,0,0-12.934,6.20276c-6.68206,5.15073-12.29367,8.28406-19.57549,13.82408-12.12469,8.34521-20.3,20.70648-28.30937,32.78323-3.526,4.916-7.27076,9.75641-9.4553,15.46265-2.066,5.10772-3.46332,10.48643-5.80763,15.47985-2.211,3.72694-5.63926,6.52537-8.80394,9.41014-7.80291,5.76308-14.11873,13.115-19.554,21.09423-5.31419,6.92694-10.35984,14.292-12.42763,22.8987-3.282,11.37623,2.33509,22.49467,7.94424,32.09161,2.55816,5.3019,5.71362,10.57707,10.9129,13.6763,8.65153,5.30129,18.95116,6.03838,28.69466,7.7983,6.81664,1.25328,12.19289,5.90012,18.56771,8.23768,15.01222,5.35935,30.05393-2.54034,43.74252-8.19005,11.4088-4.111,21.56033-10.58168,31.49186-17.41307,12.40859-7.3617,23.51136-18.38244,34.19628-28.13792,16.67935-19.07253,43.46661-30.69947,54.17426-54.99094,7.30947-15.14741,7.17121-32.67477,5.53541-49.0816-1.92461-12.35819-11.30863-22.43506-21.4534-29.08333-10.50978-5.65616-22.71-6.96719-34.28415-9.12378-4.51841-.81144-9.15358-1.77989-13.75987-1.36081a105.34227,105.34227,0,0,0-23.13528-4.4121c3.41293-.25563,6.75519-.48423,9.97885-.714,9.55731-.34412,20.2582-.72081,30.96278-.69684,16.26457,5.91886,33.68747,7.24925,50.14438,12.39138,5.82791,1.82445,7.55035,8.38331,9.53518,13.49748,2.12064,8.20418.58316,16.8468,2.94161,25.07833,1.10118,7.79154,2.2208,15.7533,1.20565,23.59985-1.55469,5.697-4.39183,10.97373-6.97949,16.25289-4.05262,7.68247-8.26747,15.30626-14.09538,21.81288-3.40126,3.64214-7.66895,6.3994-11.02535,10.08977-7.62962,8.0097-15.462,15.87191-23.6361,23.32179-24.86756,17.893-48.87974,39.049-75.82492,54.19331-14.20784,9.1204-29.96237,17.33073-46.91825,19.361-8.75969,1.13929-11.8709-8.33814-19.01507-11.68163-9.13945-5.14244-18.7662-9.83537-29.03325-12.20211-18.4823-3.93188-24.92778-2.82055-35.53588-20.3556-1.06493-3.12227.3521-6.87256-.46948-10.18225-.4-3.66088-2.19807-7.09778-2.0174-10.80321.4578-4.06614,3.20584-7.21975,5.23246-10.61056,3.63722-5.68842,5.63189-12.18859,7.83671-18.52623C124.854,467.09479,136.45636,465.14314,145.56386,457.9111Zm99.03886-77.87643c15.73-7.37522,33.52769-7.56233,50.51061-5.87584,5.53234.34228,11.06529.64646,16.59087,1.12054,6.77793,3.39665,14.10891,6.56685,19.29651,12.26725,3.25623,4.79709,7.5651,9.34162,8.47948,15.26048,1.42256,15.15325,2.26811,31.65255-6.42152,44.91714-11.42908,15.38276-28.46791,25.27681-41.63233,39.021a211.1095,211.1095,0,0,1-55.87151,42.78913c-11.13412,4.256-21.58921,11.18419-33.65613,12.35789-8.1329.075-14.50895-6.38988-22.51833-7.50089-8.03827-1.67574-16.57-1.7375-24.07916-5.41282-5.434-2.93116-5.97539-10.12971-8.33875-15.31455-.75645-3.44273-2.45-7.16629-1.26833-10.67447,2.42113-6.72354,7.57309-11.81406,11.72157-17.4736,6.14991-9.33793,14.88809-16.32294,22.15209-24.67829,6.71587-7.26645,7.84777-17.209,11.01244-26.17675,2.43588-6.15144,7.20562-10.99,10.712-16.53,6.94261-10.50087,15.2021-20.01762,26.01851-26.66866C233.37274,388.09445,238.72441,383.65162,244.60272,380.03467Zm-77.548-32.36844c-.28513.43046-.58992.85692-.86706,1.28891-.31708.4959-.61757.98566-.92482,1.47849,1.34453-7.30456,2.94038-14.56364,4.90063-21.71764q1.42872-.70237,2.88631-1.3605Q169.7951,337.40533,167.05474,347.66623Zm8.73757-12.23868c1.1104-3.47622,2.24661-6.94445,3.03685-10.41515q2.41868-.8904,4.92276-1.6487A124.95,124.95,0,0,1,175.79231,335.42755ZM164.11805,331.975c-2.59012,10.37582-4.54791,20.8896-6.12287,31.471-1.74948,3.53921-3.27774,6.98532-4.6321,10.3411,1.119-12.8415,2.756-25.64121,5.14459-38.30635Q161.25356,333.63768,164.11805,331.975Zm-14.37867,27.98184c-1.39737,10.76634-2.128,21.59412-2.705,32.43051-.99118,3.41662-1.89081,6.72447-2.76586,9.92662-.02827-.99733-.07067-1.99159-.09463-2.98954-.29-18.09516.78349-36.22719,1.95349-54.307q3.18556-2.774,6.52107-5.332C151.50791,346.42033,150.55543,353.18751,149.73938,359.95683Zm-8.94465-10.06089c-.15424,2.6783-.32323,5.35905-.46456,8.03581a531.35244,531.35244,0,0,0-.6311,59.61166,79.60569,79.60569,0,0,1-3.66979,8.81007q-.12812-1.79464-.25133-3.58959a457.40348,457.40348,0,0,1-.14379-67.74364Q138.1745,352.40248,140.79473,349.89594Zm-9.32442,84.13264a52.196,52.196,0,0,1-3.68453,4.6238c-.263-4.723-.61082-9.44086-.86645-14.15806-1.32916-20.10642-.25317-40.31208.4111-60.46551q1.40844-1.59969,2.83592-3.1745C128.69032,385.2315,129.68827,409.66215,131.47031,434.02858Zm-8.5231,9.40338q-1.0508.91713-2.18578,1.81461c-.66488-7.503-1.32793-15.0073-1.79618-22.53184-1.02867-16.047-.69192-32.19793-.4492-48.30887q1.78819-2.168,3.59667-4.31563c-.12044,3.16406-.25379,6.32781-.37485,9.49156C120.5906,400.88034,121.70285,422.16967,122.94721,443.432Zm-7.00222,5.289q-1.56974,1.03329-3.27405,2.04137c-.6059-5.68842-1.205-11.37807-1.71876-17.07509-1.40167-16.03936-2.2589-32.02986-1.50245-48.13988q1.92-2.374,3.84677-4.75315A616.64677,616.64677,0,0,0,115.945,448.721ZM86.54918,416.35343c1.21241,14.65642,3.1868,29.21821,5.46044,43.74436-.727.25594-1.47357.50942-2.22387.7626-.9408-4.49568-1.84841-8.9975-2.53911-13.53619-1.41458-10.32482-2.3308-20.76086-3.54259-31.1287q1.30519-1.55314,2.60916-3.11489Q86.433,414.71764,86.54918,416.35343ZM65.10377,436.73576q.72726-.71205,1.44837-1.43394.2793,1.97209.569,3.94048c.79516,6.71156,1.95534,13.401,3.27221,20.05173A99.99693,99.99693,0,0,1,66.2068,444.119C65.7195,441.66619,65.36063,439.20236,65.10377,436.73576Zm13.7654,34.00639.00061.00185h.00984c.32138-.08788.64338-.18036.96476-.26854q.90792-.24933,1.81585-.50512c.263-.07435.526-.14318.789-.21938.13765.42278.28452.83572.432,1.24867.00368-.0043.0043-.01014.008-.01414,1.23945,3.52047,2.56738,7.01328,3.66,10.495a69.65954,69.65954,0,0,1,2.74313,29.39765,230.15026,230.15026,0,0,1-3.864,24.403c-.49345,2.17165-1.01884,4.33468-1.53625,6.50079-1.82752-1.50276-3.69867-2.94376-5.64356-4.27906.27652-2.85282.52662-5.67091.76935-8.39622,1.75931-17.16665,3.62739-34.99205-2.05489-51.64744-.63846-1.90556-1.31994-3.79883-2.01187-5.689Q76.90614,471.27523,78.86917,470.74215ZM60.13616,583.7747l.00368-.00246c-.1063-1.31134-.15731-2.64081-.17513-3.98288-.00184-.16284-.0043-.32507-.00553-.48791q-.01105-1.99189.08173-4.02681c.1315-2.97787.41049-6.0307.78779-9.16772,1.94,12.05893,3.45717,24.14737,4.71382,36.30616A43.81209,43.81209,0,0,1,60.13616,583.7747Zm11.27729,26.74577c-1.8859-19.99212-4.39244-39.92771-8.12737-59.67526a2.45357,2.45357,0,0,0-.1567-.39635c.05531-.35334.11061-.7036.16715-1.05878a80.30777,80.30777,0,0,0-.77919-13.48335q.32169.1567.64277.314c3.42276,19.28729,7.06428,38.54478,9.35882,58.02288,1.04219,6.69435,1.75932,13.4646,2.76586,20.178Q73.17675,612.48734,71.41345,610.52047Zm9.74166,8.70685c-.50328-2.83746-.90332-5.69334-1.30213-8.54462q-4.53223-35.95143-11.05177-71.58794,1.40291.75491,2.77447,1.56144c.21753.12659.42462.26823.63969.39727,3.73186,13.684,4.83181,28.14254,7.28366,42.12916,2.21773,13.23447,4.91968,26.42531,6.75642,39.71816Q83.72249,620.99647,81.15511,619.22732Zm34.86423,24.13384c-1.94427-9.96226-4.40473-19.778-6.749-29.6797-4.31379-17.27173-6.789-35.0406-11.51265-52.19373,1.28062.89717,2.54956,1.73473,3.81481,2.5004,6.39448,27.16332,13.91841,54.05382,19.58164,81.41071A52.0187,52.0187,0,0,1,116.01934,643.36116Zm12.36434,3.81789c-.6274-.09771-1.23514-.24273-1.85148-.36686q-1.11808-5.51667-2.21835-11.03825c-5.0604-23.03328-11.35349-45.76023-16.85448-68.68013q1.55683.70376,3.19908,1.33162c4.83734,17.48988,9.68389,35.0071,14.20538,52.58086,2.20421,8.7603,3.714,17.6985,5.94651,26.44252C130.00227,647.36278,129.20281,647.31393,128.38368,647.17905Zm7.80722.52294c-6.00305-25.94417-12.50261-51.76789-19.77582-77.39282q1.97808.56089,4.15156,1.0763c7.81151,25.1023,14.22627,50.557,21.10252,75.90757A45.16846,45.16846,0,0,1,136.1909,647.702Zm10.248-1.3476c-.79454-3.08909-1.5172-6.19907-2.30375-9.31212-5.46413-21.6058-11.55628-43.09239-17.99746-64.45269,1.33838.25963,2.75726.51464,4.22038.769,7.68186,23.64347,14.791,47.51247,20.673,71.66936C149.51447,645.52973,147.9856,645.97893,146.4389,646.35439Zm9.435-3.13149c-1.10672-4.53255-2.2755-9.05158-3.46086-13.57429-5.42911-18.45249-10.36108-37.07336-16.36535-55.351.03625.00553.067.01106.10324.01659,2.20543.49529,4.41087,1.06616,6.60771,1.6782A592.85871,592.85871,0,0,1,160.031,641.38923Q157.9663,642.36168,155.87393,643.2229Zm8.823-4.14787a594.75526,594.75526,0,0,0-16.04151-61.23855c1.15772.40066,2.30745.81852,3.44489,1.26894,6.746,18.91644,11.19863,38.82284,15.30963,58.52246Q166.05772,638.36437,164.69691,639.075Zm7.45449-4.08581c-.71282-3.188-1.46-6.36867-2.19807-9.5487-3.64705-14.45794-6.56592-29.21576-11.359-43.35692q1.70247.8881,3.338,1.88682c5.41066,16.22769,8.86722,33.03917,12.40059,49.77813C173.60653,634.16457,172.879,634.57567,172.1514,634.98922Zm6.77731-3.86182c-2.98585-14.18111-5.99321-28.39878-10.16627-42.268.95554.8262,1.84718,1.74334,2.74128,2.6574,3.99609,12.51951,7.24679,25.22428,10.275,38.00986Q180.35373,630.318,178.92871,631.1274ZM419.86284,457.88375c-4.68924,19.61482-21.11911,33.81221-35.52236,46.82977-23.2336,20.18507-47.66548,38.93468-74.09387,54.87233-22.3094,12.49646-45.25726,23.82291-66.90731,37.509-16.01323,9.95-32.88308,18.37722-49.86908,26.51872-.25133-1.64655-.57209-3.283-.939-4.91077,11.94525-7.07688,22.74938-16.47135,34.82183-23.30888,17.71725-10.36292,36.634-18.57263,54.03662-29.46647,14.37437-9.25191,27.90318-19.73281,42.14974-29.17152,22.44582-15.13143,45.71813-29.39765,64.71415-48.924,7.452-7.256,15.17076-14.83647,18.73977-24.85527,3.58868-9.76316,2.40823-20.26373,1.70094-30.39068-.00983-10.26459.47193-20.57835-1.7206-30.6758-4.65053-18.12036-8.47517-37.54837-19.32969-53.12224-13.45016-15.92783-35.13953-22.56442-55.07881-25.88763-33.74338-6.8234-68.175-3.79515-101.96756.96353-14.71357.958-29.60412,2.11695-43.72224,6.51185a80.48642,80.48642,0,0,0,5.01063-9.13238c41.719-10.03477,85.90332-17.006,128.16244-6.3954,21.06012,5.46628,43.18209,7.87542,61.86287,19.94911,32.87818,18.71,33.16331,60.11278,36.02441,93.6202C418.40771,438.21977,420.8952,448.0616,419.86284,457.88375Z"/>
    <path d="M532.39058,461.15781c-6.64643-11.90654-14.22689-23.97039-25.28849-32.24893a49.68623,49.68623,0,0,0-8.10095-5.014l.01967-.0003c-.20525-.10293-.41786-.18958-.62433-.29005-.72389-.35149-1.45145-.69438-2.18885-1.01792-.40926-.17974-.82159-.35149-1.23453-.52324q-.90423-.3747-1.81708-.72634c-.46148-.17667-.92236-.35211-1.38692-.51987-.57271-.20708-1.14911-.40372-1.72613-.59791-.48914-.165-.97644-.334-1.468-.49037-.507-.161-1.017-.31032-1.5258-.46271-.5002-.15056-.99672-.31156-1.49876-.45473l-.00984.00307-.00983-.00307c-1.17308.287-2.32281.6274-3.46209.99211-.27959.08941-.55735.184-.8351.27806q-1.39922.47424-2.76341,1.02314c-.22306.08941-.44858.17083-.6698.26362-.92789.38836-1.846.79823-2.7505,1.23821l.027.00646c-12.88912,6.24392-23.209,17.45331-30.057,30.1458l-.01659-.00738c-.07927.14718-.14686.299-.22552.44644-.49774.93742-.96968,1.88375-1.42994,2.835-.1739.35948-.35825.71405-.52663,1.07537-.61081,1.31135-1.19335,2.63129-1.73043,3.96107a.04948.04948,0,0,0-.00983.01966l-.01044.00983c-.06883,1.07169-.12659,2.17625-.17268,3.30109-.0043.11123-.00491.22675-.00922.33859-.03748.98443-.06636,1.98053-.07927,2.99261-.00491.4.00246.80684.00185,1.20995-.00062.7202-.00308,1.43793.01167,2.16519.01291.63263.04548,1.26771.07128,1.90372.0209.49191.035.98136.06514,1.47357.01045.17606.01168.35119.02335.52755l.01659-.032c.89533,13.37274,5.28593,26.57219,19.74571,28.2891,9.3791.59975,18.317-3.25439,26.81184-6.78408,10.87356-4.63086,21.81718-9.14375,32.98632-13.00772C534.3963,479.31749,540.79632,475.80747,532.39058,461.15781Zm-85.07129,1.02529a111.82688,111.82688,0,0,1,5.86478-10.71226,95.59128,95.59128,0,0,0-3.00736,11.20447,65.77357,65.77357,0,0,1-3.01105,7.25232C447.14108,467.4979,447.19086,464.92223,447.31929,462.1831Zm19.7113,27.34553c-3.20155-.22061-6.26667-1.98607-8.67858-4.02282-1.16878-2.30837-1.24006-5.18392-1.35927-7.79554,2.52743-5.18853,6.04114-9.962,7.02127-15.83319,3.34779-9.62337,5.458-23.02622,17.94215-23.95349,7.00652-2.97418,14.53107-.68855,19.44706,4.96515,4.36233,5.17562,10.35124,10.37244,11.69085,17.4358.389,13.96911-18.64391,10.28549-27.08713,15.85532a52.32918,52.32918,0,0,0-9.77361,7.983C474.05308,486.18329,470.56519,489.63217,467.03059,489.52863Zm61.26988-15.61873c-3.83447,1.78942-7.94425,2.88077-11.89732,4.35557-9.71339,3.47069-19.29958,7.315-28.78807,11.356-1.90925.92236-3.72571,1.74179-5.4758,2.48657.21262-.25164.43445-.48454.64154-.74877,2.38057-2.61808,4.76052-5.33969,7.81274-7.186,10.04154-4.57033,26.7848-4.36847,30.37532-16.88152,3.08048-10.70151-5.75847-19.16808-14.01612-24.39747-4.02128-7.6161-9.60769-10.80413-18.18365-13.01387-5.1962.01813-11.43644.2415-16.73343,1.81892.33306-.212.62864-.46149.96968-.66673a35.51544,35.51544,0,0,1,12.40859-5.6792c8.27976,2.56369,16.14351,6.18309,22.49436,12.39445,9.20336,9.79266,17.708,21.13878,21.9745,34.00885C530.07945,472.81855,529.11591,473.46746,528.30047,473.9099Z"/>
    <path d="M200.24078,430.5963c-4.9627,8.58025-10.173,17.00872-15.7785,25.18279-4.75623,6.4547-8.60668,13.50578-13.01018,20.19522-3.29249,4.29012-7.044,8.22292-9.907,12.82183-7.95346,11.47824-9.51982,30.16055,5.59563,36.3292,11.38176,5.68289,24.39194,4.65883,36.71449,5.79719,17.8125,1.99866,29.96361-13.30514,42.84474-23.18014,11.297-9.184,25.267-14.08955,36.72248-23.07568,14.8334-10.80352,30.52772-21.79568,40.96069-37.15448,7.26092-14.94462,14.78915-41.51588,1.55406-54.8923a74.927,74.927,0,0,0-23.19489-13.83361c-8.45059-2.46445-17.02716-6.41077-26.00561-5.28009a137.85265,137.85265,0,0,0-45.13866,18.98588C216.41133,400.42561,206.878,415.29588,200.24078,430.5963Zm47.26606-26.40351c8.43277-8.12982,18.38213-14.12088,28.13362-20.50737a19.85536,19.85536,0,0,1,9.78713-3.39511c9.816,6.65871,20.056,13.51806,27.1025,23.43516,2.57536,4.43853.3478,9.82338-.32569,14.53014a72.77374,72.77374,0,0,1-7.47231,19.58256c-3.91928,4.2425-8.469,7.90615-12.57511,11.98427-10.78693,7.81613-20.19122,17.31014-31.023,25.08725-12.50015,6.52844-24.54495,13.78383-35.464,22.785-10.37705,8.21708-14.155,13.74942-28.56254,11.81682-6.223-.31677-12.78835-.16407-18.51733-2.95236,2.47213-6.71863,7.94425-11.68317,11.99442-17.473-1.11471,5.61468.06513,11.03763,5.86662,14.97657,14.89669,7.66681,27.95972-8.64354,39.15037-16.291,15.4184-11.32737,30.43-23.18813,45.138-35.416,6.06634-5.49086,13.42128-9.78222,18.70167-16.07469,8.6964-11.17959,11.16238-33.30156-3.48052-40.63592-10.7476-4.826-28.10782-8.34552-36.017,2.31635-4.26094,3.41355-7.52577,7.96207-10.546,12.63135-10.165,8.7477-20.82046,16.98506-28.6922,27.82391,2.35968-5.01769,3.90207-10.39487,7.0778-14.99133C232.569,415.25317,240.15866,409.83605,247.50684,404.19279Zm9.96165,16.85849c4.36479-6.3318,7.81582-13.2145,12.03374-19.625a10.677,10.677,0,0,1,5.423-4.49046c16.83175,4.23083,23.06892,12.46635,13.88461,28.597-4.57126,5.50684-11.402,8.65092-16.70148,13.42282-13.527,11.00107-27.16456,21.8645-42.42872,30.414a79.79385,79.79385,0,0,0,5.71546-11.6844C239.85448,443.80772,248.92941,432.57928,257.46849,421.05128Zm34.24236-15.66451h0Z"/>
    <path d="M259.34148,442.45306c2.99138-3.0132,6.1284-5.09051,9.44424-7.92766,2.109-1.63272,3.4922-3.99885,5.44447-5.73082,4.22407-2.09483,8.22814-4.75253,10.38442-9.11579,3.9328-5.046,3.76811-16.9654-4.61059-16.636-4.755,1.37248-7.16629,6.60126-10.26521,10.09745-4.62718,5.52312-8.42909,11.52893-12.65315,17.38357-2.1145,4.89511-16.1853,15.51581-11.46472,20.06648C249.8278,454.28279,256.4306,445.17867,259.34148,442.45306Zm5.364-12.18491c4.91784-6.20214,8.874-12.773,14.03578-19.1564a33.43353,33.43353,0,0,1-8.76584,13.54172,62.90884,62.90884,0,0,1-7.52946,8.36365Q263.55572,431.62527,264.70545,430.26815Z"/>
    <path d="M509.6,458.05305c-.93035-6.92172-7.06121-12.39753-13.00772-15.388-11.39774-3.67286-18.02511-5.576-22.32354,7.81643a94.1497,94.1497,0,0,0-11.026,17.84506c-1.46619,2.39932-3.76627,5.97816-1.20012,9.01625,4.77466,5.15933,17.0327-1.83828,23.17277-2.77938C493.83689,472.15212,509.52567,469.29593,509.6,458.05305Zm-9.54871,3.652c-8.58517,3.63292-17.31536,5.54155-26.6367,7.38106,1.50306-3.719,3.89961-7.04831,5.94221-10.50886a6.64047,6.64047,0,0,0,1.551,5.10372c5.82054,4.98666,17.9483-1.07568,17.99254-8.6417a6.49867,6.49867,0,0,0-3.15606-4.47417,10.24871,10.24871,0,0,0-3.09708-3.864c-3.33427-1.967-7.10054.03964-9.781,3.37453a16.79243,16.79243,0,0,0,.295-2.47459c.01475-2.08869,2.26075-3.08018,4.30641-3.15576,7.21484-.48638,11.619,6.2003,14.82664,11.79838a13.28448,13.28448,0,0,1,.51864,2.21835C502.79506,459.8606,501.24837,461.1406,500.05132,461.705Zm-13.471-2.454c-.26915-.00553-.5383-.00983-.80438-.04178a11.07834,11.07834,0,0,1,4.96577-9.2688l.00061-.00031c2.5852.70145,4.09871,3.24179,5.51821,5.4543C494.07593,458.46384,490.20581,459.09339,486.58027,459.251Z"/>
    <path d="M521.58276,515.27277c2.4408.25041,5.40821.05745,8.03274.16745,15.80738.353,31.75364.60958,47.13394,4.99434a198.15083,198.15083,0,0,1,38.306,17.7366,140.18237,140.18237,0,0,0-40.65528-22.08295C557.21942,511.57748,538.994,512.69587,521.58276,515.27277Z"/>
    <path d="M525.42707,505.52128c2.69643-.01844,5.81071-.36962,8.65215-.47194,15.05647-.49836,30.28069-.01843,44.97152,4.198,10.29471,3.04822,20.343,7.63945,30.46995,11.86751-22.65536-16.46981-47.36192-23.78757-75.3327-17.87394A62.534,62.534,0,0,0,525.42707,505.52128Z"/>
    <path d="M533.98951,493.4055a134.328,134.328,0,0,1,77.89885,16.60685C591.0765,493.942,563.18867,486.257,537.08658,491.79367a27.73367,27.73367,0,0,0-6.7939,2.0936C531.35515,493.85654,532.74883,493.47924,533.98951,493.4055Z"/>
    <path d="M549.75387,482.61858c19.06546,1.13252,39.10674,2.69212,56.5831,11.5532C590.85343,481.59482,569.06451,478.483,549.75387,482.61858Z"/>
    <path d="M565.79108,476.21611c10.54542.16592,21.53082,1.39737,31.76715,4.98482C589.013,473.88009,576.38812,473.02133,565.79108,476.21611Z"/>
    <path d="M288.87,607.05593c19.53678-12.32348,42.42442-18.66911,63.181-28.84706,16.03474-8.76553,33.83433-16.42557,48.16937-27.22693-20.46836,9.94137-42.17923,17.7111-63.01568,27.16824C319.90408,585.60867,302.896,594.2725,288.87,607.05593Z"/>
    <path d="M329.51362,576.78753c18.43252-9.33547,38.32387-17.45362,54.1546-30.764-27.55108,14.8629-57.34385,25.54382-82.79457,44.17575C310.49978,586.472,320.06262,581.30963,329.51362,576.78753Z"/>
    <path d="M384.7694,533.36824a.02965.02965,0,0,0,.05285-.01844V533.32c-22.42616,11.71942-45.42134,23.70216-66.0808,38.63972C342.305,562.64729,364.1468,548.11868,384.7694,533.36824Z"/>
    <path d="M382.1332,522.5764c-14.05667,10.10237-29.32145,21.07395-43.2964,32.07594C354.17962,545.65485,369.20413,535.048,382.1332,522.5764Z"/>
    <path d="M772.78641,501.54393c-18.92781-9.00733-40.388-14.21675-61.4696-15.78987A422.20652,422.20652,0,0,0,772.78641,501.54393Z"/>
    <path d="M737.591,484.64981c6.30415,1.55222,13.79612.59084,19.44767,3.77425.18743-.28789-.40065-.89563-.74723-1.09043-4.77035-2.86479-10.32543-4.00469-15.6132-5.57473-13.699-3.70851-27.47549-6.824-41.84494-7.63946A243.50511,243.50511,0,0,0,737.591,484.64981Z"/>
    <path d="M729.08936,474.52685l-.02089-.00061c2.34616.20555,4.93689.62126,7.1497.66857-17.84629-6.27926-36.83678-8.78519-55.6294-10.19577C690.86381,469.78783,713.9272,473.23548,729.08936,474.52685Z"/>
    <path d="M718.48187,464.8746c-.89041-1.69509-4.09625-2.43679-5.92869-3.28357-16.31188-5.19559-33.62294-8.27055-50.773-7.52147a311.88167,311.88167,0,0,0,33.33044,7.33558C702.75561,462.94876,711.34262,462.12687,718.48187,464.8746Z"/>
    <path d="M444.16752,425.16719c11.77135-14.73139,32.19055-14.445,49.62267-13.056a144.83251,144.83251,0,0,1,15.918,2.37934C489.60176,404.32952,455.57447,401.29666,444.16752,425.16719Z"/>
    <path d="M445.069,409.94359c3.83141-4.17553,9.00611-7.20071,15.00423-7.01881,9.54133-.42616,19.087.1656,28.64.08787C475.34046,398.56244,452.02943,393.16345,445.069,409.94359Z"/>
    <path d="M442.94836,398.01923c4.932-5.77937,13.00157-7.07965,20.37372-7.44774,3.33981.08173,7.45634-.73985,10.37091,1.0465-2.02724-2.211-7.25417-2.12986-10.37275-2.40884C455.69492,388.86749,446.4848,390.32785,442.94836,398.01923Z"/>
    <path d="M445.5483,384.32757c5.73574-2.0131,12.30351-4.04187,18.51487-3.25347.04424.0338.15977.21723.18066.11307-.34412-1.06186-2.13354-1.38631-3.01842-1.6318-9.494-2.33971-21.5677,1.09565-22.514,12.27063C440.83079,389.43221,442.42726,385.84538,445.5483,384.32757Z"/>
    <path d="M98.43974,673.09c5.15688,9.86148,13.26889,19.93989,25.46547,20.45115,10.42068.346,19.114-6.58375,26.61458-13.00742,9.3533-7.42161,18.11544-15.54314,27.21249-23.25511-10.82072,5.524-25.80467,17.98548-38.77982,24.5766C122.62828,691.14586,111.03084,684.70529,98.43974,673.09Z"/>
    <path d="M150.25925,666.31886c-8.23184,2.12586-18.81659,8.52372-28.656,6.57268-6.652-1.571-12.14558-5.73266-18.74961-7.71811,2.04076,1.71292,4.69662,3.408,6.99055,5.05364C123.95683,681.898,136.45636,672.60088,150.25925,666.31886Z"/>
    <path d="M52.96065,480.00327c1.264,9.87931,5.23676,19.66705,2.27,29.64345,7.04892-8.61774,3.09032-20.44132,1.05079-30.2773-1.23145-5.96464-1.18352-12.541-4.05815-18.0371a3.27086,3.27086,0,0,0-2.35108-1.70093c-.008.10354.71958.39021.94388.67288C54.1073,466.16874,51.68065,473.57561,52.96065,480.00327Z"/>
    <path d="M47.22614,502.717c-1.53993-11.06744-3.60895-22.24334-4.9332-33.26838.07743-.00123.20647.22675.21262.08542-.35826-.51987-.50328.18435-.54076.875A291.786,291.786,0,0,1,41.15,504.65391c-4.19519,14.62079-3.51371,30.41127-5.70378,45.44346,3.49158-6.39909,7.0606-13.39209,8.80024-20.64718C45.68866,520.63212,47.14626,511.63585,47.22614,502.717Z"/>
    <path d="M31.97857,490.2863c.04793,5.80118-2.88815,11.32646-3.75644,17.09783-1.704,8.93913-.53461,18.2067-3.864,26.91016-6.16527,23.78635-15.10316,32.7608-1.63149,56.60245-6.14377-25.91681,3.37606-28.43687,6.95674-51.217,3.01412-10.05382,1.00041-20.54978,1.05325-30.89826C30.70963,502.70441,33.23768,496.0245,31.97857,490.2863Z"/>
    <path d="M42.56148,610.04946a20.80531,20.80531,0,0,0-4.88712-4.97437c.52294,1.16785,1.39,2.52528,1.89082,3.86213,6.09276,24.35967,16.1853,31.19352,40.0039,37.16676C59.24513,637.59286,52.80088,628.85836,42.56148,610.04946Z"/>
    <path d="M490.40921,510.89231c-13.15028,4.52456-24.964,13.88553-36.2997,22.15178C467.70223,528.9334,479.57743,520.025,490.40921,510.89231Z"/>
    <path d="M472.58689,512.27678c.2925-1.08091-4.64623,1.32977-4.94242,1.58756-8.74248,4.857-16.36043,11.33905-23.99,17.73691,10.98663-3.77887,19.50666-12.631,28.70818-19.36564C472.43756,512.25128,472.51192,512.26141,472.58689,512.27678Z"/>
    <path d="M432.8761,532.16136c9.494-3.00306,16.30205-11.05638,24.344-16.3506C448.14518,516.80072,439.88262,526.01053,432.8761,532.16136Z"/>
    <path d="M420.62544,534.67c-.01782.01783.00369.051.02949.051,9.88607-5.77783,18.1898-13.94668,27.47058-20.51107A151.41007,151.41007,0,0,0,420.62544,534.67Z"/>
    <path d="M478.85232,320.85808c-16.21786-14.45886-59.35264-36.20446-80.97565-37.10716,15.69493,3.34349,29.63485,13.37489,44.27284,19.99919C454.383,309.59953,466.95685,314.22948,478.85232,320.85808Z"/>
    <path d="M426.32,303.57068c13.68245,8.04256,26.81553,17.23056,41.2409,24.038,10.57184,5.27271,21.24631,10.27443,31.70755,15.74163-11.96184-11.18481-26.87021-19.57364-41.79517-26.51687C447.24739,312.60505,436.474,306.33808,426.32,303.57068Z"/>
    <path d="M300.0324,280.45321c-.06944.0295-.13826.04916-.20709.07866,9.537-3.25439,18.5333-7.728,27.72683-11.81805-15.91492,2.11418-31.36712,9.156-45.05079,17.61861C288.24692,284.86163,294.30527,282.51793,300.0324,280.45321Z"/>
    <path d="M299.12233,273.65808c.25747-1.68926-8.7898,1.54147-9.18247,1.74579-11.75783,4.20225-22.562,10.602-32.79951,17.67792C272.57718,289.55641,285.631,280.96939,299.12233,273.65808Z"/>
    <path d="M264.45412,283.978c3.87749-2.01371,7.49627-5.23369,11.51326-6.52875-.20648-.50112-2.37935.28544-2.44755.3051-12.13821,4.53439-23.78482,10.1884-34.30443,17.95291A183.04875,183.04875,0,0,0,264.45412,283.978Z"/>
    <path d="M223.92973,301.36155c10.86742-4.86192,21.27888-12.12038,31.02976-18.86759C243.421,286.16867,232.97823,293.38289,223.92973,301.36155Z"/>
    <path d="M682.06664,560.271A234.89485,234.89485,0,0,0,654.035,524.93485C659.41743,539.359,669.87743,551.12973,682.06664,560.271Z"/>
    <path d="M641.02976,527.87646c.02888.02826.1272.0805.09525-.01045-.01721-.015-.52171-.63662-.53093-.2458,7.12635,12.17692,18.4018,21.215,29.00437,30.40082C662.807,545.84565,651.07683,537.23774,641.02976,527.87646Z"/>
    <path d="M627.62507,528.0095c.04179-.00431.09033-.05254.0295-.07251-.2925.02427-.1315.38836-.00983.94387,4.89571,11.33659,14.11382,20.127,23.88251,27.41158-6.69558-10.1503-16.17731-18.6943-23.90218-28.17141Z"/>
    <path d="M681.10311,404.28835c8.37931.76413,16.801-.94479,25.09861-.72695-14.485-4.39736-32.54512-3.13057-48.3906-2.41068A163.27758,163.27758,0,0,0,681.10311,404.28835Z"/>
    <path d="M650.28535,394.3943c8.79594.47777,17.53105-1.60446,26.26247-1.34269a.77193.77193,0,0,1-.129.33982c-.01967.0295.00983.06883.03933.04916.02888.00645.459-.46825.236-.56042-16.08083-3.34318-32.67415-1.82261-49.09112-.82681C634.77354,393.77334,642.778,394.1912,650.28535,394.3943Z"/>
    <path d="M649.31936,385.49266c.36009-.37669-1.53687-.88519-1.80417-1.0468-13.68-2.8691-27.96587-.79486-41.52049,2.18239a84.5653,84.5653,0,0,0,17.55993,2.16365C632.353,389.30255,640.73972,386.211,649.31936,385.49266Z"/>
    <path d="M575.02516,358.71493c.53707,6.50877,8.316,16.3337,11.6085,23.88651C585.205,373.8737,577.52433,367.03678,575.02516,358.71493Z"/>
    <path d="M559.73887,360.49974c3.02272,9.05526,9.4467,16.162,15.8885,22.96753C572.55917,374.852,565.92258,366.98424,559.73887,360.49974Z"/>
    <path d="M557.99615,377.52567c-3-9.3662-9.95673-17.38971-14.16789-26.19242C543.17811,362.01387,550.73523,370.61379,557.99615,377.52567Z"/>
  </g>
</svg>
