<svg id="Слой_1" data-name="Слой 1" xmlns="http://www.w3.org/2000/svg" viewBox="0 0 1000 1000">
  <title>Meat_36</title>
  <g id="rosemary">
    <path d="M782.37246,333.08883c-10.113,2.40075-19.30075,7.60489-28.38094,12.50719a299.388,299.388,0,0,0-42.94742,29.38491c2.24521-11.61733,3.98066-23.682,1.1069-35.29315a15.90243,15.90243,0,0,0-.4804-1.78819c14.044-16.58763,27.4932-33.66961,39.84617-51.54685,6.49179-10.60919,15.64591-24.02859,13.50648-36.95809-1.18024-5.43222-7.37032-7.0952-12.10488-5.39855-8.20166,2.75615-14.84758,8.64429-21.21182,14.29772-6.76,6.19665-13.1041,12.82891-19.3006,19.58222-35.68083,40.36353-64.84242,86.12575-91.48558,132.83832q.00921-1.00341.01827-2.00676c18.46619-50.53529,44.317-98.05553,70.93942-144.68672,18.34828-32.47834,38.86273-63.85036,54.12628-97.96509,4.13086-10.30756,9.516-21.25214,8.20166-32.61933-1.29435-8.36939-9.37533-10.13976-16.20228-7.32985a60.37914,60.37914,0,0,0-17.14466,11.84321c11.1438-25.12212,21.52288-50.572,27.87483-77.417,2.46116-11.61528,8.38956-34.611,2.30015-44.999C740.26384,4.56908,726.08,40.689,722.45878,48.13964,703.95606,90.53,688.17632,134.19446,676.7219,179.03921q-2.981,11.63165-5.63793,23.34744-4.73319,7.89773-9.10475,16.00694c8.05424-35.87764,14.94869-72.00717,18.64561-108.6301.81834-13.07035,6.69955-50.12261-2.26-59.062-15.24338-8.97974-28.48833,53.6434-31.4122,64.14543-8.55728,36.96481-13.46615,74.71436-15.954,112.56465-1.17177,22.143-2.70837,44.51653-1.45069,66.70053q-4.79871,14.00295-8.77191,28.26829c-.11279-20.76531-.18132-41.54545.00891-62.3966-.15429-36.59605,2.70267-73.722-4.14444-109.88216-1.59621-5.935-4.78176-23.6596-13.19133-21.92276-7.68546,2.7362-7.7255,25.71838-9.21432,33.4373-6.47834,46.70921,1.13335,93.61961,4.017,140.30193,3.73652,56.79944-4.91661,113.34085-12.35881,169.55082q-2.41908,7.51529-4.89631,15.01232-2.40109,7.47594-4.8624,14.93261-.311-6.29556-.57654-12.59886c-.67734-17.309-.46257-34.63793.275-51.94675,2.0319-50.25673,8.09442-100.61406,4.23167-150.92449-1.68343-12.10481-2.0655-29.53445-10.91777-38.62808-8.95293-6.67946-16.61152,6.11614-19.23368,13.48631-7.65172,22.21783-7.97359,46.17256-8.26872,69.4433.12068,32.35093,3.72862,64.55467,6.6392,96.74467.8515,8.70075,1.77928,17.41276,2.98392,26.08211-2.15156-8.81852-4.67364-17.66268-7.60847-26.336q.08065-3.16311.14465-6.3182a417.83974,417.83974,0,0,0-8.23527-87.64431c-1.23386-5.58636-2.3339-11.43426-5.21087-16.43693-1.22714-2.17961-3.76223-4.15131-6.30374-2.94432-5.44552,3.58135-5.506,11.25323-6.63248,17.09454-1.5214,13.69086-1.52345,27.47319-1.32182,41.25332a111.99549,111.99549,0,0,0-20.4788-21.31832c9.7701-31.01641,20.99411-61.889,26.13967-94.13324,3.239-19.42808,5.64-39.21142,4.0841-58.92126-.84507-10.844-3.11848-21.48679-5.3317-32.11614-.99907-4.25863-1.7635-8.77192-3.95655-12.60793-8.23511-9.77106-11.56151,14.32467-13.14428,19.53532-7.35015,32.08276-11.14584,64.796-16.18226,97.2811-1.54711,9.8414-3.25918,19.674-5.03656,29.50464-5.57541-41.08442-13.81856-81.792-23.39113-122.12474-3.13193-10.95137-10.51554-62.10673-23.63966-61.08092-11.0386,2.2737-2.5684,44.09384-1.56918,53.43556,4.27857,27.3281,11.87009,53.92517,19.01891,80.623,4.54682,18.375,8.66438,37.48787,9.60325,56.50671.25452,10.40778-.3001,20.79059-1.0505,31.16565a11.05872,11.05872,0,0,0-7.159,7.9432q-5.18968-10.43142-10.64836-20.7266c-3.71825-7.03281-7.23312-14.16286-10.651-21.34053a97.38278,97.38278,0,0,0,4.58057-13.97913c12.334-42.74477-6.47921-85.27535-18.75767-125.75591-9.02336-27.27069-13.35818-55.88759-22.83373-83.0842-2.826-8.72011-12.60954-16.95888-17.14247-4.57326-2.42741,7.84808-1.58014,16.29155-.69065,24.33015,6.32785,43.0665,26.37915,82.45828,37.21875,124.36382,4.44454,17.10324,4.767,34.78579,5.41542,52.40193-3.86085-8.40277-7.74479-16.79634-11.804-25.09911-7.41386-15.28-15.464-30.24891-22.85843-45.53912-4.85539-50.223-12.23053-100.32682-23.36118-149.55285-2.18618-8.97967-4.54667-17.946-7.35658-26.76471-2.07237-6.03557-3.73549-12.46694-7.71235-17.59058-8.88573-9.21439-12.01079,5.137-11.41409,12.14506.74441,20.25964,6.48506,39.94918,10.42846,59.73938,5.03028,24.74524,12.70421,48.92023,17.72528,73.72749q-10.53168-25.30947-19.38855-51.26822c-8.8457-26.30193-16.38345-53.214-28.7297-78.16138-5.5998-10.38806-11.42753-22.29175-22.47285-27.7437-6.63234-3.14551-12.18524,1.90435-13.45929,8.25514-1.81756,11.40079,1.48882,22.94886,3.84259,34.05453,5.11225,19.58872,13.1846,38.256,22.11986,56.415a435.11984,435.11984,0,0,0-62.43109-52.39142C233.20986,40.461,223.0967,32.628,211.40764,28.1348c-5.43193-2.13935-12.15843.114-11.72253,6.78663.79818,8.36274,6.08934,15.50506,10.88432,22.11058,10.47514,14.00952,24.17608,24.58518,38.17866,34.95973,29.77552,22.01277,60.28625,42.99447,89.49649,65.73893q5.48248,9.00831,11.04386,17.96892c.58063.96773,1.1481,1.94621,1.7169,2.92365-10.04888-2.89428-20.24869-5.21817-30.52856-7.142-21.10369-21.90611-43.06372-42.89292-69.1467-58.995-9.818-5.53946-20.71564-11.82319-32.351-10.95152-11.30678,2.35406-4.842,15.6592-.01352,21.44675a275.22185,275.22185,0,0,0,40.95833,41.4532c-4.69372-.19243-9.38979-.3-14.08461-.291-9.66725.35226-19.60188.00138-28.97772,2.66884-12.68682,3.69393-9.66717,13.50173,1.46888,16.40354,20.51993,5.49512,42.12265,3.30031,63.13854,4.24832q4.82061.26234,9.64986.49464,4.22626,2.92425,8.48949,5.77353c17.718,11.88338,35.83833,23.12989,54.0259,34.269,9.315,5.92833,19.67609,10.502,28.03876,17.79177,6.4313,7.41707,10.28747,16.75894,15.44457,25.06141.36439.63659.73375,1.27156,1.09887,1.90793-13.71117-11.73918-27.09054-24.24885-43.16833-32.67434-16.71044-8.77681-35.49762-12.4928-52.51415-20.62257-18.72187-7.2809-52.4725-31.34324-71.49127-23.599a11.68641,11.68641,0,0,0-4.3251,19.26115c7.05794,7.64712,17.76357,9.96845,27.32745,12.99679,13.45154,3.92149,27.13042,6.99088,40.72047,10.39471a192.78224,192.78224,0,0,1,48.51288,18.315c25.29519,13.18212,49.03274,29.17781,72.17812,45.79875q1.24109,2.1516,2.48394,4.301c6.40661,10.99359,12.65424,22.15536,18.4773,33.53965-2.38986-1.61564-4.80324-3.18117-7.16372-4.74947a300.43206,300.43206,0,0,0-61.72716-29.80474c-.17386-.15751-.34627-.31662-.52028-.47412-10.1735-9.20767-20.54148-18.26106-31.40563-26.65733-8.54355-6.35758-17.282-13.11082-27.529-16.40368-4.51336-1.60279-11.77628-.99915-12.58118,4.7884-.55579,7.77218,8.17653,18.63151,15.66913,27.47479-21.48839-1.02727-42.96115,2.03877-63.47121,10.70373-5.93512,2.68923-14.78067,10.57588-7.95379,16.79927,5.023,3.8496,11.69571,4.34563,17.77167,5.09,8.34265.89884,16.75222.97233,25.12833,1.12669,19.6292.114,39.27855.2749,58.80722,2.43449q2.16792.22924,4.33833.47156c34.76358,31.20342,75.53884,55.56725,111.70694,85.13392,3.82929,3.39323,7.73909,6.80013,10.71,11.00492,4.7011,7.49772,7.68547,15.92073,11.119,24.30356q1.07124,2.78551,2.10962,5.616c-18.56262-18.59228-36.51948-37.86293-57.22358-54.148-5.06111-3.80029-22.75469-19.21279-25.67827-7.15612,1.13276,9.63744,9.2374,16.89453,15.26311,23.9418,22.52311,24.31131,49.53665,43.58167,76.43461,62.72389,4.83874,14.20581,9.17137,28.56182,13.223,43.001-35.464-43.89813-72.46784-87.35108-118.80038-120.214-18.39212-12.75841-44.70069-33.34219-67.30329-34.619-5.62406-.45015-12.07508,3.62058-10.42817,9.88619,3.53431,12.44239,28.37934,25.39651,39.17029,33.12223,16.4622,10.51686,32.90175,21.10092,48.78873,32.478a500.76462,500.76462,0,0,1,41.97435,33.12237c27.7692,24.1953,51.94667,52.03448,75.67224,80.12935,2.81941,10.94713,5.57745,21.90961,8.36954,32.86055,4.33788,16.883,7.34065,34.183,10.56521,51.34325q-4.12479,13.53109-8.38648,27.017c-1.556-35.13264-9.30535-70.42922-26.31427-100.62509-12.05784-19.82381-29.10519-35.86508-45.07283-52.47645-15.91386-16.33648-31.372-33.11565-47.46019-49.291-6.55212-6.33077-12.68843-13.28512-20.34687-18.3081-9.20774-6.16976-16.692-1.54916-14.42519,9.29482,4.56026,17.168,17.12772,30.94277,28.58886,44.02,15.02875,16.89292,32.71313,31.05,48.86836,46.77612,13.453,13.98936,28.11269,27.63639,36.8377,45.28745,7.12208,14.26418,11.47444,29.74221,15.84008,45.02592,5.35362,19.17188,9.82563,38.75579,14.36354,58.25056q-3.78291,11.23979-7.76393,22.40346c-3.687-35.37416-19.25253-72.64668-48.028-91.76552a54.72428,54.72428,0,0,0-14.00733-6.422q-3.374-8.38611-7.3015-16.54782c-10.01235-20.9101-22.83461-41.06922-40.59964-56.2321-5.72034-4.6675-19.05251-15.4377-25.67827-7.85305-6.98781,12.16522,21.59417,58.83411,28.00545,72.508q2.432,4.67181,4.82822,9.35663a82.09448,82.09448,0,0,0-20.33284,9.86332c-20.81792,13.85231-35.77172,35.51778-43.9706,58.94325-3.82564,11.69753-9.74147,36.68181-4.17717,47.79682,8.04415,11.00923,17.64989-6.61115,21.727-13.10965,12.97173-20.88951,29.36818-65.95648,49.85078-77.455a28.1832,28.1832,0,0,1,8.5865-2.11678q1.196,2.60931,2.35947,5.23556a274.52709,274.52709,0,0,1,19.02563,70.24163,586.22038,586.22038,0,0,1,4.66765,66.52614c.02732,22.74958-1.31218,45.49025-1.17674,68.233-13.39368,18.55926-28.33419,36.07153-43.05115,53.55282-16.808,20.06122-35.26765,39.15757-49.92793,60.88616l-.00014-.00029c-.74061,1.09-1.45873,2.195-2.1745,3.30141-.19169.296-.39142.58647-.58179.88336.03448.07086.07217.14055.107.21127q.41816.84792.85413,1.68723c.25642.49252.52087.97891.78678,1.46573.07437.13573.14713.27234.22223.40793.109.197.21317.398.32348.59378l.0076-.012a84.975,84.975,0,0,0,6.417,9.73592c2.30482,2.995,4.67013,5.99006,7.14225,8.89815l.00672.00789.02688-.01841c.35855-.23494.72615-.48741,1.09784-.74777l.07978-.0564q1.11377-.7835,2.28948-1.69234l-.0022-.00249a136.09876,136.09876,0,0,0,15.8021-14.74443c15.82109-17.55726,29.167-37.09046,42.07209-56.87365,3.898-2.53231,7.82866-5.01275,11.80595-7.406,29.3733-17.38924,60.85256-31.144,92.80127-43.1413,18.86462-6.97452,37.98434-13.33889,57.15082-19.455,18.92978-6,37.97221-11.60023,56.96731-17.36309,21.54625,18.04731,26.33794,41.39446,43.35841,37.03261,18.36172-7.33671,23.22384-32.834,12.50726-48.43939a55.941,55.941,0,0,0-4.19091-5.62888A190.77613,190.77613,0,0,0,715.49069,810.662c27.992-14.774,17.44973-33.96044-10.5826-34.18179-18.50243-.77129-36.86415,2.72283-54.82365,6.82709a310.63227,310.63227,0,0,0-37.38837,11.08244c-44.62632.11717-88.71074,14.28346-127.257,36.36432-4.7987,2.82393-9.5394,5.77878-14.10419,8.9766q7.6596-15.19911,14.97586-30.57078,5.12109-10.45673,10.10864-20.97906,4.16664-3.37527,8.47473-6.54351c11.575-8.46319,24.12911-15.41769,36.60949-22.4391,25.90634-14.81413,51.45721-30.51336,75.55272-48.14426,28.91072-22.3117,55.68873-47.54742,78.60414-76.01559A391.00216,391.00216,0,0,0,726.952,590.24049c9.73066-17.168,20.74238-34.20853,26.29528-53.2812,1.81727-5.77411.49618-14.00937-6.91432-14.07629-11.15256.21448-27.99858,18.89808-36.50882,26.59684-17.00717,16.85976-32.67967,35.00013-48.73438,52.765-28.81692,31.51273-57.60681,63.09251-87.18816,93.89429-19.13346,19.58784-39.97694,37.59818-60.73583,55.45175q10.27659-23.34,19.5392-47.1091c6.078-15.53355,11.40342-31.31417,16.294-47.234q3.05857-3.32706,6.07786-6.69093c13.20462-14.76737,25.89305-30.03062,37.64231-45.985,30.3392-42.20242,58.39813-86.29619,81.75609-132.76388q.92507-1.90186,1.83962-3.81045c33.62659-27.17936,68.3402-53.19375,98.58005-84.16917,9.38892-10.294,19.36109-20.96373,24.22306-34.24213C803.77217,336.72366,794.41013,329.9233,782.37246,333.08883ZM709.06612,358.794a149.71142,149.71142,0,0,1-3.29718,20.51927c-.0786.06575-.15808.13055-.23684.19637q-10.21039,8.47236-19.92871,17.48582c3.09044-7.73434,5.87346-15.60135,8.65328-23.45-4.15993,8.22854-7.61709,17.21158-11.4946,25.7118a3.77454,3.77454,0,0,1-.26138.63111q-1.91194,1.799-3.80636,3.616c6.5-15.62874,11.88587-31.69178,17.29559-47.71866-6.73373,16.5758-13.66587,33.42752-19.99767,50.332q-3.14669,3.06626-6.23989,6.18657c3.21608-7.86182,6.41551-15.7343,9.70362-23.56332-4.90229,8.44456-8.929,17.70067-12.89458,26.80015q-7.994,8.192-15.64474,16.71379c3.27526-12.89531,6.4763-25.8777,10.51408-38.54056l.00073-.00073q.75807-2.38467,1.56494-4.75378c.03843-.11353.07613-.22734.11484-.34079q.82842-2.42741,1.70711-4.83757l-.00249.00255a168.35776,168.35776,0,0,1,14.166-30.107,92.13707,92.13707,0,0,1,10.7233-14.82085c2.488-2.59528,5.11693-5.35157,8.68454-6.35079,4.056-.564,6.6563,1.427,8.29824,4.6041l-.00248.00306c.17649.34145.34145.69686.49661,1.06351.01169.02761.02206.05654.0336.08416q.20185.48477.37959.99615c.0282.08087.05508.163.0824.2448q.15429.46.291.93741c.02192.0762.044.1521.06517.22888.10563.3844.20513.77458.29469,1.173l.00088-.0011C709.65755,347.67562,709.37206,354.79332,709.06612,358.794ZM587.856,515.59114c5.50805-22.06609,11.82568-44.12985,24.22408-63.44594,11.56356-19.17444,27.22554-35.37124,42.75763-51.54006-3.70408,12.78282-6.76573,25.80042-10.12237,38.67579A660.37426,660.37426,0,0,0,587.856,515.59114ZM706.87321,97.83306c5.26449-12.55416,29.226-80.12642,40.45222-80.01918,8.93292,17.8052-14.37814,81.89708-22.84148,101.097q-6.13119,14.0801-12.41974,28.09633c-2.16237,2.3678-4.28777,4.74947-6.41814,7.06452-.12843.15034-.25233.30448-.38046.45512,2.10772-9.78238,4.08965-19.595,6.857-29.22076-3.20264,9.30944-6.02731,19.14493-9.15412,28.60872-.16831,1.22232-1.54215,3.65733-1.72624,5.424-.8407,1.02632-1.6624,2.06754-2.49082,3.10358,1.008-4.19777,1.979-8.40365,3.14026-12.55934,6.83937-23.918,15.18187-47.15571,23.75669-70.51338-.01622.04507-.03127.08824-.05.131C731.2602,63.71234,738.5598,48.18982,744.557,32.62406c-5.68,11.13386-11.48027,22.152-16.76595,33.52446-6.22032,13.32384-10.891,27.24628-15.86,41.06937-6.59581,19.2553-12.6988,39.18592-16.31069,59.19279q-3.35883,4.33069-6.58149,8.76359c1.53031-10.00271,3.25919-20.11179,5.59586-29.79964A305.71271,305.71271,0,0,0,687.4322,176.827a2.86587,2.86587,0,0,1-.07919.69027q-4.77416,6.68612-9.23769,13.588A812.59739,812.59739,0,0,1,706.87321,97.83306ZM633.46649,279.1503a814.6885,814.6885,0,0,1,7.76583-109.78141c4.473-31.211,10.79709-62.261,20.80286-92.1977,2.82321-7.70548,5.57964-15.713,11.21276-21.896,2.11255-2.06565,2.58856-1.50884,3.6281.68407,3.07831,9.53634,1.83758,20.16569,1.50884,30.11785-.89855,14.02939-2.45443,27.99194-4.23152,41.941-4.49539,35.70165-11.99793,71.03782-20.20149,106.12511-.27921.57675-.563,1.15138-.83953,1.72938-.02177-8.025.02981-16.05588.05231-24.07345-.9136,9.4649-1.94277,19.3028-2.34486,28.95412-1.38376,2.98626-2.74591,5.982-4.06145,8.99677-.03039.07057-.06.1415-.09029.21207,1.41182-18.32352,3.8512-36.56332,4.81726-54.93592,4.23006-36.39764,9.63832-72.755,15.12971-108.99a.02377.02377,0,0,0-.04661-.00665c-4.439,21.04964-8.53843,42.15874-11.57481,63.46128-3.88525,24.526-7.12149,49.10287-8.866,73.88894-1.37456,11.749-2.93717,23.4251-3.54073,35.27569-.00146.35861-.034.74623-.058,1.14q-2.10086,5.09829-4.11741,10.23209c.03857-12.112,1.65275-24.47217,2.0918-36.38725-1.42409,10.30324-2.70983,20.62373-3.66755,30.98294a62.98575,62.98575,0,0,0-.413,10.536q-1.485,3.88142-2.91131,7.78453Q633.48506,281.04683,633.46649,279.1503ZM595.0396,436.33178c4.77474-38.70851,9.08691-77.69894,8.33578-116.74928-1.47523-52.26211-12.07785-104.55081-4.96263-156.79262.71767-6.163,1.42175-12.30585,2.35391-18.43558.8049-4.05042,1.18039-8.49014,3.63482-11.9438l-.01344.047c2.44786-.30185,4.5401,6.67266,5.50586,9.08692,7.04845,22.74768,6.54526,46.97746,6.98124,70.55662.03345,29.27285-.71738,58.43831-.456,87.71795.00891,12.93213.08737,25.90152.16817,38.88348q-.67458,2.8403-1.31773,5.68717c-.25174-4.12121-.7244-8.22883-1.299-12.32667.24254,5.67359.15984,11.61017.16612,17.43651q-1.59416,7.34007-3.04806,14.70988c-.03887-16.3974.74689-32.789.17328-49.18585.57946-23.13472.42619-46.22253-.291-69.36937-.35241-20.014-.44358-40.15022-1.93956-60.14482-.26182-2.578-.45395-5.25617-.87094-7.76452.12259,2.30132.30127,4.60264.38689,6.90665.40194,17.82055.31895,35.72168.0846,53.56977.26094,16.46943.7317,32.8989.39887,49.44906-.26037,18.36172-.53548,36.62322-.10754,55.01453-.45176,10.07116.34014,20.1494.4728,30.20222-1.46018,7.60438-2.877,15.21811-4.33146,22.824.47353-11.3967,1.229-22.78866,1.5122-34.201-1.17455,14.04269-3.45906,28.38759-3.15005,42.64819q-1.14948,5.83971-2.36487,11.66562c-1.98134,9.9512-4.4555,19.786-7.2134,29.55132Q594.47891,440.85771,595.0396,436.33178Zm-23.32027,78.43174q-.31056-.80814-.618-1.61732c.24034.39566.4934.78357.771,1.15651Q571.79582,514.53315,571.71933,514.76352ZM548.02181,289.06885c2.126-12.56073,3.5007-30.14458,13.97606-38.66154a3.84177,3.84177,0,0,1,3.13178-.54322c-.01344-.01345-.0336-.02017-.047-.03361.047.02016.08722.04033.12755.06042a.387.387,0,0,0-.08051-.02681c16.20228,11.05861,11.434,93.90115,10.5154,114.63688-1.93138,37.63551-5.39175,75.23764-4.70111,112.96031.218,10.88592.75727,21.75109,1.299,32.62736-4.30808-10.763-5.01173-22.76031-6.74454-34.167-2.719-17.10185-3.68348-34.50716-4.59328-51.79282-.83617-15.29569-.6116-30.67079-.28871-45.98481.05318-24.64385.77144-49.28331,2.77689-73.84928.38981-4.9394.77363-9.86668.96518-14.81412-.725,3.76391-1.05094,7.96219-1.71,11.87666-5.65167,38.21242-4.55237,77.11518-4.10455,115.69666,1.0334,21.47649,2.47679,42.86275,5.72794,64.14535.67895,6.69918,1.85043,13.33035,3.098,19.94435.26766,1.304.527,2.648.8271,3.99044a263.87371,263.87371,0,0,1-13.48222-58.83C549.49719,394.15617,542.47592,341.4648,548.02181,289.06885Zm21.598,231.99981q-3.59376,10.7778-7.17409,21.55881c-.239-8.01274-.66157-16.02315-1.11844-24.01654-.667-9.98788-1.82881-21.02976-3.58647-32.6A324.70739,324.70739,0,0,0,569.61978,521.06866ZM520.45906,376.45813c.33707-13.30273-1.78454-44.87667,4.19748-57.23753.17884,1.75554.75888,3.74828.74733,4.81156,1.1164,7.068,2.53334,14.09134,3.93026,21.1113-.27191-8.00873-.81542-16.32121-1.54391-24.45391a69.17538,69.17538,0,0,1,2.33259,7.33605c1.66312,7.18236,2.98421,14.42505,4.19134,21.69463a413.78313,413.78313,0,0,1,5.19027,65.58771q-1.25227-3.20926-2.58812-6.36453c-.5029-6.16823-.8762-12.34712-1.32577-18.54472-.05669,5.06118-.284,10.496.124,15.761q-1.42037-3.23455-2.93278-6.39652c.28067-10.48485-1.55194-31.23863-1.35324-33.18972-.83075,9.40082-.86363,19.21878-.80621,28.80092q-2.42455-4.7655-5.07835-9.31119c.47733-5.9037-.47-18.94695-.508-19.81036-.26153,5.8145-.25905,11.8893-.65485,17.85013q-1.899-3.15282-3.91169-6.17955C520.46739,377.43492,520.46009,376.94657,520.45906,376.45813ZM494.70715,248.52955c2.65577-18.48248,5.17712-36.87116,8.73159-55.27306,2.61895-12.00334,4.189-24.56436,8.69038-36.03.634,8.65481,1.40364,17.30355,1.69936,25.98525a178.057,178.057,0,0,0-.00482-26.14151c2.26946,5.97968,3.10446,12.63934,4.50971,18.91094a161.896,161.896,0,0,1,3.6281,40.02968c-1.75035,43.28879-14.23744,85.08234-28.19992,125.79594-.65762,1.93036-1.2812,3.87283-1.884,5.82291q-2.94133-2.07434-6.03929-3.89168c.14464-.26606.28315-.53591.42473-.8049.39565-.724.7108-1.49546,1.05956-2.24652.32859-.71081.597-1.4485.88525-2.17274.26825-.66391.51634-1.33446.7713-1.99837.63015-1.65655,1.28763-3.30616,1.91121-4.96285.32187-.85838.67063-1.71682.96561-2.58192.32187-.95224.68422-1.89769.97234-2.86338.55681-1.87111,1.11347-3.74879,1.62981-5.63334.49618-1.80411.959-3.60808,1.42848-5.41878.959-3.66828,1.89792-7.35,2.736-11.045.17445-.77816.37564-1.556.51648-2.3339.22121-1.18025.44928-2.35391.67048-3.53416.35563-1.88462.65748-3.78224.97263-5.67351.61014-3.60137,1.26733-7.1958,1.89105-10.79716q.95576-5.52247,1.81741-11.06534c1.1335-7.33657,2.17947-14.68672,3.22573-22.03673.56324-3.92324,1.11333-7.83961,1.68329-11.76285.24809-1.69.52978-3.37314.71081-5.06987a22.62468,22.62468,0,0,0,.22807-2.68923,1.2213,1.2213,0,0,0-.08708-.6772,1.69666,1.69666,0,0,0-.282-.2562l.00015.0011-.00658-.00658-.0336-.03346.002.00044a.05478.05478,0,0,0-.00877-.01388.023.023,0,0,1-.00658-.01329v.00672c0-.00672-.00672-.01344-.00672-.02038v-.03339c0-.00672.00672-.01344.00672-.02016v.00672a.65522.65522,0,0,1,.0469-.1006c.04705-.08729.08708-.17452.12726-.26817.01344-.02031-.02673-.04047-.04018-.02031a2.56368,2.56368,0,0,0-.22792.38908c-.04705.12726.12068.248.19447.32187l.06706.06721c.01782.02367.03053.04237.04734.06494l-.0003-.00482.00278.00855.0038.00482-.00307-.00292.01023.02367-.00044-.00731.00058.00775.00614.01256c-.00453.00585.001.02221.00672.03346V228.511c.00628.05756.01242.11542.01315.17891-.00687.20637-.02674.41274-.04661.62577-.31529,2.4076-.81162,4.80177-1.28763,7.19579-.45614,2.31381-.8854,4.63426-1.328,6.94771-1.39487,7.34357-2.716,14.70681-4.14444,22.04366q-1.07629,5.56259-2.17961,11.11209c-.74441,3.72878-1.51556,7.45755-2.22636,11.193-.731,3.86947-1.38815,7.74559-2.146,11.61513-.711,3.66156-1.62309,7.28309-2.52821,10.90426-.62388,2.48826-1.28764,5.15045-1.97828,7.7995-.48975,1.87783-.99279,3.75551-1.52257,5.62-.476,1.68971-.97233,3.37315-1.55574,5.0294-1.30764,3.655-2.649,7.30319-4.05736,10.91792-.406.90527-.84712,1.89982-1.349,2.8891-1.5496-.855-3.12418-1.66707-4.731-2.423q2.27421-12.84436,4.61972-25.67835.14027-.77592.28111-1.55223l-.00029-.00219C487.86413,291.51131,491.67867,270.08369,494.70715,248.52955ZM437.96543,169.3553c-1.34111-10.70328-7.1757-41.04906-2.05206-49.35146a1.03333,1.03333,0,0,1,.31515.10732c9.48929,9.00655,14.34483,41.38452,17.81865,55.12564,6.29717,27.00587,12.44,54.02554,17.05393,81.37366,2.87712,16.26956,5.72049,32.56578,7.64514,48.976q.45827,3.64723.89651,7.29375-2.35947,12.73578-4.70666,25.47841c-.58618-.23662-1.16914-.47938-1.76277-.70277a15.212,15.212,0,0,0-7.64894-1.19785q.21543-3.1309.3996-6.2597C471.11454,274.8515,445.87882,223.23335,437.96543,169.3553Zm22.94448,173.02807c.0941-.06809.18921-.13471.28623-.19856.12229-.08007.24735-.156.37388-.22961.06473-.03776.1277-.07809.19345-.11418q.29411-.161.60093-.29959c.06356-.02871.129-.05355.1933-.0808.14566-.06187.2925-.12119.44168-.17583.09073-.03317.18248-.06414.27424-.09461.12477-.04142.25071-.07984.37724-.1163.102-.02929.204-.0591.30712-.08532.1274-.03237.25641-.05983.38528-.0873l.0019-.00044a87.04093,87.04093,0,0,1,10.40976,4.27039c4.62133,2.65883,8.44755,6.323,12.44,9.86507,7.70095,7.2958,14.98433,15.20335,20.25292,24.47122-5.1837-10.16912-12.83191-19.369-21.1113-27.328a62.97388,62.97388,0,0,0-9.67061-7.94692,41.89327,41.89327,0,0,0-4.41181-2.22848q1.638.61473,3.23975,1.30122c.22238.0954.44767.18533.669.28293a79.56678,79.56678,0,0,1,16.50822,9.91015c.2215.17138.44037.34788.66055.52174a112.213,112.213,0,0,1,23.55915,26.24064c.43467.65331.86933,1.30648,1.29567,1.97119.23888.37191.47265.75033.70905,1.12538.5086.80921,1.01559,1.62061,1.5122,2.44567a215.39128,215.39128,0,0,1,19.2464,42.6552q.85273,2.53545,1.66458,5.09136c.08284.26284.16174.52737.244.79043q.73527,2.3541,1.43228,4.72346c10.54344,35.76142,14.79367,73.85972,15.03269,101.45673.11967,4.83144.28652,9.66287.34116,14.49416l-.04178.1274c-.34394-4.63419-.76165-9.27013-1.02815-13.92478-2.02094-22.92242-5.58257-45.78655-12.7422-67.70653-9.17487-28.26012-18.61215-56.93627-34.77176-82.125a24.07323,24.07323,0,0,0-5.10363-5.42506,34.67977,34.67977,0,0,1,4.498,5.14848c10.45315,17.20223,17.50262,36.10892,24.07739,55.06691,5.84044,17.38157,11.52937,35.04315,15.20992,53.08008,2.947,14.63157,4.57707,29.60963,5.99576,44.46919.37826,5.69842,1.25227,11.49854,1.928,17.18542a1.255,1.255,0,0,0,.00117.20441c-.46944,1.452-.942,2.90312-1.40788,4.356-3.64651-29.54424-5.9056-59.56624-15.00275-88.06173l.00015-.00146-.01446-.04435q-.50932-1.59361-1.0451-3.18138-.60027-1.77771-1.22729-3.54585c-.14333-.40588-.2909-.8103-.43642-1.21545-.15443-.42912-.30478-.85984-.46228-1.28778l-.00161.014A239.24017,239.24017,0,0,0,521.61958,434.661l-.00029-.01249c-.09847-.17862-.20163-.35424-.30054-.53263q-.75062-1.352-1.52009-2.69317-.36753-.64149-.73856-1.28135-.67523-1.15935-1.36639-2.3095c-.20206-.33787-.39726-.67939-.60108-1.01631l.00044.018q-3.55278-5.86043-7.47113-11.49234c-7.266-10.606-15.81962-20.21076-24.53265-29.65191l.001-.00315c-.24575-.26664-.4915-.52978-.7374-.79518q-3.17561-3.43476-6.3578-6.85668c-1.75634-2.13541-4.71075-5.33484-7.80717-8.99969l-.01871-.02206a100.78727,100.78727,0,0,1-7.1456-9.362l-.03755-.0575q-.37586-.57321-.732-1.1454l-.025-.03974q-.36314-.58558-.70233-1.16855c-.0149-.02542-.02893-.05085-.04354-.07627-.19592-.33838-.38352-.67545-.56557-1.01149-.03887-.072-.07861-.14421-.11674-.216q-.27812-.52127-.53212-1.03757c-.04924-.10089-.09438-.2009-.14216-.30142a17.61766,17.61766,0,0,1-1.87907-6.34947q6.84785,3.747,13.361,8.05614c-.87723-.79409-8.912-7.82244-13.25445-10.08482a6.67548,6.67548,0,0,1,.55433-1.70572,87.09862,87.09862,0,0,1,28.40505,18.77119c-7.33175-8.38159-16.68341-16.5636-27.63814-19.79576A7.7109,7.7109,0,0,1,460.90991,342.38337Zm79.83582,260.93448c-4.83406-25.23674-8.9411-50.66517-14.59014-75.73491a87.32361,87.32361,0,0,0,4.3899-9.6964,205.04436,205.04436,0,0,0,7.83771-30.531c7.55207,28.549,9.68127,58.47257,13.63476,87.87728q-5.05359,16.77048-10.04421,33.59152C541.556,606.9987,541.14285,605.16186,540.74573,603.31785ZM517.46316,494.29846q-.87838-2.89038-1.799-5.77185a446.86269,446.86269,0,0,0-21.26544-56.41313c-5.0145-10.84734-9.95581-21.73385-14.91537-32.61356a76.08179,76.08179,0,0,0,4.0239-9.3228c2.35611,2.5288,4.5306,4.93035,6.3581,7.15773a213.78212,213.78212,0,0,1,27.47143,38.44648C517.85794,455.29926,518.24234,474.82319,517.46316,494.29846ZM356.96047,110.76958a.06048.06048,0,0,0-.00672-.03368c-4.06394-16.4839-7.71893-33.09542-11.1926-49.727-1.8779-10.95794-9.12753-37.96418-3.41362-47.0847,3.5945,2.08567,4.587,6.56542,6.24355,10.26074,2.099,5.80084,3.84945,11.72909,5.53946,17.65749,4.96249,17.5504,8.6242,35.44246,11.917,53.36857,5.90327,33.083,10.776,66.38253,14.39509,99.78565q-4.287-9.17257-8.3856-18.435C367.90951,154.43847,363.0601,132.619,356.96047,110.76958ZM331.4901,147.12411c-22.21775-17.11449-45.31433-33.04187-67.948-49.58618-20.80944-15.43778-43.59057-30.36594-56.44651-53.63-2.3873-4.77007-3.26233-7.9009-3.03747-9.79612,1.2457,1.16725,2.60083,2.24025,3.83214,3.38411C221.047,49.6156,234.1963,61.7676,248.61382,72.40426,234.22,59.72613,221.39763,44.79805,206.42491,32.6093c-.29754-.20382-.587-.42794-.88065-.6463,6.21732-2.45728,29.58456,15.04987,35.26363,18.59761,26.14559,17.78037,49.80673,38.91088,71.61378,61.75462.05917.11491.11761.23041.17678.3454.2535.49325.51225.98358.7675,1.47589-3.88554-2.90218-9.246-6.41559-9.61728-6.70079,3.43363,2.898,7.15568,5.82072,10.7084,8.79887q2.82013,5.37587,5.76461,10.68086-1.13371-1.04825-2.26917-2.09063a378.51133,378.51133,0,0,0-49.87489-38.66089c-.01972-.02075-.03989.01958-.01972.033,19.337,14.41211,37.10727,30.76415,55.35576,46.42138q1.43243,2.525,2.88734,5.03722a161.33565,161.33565,0,0,0-20.17636-14.53331c7.414,5.47533,14.82129,11.56028,21.92934,17.61074.01286.00892.02864.00848.04208.01622q2.02262,3.46337,4.07782,6.90789C331.94522,147.47973,331.71891,147.30148,331.4901,147.12411ZM261.93942,160.577c-5.28963-4.23283-39.99447-35.1417-44.4602-48.8143,6.12432,4.33482,11.34915,9.927,17.216,14.60548-5.73539-5.50527-11.03415-12.211-17.67561-16.86822-.00731-.13442-.01344-.268-.01125-.39683a396.70024,396.70024,0,0,1,36.72578,25.40046c-7.98454-7.6984-16.31828-15.748-25.61764-22.09087-3.099-2.20824-6.369-4.16774-9.558-6.239a4.26746,4.26746,0,0,1,.521-.27965c.0187-.00153.03769-.00153.05639-.003,6.15618,2.37043,11.84423,5.95872,17.62908,9.09795a142.24979,142.24979,0,0,0-14.68219-9.14784c13.55286.5178,28.54567,11.165,39.29338,18.45494,18.87192,13.59019,35.773,29.38732,52.007,45.91863q-5.46823-.92661-10.9578-1.721c-3.824-3.83719-7.91077-7.44827-11.93453-11.077,3.0637,3.58749,6.50976,7.18294,9.82388,10.76962q-1.93539-.2746-3.87239-.5346c-9.7444-8.39671-19.60714-16.64381-29.8423-24.44412-.02-.02-.04675.01344-.02674.02688,8.82188,7.90755,17.53988,15.937,26.27585,23.94422q-2.85235-.36808-5.706-.71453c-6.6582-.69569-13.33816-1.26572-20.02748-1.66853Q264.51183,162.7066,261.93942,160.577Zm-49.069,13.54724.00029-.00146.01111-.00277-.00234.0073ZM388.38611,247.309c-4.35249-6.92769-11.93729-10.63608-18.6703-14.841-10.64966-6.15633-21.16506-12.47373-31.5529-19.07925-13.06114-8.144-26.10914-16.37439-38.86288-25.02212,6.071.30946,12.1417.64886,18.19926,1.09668q2.96654,2.62015,5.95659,5.21481c9.56994,8.34273,20.00483,15.86039,29.09847,24.63895a1.64236,1.64236,0,0,0,1.77709-.342,1.62521,1.62521,0,0,0-.32845-2.54838c-1.67671-1.62288-3.52086-3.085-5.3317-4.55354-5.7069-4.56026-11.33329-9.2144-17.07394-13.73448q-4.8741-4.13115-9.70159-8.32979.95379.07954,1.90669.1648c5.1853,4.07716,10.5487,7.90931,15.89983,11.765-4.42321-3.90621-9.2412-7.85546-13.99067-11.59234q3.75311.34979,7.49582.77845c9.57112,10.16065,19.09533,20.36725,28.85638,30.29683,3.77581,3.514,7.23619,8.26215,12.32623,9.79787,5.98859.00672,2.70924-7.43723,1.37471-10.62943-3.03039-8.01888-6.49427-15.82072-10.26482-23.46937q1.25182.3408,2.50075.70021a2.18635,2.18635,0,0,0,2.75614-1.27353,2.161,2.161,0,0,0-1.27419-2.75629c-3.01782-.89862-6.05566-1.73691-9.12052-2.48132-.73652-.18058-1.47567-.34583-2.21424-.51465-.21244-.04785-.42443-.10206-.63746-.14852l.00015.00036a202.98417,202.98417,0,0,0-22.39221-3.56776l-.00029-.00036c-.047-.00526-.09409-.00965-.14114-.01483q-1.33993-.14553-2.68089-.2825c-.36425-.0366-.72893-.0713-1.09332-.10658-8.69608-.84873-17.43146-1.40781-26.12024-2.11861q-6.35934-.43942-12.72948-.75859l-.00731-.005c-.19812-.01008-.39624-.01754-.59436-.02732-.40968-.01987-.81965-.03755-1.22948-.05655q-2.67681-.124-5.35347-.2177c-2.58958-.09109-5.17946-.16561-7.76933-.20893-13.15918-.88584-49.38624,1.64589-61.83688-5.86038,20.60518-.44833,41.64328.80066,62.3107-.752-21.46677.53818-43.24767-2.70084-64.79991-2.27677a1.74561,1.74561,0,0,0-.173-.05881c.00614-.00832.01418-.0157.02031-.024,6.9217-1.76145,14.40488-1.85174,21.32549-2.885-1.47991.18147-11.42622-.25656-17.93977.42181,8.79339-3.97715,28.685-2.90327,36.2017-3.17883q6.53554.15693,13.053.53409c.53767.03,1.075.06626,1.61272.09884.92777.057,1.8554.1147,2.78244.17811q1.35485.09359,2.70793.19841,12.88764.96978,25.69449,2.74526l.00293.0027c1.28909.16758,2.57833.355,3.86742.5479q8.32257,1.22642,16.60553,2.77163,2.44822.456,4.89674.93888c.65061.14756,1.30108.28848,1.95154.42926l-.00058-.00073c9.77,2.13986,19.71393,4.12574,29.20249,7.33539.62271.21113,1.24512.4224,1.86329.64389.34467.12353.68626.25474,1.02947.38178.57638.21353,1.152.42911,1.72419.65353,1.463.57273,2.91423,1.1763,4.34709,1.82632a2.37248,2.37248,0,0,0,3.62241-.09752c2.19787-3.69013-6.58441-5.92219-10.65317-7.23261q-4.175-7.48593-8.61412-14.832l.01885.015c-.61569-1.02471-1.24-2.04322-1.86125-3.06377-.19183-.31559-.38265-.63161-.57507-.94676q-.89416-1.46377-1.79608-2.92395-3.40508-5.52861-6.87356-11.01793c-5.01245-8.4363-9.92088-16.96436-14.64946-25.59747q-1.19376-2.18479-2.37524-4.37632c-.23567-.438-.47266-.87532-.7073-1.31393q-1.5946-2.98077-3.15969-5.9834c-6.42691-12.34464-12.41273-24.91977-17.71608-37.77885-5.61325-13.352-10.28747-27.15365-12.79567-41.45129-1.01924-7.8128-3.94983-17.31546.06706-24.63888a5.8565,5.8565,0,0,1,1.98339-1.66816c1.471,3.8542,7.1402,13.11937,7.3934,13.83872-1.81069-4.70469-4.331-9.45912-6.423-14.17688,4.682-1.05737,10.29215,5.79062,13.27534,9.28927,11.85007,16.16224,18.63012,35.523,25.41017,54.28729,10.73,32.31747,21.02407,64.80268,34.62449,96.07389q2.79427,6.68829,5.72356,13.31669l.01037.05566c.45088,1.0283.91462,2.052,1.37,3.07875.52043,1.17221,1.03867,2.34536,1.56436,3.51523q1.21743,2.70914,2.45882,5.40761c.55433,1.21136,1.10412,2.42477,1.66371,3.63372.02644.057.052.11433.07846.17131l.00029-.00306q3.36453,7.26489,6.85705,14.46989l.00321.03215c.38294.79408.77115,1.58547,1.15672,2.37809q.27045.55568.54059,1.1115,1.49577,3.063,3.01724,6.12038l.00175-.0035q5.20831,10.498,10.62088,20.89366c8.42959,16.4541,16.13653,33.25745,23.89213,50.03882q.12646,2.23926.284,4.47355c-4.30779-3.874-8.68717-7.66881-13.07356-11.45559C401.54369,270.05257,394.85116,258.72921,388.38611,247.309Zm-48.65753-55.55067c6.82783.95217,13.61825,2.16989,20.35081,3.77764,4.85189,9.81884,9.1889,19.92031,13.06334,30.132C361.65237,214.82451,350.67265,203.33137,339.72858,191.75832ZM286.2028,324.11574c-4.76905-.35139-37.45149.67274-43.52928-5.22293,9.95968-2.97486,20.73821-3.99344,30.64156-6.7021q-7.89081,1.0342-15.82006,1.7643c-1.89836.33349-11.04978.5712-15.66161,2.03745.38389-1.26433,1.61761-2.72919,3.93054-4.43088,13.92879-8.8053,31.21094-10.80366,47.31942-12.29248a161.74989,161.74989,0,0,1,21.99728-.00388c1.44908,1.71945,2.7503,3.3012,3.795,4.69154q3.36146,3.92514,6.86639,7.68678a50.86582,50.86582,0,0,0-6.25523-1.3414c-11.54325-1.9565-23.32758-.73374-34.94636-.1545,14.36017.36811,29.28227.01366,43.38106,3.80964q2.28714,2.40855,4.62571,4.75882a90.85953,90.85953,0,0,0-12.00012-1.59687c-4.22071-.225-8.71639-.59027-12.80911-.69086,9.80137,1.56333,19.899,2.39482,29.04543,6.46417q1.8166,1.75568,3.6601,3.48083C322.42452,324.67094,304.30592,324.02668,286.2028,324.11574ZM529.23755,609.79605q-4.94445-21.308-10.26789-42.54358,1.59351,1.89286,3.187,3.78531c1.09024,1.58262,3.1404,1.88112,4.15131.147a2.17927,2.17927,0,0,0-.80227-2.8289c-1.831-2.10422-3.60663-4.26673-5.448-6.365q-1.74078-2.09451-3.48726-4.18477l-.00087-.0038c-.10579-.12667-.21259-.25276-.31837-.37929q-2.49885-2.9913-5.01114-5.97223c-.40384-.4801-.8049-.96123-1.20918-1.44119l.00351.01359c-18.32125-21.69747-37.22956-42.92389-57.88442-62.43839-25.97677-24.64093-54.97968-45.82622-84.99511-65.25868-4.39019-3.71511-54.99561-32.02045-56.21735-43.04853,4.27915,2.64759,8.732,5.02715,13.07839,7.55894-3.96649-3.19709-8.45618-6.33515-12.76309-9.31754.02527-.04559.05362-.09008.08182-.13464,1.06847.23012,2.12847.49194,3.18292.76384,7.82193,1.98748,14.96651,5.76958,22.11723,9.456-7.39954-4.62608-15.36831-9.21066-24.01574-11.383a9.4302,9.4302,0,0,1,3.0244-.97818c20.03245-.31559,45.91994,19.51655,62.31566,30.67225a463.49224,463.49224,0,0,1,63.87667,54.96529c18.86915,19.37746,36.01074,40.66963,53.32839,61.45613q6.00978,7.33371,11.91,14.76094.991,1.23978,1.97725,2.48147,6.24209,7.8632,12.41477,15.779a2.15127,2.15127,0,0,0,3.02454.24166c2.45955-2.49125-2.363-5.66029-3.74835-8.128q-5.20327-6.63021-10.46119-13.22025-5.77045-20.91413-12.28123-41.60734-1.00791-2.89924-1.98119-5.823,2.87185,2.04771,5.73524,4.10046c2.55072,1.2891,4.41518-2.58841,1.95636-3.81855q-4.97227-3.6444-9.99482-7.22458l-.001-.003c-.83777-.60378-1.67555-1.19843-2.51332-1.79689q-1.23649-.883-2.47182-1.76722c-.283-.20185-.56616-.40508-.84917-.60714l.00073.00233q-6.33939-4.51829-12.66373-9.05477c-20.02251-14.31488-39.31479-29.76683-56.3861-47.54756-4.84283-5.21664-10.14093-10.8109-13.80906-17.04546-.69094-1.53236-1.851-3.17086-2.10042-4.87731,4.90653,4.03253,10.254,7.65091,15.42923,11.37194-4.99128-4.06109-10.46528-8.01172-15.46459-12.27984.006-.08956.01052-.17913.02279-.269,10.76056-1.18507,53.01281,41.48913,62.24217,50.91012,6.26634,6.64819,12.83848,13.26905,19.60173,19.67777l.00877.02484c.46184.43766.92806.86919,1.39166,1.30451q.47622.4473.953.89329,1.70986,1.59537,3.436,3.16962c.26752.24422.53314.49121.80125.73455l.03725.03419-.00044-.00117q4.42153,4.0129,8.92489,7.8551a2.14594,2.14594,0,1,0,2.88369-3.17876q-3.48046-2.98736-6.894-6.04228-3.91746-3.51083-7.75048-7.10631c-4.67-13.68509-9.84536-27.17776-17.07468-39.65082-10.30076-12.96311-24.73925-21.87572-37.72252-31.915-16.89993-12.23228-34.00091-24.18281-50.62573-36.7973-10.22712-7.72448-20.37711-15.59609-30.09052-23.96745q-1.0809-.93165-2.15419-1.87366-.3774-.33039-.75449-.66128-1.3086-1.15354-2.60434-2.32126l-.00161-.00014c-4.30457-3.87305-8.50921-7.85824-12.57271-11.99728-1.20771-1.26447-7.27462-7.61256-14.0367-15.35077l.00059.00007q-1.00485-1.14533-2.022-2.33163l-.0038-.00438q-1.01669-1.18511-2.03833-2.39862l-.00613-.00044c-9.1984-10.89849-18.16215-22.97634-16.93135-27.40335.29528.4492.64842.808,1.2682.63921q16.53357,14.653,33.633,28.63882c-7.65288-7.91368-15.77886-15.91737-23.96138-23.47192-2.91744-2.40074-5.55539-5.44245-8.73714-7.49933a8.23524,8.23524,0,0,1,2.33507.06575c8.81867,1.784,16.27592,7.47083,23.55229,12.46693,8.82553,6.47812,17.14115,13.50633,25.44348,20.662q2.03949,1.80883,4.06788,3.62928l-.0038-.00117q3.29265,2.92775,6.57375,5.89019,14.56662,13.1205,28.90254,26.4877l-.00029-.00007q3.6216,3.36978,7.23619,6.75988l.00818.00285q7.60658,7.12387,15.17486,14.28807c12.09816,11.39408,24.29,22.68741,36.415,34.04109,2.52822,2.20635,7.76583,8.47006,10.30748,3.29272.60357-5.61975-2.78317-10.95123-4.47288-16.20235q-2.08619-5.39439-4.34929-10.70614c.09453.05983.19053.1174.28491.17745,2.42112,1.59606,4.62747-1.965,2.45458-3.52759q-4.17476-2.72744-8.50424-5.1834c-.31063-.17774-.62285-.35233-.9345-.52795q-1.06994-.60237-2.14746-1.19084c-.12872-.06991-.2554-.14348-.38441-.2131l.00248.00556a294.33758,294.33758,0,0,0-32.03169-14.59168q-4.82544-1.92706-9.7552-3.57229-3.21375-3.0027-6.43626-5.996c4.42642,1.41066,8.83093,2.90444,13.24012,4.36017-5.057-2.43186-10.51291-4.819-15.90787-6.84295q-1.45566-1.35287-2.90927-2.70749c3.97511,1.46589,7.93458,3.09453,11.7871,4.76459,8.77045,4.09075,17.89331,7.30085,26.83179,10.99828-10.62717-5.29861-21.73736-10.61789-32.70642-15.50528-3.31748-1.20158-6.50405-2.813-9.8566-3.89957q-5.26464-4.866-10.5544-9.70524a314.73293,314.73293,0,0,1,46.0583,22.73431A189.77468,189.77468,0,0,1,441.513,349.58639a63.66075,63.66075,0,0,1,7.10192,6.47148l.01665.01651a.56034.56034,0,0,0,.06385.06384l-.00073-.00153a2.16456,2.16456,0,0,0,3.62884-2.10415,55.48336,55.48336,0,0,0-8.5231-8.20619c-7.3671-15.097-15.4979-29.82593-23.90162-44.411a2.20818,2.20818,0,0,0-.85005-1.48122l-.00832-.01454c-.00672-.00664-.02031-.01337-.027-.02009q-3.21573-2.35431-6.46461-4.65121-.53277-.3786-1.066-.75661c-.41187-.29119-.82184-.586-1.2343-.876l.01139.01973q-2.62727-1.85037-5.26361-3.68567c-15.27041-10.52124-30.74654-20.82361-46.90368-29.93676-16.413-9.29058-33.40245-17.93991-51.68514-22.875-22.42843-6.36306-45.65651-10.055-67.40482-18.65649-6.02819-2.21862-11.6147-7.6309-11.49226-12.39278,15.29846,3.34875,30.26249,8.43681,45.37014,12.63612-1.66736-.96825-37.37172-14.53981-44.99114-14.505.81191-2.09932,2.99875-3.9488,7.10893-5.15944,18.12313-3.97116,53.07928,20.31882,72.23422,27.112,15.0999,6.565,31.43762,10.04654,46.01827,17.81916,17.69519,9.42551,32.182,23.705,47.42688,36.55579q2.01406,1.76117,4.04217,3.50749l.00263.0046q.31406.27176.62855.54308l.23932.20681c3.09788,2.67718,6.20161,5.34522,9.269,8.0595q2.26392,2.00311,4.4951,4.04195c.9006.73594,1.55135,1.9378,2.80991,2.07923a2.13057,2.13057,0,0,0,2.13358-1.29654,2.17839,2.17839,0,0,0,.80227-.47543l.00263.00577c.01388-.01271.02382-.02907.03741-.04215a2.19988,2.19988,0,0,0,.19958-.224c.03448-.04362.0691-.08606.10022-.13216a2.15794,2.15794,0,0,0,.12346-.21791c.031-.05983.06385-.11769.089-.18037a2.08918,2.08918,0,0,0,.066-.21828,1.98019,1.98019,0,0,0,.05552-.20981,2.0114,2.0114,0,0,0,.019-.32348c0-.04106.00964-.08021.00716-.12171-.02981-.50845-.057-1.01909-.08664-1.528q-.70876-12.1035-1.26236-24.22182c-.61861-12.6652-.71636-25.456-3.33984-37.91049-3.6655-17.62958-9.75389-34.6334-15.62545-51.61807-10.24422-30.08513-22.91979-60.31614-24.20947-92.47582.05348-2.71706.33561-14.63938,4.65187-13.65747,7.27973,4.40348,10.00154,22.63715,12.61713,30.84166,4.583,18.55838,8.9354,37.14554,14.58561,55.64227,12.64621,42.86991,33.781,87.9664,18.53355,132.95733-.46316,1.52184-.95714,3.0374-1.4954,4.53644q-.20184.56389-.41348,1.122-.07275.19265-.14713.38463-.18123.47074-.36994.93771-.07318.18145-.148.36249c-.15414.37373-.31106.7463-.47382,1.11646l-.03346.07649q-.28578.64717-.59027,1.28712l.002.00431c-.08182.17358-.16043.34861-.24458.52109-.7862,1.2091-.96474,2.94411.51648,3.71518a2.13247,2.13247,0,0,0,1.76788.07707c.567,1.19822,1.13057,2.39819,1.70038,3.59574,9.50829,18.03292,18.581,36.281,27.37311,54.669-.11367,2.01378-.21858,4.02778-.29981,6.04273a2.10527,2.10527,0,0,0,3.76442,1.23788l.00453.00964c.01519-.01731.02571-.03893.04032-.05668.04471-.05377.08241-.113.12215-.17139a2.167,2.167,0,0,0,.12565-.197c.03273-.062.0564-.13.08343-.19608a2.0973,2.0973,0,0,0,.08766-.23019,2.27692,2.27692,0,0,0,.04135-.2307,2.17465,2.17465,0,0,0,.03871-.246,2.57085,2.57085,0,0,0-.02191-.49983c-.001-.008.00015-.015-.001-.02308l.0035-.06246c.06575-1.28968.14173-2.58118.21741-3.87262.10183.13471.20937.26811.31208.40267q.59283.77825,1.20523,1.55428c.146.18453.29557.36906.44314.55337q.62328.77944,1.26323,1.55552c.05085.06137.09906.123.14991.18446l-.00366-.00782q1.04517,1.26237,2.12365,2.51412c-.07875.5113-.16,1.02223-.238,1.5336l-.00424-.00935c-.06283.4118-.12361.82375-.186,1.23555q-.09534.63195-.19009,1.26367c-.26445,1.76284-.52481,3.52641-.77085,5.29335l.00584.01234c-.16334,1.145-.33765,2.28912-.4953,3.43452a2.15621,2.15621,0,0,0,1.94482,2.32717,2.07826,2.07826,0,0,0,1.13013-.22135l.00321.0068c.02046-.01023.03887-.02353.059-.03434.0225-.01227.04427-.02557.06648-.03872a2.14411,2.14411,0,0,0,.29747-.208l.00263-.002a2.17312,2.17312,0,0,0,.2703-.27768l.03053-.03842a2.21947,2.21947,0,0,0,.36381-.67735c.00774-.02338.01475-.04661.02177-.07028a2.24416,2.24416,0,0,0,.08182-.38323l.00116-.00994c.34905-3.03915.757-6.07,1.18975-9.09787,2.59338,2.85571,5.22913,5.63954,7.75063,8.30839q-1.49511,4.00534-3.25174,7.90733-.39711.88177-.81293,1.75794-.2139.451-.43335.90016-.38375.78942-.78269,1.57342c-.22866.45008-.4541.9014-.69006,1.3487a3.81609,3.81609,0,0,1-.59684.75113,2.15315,2.15315,0,0,0-.24809,3.02454c1.02376,1.00127,2.14834.78642,3.32815-.31792q3.41186,7.43715,6.79159,14.89039c10.8038,23.0228,20.68218,46.36038,27.95855,70.83174q2.823,9.14792,5.32059,18.3938c-.391,5.56532-.88759,11.126-1.53177,16.68-.20806,2.89713,3.97,3.07816,4.27184.38893.18834-1.52359.35913-3.04879.52131-4.57487l.002.00775c.37987-3.53928.68669-7.08337.94033-10.6317.01213-.16846.02309-.33706.03478-.5056.04675-.66661.09526-1.33314.13807-2.00012l-.005-.018c.94209-14.58357,1.02055-29.23413,1.11114-43.83428q-.11967-9.44092-.3527-18.877c.90994,1.81062,1.80426,3.62957,2.66351,5.466.20849,1.51585.24692,3.10351.361,4.62126.30127,6.91717.596,13.89336.83762,20.83245.43467-6.802.69678-13.97665.85764-20.91332q.81266,1.84641,1.59519,3.70663.81241,1.81629,1.57736,3.64484c-.95977,9.88173-1.84357,19.91315-3.092,29.756-.84683,5.71807-1.39561,11.477-2.30029,17.18812a.85372.85372,0,0,0,.74441.939.86426.86426,0,0,0,.93887-.74449c.51649-3.72825.90674-7.48756,1.36814-11.22627a329.02761,329.02761,0,0,0,2.88136-34.58548q2.97881,7.27236,5.30452,14.71141a206.43389,206.43389,0,0,1-8.93131,38.32609c-.7244,1.90676-1.49306,3.81921-2.34939,5.69068-.0507.111-.1011.22223-.15253.333-.57215,1.23138-1.18448,2.44318-1.85263,3.62094-.03828.0675-.07875.13325-.11732.20046a33.94837,33.94837,0,0,1-3.54219,5.10319,2.70935,2.70935,0,0,0-.98578,3.15194c1.40364,2.16924,3.33618,1.0378,5.28436-1.43578q2.20541,9.77208,4.091,19.60976c4.07037,21.65729,7.36725,43.47121,12.43377,64.91869q-2.62137,8.77162-5.269,17.53842C532.67469,626.40815,531.0687,618.08245,529.23755,609.79605ZM410.2988,345.46861A242.51532,242.51532,0,0,1,447.08274,362.809c3.867,8.77995,7.39442,17.70484,10.45169,26.80695C441.7034,374.99517,426.02506,360.2072,410.2988,345.46861Zm87.01707,272.5291c-3.47381-10.62936-7.49757-21.14475-13.20462-30.80178-5.72034-9.82475-13.45271-18.28808-21.17835-26.5568a457.6496,457.6496,0,0,0-36.71-35.2415c-17.41627-16.24253-34.7855-33.196-47.125-53.75064-1.61359-3.16926-4.26629-7.75238-5.29342-12.12461,8.36136,9.07647,16.28249,18.69251,24.51469,27.916-7.16635-9.07077-13.68706-19.0192-21.14271-28.04986,16.64864,13.98519,30.54741,30.83085,45.90841,46.20748-11.50994-12.81481-22.61064-26.53336-34.54384-39.12456-4.60526-4.471-9.66462-8.42951-14.08345-13.097a1.15218,1.15218,0,0,0-.5517-.29747,7.1464,7.1464,0,0,1,.50436-1.06585c7.04143-2.50148,20.53461,13.87525,25.99357,18.64328,20.29982,20.52131,39.96247,41.85381,60.249,62.422,13.11082,13.62043,26.255,27.58963,35.30183,44.34842C512.4469,610.011,518.75941,646.811,519.08,683.23242q-.40873,1.25776-.81966,2.51449c.01885-.27643.03434-.55374.04953-.83193.08051-1.62952.10052-3.25919.09395-4.88885-.01344-1.69-.10067-3.3733-.18789-5.05644-.07393-1.58948-.16759-3.17883-.3153-4.76145-.16072-1.77051-.37535-3.5343-.60342-5.298-.23479-1.75034-.46958-3.50742-.74441-5.251-.54307-3.4538-1.19383-6.88072-1.88447-10.30749-.67735-3.38674-1.4485-6.75331-2.26-10.11316-.798-3.28607-1.643-6.5587-2.59528-9.80445-1.90464-6.50507-4.13787-12.91635-6.58573-19.23368q-1.94153-4.99946-4.11084-9.90511c-1.39487-3.172-2.82335-6.33077-4.37251-9.43567a186.75958,186.75958,0,0,0-10.64952-18.68374,136.29687,136.29687,0,0,0-12.83585-16.97357,82.9639,82.9639,0,0,0-7.39691-7.32985q-1.99192-1.7101-4.12442-3.25261c-.83164-.60342-1.69673-1.16023-2.5551-1.71675a.03471.03471,0,0,0-.02046-.00613.63372.63372,0,0,1-.0599-.04077c-.03361-.02016-.06721.03346-.04033.05348l.06078.04354a.03326.03326,0,0,0,.013.01695c.57668.39565,1.13319.81819,1.69,1.2473a70.83982,70.83982,0,0,1,6.59888,5.85462l.38236.38235a103.33717,103.33717,0,0,1,8.42973,9.75755q.2516.33509.5029.67048a156.20683,156.20683,0,0,1,10.35438,15.85381c1.43535,2.52807,2.89042,5.16383,4.27872,7.83961,1.63638,3.13164,3.17883,6.31047,4.67422,9.50946,1.509,3.2323,2.95748,6.49163,4.31889,9.79114,2.01188,4.91559,3.9434,10.01235,5.68689,15.17618,2.10378,6.21812,3.97481,12.51588,5.67271,18.85381.28929,1.09068.59772,2.25091.87269,3.41771.81147,3.38659,1.58262,6.79349,2.23308,10.22041.63644,3.34144,1.14168,6.70874,1.60688,10.08321.38016,2.91364.67413,5.8343.93493,8.76139.1407,1.58262.28155,3.16524.39551,4.75487.114,1.67642.17445,3.36628.23494,5.04972q.09028,2.42433.1407,4.85525c.01344.68406.00672,1.37471.06691,2.0655.031.35825.0846.71036.13457,1.06219l.00117.00745.012.08386c-.005-.00526-.0022.03521-.00088.07437a2.36851,2.36851,0,0,1-.01929.25423c-.02381.19519-.06837.41275-.08035.63044a.82816.82816,0,0,0,.59465.835c-.104.31544-.21113.62972-.3153.945C510.76215,666.50285,505.1381,641.94331,497.31587,617.99771ZM389.05,587.50436c-4.12486-8.69681-15.24382-29.527-15.316-40.09338,4.18959,6.1854,7.8643,12.69267,11.59848,19.15756-3.05026-6.6804-6.27525-14.01624-10.478-20.17694a1.54438,1.54438,0,0,0,.56762-.28608c6.98737,5.63575,11.96141,13.14677,17.0551,20.47778-3.29951-6.55987-6.89606-13.53716-12.14492-18.93855a50.504,50.504,0,0,0-3.73753-3.51765c5.58358-.17182,14.63485,7.473,18.10867,10.4026,18.60981,16.41691,31.43222,38.2995,41.49819,60.7386q1.43088,3.19972,2.77265,6.43451a65.65731,65.65731,0,0,0-19.74739-.85224c-4.28982-10.22464-8.98523-20.28477-13.92785-30.23459q-3.22887-6.81014-6.57871-13.56c1.64983,4.37222,3.68859,8.91261,5.4724,13.37206,4.37485,10.18461,8.698,20.39055,12.78179,30.68971a76.71439,76.71439,0,0,0-9.34976,1.86212C401.53887,611.10034,395.17858,599.35619,389.05,587.50436Zm160.99711,274.7757c-37.44112,12.70157-74.31213,27.536-108.9432,46.73609-4.75458,2.60814-9.42617,5.35843-14.0364,8.20882q.84179-1.30137,1.68256-2.60244c2.30686-1.66751,4.82383-3.00789,7.28747-4.4501,21.74072-11.42753,42.90461-24.18975,65.692-33.42817,1.62879-.72557,3.51151-1.40481,4.98528-2.16851-19.74082,7.31231-38.613,16.6875-57.13051,26.65076-6.32522,3.532-12.82825,6.72263-18.98662,10.5395q.26234-.40589.525-.811c3.55827-3.14814,8.06666-5.10976,11.968-7.80439,10.03909-6.5007,19.82965-13.19367,30.60745-18.509,25.12424-12.76952,50.37384-25.32119,76.18989-36.63623,17.56516-7.78175,34.71654-16.35364,52.77159-23.00263,2.05162-.79526,4.10119-1.599,6.124-2.46437,2.17128.57142,4.242,1.20581,6.2361,1.88667-4.16183,1.68284-8.30511,3.40047-12.42778,5.19143-9.28956,3.92675-18.67687,7.67612-27.90142,11.71171,14.43512-5.47941,29.3543-10.96773,44.28765-15.44837a77.19,77.19,0,0,1,17.22823,9.49412C607.412,844.11163,578.37884,852.1647,550.04713,862.28006Zm-93.99,6.61582c.11922-.0789.23786-.1594.35708-.23815,29.74207-19.26262,60.98654-39.97635,95.97177-47.16725q-3.555,1.84794-7.09345,3.72424c-33.04859,17.63075-65.37936,36.87087-95.31619,59.43752q-2.549,1.942-5.06374,3.9323Q450.64276,878.8289,456.05715,868.89588Zm118.48129-49.99849a136.65319,136.65319,0,0,1,24.6006,1.60819,366.77964,366.77964,0,0,0-52.585,20.867,362.25851,362.25851,0,0,1,55.71606-20.31q3.06428.59217,5.91349,1.32475c-2.774.92587-5.62537,1.88769-8.40095,2.7427-30.35045,10.47989-59.27929,24.75152-88.52313,37.93656-16.19965,8.06652-32.72351,15.57534-48.43238,24.57912-8.65094,5.06141-16.55337,11.28289-25.15507,16.42378-.49574.3771-1.90435,1.16461-3.49749,2.12438q.9529-1.5043,1.8985-3.01329c12.89488-8.95425,25.9306-18.01838,38.56395-27.09492-10.787,6.702-21.08762,14.13459-31.861,20.85678-1.62864,1.01441-3.21886,2.083-4.79914,3.167.11264-.18263.22427-.36585.33662-.54848,4.86387-4.18185,9.88407-8.18851,14.97558-12.05185,29.206-21.87586,60.57788-40.60636,92.75451-57.82816q9.7609-5.26815,19.74666-10.23166Q570.12517,819.02187,574.53844,818.89739Zm119.25083-38.13863c6.60253-.19126,22.58551-.61905,29.92251,4.55164-8.121-2.49929-16.87641-1.98675-25.2981-1.663,8.16937.417,17.07979.1049,24.99522,2.92373-9.96033,1.00813-19.724,3.86435-29.51925,5.85534,10.66018-1.28909,21.51571-3.84975,32.38337-4.544a8.32713,8.32713,0,0,1,.92017,6.77844c-5.345,9.83819-17.148,13.8618-26.67763,18.61653q-5.92629,2.40417-11.90647,4.65026a64.542,64.542,0,0,0-16.25839-11.68585c2.1257-.52685,4.29815-.94954,6.37738-1.57385-2.33608.35431-4.92435.55856-7.41677,1.04729a85.44106,85.44106,0,0,0-8.54808-3.65178c8.75613-1.89061,17.76152-3.62532,26.29879-5.64261-2.06448.4823-21.11188,2.31666-29.56689,4.51132a115.83963,115.83963,0,0,0-12.80648-3.34934c9.17092-1.95694,18.5933-3.77392,27.613-5.55524-9.50347,1.05532-18.94425,2.53392-28.37408,4.11113-.4991.16729-2.0709.33634-3.6899.6135-5.76272-.98125-11.55567-1.61739-17.21275-2.00983C647.3058,787.44617,670.24239,782.39281,693.78927,780.75876ZM568.17421,803.41249a241.10619,241.10619,0,0,1,32.82753-4.36375q1.23255-.07605,2.46992-.14c.24459-.01256.4899-.02308.73492-.03462.91944-.04325,1.8402-.083,2.76345-.1144.03915-.00147.07831-.00322.11747-.00453q1.60643-.05392,3.2193-.08285l.15253-.00292q1.63581-.02849,3.2773-.0317l.00059-.00015c26.5514-.03623,53.69395,5.30263,71.13944,21.68155l.00307.00292q.66054.62284,1.30487,1.274c.35168.35592.69576.72089,1.03736,1.08835.07349.07889.14946.155.22252.23464,5.74444,6.2605,9.9352,14.12874,9.99978,22.77632a30.05894,30.05894,0,0,1-4.294,16.00927c2.0243-8.64611-1.94044-17.5146-5.79851-25.25807-.00658-.02689-.04676-.00672-.04.01344,3.31193,8.10348,6.90087,17.12245,4.16562,25.76521a19.54647,19.54647,0,0,0-1.14576-7.25665c-3.01957-11.28888-12.40878-18.7511-21.47334-25.30249q-1.86066-1.36843-3.72162-2.73642c1.39985,1.31422,3.243,2.6641,4.78147,4.00374,7.32458,6.16772,14.836,12.66652,18.14023,21.98983,1.5271,4.11581,2.88851,8.68878,1.66181,13.11637-.024.10155-.062.19579-.09059.29485a23.879,23.879,0,0,1-2.13066,1.97929c.64272-6.78662-3.95874-13.00007-7.13567-18.68739,2.587,6.05069,7.15422,12.82285,5.6825,19.78407a21.36458,21.36458,0,0,1-2.83884,1.66838c-11.66584,5.34631-20.28258-17.53316-37.97514-34.11356l.00424-.00131c-.0713-.06692-.14611-.13135-.2177-.198-.4899-.4557-.98432-.908-1.48838-1.35323-.09088-.08036-.18337-.1594-.27483-.23932q-.72519-.63447-1.47129-1.2514c-.073-.06034-.14274-.1236-.21609-.1838l-.00409.00132a57.16463,57.16463,0,0,0-14.72281-8.94067,110.3073,110.3073,0,0,0-50.93912-10.265l.00482-.00233c-.039.00116-.07816.0035-.11732.00467q-1.28975.03879-2.57965.1049c-.22149.01111-.443.02543-.66449.0377q-1.01119.05566-2.02225.12653-.37914.02673-.75829.056-1.07673.08219-2.153.18175c-.15546.01447-.31106.02732-.46652.04237-28.01567,2.68616-55.70875,14.0741-79.43914,28.91336-9.24675,5.43718-18.35354,11.11749-27.361,16.95691q1.47911-2.77477,2.93877-5.56035c.23494-.18351.46111-.39683.67676-.53943,15.2748-10.06524,30.89163-19.74739,47.23885-28.00574,34.66861-15.90042,74.2404-25.69741,112.10888-16.61108a159.37194,159.37194,0,0,1,29.08488,9.141,133.742,133.742,0,0,0-29.76238-10.51554c-44.43784-11.37829-91.40931,3.36877-129.92723,25.9458-8.77834,5.25733-17.546,10.55309-26.08065,16.20271a11.548,11.548,0,0,1-1.64662,1.14635q.90864-1.74823,1.80923-3.5007C493.39249,826.50746,537.6271,809.78841,568.17421,803.41249ZM748.705,528.18548c.03.03536.06035.06984.089.10636-.04558-.00131-.09029-.00087-.13558.0019C748.67633,528.258,748.68992,528.22186,748.705,528.18548ZM516.221,754.69827c18.50257-15.69266,36.62292-31.85476,53.97885-48.81489,25.79209-25.685,49.87431-53.03983,74.77471-79.5832,12.93228-12.38321,80.1479-94.57017,99.85307-98.82609a5.38374,5.38374,0,0,1-1.02011,1.31174c-7.29376,9.25537-14.02705,18.96792-22.06376,27.62309-11.60622,12.85134-22.6343,26.156-34.12115,39.12455,18.66285-19.7696,38.80575-38.78924,55.30681-60.6109,1.23884-1.56728,2.59879-3.03155,3.938-4.51336-7.37572,17.90719-19.8149,33.05385-30.76817,48.86646,9.02161-11.60023,18.73108-23.0545,26.83164-35.4963a102.5009,102.5009,0,0,0,6.56629-12.0666c.03054,13.79124-21.36274,47.3512-27.13232,57.85709C696.586,632.32252,662.109,669.44835,623.28641,700.6861c-21.64107,17.58386-45.73,31.87477-69.42328,46.49443-15.42426,9.0669-31.41863,17.22181-46.23962,27.28121q-3.64,2.47124-7.15978,5.1159,2.55385-5.47327,5.06418-10.96628a.93319.93319,0,0,0,.92134-.14216c6.60589-3.983,13.96686-6.71839,20.33985-11.17989A392.06859,392.06859,0,0,0,562.728,730.37075c32.9713-25.75937,61.43524-56.73091,86.33637-90.26648,2.77718-3.72132,5.81268-7.5189,8.45033-11.19245q-3.85281,4.63719-7.7122,9.26809c-14.73128,17.60723-29.61525,35.167-45.85069,51.45707-16.008,16.29491-33.62352,30.836-51.35713,45.22a367.10018,367.10018,0,0,1-33.202,24.00258c-3.26226,2.04651-6.65426,3.7596-10.08658,5.52559-.45468.36672-1.51979.83748-2.48731,1.39136q1.17054-2.57752,2.32981-5.16C511.51548,758.65657,513.88152,756.69554,516.221,754.69827Zm-10.7572,3.67164q-1.81859,4.04064-3.666,8.07031c-7.95079,17.35287-16.24129,34.56751-24.65436,51.7262q-6.81277,14.38756-14.13576,28.53231-.5446,1.0524-1.09448,2.10246-1.85649,3.56331-3.74557,7.10967c-.30945.58048-.61467,1.16329-.92558,1.7429q-2.3415,4.372-4.73267,8.71712c-.46783.84917-.94238,1.691-1.4124,2.53727q-9.86785,17.787-20.57421,35.089c-.44621.71987-.89914,1.43491-1.34739,2.15317q-5.15988,8.26668-10.51028,16.41223l-.00029.00015c-.25481.388-.51386.77392-.76954,1.16154q-2.37722,3.59836-4.79505,7.16971c-.21142.31179-.41991.62563-.63206.93683l.01023-.00686q-12.333,18.1801-25.68178,35.65074c-7.78906,9.53794-15.96515,19.14046-26.04544,26.669-1.72128-2.08931-3.38162-4.22947-4.96015-6.42413a8.10783,8.10783,0,0,1,.89344-1.196c4.16621-5.57015,8.24344-11.20107,12.31249-16.8396-4.94685,5.08362-9.93214,10.59181-14.48641,16.21938q-.68113-.98907-1.3376-1.993,2.26611-2.53961,4.40861-5.18734c6.70129-8.45063,13.52751-17.15241,19.97809-25.62436-7.93838,8.38-15.65847,16.86326-23.16642,25.62684-.887.97993-1.74377,1.9869-2.6245,2.97107q-.36359-.5902-.71855-1.18522c3.49-3.66185,6.84477-7.45432,10.37952-11.08024,14.2332-15.50433,27.06818-32.2244,40.63806-48.2984l-.005.007c-.01154.01228-.02089.02426-.02936.03434,6.61991-7.81463,14.07263-15.42631,21.13408-22.72883-26.76954,24.51191-48.40506,53.80733-73.18946,80.21423q-.41246-.732-.8103-1.47158c9.77478-14.98624,21.92905-28.45253,33.41064-42.14471,18.28137-20.88994,36.24744-42.0683,53.315-63.96433q2.11927-2.68338,4.17089-5.4179c.05684,2.67988.13077,5.3599.24166,8.03992a1.901,1.901,0,0,0,.098.50056l-.00409.00278v.00672a2.00759,2.00759,0,0,0,.0881.2025c.01768.03887.03083.07978.051.11732a2.10215,2.10215,0,0,0,.20367.309c.031.039.06736.07276.101.10958a2.23374,2.23374,0,0,0,.1689.17182c.039.03448.0808.06472.12229.09628a2.21171,2.21171,0,0,0,.19607.13632c.043.02615.08621.05011.13092.0732a2.17033,2.17033,0,0,0,.22734.102c.04412.01709.08737.03448.13251.04851a2.11814,2.11814,0,0,0,.26431.062c.03974.007.07846.01738.11864.0222a2.0217,2.0217,0,0,0,.39492.01111,2.16826,2.16826,0,0,0,1.98515-2.29343v-.00029c-.21522-4.73427-.26475-9.46518-.28389-14.19756-.0095-1.90244-.012-3.80474-.018-5.71318v-.0054c-.11367-28.25836,2.25325-56.50343.44928-84.74163-1.77724-38.90992-6.98782-78.20863-22.22448-114.33538q-1.34279-3.1605-2.74752-6.29016a37.42478,37.42478,0,0,1,7.557,1.30107q2.1471,6.53554,4.05605,13.15743c5.09,16.25619,10.2204,32.55914,13.11082,49.40531a483.18923,483.18923,0,0,1,5.76739,64.57446c-.29514,7.75253.33516,15.54524-.42269,23.27089-.2212.77114-.2212,1.824.75128,2.01158,2.87025.61715,1.33453-13.52649,1.72346-16.27591.68407-18.355-.77786-36.717-3.15179-54.90415-2.03877-24.84006-9.10723-48.76813-16.61825-72.41437q-1.14838-3.99746-2.40841-7.95371c8.1891,2.83767,15.93885,7.99141,22.37234,13.28337a286.27658,286.27658,0,0,1,7.61227,70.0622c-.32874,30.05751-5.81429,59.71265-10.37455,89.33417q-1.61981,10.75369-2.924,21.54728c-.12112,1.59416-.31062,3.20965-.50436,4.83391l-.00541.00789q-.15318,1.30094-.29849,2.60741-.0732.66229-.13749,1.3246c-.0187.19286-.03842.38557-.05595.57843-.05114.56894-.09278,1.13744-.128,1.7055-.01067.17357-.02177.34715-.03069.52057q-.04427.862-.052,1.72025c-.00088.08913-.00789.179-.00818.26811l.00745-.01081a26.52378,26.52378,0,0,0,.45527,5.22168,2.17587,2.17587,0,0,0,4.09082-.81147,92.44888,92.44888,0,0,1,.22135-11.391c17.80272-26.796,31.56591-56.16665,43.58064-86.03086q.16152,2.58695.29586,5.171a2.14578,2.14578,0,0,0,4.27959-.32026q-.3112-6.37863-.86509-12.7457c-.03185-.39946-.07144-.80154-.10563-1.202l.00657-.0168c-.02615-.30536-.06122-.61321-.08883-.919q-.12054-1.33818-.25949-2.68133c-.046-.44563-.09044-.89081-.13953-1.33731-.14669-1.33731-.30258-2.67652-.47659-4.01894l-.00117-.00979h0c-4.11055-31.68995-15.97319-64.56906-40.25542-85.78335l-.00234-.00979c-.06443-.05655-.13076-.11119-.19549-.16744-.19709-.17124-.39682-.34028-.59567-.50991-.76574-.65543-1.53908-1.30283-2.32718-1.93138l-.04178-.0317c-7.18827-5.63721-15.66154-10.6748-24.64341-13.15144l-.00058-.00161c-.02367-.00672-.04749-.01212-.07116-.01884-.2323-.06371-.46534-.12376-.69824-.18395-.29732-.07773-.59435-.15444-.89241-.2253-.13953-.03316-.27965-.06311-.41947-.09511-.23611-.05362-.47222-.11133-.70862-.16072l.002.0057a41.6795,41.6795,0,0,0-8.37684-.93362c-.2589-.00248-.51795-.0057-.777-.00248-.14333.0019-.28681.008-.43028.01154-.31457.00774-.62943.01812-.94429.034-.16568.00833-.33137.019-.4972.02952q-.43109.02783-.86275.066c-.17737.01563-.35446.03068-.53183.0488-.05873.006-.11732.00979-.17606.01607l.002.00453a35.63,35.63,0,0,0-4.10456.67822c-9.47964,2.75571-16.0623,10.7759-21.61579,18.49234-13.17117,19.09883-22.25341,40.60958-33.54009,60.80377a108.60075,108.60075,0,0,1-6.64154,10.32662c-1.47845,1.71908-2.95281,3.936-4.97944,5.08171,2.11021-9.009,6.22514-17.7922,9.76835-26.15019-1.21794,2.02342-7.549,13.34824-10.65989,21.41388.18029-1.22072.38864-2.43735.64462-3.647,2.47007-10.659,4.68094-21.3341,8.26872-31.70061,2.909-7.90624,7.23108-15.2336,11.51476-22.46584,1.47348-2.52983,3.24195-5.1932,4.57385-7.64515-7.43738,11.48-15.58235,22.83929-19.72986,36.01922-3.16364,10.76027-6.9922,21.792-8.21,32.94661-3.13-5.44727-.56952-18.007-.20718-23.30712A118.01227,118.01227,0,0,1,357.84383,665.309c11.26243-16.792,28.1856-31.02166,47.52214-37.23906l.00029.00059c.12667-.04062.25437-.07627.38119-.1163q.99893-.31515,2.006-.60255c.31164-.08868.62489-.17065.9377-.2551a68.92126,68.92126,0,0,1,10.0052-1.93444c.34831-.04149.69678-.06984,1.04524-.1052a64.45745,64.45745,0,0,1,13.22946.01768,55.3508,55.3508,0,0,1,8.08463,1.57517q1.22881.33576,2.42828.72673c.07159.02323.14406.04486.2155.06838q1.28559.42342,2.54152.90732l-.00044-.00117c26.85019,10.28995,43.0326,40.38925,50.57459,67.15148,3.07188,11.42184,5.443,23.1933,5.949,35.11263l-.00278.0076q.05347,1.13919.07875,2.27618.02675,1.21656.02732,2.435c.00146.23756-.00029.48551-.00073.72877-.00029.25481.00015.50728-.0019.7675-.00277.32859-.00774.66347-.01315.99922-.00321.19841-.00642.39682-.01052.59728q-.01095.53475-.02556,1.07665c-.00541.19739-.01213.3961-.01841.59451-.01082.34627-.02148.69225-.03463,1.04042-.02221.57639-.04661,1.15409-.075,1.73l.00014-.00058c-.06867,1.44089-.1537,2.86893-.25115,4.2248a2.146,2.146,0,0,0,4.28382.26474c.19155-2.82876.29587-5.70968.31822-8.62756,2.48863-6.926,5.36472-13.7081,7.934-20.60708,4.85174-14.36485,9.91373-28.92095,15.4586-42.89307a384.67445,384.67445,0,0,0-16.31,41.26355c-2.30775,6.10314-4.79038,12.141-7.1047,18.23943q-.02892-1.56018-.08825-3.13119,4.596-12.45153,8.83985-25.02825l.00336.01446c.31516-.93113.62271-1.86431.936-2.79559q.59392-1.76905,1.18477-3.53912c.16145-.48639.32743-.97117.48814-1.458l-.00321-.01315q.27438-.82929.547-1.65932l-.00058.02265c.23-.69825.45512-1.39722.68392-2.0956q.556-1.698,1.1088-3.39741.54921-1.69278,1.093-3.38922,1.89354-5.88331,3.7466-11.77979,3.90323-11.81925,7.61592-23.69869l.00234.01228c.15136-.48084.29981-.96357.45074-1.4447q.61254-1.95468,1.22027-3.91082c.34774-1.117.69927-2.23206,1.04495-3.34919l-.00365-.0203q2.86025-9.24129,5.65708-18.50257v.00014l.00979-.03214q1.073-3.5552,2.139-7.11259c.1014-.33911.20469-.67764.3058-1.0169l-.00073-.00277q4.86226-16.23552,9.64971-32.49354,1.37566-4.65843,2.75761-9.3106l-.00029-.00175q.8751-2.95406,1.75035-5.90809l.00029.00161c.05377-.17445.10052-.34861.15429-.52306.03652-.116.07393-.23173.11045-.34788q1.094-3.47148,2.20737-6.937,1.004-3.12541,2.02109-6.24837l-.00015-.00438c4.27521-13.1567,8.69375-26.27,13.09709-39.388l.00029-.00015c.04135-.12214.08167-.245.12287-.367q4.77285-14.22,9.4462-28.4705l.00087.00058c.02762-.085.05479-.17036.08255-.25525q.46089-1.41675.91652-2.835.78657-2.43,1.5667-4.8624.66777-2.08563,1.32576-4.17411c.20412-.64564.412-1.2907.61511-1.93634,0-.00672,0-.00672.00658-.01329l.00453-.03346c3.83425-12.16647,7.50049-24.384,10.85289-36.69679,6.53547-25.934,10.62673-52.39733,16.01468-78.58077v.01016c.10257-.50027.20908-.99951.31252-1.49956q.4153-1.99874.8385-3.99578c.11031-.51721.2234-1.0337.335-1.55062q.52554-2.42938,1.07008-4.85452.124-.55217.24808-1.10441,1.43046-6.29732,3.02352-12.55949,3.84339-14.5686,8.45647-28.96837.29652-.9255.59626-1.85,6.46694-19.93228,14.48407-39.33495a2.0715,2.0715,0,0,0,.4842-1.168q1.76553-4.23174,3.60326-8.43127c.256-.58274.50787-1.16724.76589-1.749q1.30881-2.95,2.6581-5.881c.359-.78109.72411-1.5591,1.08733-2.33807q.89264-1.91511,1.80236-3.82176c.43437-.91039.86787-1.82143,1.30809-2.72868q4.85217-10.01019,10.16868-19.774c.14932-.28082.30639-.57215.4652-.86583q.10761-.19878.218-.40142c.12843-.23589.2589-.47463.393-.71819.0995-.18051.20221-.36541.30463-.54994.12521-.22551.24969-.44993.37944-.68144.11878-.212.24282-.43086.36541-.64769q.32676-.57835.67077-1.17907c.14158-.24692.28125-.49158.42707-.74412.1442-.24984.2944-.50713.44284-.76223.12653-.21726.252-.43335.38149-.65441.15151-.25883.30711-.52262.46271-.78649.13793-.23384.27673-.46856.41772-.7062q.22158-.37313.4484-.75282.25861-.43284.52394-.87371c.12448-.20681.24852-.41319.37491-.62241.29717-.49136.598-.987.90658-1.49123a406.90422,406.90422,0,0,1,31.21993-44.21489l-.0019.00416q1.15782-1.4048,2.32119-2.77645c.05157-.06092.10329-.12214.155-.18292q1.12647-1.32657,2.2566-2.61793c.07174-.082.14348-.16335.21522-.24516,1.57619-1.7955,3.156-3.53782,4.73588-5.20941l.00643-.014c9.75637-10.35234,19.33245-18.00756,27.10689-19.52794,26.87883-.78474-31.40548,91.17846-37.90369,103.32345-14.16366,24.12919-28.153,48.36554-41.41126,72.99755C650.943,329.1656,639.254,353.43563,628.41663,378.07436q-3.926,8.9739-7.40377,18.11575l.00014-.01548c-.04763.12419-.092.24947-.13953.37373q-1.26126,3.30372-2.47606,6.62752c-1.90449,5.1704-3.88291,10.3142-5.44537,15.60558-.49632,2.119-1.45536,4.45287-.70423,6.61232,3.92324,5.21759,8.10129-5.821,10.06612-8.45676,5.52588-9.68376,11.02516-19.38754,16.73893-28.95741,23.18351-37.95081,47.90932-75.36512,77.71874-108.5276,9.63014-9.73753,26.61715-29.90994,40.15723-31.79427a5.03677,5.03677,0,0,1,.69474.01936c-.81352,1.19142-1.41139,2.64021-2.24843,3.71664-4.399,7.18279-8.94592,14.27807-13.506,21.36662,6.27043-7.59532,12.49-15.68755,18.08982-23.94429a4.0944,4.0944,0,0,1,.63162,1.02347c-4.56771,9.93389-10.23852,19.4112-15.30606,29.11118.71387-.98395,11.4626-16.80672,15.90261-25.57125a17.84989,17.84989,0,0,1-.2681,2.82854c-2.38738,12.03124-9.40894,22.45948-16.16882,32.46512-11.09368,15.50272-22.90285,30.44673-35.17444,45.01328a12.70488,12.70488,0,0,0-8.28158-5.58673c5.57965-7.06167,11.768-13.82623,17.32131-20.699-6.4294,6.66068-12.95975,13.23954-18.87806,20.36016a2.28856,2.28856,0,0,1-.15225.23041,10.70217,10.70217,0,0,0-4.69614,1.23488,34.97282,34.97282,0,0,0-4.1909,2.878c3.70759-5.04913,7.453-10.07036,11.29545-15.02043,7.30194-9.09816,15.49089-17.40706,23.12332-26.23493,2.12964-2.479,4.56508-5.07237,6.53854-7.531-8.83737,9.52852-17.96929,18.78375-26.6978,28.41418-7.1272,8.25455-13.60759,17.03011-19.98482,25.87646a78.81089,78.81089,0,0,0-7.57326,10.52248c-10.10206,13.83566-20.525,27.43345-30.86664,41.09217-3.03068,3.83791-6.0634,7.6805-9.39549,11.26638a.97687.97687,0,0,0,1.38143,1.38158c1.3227-1.46311,2.634-2.94572,3.84945-4.50007,6.83586-8.51213,12.984-17.53966,19.60231-26.21485,3.0675-3.97561,6.07275-7.99689,9.05244-12.03687A191.85793,191.85793,0,0,0,657.64221,391.411q-6.82176,7.23585-13.67362,14.4341c-21.60776,22.03008-41.04921,47.01764-51.1086,76.5252-4.36565,12.64131-7.33657,25.70516-10.80366,38.60135q-1.03554,3.63717-2.05031,7.27988l-.00175.00307c-.02119.07524-.0415.15078-.06268.226q-2.09823,7.50444-4.13685,15.02467c-.17956.65923-.36234,1.31831-.54176,1.97739l.00848-.01563c-7.22012,26.65572-14.04663,53.41606-21.4919,80.00954q-1.5087,5.38737-3.04821,10.75545l.0016-.00234q-3.87078,13.46074-8.04255,26.84084c-.047.14084-.0938.28841-.1407.42926l.00249-.00059C532.20409,695.91486,519.428,727.38229,505.46377,758.36991Zm-47.46166-89.84554c15.23652,15.072,23.91317,35.18393,29.84361,55.67442a174.76278,174.76278,0,0,1,5.37933,31.3035c-8.85314,22.15055-18.59914,43.9386-29.64841,65.19892-3.75405,7.1779-7.84618,14.14219-12.19707,20.9386.895-6.68377,2.05921-13.35277,2.8888-19.98613,4.39268-28.29372,9.46928-56.61432,10.1063-85.31041A292.73776,292.73776,0,0,0,458.00211,668.52437ZM576.09549,558.8559a162.95726,162.95726,0,0,1,12.86157-15.3046c9.15091-9.34991,18.806-18.17909,28.69317-26.75756a499.94619,499.94619,0,0,1-46.88059,85.00812c-3.10227,4.62571-6.41245,9.11672-9.76953,13.57354,4.1573-15.30987,8.16675-30.66181,12.29775-45.96451Q574.67307,564.09914,576.09549,558.8559Zm87.42837-75.05713c-21.40628,40.23087-46.01828,78.80519-72.52819,115.87754-12.20014,16.6308-25.30526,32.6506-39.11812,48.02445q3.10525-10.48762,6.0222-21.03444c5.236-6.94135,10.477-13.88241,15.42484-21.0283,17.08111-24.01515,31.23118-49.96825,43.4433-76.76643q4.19646-9.0666,8.093-18.26259,6.0661-5.146,12.19649-10.21792c-4.73486,9.27744-9.96633,18.34236-15.00742,27.45748,5.56035-8.35361,11.36836-17.01814,16.32968-25.87954.85735-1.51928,1.66473-3.073,2.39848-4.65734q1.9321-1.59725,3.86494-3.19257c-3.86772,9.70466-9.68741,18.63348-14.51753,27.88638q-16.99227,34.84956-36.87832,68.18912c8.69681-13.25707,17.46405-26.92894,25.52471-40.73347,5.89363-10.44892,10.41882-21.58643,16.47068-31.962,4.61446-8.17887,9.41682-16.25853,12.842-25.03468a9.72488,9.72488,0,0,1,.743-1.8009q5.38321-4.446,10.73982-8.91027,4.36389-3.65646,8.7722-7.26483Q665.96887,479.16422,663.52386,483.79877ZM781.8963,369.47025c-14.78052,17.71791-32.2304,33.00154-49.80753,47.876-34.22869,28.39438-69.4433,55.62182-103.3434,84.41858-.10724.092-.21507.18366-.32231.2757l.00029-.00073q-2.203,1.89452-4.42277,3.78071c-15.70888,13.38821-31.69346,26.77517-45.03264,42.51736q1.51-5.4724,3.03126-10.95284,11.12846-12.82365,22.76886-25.20547c17.29165-17.99412,33.56391-36.93326,51.20884-54.58257,32.5603-31.79953,67.6947-60.86447,102.69322-89.91728,3.19972-2.66264,6.74338-5.23585,9.617-8.10085-2.35786,1.88974-4.7537,3.71913-7.18169,5.51828-24.38159,18.28531-47.58745,38.04907-70.61756,57.99005a782.06634,782.06634,0,0,0-70.64341,68.61225c-11.53726,11.85132-22.69625,24.07885-33.35746,36.723-.29762.4823-1.5702,1.87717-2.98129,3.51283.19812-.71914.39521-1.44324.593-2.16383q2.49643-4.22978,5.13329-8.37743a663.50552,663.50552,0,0,1,53.6038-73.31218q1.084-1.28143,2.173-2.55766.927-1.08276,1.86124-2.15908c.48741-.56405.97248-1.1294,1.46311-1.69191a532.47942,532.47942,0,0,1,54.20123-54.06258q.796-.66405,1.59562-1.32774,2.43748-2.01976,4.89295-4.03873c22.18268-18.16587,45.93586-35.47059,73.21531-44.72261a25.583,25.583,0,0,1,7.48151-.76172c-24.71529,10.08847-47.91385,23.62658-69.5073,39.3134,22.72211-15.08106,46.92326-28.84089,72.58955-38.59076a5.36648,5.36648,0,0,1,1.52535,1.02654c-6.29542,3.79781-12.431,7.83457-18.52347,11.955,6.31222-3.42976,12.90613-7.189,19.22434-10.87072a.55907.55907,0,0,0,.15954.03806C798.92013,346.37564,787.65682,362.95253,781.8963,369.47025Z"/>
    <path d="M613.19575,402.773a.8057.8057,0,0,0,1.04612-.44935c.80475-2.31359,1.64968-4.6206,2.441-6.94763,3.07655-9.11731,5.60375-18.4171,8.93263-27.44879,14.95716-39.79781,30.02317-79.59679,47.99041-118.15766C688.489,217.48378,708.45028,187.29,726.05547,156.794a.02424.02424,0,0,0-.02017.0065.022.022,0,0,0-.00672.029c-34.44682,46.95218-59.60569,99.82078-80.56868,153.96058-10.46426,27.55281-21.73838,54.81889-29.95012,83.1644-.86539,2.54137-1.791,5.16361-2.76331,7.76561A.81894.81894,0,0,0,613.19575,402.773Z"/>
    <path d="M387.5669,272.05605c-4.2698-2.79946-8.59542-5.51426-12.86916-8.309-21.79478-14.78184-44.96047-27.83392-70.44267-34.97252,1.63522.80242,3.71139,1.51775,5.51273,2.2862a166.26815,166.26815,0,0,1,29.105,13.98278c16.22609,8.81662,31.87828,18.62851,47.19881,28.924A1.214,1.214,0,0,0,387.5669,272.05605Z"/>
    <path d="M457.17661,402.68306c-7.97534-6.52728-16.84485-11.88893-24.62543-18.68389-25.9775-20.82908-50.84532-42.85317-75.58633-65.17145q-4.77833-4.01334-9.5901-7.98688c.8987,1.05108,2.17858,2.13168,3.22558,3.21228,14.95585,14.77673,29.17693,30.35571,45.34136,43.85868,13.60539,11.24812,27.06555,22.69428,41.324,33.12252,6.59771,4.93232,14.05291,8.66051,20.38251,13.90754a.63685.63685,0,0,0,1.14445.12865C459.14846,404.003,457.82445,403.34448,457.17661,402.68306Z"/>
    <path d="M356.56306,167.57018c-15.508-39.45052-30.66195-79.14722-48.198-117.731-.84449-1.76846-1.62645-3.835-2.488-5.48306,15.84418,41.51178,32.37914,82.75618,49.1505,123.8981a.8411.8411,0,0,0,1.5268-.69021Z"/>
    <path d="M430.08637,273.81933c-.66142,3.28549-.56762,6.7799-1.6827,9.93886a.94213.94213,0,0,0,.34174,1.26725c2.06769.78846,2.29474-4.20778,2.73817-5.73137,3.33516-11.27778,1.28866-22.88363-.21054-34.26478-1.11435-16.63533-6.5416-32.42705-11.769-48.13746-5.57131-21.9452-16.474-41.91716-23.78752-63.24-1.29829-4.03559-2.59834-8.23059-3.81526-12.31958.71577,3.97386,1.76306,8.22671,2.72268,12.27911,5.33916,21.40029,15.27232,41.28634,20.98375,62.58289,5.25207,16.11118,10.96657,32.385,12.23871,49.45871C429.06407,255.004,431.3442,264.33011,430.08637,273.81933Z"/>
    <path d="M437.87338,637.69864c-3.48316-1.07709-7.06276-1.84737-10.61547-2.6695,4.51336,1.37821,9.52187,2.5887,13.94231,4.63433,37.31371,16.59414,51.96873,53.64632,56.60715,91.90944a.5711.5711,0,0,0,1.13379-.13457c-1.65173-12.39519-3.885-24.75269-7.73252-36.6764C483.40162,668.23771,464.51873,646.33789,437.87338,637.69864Z"/>
    <path d="M487.77135,470.25065c-4.845-3.65191-9.23594-7.90974-13.81519-11.88338-8.2604-7.72974-17.16234-14.70053-25.64467-22.17757-8.75511-7.63382-17.4509-15.372-26.91243-22.1374a.02139.02139,0,0,0-.0266.03331c11.06856,9.17721,21.125,19.4679,31.935,28.93754,11.853,9.81152,23,20.429,34.886,30.18513a1.04,1.04,0,0,0,1.44865-.06049C490.60216,471.82385,488.58385,471.00748,487.77135,470.25065Z"/>
    <path d="M480.5939,506.62411c-9.26488-9.35649-16.57383-20.49729-26.6306-29.0851-13.68531-12.84141-27.46719-25.532-43.12858-35.97174a541.06318,541.06318,0,0,0-58.67588-40.03808c-5.36443-3.30389-10.98059-6.79663-16.51421-9.52845,3.23931,2.052,6.47834,4.11756,9.61012,6.33742,27.80879,19.45058,55.4275,39.15882,82.29245,59.90046,11.39612,9.89532,22.95705,19.68267,33.80191,30.17754,7.10469,8.14818,14.87856,15.813,21.63274,24.25659a1.03948,1.03948,0,1,0,1.58876-1.34082Q482.64924,508.91768,480.5939,506.62411Z"/>
    <path d="M353.1436,185.29371c-1.68329-.35533-3.36658-.6772-5.06331-.959-7.09184-1.02326-14.10244-2.5047-21.17835-3.608-5.705-.78605-11.44989-1.20508-17.20062-1.5466v-.00008l-.01724-.001q-1.70331-.101-3.40661-.19666c-.17533-.00979-.35109-.02053-.52627-.03039l.001.00088c-2.74738-.15268-5.49432-.30259-8.23716-.47952,18.41373,1.9134,37.09558,4.45864,55.41391,7.95416a.577.577,0,0,0,.21463-1.13379Z"/>
  </g>
</svg>
