<svg id="Слой_1" data-name="Слой 1" xmlns="http://www.w3.org/2000/svg" viewBox="0 0 1000 1000">
  <title>Meat_37</title>
  <g>
    <path d="M42.07846,643.3939c10.3891,17.219,25.71413,30.94869,42.55452,41.70493,16.86364,10.77925,35.47172,18.76914,54.55074,24.73825,6.54307,2.0433,13.59185,4.02933,20.72066,5.71675a380.81687,380.81687,0,0,0,63.05684,9.28716q14.31864.94011,28.66829.93011,17.18666,0,34.34278-1.2745a479.15543,479.15543,0,0,0,63.0916-8.85074,449.47834,449.47834,0,0,0,59.67251-16.67531c.20058-.076.62075-.22134,1.03591-.37065,8.36379-2.98568,16.72059-6.30323,24.96333-9.89665a322.33094,322.33094,0,0,0,56.58229-31.25856c4.00658-2.81236,8.334-6.00387,12.5702-9.34443,16.71434-13.13243,31.82129-28.74458,42.96768-46.91649,11.18116-18.21792,17.97708-39.78817,15.842-61.30064a86.5921,86.5921,0,0,0-8.63265-30.16839A107.55555,107.55555,0,0,0,536.467,484.51732c-13.16719-14.09681-29.37607-25.12865-46.5841-33.69253q-3.0402-1.516-6.12191-2.94266l-.04227-.02125-.1158-.053-.022-.01351h-.008c-.28261-.13-.56447-.25885-.84808-.3874q-8.846-4.04523-17.99334-7.36165c-.08753-.03126-.17607-.05853-.26485-.08329a292.37951,292.37951,0,0,0-33.71454-9.94941q-7.28386-1.6878-14.64777-3.07647c-.75779-.14931-1.51559-.28736-2.27314-.42491-.06878-.01276-.13681-.02476-.20483-.03627-.035-.00775-.07-.015-.105-.02126-.17357-.03076-.34614-.063-.518-.09353q-.12717-.02664-.25635-.044c-.07053-.01151-.1403-.02226-.21033-.03226-.596-.11355-1.18447-.21784-1.78195-.31213-1.15946-.20658-2.30741-.4019-3.45536-.58548-2.43371-.3904-4.85592-.7808-7.28938-1.11344a429.08644,429.08644,0,0,0-62.23051-4.09836,480.33223,480.33223,0,0,0-124.67912,17.41461,424.83618,424.83618,0,0,0-58.72913,21.01878A321.35607,321.35607,0,0,0,99.304,489.62558c-17.24229,12.26008-33.2561,26.5407-46.02163,43.49588C40.73544,549.78978,31.23019,569.55782,29.497,590.5766a87.00956,87.00956,0,0,0,1.97428,27.19471A89.94217,89.94217,0,0,0,42.07846,643.3939Zm202.5563,39.78392a14.88665,14.88665,0,0,1-1.4008-.681q-.6584-.39091-1.28376-.84284c-.45268-.35639-.8971-.73454-1.32077-1.12869-.40416-.40491-.78881-.82858-1.15971-1.26675l-.03351-.03952q-.09342-.11066-.18532-.22258c-.30938-.41617-.712-.99289-1.09819-1.58938a25.88039,25.88039,0,0,1-1.32577-2.509,31.25108,31.25108,0,0,1-1.1392-3.10547,35.7072,35.7072,0,0,1-.8976-4.13213,42.03914,42.03914,0,0,1-.35789-4.88817,47.84731,47.84731,0,0,1,.29286-4.92669l.0035-.033c.01151-.102.02176-.20358.03377-.30562a50.2015,50.2015,0,0,1,1.05191-5.24056c.42517-1.5261.92737-3.0272,1.49209-4.51028a45.93556,45.93556,0,0,1,2.26239-4.74287q1.04142-1.76694,2.23163-3.4406a38.29135,38.29135,0,0,1,2.7916-3.26629c.65151-.632,1.325-1.24249,2.02655-1.82447.71328-.55622,1.44707-1.07117,2.20187-1.55461.65475-.38215,1.32027-.73129,2.00629-1.06392.69752-.28411,1.39254-.54121,2.11083-.7708.56722-.13956,1.13645-.26261,1.71918-.36315.54646-.058,1.09293-.10054,1.63939-.1233.45518.013.91061.03752,1.36629.077.47419.07377.94287.16131,1.41.2621.51971.14681,1.02716.31887,1.53261.51195.45918.20483.91086.42017,1.35528.66226.03677.02251.07228.04752.1088.07028a35.11919,35.11919,0,0,0,.65525,5.655,37.39216,37.39216,0,0,0,4.20166,11.422,36.84963,36.84963,0,0,0,7.22034,9.18361,40.07241,40.07241,0,0,0,9.74634,6.6006q1.84761.85685,3.76624,1.52235a30.887,30.887,0,0,0-2.71582,3.40509c-.09054-.03426-.17507-.07953-.26886-.10779a31.21084,31.21084,0,0,0-7.542-1.25149,39.01925,39.01925,0,0,0-21.66178,5.52167,39.51883,39.51883,0,0,0-10.58217,9.1206C244.80457,683.23135,244.71779,683.20909,244.63476,683.17782Zm-14.29764-2.5445q-.48618.703-1.00389,1.37955c-4.13763-2.29366-8.45133-4.94395-12.615-6.77993,3.17125,3.28655,6.37876,7.02127,10.37809,9.35019-.32863.33163-.66276.65776-1.00765.97563-.76155.66376-1.54186,1.28026-2.35017,1.85873l-.05077.036-.1248.08978c-.67052.42992-1.47208.90886-2.30491,1.34778-.73954.35214-1.48159.66977-2.24889.96163a25.50343,25.50343,0,0,1-2.70306.7398c-.68277.11429-1.362.19882-2.05131.2586-.692.0195-1.37529.0195-2.05781.0005-.80007-.07353-1.58438-.18608-2.37794-.32638-.66551-.15956-1.316-.34439-1.97177-.55447-.59624-.22659-1.17647-.46418-1.7567-.72879l-.47043-.22934c-.22559-.11329-.84408-.48569-1.45107-.87059-.62775-.43717-1.23374-.89785-1.82447-1.38079-.654-.59224-1.2705-1.20923-1.87674-1.85123q-.89511-1.07067-1.69367-2.19887c-.5122-.78631-.98614-1.58938-1.42781-2.4217-.49695-1.02391-.93912-2.07482-1.33528-3.14449-.34463-1.06867-.6455-2.13884-.8946-3.23253a36.00334,36.00334,0,0,1-.574-4.11662l-.046-.63125c-.052-.86909-.02651-2.23112.044-3.59391.12555-1.3903.30337-2.76109.56448-4.13188a38.48231,38.48231,0,0,1,1.17671-4.25943q.62761-1.67691,1.3903-3.294a37.95265,37.95265,0,0,1,2.01554-3.49213c.65326-.93362,1.39155-1.88824,2.17636-2.81361.72428-.78306,1.47808-1.5371,2.26939-2.25364.72554-.61149,1.47158-1.19422,2.25589-1.73793.67177-.44143,1.396-.87935,2.1466-1.283a26.79181,26.79181,0,0,1,2.56951-1.09643c.64475-.21558,1.29876-.3929,1.95977-.55072.16582.081.32863.16782.49645.2456a28.71414,28.71414,0,0,0,17.832,2.0308c-.36364.80157-.71053,1.61014-1.0279,2.42746a48.6356,48.6356,0,0,0-3.01994,12.33761,99.7491,99.7491,0,0,0-12.60922-8.354A86.333,86.333,0,0,0,227.09735,661.509a40.93186,40.93186,0,0,0,1.05316,10.44961c-4.411-2.68455-9.44947-5.23781-10.19176-5.648a67.47486,67.47486,0,0,0,11.60782,10.2908,29.02462,29.02462,0,0,0,1.37979,3.0407C230.74479,679.97356,230.55,680.30844,230.33712,680.63332ZM192.7033,647.68259c-3.86477-4.42749-8.52636-8.19323-12.90758-12.075a102.51712,102.51712,0,0,0,11.51153,14.62352,37.696,37.696,0,0,0-3.178,8.84323c-4.29194-4.51953-9.81587-7.91037-14.80458-11.59332A127.64735,127.64735,0,0,0,187.38,663.8337a40.99725,40.99725,0,0,0-.19707,4.64233q-.18908.07353-.3789.14481l-.055.01751c-.04251.01525-.08453.03276-.12655.04952q-.47568.17481-.95987.33363l-.01551.0045c-.13355.04377-.2671.087-.40166.12905a29.62827,29.62827,0,0,1-7.59749,1.21248c-1.15195.014-2.29641-.03176-3.43335-.1248l-.03177-.00275q-.16806-.01389-.33663-.029c-1.0289-.12805-2.33217-.35539-3.64268-.64976-1.13945-.29987-2.2684-.64725-3.37883-1.04241a37.33244,37.33244,0,0,1-3.65444-1.68266c-.68777-.38891-1.74569-1.05142-2.7916-1.76845-1.08268-.80282-2.10333-1.66265-3.10348-2.565q-1.25148-1.24512-2.39719-2.56976c-.69452-.87985-1.35053-1.78871-1.97678-2.72683-.69452-1.1412-1.33252-2.30791-1.9135-3.51338-.46919-1.08518-.89911-2.17161-1.27476-3.2923a41.43146,41.43146,0,0,1-1.0299-4.39948c-.085-.72279-.20458-1.92926-.27686-3.14374-.01826-1.21848.01326-2.42821.10254-3.64669.136-1.22623.32363-2.4302.56922-3.63993.32688-1.32627.716-2.61878,1.16646-3.90779.43042-1.08193.91612-2.14184,1.43482-3.18l.043-.08954c.021-.03476.041-.06977.06027-.10554a35.05818,35.05818,0,0,1,1.868-3.01494c.776-1.04391,1.59537-2.0403,2.46472-3.01743.80656-.81107,1.63139-1.59488,2.48323-2.34293.95637-.7653,1.93376-1.48233,2.95116-2.1686a37.35494,37.35494,0,0,1,3.31956-1.83072,33.052,33.052,0,0,1,3.30955-1.302,27.49958,27.49958,0,0,0,3.3008,2.59953,29.27513,29.27513,0,0,0,16.18863,4.95445,27.88753,27.88753,0,0,0,3.06245-.16782,28.66787,28.66787,0,0,0,6.95874-1.6604,27.83577,27.83577,0,0,0,1.17847,4.41474,28.579,28.579,0,0,0,6.901,10.742,28.64514,28.64514,0,0,0-4.568,2.7876c-2.87263-4.22191-10.77325-10.83352-11.86418-11.89644a81.0811,81.0811,0,0,0,8.67792,13.2017c.21609.2426.43767.51245.66927.78006A34.48281,34.48281,0,0,0,192.7033,647.68259Zm-78.591-1.08743c-.80081-1.0364-1.56937-2.09457-2.2849-3.206a44.52586,44.52586,0,0,1-2.21387-4.08636c-.58823-1.35878-1.10894-2.72882-1.57962-4.12913a43.32953,43.32953,0,0,1-1.12445-4.79438,43.81979,43.81979,0,0,1-.42491-4.68285c-.004-1.56937.06377-3.12248.21008-4.68209.18207-1.381.42091-2.79135.73054-4.1914a48.62653,48.62653,0,0,1,1.50759-4.75438c.5097-1.21348,1.05191-2.38569,1.64715-3.5569.72679-1.285,1.50009-2.5345,2.33767-3.75623.96838-1.30226,1.999-2.53725,3.09147-3.74247.99589-1.0104,2.02229-1.96128,3.08921-2.88089,1.20773-.96063,2.45172-1.85323,3.747-2.69156,1.323-.79081,2.68156-1.50309,4.07511-2.16785,1.27325-.53921,2.5585-1.03241,3.866-1.46858a44.2445,44.2445,0,0,1,4.53579-1.09243c1.56836-.23184,3.121-.38715,4.7011-.47444a45.66275,45.66275,0,0,1,4.99447.20433,35.3595,35.3595,0,0,1,8.802,2.18136,41.309,41.309,0,0,1,4.16189,1.95927l.551.32138a4.03767,4.03767,0,0,0,.40191.18532,31.72833,31.72833,0,0,0,.45668,3.84627,27.64816,27.64816,0,0,0,3.829,9.70182,37.96958,37.96958,0,0,0-6.51307,3.51063,33.11812,33.11812,0,0,0-4.29819,3.46612c-3.184-2.634-7.2371-4.45626-10.653-6.63261a70.16816,70.16816,0,0,0,8.41406,8.93427,39.38676,39.38676,0,0,0-5.10726,7.38565c-.044.08479-.08228.17207-.12555.25711-3.81525-3.39459-11.18515-7.30163-12.66273-8.342,3.25178,3.90254,7.59924,7.36215,11.46226,10.96632a36.64179,36.64179,0,0,0-2.29465,8.3758c-5.081-3.45761-11.31046-5.56144-16.60529-8.51135a101.7399,101.7399,0,0,0,16.20863,14.54323,35.68061,35.68061,0,0,0,4.52178,16.67106c-1.13194.13481-2.36093.23284-3.59441.27361-1.42582.014-2.84312-.03526-4.25118-.15706a38.81138,38.81138,0,0,1-4.559-.76205c.00325.00275-.075-.01676-.15357-.036-.07878-.0185-.15781-.03726-.23659-.05652-.012-.00475-.07928-.02126-.14706-.03776-1.27225-.33889-2.627-.76505-3.96131-1.26a43.63794,43.63794,0,0,1-4.3302-2.0313q-1.93164-1.10818-3.73722-2.38919c-1.16121-.8806-2.26865-1.817-3.34557-2.7996A45.78312,45.78312,0,0,1,114.11234,646.59516Zm2.9064-84.76264c.551-.95312,1.148-1.87148,1.77945-2.78985.79206-1.04416,1.61863-2.0433,2.514-3.01869l.20658-.21808a34.98193,34.98193,0,0,1,2.73232-2.50274q1.53212-1.18809,3.16825-2.23838c1.10194-.643,2.23838-1.24,3.38634-1.77945a39.38646,39.38646,0,0,1,3.9378-1.44657,40.38214,40.38214,0,0,1,4.01758-.8836,39.55439,39.55439,0,0,1,4.20141-.32162c1.15945.0115,2.31891.08028,3.47812.18382a39.36058,39.36058,0,0,1,4.02933.72328c.12655.03427.25285.05728.3789.09154,1.0219.29862,2.36493.73479,3.685,1.25149,1.1367.4937,2.23889,1.03316,3.32932,1.61864,1.10193.6425,2.16935,1.343,3.214,2.07757.97564.75755,1.9055,1.54986,2.81236,2.37618a37.44229,37.44229,0,0,1,2.80135,3.07672c.68852.90685,1.33153,1.81371,1.94,2.76659a39.66861,39.66861,0,0,1,1.97452,3.71921,35.865,35.865,0,0,1,1.389,3.84577c.06653.23409.1213.47268.18382.70878a27.99343,27.99343,0,0,0-7.8911,7.40491c-1.04091-1.24949-2.34543-2.41945-3.01119-3.37358q-3.58266-3.891-7.46219-7.50745c2.12634,4.70585,5.68224,9.18987,8.83373,13.49106a29.66136,29.66136,0,0,0-2.7801,6.63336c-3.71946-5.56119-14.44193-13.78018-16.49324-15.87275a103.57628,103.57628,0,0,0,11.98572,15.52412,41.18934,41.18934,0,0,0-10.62769-2.34518c-.25735-.26435-.50345-.5172-.716-.75329-3.98257-3.99508-8.22524-7.731-12.47841-11.445a69.42707,69.42707,0,0,0,7.96588,12.07951,40.96569,40.96569,0,0,0-5.68649.61849,42.57478,42.57478,0,0,0-17.206,7.30163c-.28512-.55847-.57-1.11694-.84359-1.68692l-.03451-.08c-.03426-.092-.08028-.17232-.11455-.26435-.47068-1.10194-.91836-2.34143-1.32052-3.60417a33.94683,33.94683,0,0,1-.90685-4.19016c-.16032-1.217-.25235-2.43345-.30963-3.67344,0-1.33153.05728-2.65205.18358-3.97207.16081-1.27425.3904-2.51374.66576-3.76523a38.73438,38.73438,0,0,1,1.23974-3.91454A39.37408,39.37408,0,0,1,117.01874,561.83252Zm36.36682-50.682c.8841-.70028,1.80246-1.34328,2.75509-1.96328a35.01379,35.01379,0,0,1,3.111-1.63014c.96463-.41291,1.94027-.769,2.93866-1.09068q1.61915-.44717,3.3063-.7573c1.15971-.16106,2.33042-.2641,3.51264-.32162,1.11368,0,2.21587.046,3.3178.14931,1.1252.14931,2.23863.34438,3.34057.597,1.07917.28686,2.13484.62,3.17975,1.0104,1.06767.43567,2.10058.91836,3.12248,1.45782,1.01015.59674,1.99754,1.22824,2.93866,1.91676.58548.44793,1.41231,1.12519,2.19261,1.84823a28.43308,28.43308,0,0,1,2.24989,2.434,30.50249,30.50249,0,0,1,2.06631,2.9274,27.40421,27.40421,0,0,1,1.49259,2.83512,30.88444,30.88444,0,0,1,1.171,3.226c.20333.716.37215,1.43981.52121,2.1676a34.96432,34.96432,0,0,0-12.97436,9.47848c-2.52375-4.51878-5.97711-8.67516-8.67017-13.06339a62.56568,62.56568,0,0,0,7.10305,15.08294,30.57708,30.57708,0,0,0-2.06356,3.25028,27.92785,27.92785,0,0,0-2.4032,6.01087c-3.01294-5.42264-6.91347-10.36158-10.67846-15.26577a146.70681,146.70681,0,0,0,9.84338,20.60137,24.1809,24.1809,0,0,0,.31638,5.23956c-.56373-.93136-1.154-1.84622-1.795-2.72557a37.37644,37.37644,0,0,0-12.07351-10.56866,67.6618,67.6618,0,0,0-4.65758-7.25961q-3.03082-4.1844-6.14142-8.28827c1.12744,4.38823,3.21351,8.70643,5.21155,13.01188a36.48693,36.48693,0,0,0-10.23778-2.05381c-.02776-.09754-.04077-.19658-.07728-.29312-.1148-.32137-.20658-.6425-.29837-.96413a29.73657,29.73657,0,0,1-.73479-3.35182c-.14906-1.13669-.24109-2.26164-.28686-3.40959a32.828,32.828,0,0,1,.17207-3.34032c.1378-1.06767.32162-2.12408.56247-3.16849a30.53536,30.53536,0,0,1,1.05616-3.34082c.05753-.1373.14931-.36739.2411-.61949.2641-.574.746-1.56137,1.27425-2.54876.551-.94112,1.1477-1.84823,1.791-2.73207.61974-.81483,1.274-1.57262,1.963-2.33017C151.75567,512.59688,152.54773,511.86209,153.38556,511.15056Zm64.31459,2.37118a45.30994,45.30994,0,0,0,4.37022-14.4682c.02726-.02576.05927-.044.086-.071q.17708-.16244.35414-.32437.65726-.5571,1.35379-1.05642c.43242-.27936.87259-.54121,1.32977-.78981q.63813-.31025,1.298-.57723c.50945-.16831,1.0214-.31387,1.54811-.43667.39941-.07528.80032-.131,1.207-.17807.45668-.032.90985-.04052,1.37329-.03026q.75893.05252,1.49584.16931c.50369.1098,1.00214.2416,1.50009.38666.56622.20458,1.11944.43092,1.6644.678.563.29362,1.10169.607,1.63615.94037.47343.33414.93762.67777,1.3933,1.03841a26.04519,26.04519,0,0,1,2.002,1.94577c.39541.47244.94813,1.179,1.47984,1.911.55872.83608,1.06942,1.69692,1.5376,2.575a31.73622,31.73622,0,0,1,1.30277,2.99368,34.5248,34.5248,0,0,1,.98013,3.39158c.24685,1.24549.43617,2.49173.56,3.76a35.23669,35.23669,0,0,1,.05728,3.62418c-.067,1.05542-.19358,2.10458-.36265,3.15224A107.36538,107.36538,0,0,0,233.02768,505.362c3.05721,7.55848,7.18208,15.25276,11.06962,22.6089-.07253.16207-.13881.32663-.21459.4877-.35989.713-.7518,1.404-1.18322,2.08482-.17907.2616-.3809.50069-.56822.75179-1.99353-5.26807-10.09-13.2192-12.07025-15.907,2.06281,6.48655,5.61871,12.99812,8.87349,19.15-.05852.04352-.112.092-.17107.135-.45142.30562-.9121.58373-1.39279.84509-.2331.11354-.47544.20658-.714.31112-2.31391-5.97961-7.39716-11.02584-11.45951-15.88351,1.49159,3.48963,3.11323,7.15257,4.84541,10.77a29.16451,29.16451,0,0,0-14.22035-7.14957,33.95447,33.95447,0,0,0-4.60032-.556A42.14,42.14,0,0,0,217.70015,513.52174Zm242.74712,90.48365a34.32743,34.32743,0,0,1-2.455,2.72932,35.22529,35.22529,0,0,1-2.98767,2.56276c-.7558.56347-1.82972,1.2695-2.93266,1.92151a32.87263,32.87263,0,0,1-3.36882,1.6529c-.38566.15306-.77181.29812-1.15946.43867a31.05389,31.05389,0,0,0-3.23327-2.60577,67.76193,67.76193,0,0,0,8.33353-8.06543c-3.39984,2.24988-7.27937,4.12662-10.47213,6.68113a30.69246,30.69246,0,0,0-4.63707-2.23563,102.28149,102.28149,0,0,0,11.77714-12.0545c-5.48517,3.28855-10.47913,7.3689-15.81824,10.812-.14255-.033-.27936-.08028-.42241-.11154a29.1,29.1,0,0,0-4.03934-.56073c4.73011-4.35771,9.12684-9.09633,13.61536-13.67838-5.99786,3.6982-11.63608,8.56012-17.1345,13.334a30.79013,30.79013,0,0,0,2.541-4.71161c5.5712-5.31984,10.18651-11.9422,14.93864-17.71723A127.54,127.54,0,0,0,430.14108,593.375a33.34883,33.34883,0,0,0-.063-13.51558c.65151-.58473,1.319-1.15145,2.01179-1.69066a35.13068,35.13068,0,0,1,3.44811-2.24714c1.01315-.546,2.05206-1.04216,3.11623-1.50284a38.80068,38.80068,0,0,1,3.72371-1.22073c.93812-.21383,1.87824-.3919,2.83612-.53446a34.12027,34.12027,0,0,1,3.61818-.19308c.91936.04352,1.81821.1253,2.72057.2391.94737.17457,1.86148.3849,2.77984.63925.60124.19958,1.18922.42042,1.77495.65076.727.32888,1.43132.68927,2.11859,1.08092.56122.35814,1.10793.73079,1.64014,1.1312.55947.45968,1.09568.93637,1.61489,1.45007.42292.46268.83083.93387,1.21848,1.42456.34213.48069.66151.96338.97088,1.46758.39091.69952.73629,1.4133,1.05642,2.14734.25335.68.47669,1.36079.67076,2.05956.16957.7433.31213,1.49484.42067,2.25514.0065.038.01775.13055.029.22334.07053.68727.09354,1.38.10479,2.06757a27.72761,27.72761,0,0,1-.21008,2.80485,28.741,28.741,0,0,1-.68127,3.12973c-.30887.97564-.648,1.92426-1.04466,2.86363a32.16385,32.16385,0,0,1-1.72193,3.2833C461.88959,602.02686,461.19632,603.031,460.44727,604.00539ZM334.188,682.71189c.1148.56272.2296,1.1367.31013,1.71067a28.36173,28.36173,0,0,1,.22959,3.27179,31.60753,31.60753,0,0,1-.27561,3.74223c-.09179.56247-.29837,1.59563-.57423,2.61728a29.63182,29.63182,0,0,1-1.06742,3.088,31.34419,31.34419,0,0,1-1.50384,2.97317c-.29837.47068-.86109,1.33152-1.46933,2.1581a31.23683,31.23683,0,0,1-2.06631,2.37643l-.05728.05728c-.046.04576-.092.10329-.1378.1493-.65451.61975-1.44632,1.30852-2.26139,1.95152-.80382.597-1.63014,1.148-2.47948,1.66441-.84983.47068-1.71067.90711-2.606,1.30876a31.52039,31.52039,0,0,1-3.16825,1.11369c-1.05617.26361-2.11233.47044-3.18.64251a27.1214,27.1214,0,0,1-3.05346.19532,24.062,24.062,0,0,1-6.79592-.95287c-.91837-.28687-1.81372-.60824-2.70907-.96413-.89535-.40191-1.75644-.82683-2.61728-1.30877a30.86009,30.86009,0,0,1-2.80136-1.90575c-.631-.505-1.228-1.03291-1.82522-1.57262a34.52932,34.52932,0,0,1-2.35317-2.64c-.58548-.79231-1.12495-1.60713-1.6529-2.44546a31.8583,31.8583,0,0,1-1.54986-3.14524c-.33314-.86109-.63125-1.72193-.89536-2.60578a32.062,32.062,0,0,1-.68877-3.4441c-.10329-1.0099-.17207-2.0203-.19533-3.0417.02326-1.06767.092-2.12409.21834-3.19176.17207-1.11344.41316-2.21537.68852-3.30605.30987-.97564.643-1.92826,1.0219-2.86963a30.95974,30.95974,0,0,1,1.43482-2.82411c.5052-.82633,1.04466-1.61864,1.61864-2.3992.63125-.78056,1.28575-1.53811,1.98578-2.26139.03476-.04577.115-.115.19533-.19508a25.2991,25.2991,0,0,1,2.28465-1.99753l.057-.04577a.63789.63789,0,0,1,.092-.069c.02175-.016.04851-.034.07077-.05027,1.177.11129,2.35218.18282,3.52489.18282a43.90351,43.90351,0,0,0,7.58174-.689,36.83475,36.83475,0,0,0,11.376-4.1899c.26235-.14506.52221-.30037.78281-.45268a30.99529,30.99529,0,0,0,8.15046,13.62987,33.92629,33.92629,0,0,0,6.31424,4.8189A3.686,3.686,0,0,0,334.188,682.71189Zm-96.53727-49.70033a3.40082,3.40082,0,0,0-.35264.02451c-5.19505-4.60256-11.2937-8.27876-17.2648-12.0595a102.4808,102.4808,0,0,0,12.9511,13.88272c-.517.19358-1.03791.3764-1.57212.534a27.8754,27.8754,0,0,1-2.93891.6315c-.84933.103-1.69917.17232-2.55976.20658-.97613-.0115-1.95177-.069-2.93891-.16081q-1.41168-.20671-2.82411-.551c-.91836-.2641-1.81371-.574-2.69756-.91836-.81507-.35589-1.61864-.75755-2.41045-1.194-.73479-.45893-1.46958-.94137-2.16985-1.44632q-1.08493-.86135-2.10083-1.82522c-.60824-.6315-1.19372-1.28551-1.74469-1.963-.48219-.6315-.92987-1.27426-1.35478-1.94-.49345-.84933-.95288-1.71042-1.366-2.606-.35589-.87235-.67727-1.7677-.95263-2.67456-.24134-.94137-.44792-1.87124-.597-2.82411-.10329-.90686-.17207-1.80221-.20683-2.69756.02326-.98739.08053-1.97428.18357-2.96167a27.29059,27.29059,0,0,1,.58573-2.84687c.22959-.769.48194-1.52685.76905-2.28465.34439-.80357.72329-1.60688,1.13645-2.38769.47094-.79206.96413-1.57262,1.50384-2.31867.51671-.6545,1.05617-1.28575,1.60714-1.90575.08028-.08028.1493-.16056.22959-.24109.0115-.01151.092-.09154.17206-.17207.03452-.023.05753-.05752.092-.08028.47069-.47094,1.05592-.96413,1.65315-1.45782a28.90056,28.90056,0,0,1,2.491-1.72218c.53947-.28687,1.366-.71153,2.21538-1.11344.83808-.34414,1.68741-.64276,2.56-.90711a27.84847,27.84847,0,0,1,2.9044-.631c.56122-.07128,1.16721-.121,1.786-.15756a29.98005,29.98005,0,0,0,13.37677,3.18125c.19533,0,.39141-.0015.58723-.0055.46619-.01025.92987-.04252,1.393-.07628a32.31817,32.31817,0,0,0-1.71467,11.95671c-3.0437-2.17035-6.11466-4.75962-9.20263-6.64862,2.9209,3.58466,5.73126,7.45869,9.55076,10.114l.00776.00425a33.20988,33.20988,0,0,0,4.1989,11.62258l.01751.029q.09528.16206.19232.32262c.15281.2466.32038.5022.48895.7583-5.031-5.781-12.25133-9.85688-18.23769-14.56974a133.53151,133.53151,0,0,0,16.04107,18.60658A34.36209,34.36209,0,0,0,237.65076,633.01156Zm-34.84148-34.6499c-2.88238-4.11737-8.67742-9.17561-10.0312-10.43386,2.14009,4.449,5.53768,8.60939,8.40506,12.85382-.40966.68627-.79731,1.39-1.156,2.11308a26.738,26.738,0,0,0-2.09058,5.91858c-4.19515-5.66923-13.288-14.22335-14.35415-15.1067a115.63768,115.63768,0,0,0,13.47606,18.99223c-.08479.02876-.17232.04377-.25536.08053-.117.054-.23359.10779-.35063.16157l-.08379.03751a.38924.38924,0,0,0,.03677-.015l.05727-.02425c-.01526.0075-.00925.00525-.00325.0025l.04-.01851.01325-.0055c.03952-.01751.07953-.03577.1203-.05377.02226-.00926.04427-.01851.06652-.02727-.07428.03352-.14955.06578-.22433.098-.03452.016-.069.03177-.10405.04677l-.012.00575-.00225.00025-.022.00976.0085-.0045.00851-.00325-.00525.00125-.01876.00575c-.04352.019-.08679.03776-.1303.057-.79132.33138-1.60213.62124-2.42121.8811-.86209.24159-1.72668.44317-2.60527.59973a24.92823,24.92823,0,0,1-3.12473.28587c-.80182.01025-1.59888-.022-2.40095-.08829a28.64542,28.64542,0,0,1-3.19151-.54421c-.85633-.23184-1.69617-.49745-2.52674-.79732-.88835-.36364-1.74869-.765-2.58952-1.20547-.7658-.43467-1.5036-.90061-2.22563-1.4023-.76705-.57948-1.49659-1.191-2.20762-1.834-.67552-.66226-1.309-1.34378-1.923-2.06656-.517-.66951-1.01565-1.35679-1.48208-2.06857a29.99284,29.99284,0,0,1-1.45332-2.70906c-.37915-.90911-.716-1.82147-1.0104-2.76409-.22634-.83608-.41316-1.67391-.57348-2.52625-.13055-.94537-.21858-1.88474-.26435-2.83887-.002-.95462.03576-1.88874.10629-2.83561.10954-.90061.2636-1.78521.44593-2.67781a31.85781,31.85781,0,0,1,.98263-3.08721c.35514-.84784.75055-1.67166,1.17922-2.47848q.64075-1.08868,1.35678-2.12684c.60749-.79581,1.242-1.55836,1.91751-2.2944q.86546-.8546,1.7862-1.65265a28.58594,28.58594,0,0,1,2.68906-1.89625c.06152-.035.12655-.064.18807-.09879h.0005l.00976-.00525c.60649-.34063,1.21823-.66826,1.849-.96988l.04677-.02351c.10354-.04577.20658-.092.31012-.1263l.00075-.00125c.73029-.30412,1.46182-.58348,2.20412-.83108a26.27239,26.27239,0,0,1,2.85662-.679,31.44,31.44,0,0,0,19.19981,6.25272,36.07045,36.07045,0,0,0,6.54433-.61425,29.92171,29.92171,0,0,0,6.59185,10.55441,27.89656,27.89656,0,0,0-6.73215,3.35157c-2.68481-3.95856-9.06707-9.45547-10.17151-10.5319a59.16654,59.16654,0,0,0,7.78832,12.33361c-.73154.612-1.44382,1.24949-2.12059,1.93051A28.32693,28.32693,0,0,0,202.80928,598.36166ZM196.45453,533.157c.622-.28011,1.24924-.54147,1.883-.79056.69477-.27361,1.39855-.52846,2.11433-.77106l.02876-.008a38.85281,38.85281,0,0,1,4.15539-.97088c1.193-.16757,2.38669-.28487,3.58941-.34139a37.406,37.406,0,0,1,3.99383.15431c.94687.1263,1.893.28286,2.83261.47569a33.83094,33.83094,0,0,1,3.45536,1.05942c.91587.3879,1.81247.79781,2.69907,1.26775.3964.23809,1.18171.73028,1.95477,1.25824.652.49695,1.2785,1.01165,1.887,1.55887.4997.48869.97689,1.00039,1.44482,1.52885.48119.601.92662,1.21073,1.34078,1.84773.061.10129.11154.20883.17107.31112a29.99631,29.99631,0,0,0-11.83116,7.62125,109.16309,109.16309,0,0,0-8.83774-11.02609,59.80727,59.80727,0,0,0,6.77667,13.44429c-.2621.34389-.52145.68978-.7688,1.04642a29.87177,29.87177,0,0,0-2.99093,5.50391c-3.78249-4.04709-8.84148-8.32377-9.92891-9.503a62.10453,62.10453,0,0,0,8.80847,12.67875,29.57046,29.57046,0,0,0-1.19622,8.37805c-4.36447-5.04049-9.581-9.34619-14.64752-13.66064a131.55091,131.55091,0,0,0,12.5577,16.75711c-.4907.04676-.98489.08853-1.48109.11479a34.31428,34.31428,0,0,1-3.9328-.11154c-1.15695-.13306-2.3034-.31863-3.43985-.56573q-1.55874-.40028-3.07046-.95062c-.88035-.36339-1.73743-.75905-2.584-1.18822-.745-.42867-1.47933-.88735-2.19461-1.376-.61024-.45718-1.198-.94337-1.7697-1.44632-.52321-.50195-1.01865-1.01965-1.49884-1.55911-.046-.05628-.094-.11105-.14331-.16432-.19207-.2616-.39915-.51445-.59073-.77731-.23784-.30712-.44968-.63074-.66576-.95737-.36615-.61124-.69978-1.23549-1.0174-1.86749-.30512-.712-.57523-1.42506-.82108-2.1501-.15081-.565-.29186-1.13944-.41641-1.72242-.1198-.74255-.20258-1.48734-.2551-2.24539-.018-.79731.00975-1.59463.06327-2.39194.092-.77931.21959-1.55211.37765-2.32417a26.00187,26.00187,0,0,1,.81232-2.64429c.32788-.80507.68452-1.59388,1.08418-2.37393a32.205,32.205,0,0,1,1.73368-2.76659c.39916-.519,1.11269-1.388,1.86649-2.22663.77956-.80207,1.59738-1.57512,2.45321-2.31016.88485-.703,1.79421-1.36879,2.74008-2.00279C194.25666,534.31093,195.33734,533.70994,196.45453,533.157Zm67.803,8.64665c.78231-.81982,1.59287-1.60438,2.445-2.34617.84858-.69227,1.72918-1.345,2.64954-1.96528a31.40069,31.40069,0,0,1,3.08347-1.68916c.78556-.33413,1.57962-.6435,2.38844-.91536a25.84026,25.84026,0,0,1,2.68156-.65426c.78781-.11855,1.57187-.19758,2.36768-.24835.78681-.01925,1.57362.00876,2.36018.06453.66926.076,1.32752.18282,1.984.31887a22.10688,22.10688,0,0,1,2.23688.682c.55647.23084,1.10619.47769,1.64865.75155a20.941,20.941,0,0,1,1.87124,1.16971q.69552.53008,1.353,1.10944a16.90908,16.90908,0,0,1,2.88064,3.45761c.38865.635.75479,1.28375,1.08367,1.95227.02751.06127.05527.1218.08278.18257a34.79518,34.79518,0,0,0-3.47686,3.99507,32.28319,32.28319,0,0,0-2.59653,4.14138,81.8989,81.8989,0,0,0-9.43021-11.2992c2.56376,4.60132,4.96971,9.51975,8.29427,13.65838a33.97926,33.97926,0,0,0-2.43121,8.44408,144.7353,144.7353,0,0,0-9.82362-11.33822c2.51524,5.5652,5.22756,11.23043,9.44447,15.7192-.01551.61774-.04077,1.235-.02376,1.85423a32.13492,32.13492,0,0,0,1.00965,7.07128c-5.17629-6.22995-10.95257-12.006-16.48625-17.885a135.70407,135.70407,0,0,0,11.10463,19.3071c-.13831-.04752-.27461-.10179-.41392-.14731a32.7905,32.7905,0,0,0-17.674-.76655c-.047-.051-.08253-.109-.13355-.15706l-.031-.02826c-.02026-.01676-.04027-.03376-.05978-.05127a17.39552,17.39552,0,0,1-2.95341-3.5469,24.39852,24.39852,0,0,1-1.169-2.17085,23.4288,23.4288,0,0,1-.91211-2.35943l-.002-.006c-.04027-.122-.08028-.24385-.1188-.36665-.20483-.72478-.45568-1.80346-.643-2.89314-.09179-.60849-.20283-1.71067-.25735-2.82111a32.50125,32.50125,0,0,1,.107-3.43235,33.73657,33.73657,0,0,1,.60324-3.64594,36.843,36.843,0,0,1,1.13244-3.69345c.44093-1.11344.92812-2.20812,1.47608-3.27729.02727-.053.05453-.1063.08179-.15907-.00551.01-.00175.00325.00175-.0035.06827-.13155.13605-.26235.20708-.3929.48569-.85984,1.171-1.94777,1.91425-3.00544C262.67736,543.65836,263.44092,542.715,264.25749,541.80363Zm43.03295,2.31216c1.01365-.46443,2.0298-.88535,3.07071-1.271,1.13745-.34963,2.27815-.66176,3.45236-.92111a39.08022,39.08022,0,0,1,4.03659-.46943c1.302-.02451,2.57676.021,3.88228.11879.62649.089,1.74894.25935,2.86238.49145.71253.17156,1.4138.36289,2.11033.57747q.604.18795,1.20172.39891.55447.21346,1.10344.44292,1.1517.49482,2.26664,1.08093,1.35278.74618,2.622,1.61664,1.25375.91761,2.4187,1.93276c.82933.7703,1.65516,1.61739,2.44747,2.50924q1.00577,1.22148,1.905,2.529a31.22714,31.22714,0,0,1,1.75619,3.10673q.70152,1.51972,1.2685,3.14424a33.99741,33.99741,0,0,1,.87835,3.39959,35.64747,35.64747,0,0,1,.42816,3.7037c.019.86109-.00775,2.19587-.104,3.54765-.1348,1.12595-.31312,2.22738-.535,3.32606-.26985,1.09693-.593,2.17661-.95337,3.25478-.38115.97989-.80657,1.93477-1.26825,2.88789-.57273,1.06742-1.19272,2.09633-1.86124,3.09872-.59448.81157-1.20647,1.59788-1.85723,2.35793a36.08905,36.08905,0,0,1-2.77984,2.70432c-.85984.68727-1.72993,1.33977-2.639,1.94276q-1.44282.89361-2.96892,1.64765c-1.06867.48144-2.14685.90361-3.24978,1.28051l-.083.02851c-.072.02451-.14406.04952-.21659.07353-.95087.28336-2.03255.5262-3.12373.74-1.05091.16306-2.10283.28461-3.16225.35889-1.26725.03151-2.512.0105-3.779-.07828-1.01365-.119-2.0098-.27436-3.00469-.45893-1.19147-.27936-2.35518-.61425-3.52264-1.0054-1.11944-.43367-2.20461-.91136-3.27854-1.44832-1.09618-.61474-2.15159-1.27025-3.1865-1.985-.734-.55647-1.44207-1.1322-2.14035-1.73619-.582-.5307-1.45807-1.42231-2.3039-2.36193q-1.10331-1.33027-2.06832-2.75308c-.60549-.97789-1.16921-1.96678-1.68991-2.99468-.5022-1.11394-.95038-2.23788-1.34478-3.39509-.32363-1.10168-.596-2.20412-.82483-3.33006-.17457-1.1457-.30187-2.30066-.3819-3.45636-.02376-1.175.0055-2.33442.08078-3.50888.1318-1.13895.31188-2.26239.54-3.38484a36.75118,36.75118,0,0,1,1.12094-3.69445c.34888-.83783.71578-1.66016,1.10718-2.481q.91348-1.67766,1.984-3.25953c.59924-.79407,1.20948-1.56287,1.85974-2.31366.79831-.84259,1.61713-1.6399,2.47322-2.416.79507-.6435,1.60889-1.25374,2.44822-1.84572C305.27314,545.231,306.26954,544.65576,307.29044,544.11579Zm24.34234-8.378c.00225-.29886.01726-.59548.03926-.89385.061-.44642.13531-.8871.23185-1.326.105-.3794.22383-.75205.35138-1.12344.24385-.58473.50945-1.15.79632-1.70643.31712-.53921.649-1.05891,1.00089-1.57011.52421-.68327,1.06517-1.331,1.6414-1.96753.6485-.645,1.31377-1.25724,2.00354-1.85073q1.2421-.9765,2.57551-1.84448a25.77431,25.77431,0,0,1,6.37126-2.88538c.90961-.25135,1.82047-.47394,2.74833-.652l.044-.00875c.03151-.00625.06253-.01251.094-.01826.86484-.1238,1.82322-.21533,2.78184-.25835a21.43961,21.43961,0,0,1,2.20012.09279c.58973.08128,1.17772.18132,1.75869.31212.42267.11054.83683.23759,1.24975.38515.34163.13981.677.28711,1.00364.45168.21259.11654.41391.25435.61825.3869a31.02943,31.02943,0,0,0,1.25349,33.35539,31.70225,31.70225,0,0,0,8.41456,8.231,35.95089,35.95089,0,0,0,4.24818,2.32567,32.52639,32.52639,0,0,0-6.07315,10.00369,21.83844,21.83844,0,0,0-10.52564-3.271,25.44767,25.44767,0,0,0-4.44475.22084,33.32687,33.32687,0,0,0-1.45808-15.343A34.06988,34.06988,0,0,0,337.827,539.97766a31.444,31.444,0,0,0-4.18915-2.46c-.057-.031-.11455-.06052-.17332-.08853-.32138-.16081-.65426-.31012-.98714-.45943-.29261-.1288-.59123-.24485-.88785-.36565a4.07487,4.07487,0,0,0,.04452-.81432C331.634,535.772,331.63328,535.755,331.63278,535.73774Zm74.91076,26.97913c1.04391.39341,2.05806.83558,3.06145,1.326.85484.46294,1.78671,1.01615,2.69832,1.60864.88885.62524,1.73718,1.29176,2.56651,1.993.84433.77131,1.63689,1.57937,2.40019,2.43071.707.84958,1.36679,1.71943,1.988,2.62628a34.87284,34.87284,0,0,1,1.86873,3.30981c.2591.60924.69077,1.6544,1.06692,2.72182a32.52449,32.52449,0,0,1,.86184,3.2993,34.00173,34.00173,0,0,1,.42317,3.48012c.032,1.04091.029,2.07532-.02826,3.11623a33.48224,33.48224,0,0,1-.5032,3.5534,26.50586,26.50586,0,0,1-2.38294,6.62761c-.30637.55822-.85934,1.50109-1.46132,2.423a31.35156,31.35156,0,0,1-2.18637,2.7826,29.72683,29.72683,0,0,1-2.19336,2.1591c-.36714.31412-.74354.617-1.12494.91261a30.00831,30.00831,0,0,0-12.96861-7.30088c3.00018-3.04119,6.79167-8.27651,7.58749-8.962a56.90511,56.90511,0,0,0-10.22728,8.40682,26.283,26.283,0,0,0-3.63743-.33139,32.92492,32.92492,0,0,0-5.08876.29312,75.29524,75.29524,0,0,0,7.20809-10.15525c-4.28994,3.88628-8.51836,7.649-12.78529,11.519-.02976.011-.06027.01976-.09.03076-.80482.30437-1.59163.64125-2.36393,1.00364-.00876-.122-.01226-.24459-.02226-.36639q-.06041-.7473-.14531-1.49409a4.11517,4.11517,0,0,1,.41767-.45693c4.60906-5.55494,8.96753-11.31345,13.30474-17.08173a94.01292,94.01292,0,0,0-14.17634,14.459,39.43139,39.43139,0,0,0-1.83847-6.75191c3.54139-3.49488,9.08508-11.17015,9.73433-11.96371-3.53864,3.06545-6.93148,6.8667-10.35158,10.4286a29.78545,29.78545,0,0,0-4.7166-7.676c-.1218-.14206-.2501-.27886-.3749-.41866.01551-.051.04252-.09554.05577-.14756.16407-.6185.36089-1.22048.56948-1.82022l.00875-.02426q.05439-.15719.11054-.31387c.33288-.86309.78906-1.90425,1.29826-2.91865.46294-.84058.94588-1.65465,1.45683-2.45872.64675-.91461,1.32227-1.79546,2.0433-2.6583.48419-.55072,1.32352-1.4028,2.20562-2.22137.8806-.74955,1.78771-1.45783,2.73458-2.12484a35.54882,35.54882,0,0,1,3.09022-1.7842c.91686-.41867,1.83547-.80382,2.77734-1.15521a36.81174,36.81174,0,0,1,3.6882-.98964,34.94673,34.94673,0,0,1,3.57216-.42016c.96988-.02451,1.933-.01426,2.90289.03126,1.18522.10529,2.35543.26585,3.52439.48319A34.17382,34.17382,0,0,1,406.54354,562.71687Zm-37.95495,60.13094c-.67277,1.00089-1.367,1.962-2.10858,2.90264-.73279.83758-1.48409,1.63815-2.27865,2.42021-.16832.15231-.35164.28611-.52246.43492a3.65569,3.65569,0,0,0-.762.63425c-.30862.2536-.603.52445-.92161.76705-.82508.56722-1.6554,1.09993-2.527,1.59838-.72678.36089-1.45632.69877-2.20462,1.0104-.7703.26535-1.5421.5077-2.32641.714-.70478.144-1.402.25485-2.11383.33988-.6295.04077-1.2595.06653-1.8955.067-.61824-.03452-1.23549-.09454-1.84473-.17232-.748-.1388-1.48483-.31062-2.22062-.51945-.59349-.19983-1.17246-.42317-1.75519-.66977-.708-.34814-1.40006-.72053-2.07607-1.12444-.56547-.3814-1.11444-.78006-1.6539-1.19572-.10454-.08829-.19808-.18833-.30112-.27811,3.70346-3.102,6.6046-7.20809,9.64655-10.90455-3.98607,2.445-7.75956,5.94785-11.73087,8.849-.02676-.03176-.05678-.06228-.08354-.09379a3.75529,3.75529,0,0,0-.74679-.645c-.057-.66-.14906-1.32077-.24009-1.98128,4.996-3.09872,12.9506-13.32425,15.13571-15.84374-5.39888,3.75823-10.49989,8.77695-15.57939,13.32074a37.0983,37.0983,0,0,0-1.81621-5.96835c4.8284-3.51888,11.12438-11.57406,13.2142-13.55409-4.91744,3.02144-9.69482,7.1133-14.38467,10.89154-.098-.20308-.18232-.41316-.28386-.61474a37.24665,37.24665,0,0,0-2.70406-4.517c5.90707-4.91769,11.08261-10.63844,16.477-16.10634-6.25872,3.9343-12.16179,9.23639-17.82252,14.30913a38.37153,38.37153,0,0,0-6.11216-6.18468,33.28148,33.28148,0,0,0,11.51979-4.07036,33.76347,33.76347,0,0,0,14.3539-16.55127c.068-.018.13706-.0215.20458-.044.32163-.115.65426-.20684.97564-.29862l.03776-.01176q.17183-.04651.34514-.09078l.02751-.0075c.06552-.017.1318-.03377.19808-.05077.50269-.102,1.18246-.21659,1.869-.30387a19.27525,19.27525,0,0,1,2.05406-.092,19.49765,19.49765,0,0,1,2.05331.18757c.69127.13055,1.375.28912,2.05231.48119.62174.20233,1.22923.43918,1.82847.70028a22.26069,22.26069,0,0,1,2.05031,1.11294c.61824.41466,1.214.85333,1.79345,1.315.57123.49469,1.11819,1.00889,1.64715,1.55811a26.04748,26.04748,0,0,1,1.70142,2.0398c.56.79582,1.07968,1.61014,1.56487,2.45647.55872,1.03641,1.04616,2.09983,1.50309,3.1825.45518,1.2505.85684,2.50374,1.19647,3.79a42.63751,42.63751,0,0,1,.79231,4.76838c.10955,1.42606.15031,2.85287.13006,4.28943-.03152.61825-.08354,1.231-.13631,1.84373-.02576.31588-.05352.6315-.08678.94687-.05752.54947-.1263,1.09894-.20283,1.64815-.02076.14781-.03652.29687-.05852.44443-.01376.07653-.02977.15531-.04527.23334-.27811,1.45958-.61725,2.89839-1.02791,4.33421-.45968,1.42406-.97638,2.81261-1.57487,4.1894A41.01881,41.01881,0,0,1,368.58859,622.84781ZM249.76178,566.66893c-3.25979-3.55065-6.70665-6.93748-10.182-10.2693A128.74157,128.74157,0,0,0,254.128,579.9299a32.717,32.717,0,0,0-3.11273,2.06482c-3.92455-6.76742-16.45473-17.96783-18.66485-20.40079a143.46382,143.46382,0,0,0,15.67467,22.92278,32.2656,32.2656,0,0,0-3.257,3.60092c-5.15728-5.87307-11.37173-10.62469-17.40461-15.56088a113.38261,113.38261,0,0,0,12.675,17.3976,27.954,27.954,0,0,1-2.90265.1193c-.8881-.03552-1.77545-.1108-2.65554-.22584-.98589-.16382-1.963-.37765-2.92365-.63525a28.30912,28.30912,0,0,1-2.70357-.96763c-.22584-.10254-.44568-.21834-.669-.32738-.60349-.28761-1.194-.60574-1.77095-.93137-.1308-.07428-.26511-.14305-.39466-.21883-.7783-.50345-1.52685-1.02741-2.25513-1.59013q-1.0298-.85947-1.98229-1.79046a29.60711,29.60711,0,0,1-1.93676-2.25739q-.81257-1.12094-1.51334-2.3064c-.47919-.87935-.90411-1.7687-1.299-2.68331-.36714-.98039-.69477-1.962-.96888-2.97092-.23509-1.03441-.41541-2.06882-.54946-3.11973-.08579-.96413-.11955-1.91225-.11655-2.87488.04527-.96638.13705-1.91851.2636-2.87589.16682-.93636.37465-1.85323.61375-2.76959.28661-.90135.60673-1.7872.96062-2.6643.39591-.86409.82233-1.70267,1.289-2.53174.53871-.86835,1.11969-1.69492,1.73569-2.50949.58923-.69878,1.19747-1.37054,1.84172-2.0313.7603-.70328,1.5331-1.37254,2.35293-2.00829q1.25562-.87747,2.569-1.6409c.90035-.46168,1.82072-.89335,2.77009-1.27675q1.24925-.45018,2.52575-.79557c.83708-.19732,1.7862-.37639,2.74358-.5072.10429-.0115.20858-.02326.31312-.036l.04427-.00525c.09453-.01176.18957-.02376.28536-.037.66251-.053,1.58988-.07578,2.51-.07a30.15327,30.15327,0,0,1,3.13148.28436,27.78792,27.78792,0,0,1,2.71932.62649c.94237.29237,1.86174.63475,2.77185,1.01991a26.748,26.748,0,0,1,2.39819,1.24624l.01776.01025c.068.04.1363.07928.20408.12.47618.29712,1.07217.70152,1.67116,1.14345a32.72166,32.72166,0,0,0-1.5016,6.0979A34.19726,34.19726,0,0,0,249.76178,566.66893Zm1.5286,57.28081c-.03151-.04076-.05352-.08578-.08679-.12555a1.47583,1.47583,0,0,0-.094-.116q-.08553-.10542-.17157-.21034a28.2602,28.2602,0,0,1-1.80446-2.54375l-.02976-.04727L249.08,620.868a25.04132,25.04132,0,0,1-2.67155-6.01362,32.666,32.666,0,0,1-.72429-3.22252c-.15181-1.10794-.24785-2.21687-.28961-3.33381a33.90536,33.90536,0,0,1,.16956-3.4131,32.04665,32.04665,0,0,1,.598-3.23252,32.89452,32.89452,0,0,1,1.1497-3.46161c.2616-.61575.7603-1.6414,1.307-2.6468.53621-.92361,1.12344-1.81671,1.75269-2.68856.612-.78931,1.2645-1.55411,1.95-2.2939a32.56909,32.56909,0,0,1,2.44621-2.23488,31.42741,31.42741,0,0,1,2.90364-1.99779c.81182-.45893,1.63315-.88635,2.48223-1.27725,1.01015-.43617,2.04831-.81582,3.10647-1.15571a32.6346,32.6346,0,0,1,3.48788-.76155c1.09593-.13655,2.19311-.22583,3.29955-.2571,1.08918.00626,2.1676.06478,3.25828.17582a31.58368,31.58368,0,0,1,3.17175.594,29.70641,29.70641,0,0,1,3.43035,1.14445c.91061.39815,1.79971.82757,2.67231,1.301.85583.5,1.68616,1.03466,2.498,1.61163.80607.615,1.57987,1.25525,2.32792,1.942a32.35114,32.35114,0,0,1,2.39069,2.582l.01125.01375c.07753.09254.15456.18482.23059.27786.14306.20858.44018.61774.74805,1.04941a38.13665,38.13665,0,0,0-13.8207,6.7239c-2.15184-3.30955-5.37636-6.11691-7.95313-9.00654A49.96283,49.96283,0,0,0,275.2103,601.737a39.7147,39.7147,0,0,0-2.95766,2.79385,34.14346,34.14346,0,0,0-2.49849,3.02344c-2.10633-3.38883-7.72979-8.16671-8.72443-9.33392a71.70648,71.70648,0,0,0,6.68188,11.19316.92494.92494,0,0,0,.22509.75529c.00525.00751.01175.01351.01725.02076a46.53167,46.53167,0,0,0-2.44,4.386c-.3849.80157-.738,1.63089-1.06392,2.47648a83.68731,83.68731,0,0,0-11.26468-11.24343,74.50381,74.50381,0,0,0,8.54061,12.84606,10.74322,10.74322,0,0,0,1.59238,1.86673,34.5149,34.5149,0,0,0-.81457,3.815,18.61362,18.61362,0,0,0-4.26593-.96963A19.4034,19.4034,0,0,0,251.29038,623.94974Zm18.17616,3.83376c.12555-1.0259.32813-2.37118.58223-3.73322.29612-1.21948.6335-2.416,1.01165-3.60942.48894-1.28676,1.01615-2.5365,1.60588-3.783.68627-1.273,1.42156-2.49848,2.20437-3.71171.55572-.7548,1.12144-1.49159,1.70717-2.22713a46.494,46.494,0,0,1,3.35932-3.42935c.87535-.72729,1.7692-1.42606,2.68181-2.08832,1.13845-.7503,2.29766-1.45308,3.51013-2.10133,1.182-.57473,2.37669-1.09993,3.61043-1.57437,1.2805-.43517,2.57251-.80282,3.898-1.11769a41.31569,41.31569,0,0,1,4.34871-.631,42.68034,42.68034,0,0,1,4.411-.00725c.97614.07753,2.26189.22709,3.54765.45643l.009.0015.048.01.04327.0055.049.00976q.65425.13542,1.30851.29486.07653.01839.15381.03327,1.13858.28436,2.25889.647a36.88338,36.88338,0,0,1,4.23917,1.76245c1.08543.568,2.14135,1.18821,3.18051,1.84822a39.76458,39.76458,0,0,1,3.187,2.431c.86134.7643,1.67841,1.56712,2.46922,2.4017.8656.96613,1.66191,1.97252,2.43546,3.01844a42.037,42.037,0,0,1,2.21838,3.63693,43.01848,43.01848,0,0,1,1.88674,4.40173c.23659.78881.58423,2.04656.8906,3.31456.25785,1.32527.44818,2.6598.58873,4.00483.08079,1.43381.09829,2.85387.05227,4.29894-.1283,1.45057-.31087,2.87763-.56247,4.31095-.29211,1.29651-.63625,2.569-1.03941,3.83851-.49969,1.37029-1.06567,2.70357-1.69716,4.02509-.54672,1.02365-1.1262,2.00529-1.73769,2.98567q-1.12733,1.63714-2.39144,3.162c-.82433.90786-1.66791,1.7722-2.54725,2.62553-.97764.84258-1.968,1.64665-3.00719,2.411-1.1527.77156-2.31191,1.48534-3.52814,2.1546-1.3.63225-2.595,1.202-3.9398,1.71718-1.3923.45443-2.7866.83683-4.21441,1.17171-1.39955.24334-2.78235.43017-4.18965.55372-1.264.04627-2.52049.058-3.7915.01275-.03051-.0025-.06052-.007-.091-.00975l-.0035-.00275c-.43768-.03927-.86985-.08829-1.30227-.13781-.14855-.017-.29861-.02976-.44692-.04827-.34414-.04251-.68627-.09578-1.02891-.1458-.34838-.05052-.69727-.09479-1.04491-.15331-1.32627-.29062-2.634-.6305-3.94155-1.02791-1.24224-.45443-2.46-.93887-3.65944-1.49034-1.24524-.63625-2.43671-1.31251-3.61593-2.0458-1.00789-.70528-1.98328-1.43032-2.9329-2.20212-.96388-.85234-1.88875-1.73543-2.7836-2.6668a49.1759,49.1759,0,0,1-3.1705-4.06985c-.37965-.64426-.98889-1.68617-1.56036-2.75384-.59124-1.21648-1.11169-2.45321-1.59988-3.71046-.39341-1.19747-.7413-2.39669-1.04391-3.62143-.24885-1.2785-.44418-2.55075-.602-3.84826A45.88988,45.88988,0,0,1,269.46654,627.7835Zm71.38312,49.1236c-.80357-.34538-1.58788-.71278-2.36393-1.10643a33.21414,33.21414,0,0,1-2.92816-1.84673c-.7603-.58423-1.48233-1.19847-2.19361-1.833-.77706-.7648-1.51485-1.55636-2.22012-2.39469-.59474-.7593-1.15271-1.53811-1.68267-2.34443a33.61256,33.61256,0,0,1-1.64064-3.08746c-.39841-.92712-.74605-1.878-1.05042-2.83887-.24784-.8741-.47418-1.75745-.64225-2.65055-.01075-.062-.03852-.116-.053-.17632.71778-.66676,1.40355-1.362,2.04831-2.08407a39.751,39.751,0,0,0,6.7384-10.033,38.09271,38.09271,0,0,0,3.02494-9.91841c.28586.20809.56622.42367.86134.61975a23.23033,23.23033,0,0,0,12.84881,3.86077,22.27948,22.27948,0,0,0,9.3982-2.04706,31.59187,31.59187,0,0,0,4.66034-2.6778c.29987.2611.59824.5237.8891.79406a28.67578,28.67578,0,0,1,1.95777,2.11683c.60724.7628,1.17471,1.54361,1.70968,2.35493l.023.03527c.041.06277.083.12529.1238.18832.5087.86259,1.05292,1.88424,1.54536,2.93866a29.71612,29.71612,0,0,1,1.07718,2.92915c.27235.98439.50144,1.98528.67976,2.98718a31.57761,31.57761,0,0,1,.31288,3.44886c-.00325.93086-.03927,1.86173-.1153,2.7926a32.67244,32.67244,0,0,1-.606,3.46936c-.25135.93862-.54621,1.86049-.87734,2.7726A34.68629,34.68629,0,0,1,370.822,666.466c-.4982.83433-1.02191,1.6449-1.58438,2.43721-.68752.8906-1.42631,1.74044-2.19711,2.569-.57448.55547-1.15846,1.08818-1.75845,1.61264-.86059.68177-1.73943,1.317-2.64879,1.9185-.94312.56022-1.90425,1.07543-2.89214,1.53736-.91011.39015-1.82272.73079-2.76109,1.04441-1.08292.31387-2.16585.56022-3.267.76655-1.07568.14556-2.14435.2466-3.229.30287-1.13844.00025-2.25438-.05227-3.38533-.15731-1.04791-.14431-2.07357-.33638-3.105-.56972A31.52814,31.52814,0,0,1,340.84966,676.9071Zm40.43868-23.55252a31.497,31.497,0,0,0-.74479-5.64148c4.362-4.402,10.94981-13.99151,12.107-15.10145a103.7886,103.7886,0,0,0-12.71675,12.77779,31.69815,31.69815,0,0,0-2.05106-5.089c4.01433-4.47676,8.98279-12.54994,10.19651-13.69764a153.91624,153.91624,0,0,0-11.568,11.27244,30.91378,30.91378,0,0,0-5.3306-6.37626,36.22914,36.22914,0,0,0,5.62146-8.268,42.69616,42.69616,0,0,0,3.59342-10.41235c.17282-.84909.32212-1.70868.45118-2.57327.41591-.29361.84033-.57772,1.28025-.84183a27.75465,27.75465,0,0,1,2.90414-1.49259c.68877-.2751,1.3778-.5277,2.08958-.75754.98714-.26386,1.97452-.49345,2.98442-.677,1.03341-.1378,2.05481-.21834,3.08822-.25285.94137.0115,1.871.05752,2.80085.14931.86109.12655,1.71043.27561,2.54876.47068a30.04167,30.04167,0,0,1,2.92715.94137c.89535.3789,1.75619.79182,2.60553,1.25125.75779.44792,1.50409.92986,2.22712,1.44632a27.69677,27.69677,0,0,1,2.26164,1.91725.30434.30434,0,0,0,.05753.06878c.60824.6315,1.19347,1.27425,1.75619,1.95152.528.70027,1.03291,1.41205,1.50384,2.14684.05752.103.1148.20659.17232.29812.45893.82683.8836,1.65315,1.274,2.51424.33288.83783.6315,1.67591.89535,2.5255.2526.90685.44793,1.81371.60874,2.73207.12605.96438.20658,1.91726.2411,2.88139-.01151.96413-.05752,1.92876-.14956,2.89289-.11455.86109-.27536,1.72193-.45893,2.59427a31.61249,31.61249,0,0,1-1.0104,3.09972c-.36739.84934-.76905,1.68717-1.21673,2.50249-.5052.84933-1.05617,1.6644-1.64165,2.468a25.81162,25.81162,0,0,1-1.81371,2.07782c-.56247.56222-1.14795,1.09043-1.75644,1.59563a24.87963,24.87963,0,0,1-2.42221,1.69892,27.1095,27.1095,0,0,1-2.62853,1.35478l-.023.0115a25.58243,25.58243,0,0,1-2.6748.94112c-.1263.03452-.2526.06878-.3674.10329a3.95584,3.95584,0,0,0-1.5216.78982,27.81618,27.81618,0,0,0-13.00262,4.08661c3.76023-4.76838,7.42968-9.61229,10.96482-14.54723A125.07222,125.07222,0,0,0,381.28834,653.35458Zm43.99308,4.99922c-.2466-.02076-.48969-.05578-.73479-.082,3.37708-2.91565,6.4783-6.56133,9.66981-9.28616-4.6816,2.19637-9.20313,5.62272-13.74767,8.51186-.40766-.1163-.81332-.23935-1.21523-.3739l-.037-.01225c-.08828-.03-.17682-.059-.2651-.09-.34664-.1343-.88835-.35014-1.42281-.58173-.02251-.011-.04577-.02176-.07028-.03226-.039-.018-.07753-.036-.11405-.05152a3.30882,3.30882,0,0,0-.44392-.14306c-.29837-.25635-.61124-.49694-.92062-.74154,3.34407-2.68856,6.35876-5.76527,9.48949-8.69317-4.04284,1.62439-7.55747,4.78963-11.21692,7.44168a26.85742,26.85742,0,0,0-3.18-1.82272c5.09176-4.446,10.42361-8.98954,15.05593-13.5866-2.59427,1.32027-5.25557,2.63478-7.86785,4.04334a28.24209,28.24209,0,0,0,3.35608-8.17247,29.83113,29.83113,0,0,0,.569-3.33281,80.39242,80.39242,0,0,0,6.16543-6.19569c-.78106.64225-3.37758,2.0478-5.98036,3.66394a29.11542,29.11542,0,0,0-3.58766-14.93538c.11354-.04277.22334-.09554.33738-.13706a30.42387,30.42387,0,0,1,3.31856-.90861,32.056,32.056,0,0,1,3.32656-.39465c.93662-.02151,1.87324-.00475,2.80986.04427.97263.09829,1.936.22684,2.89939.40366q1.53773.35039,3.03745.84608c.98138.37715,1.94576.79606,2.88588,1.25574.77781.42767,1.5296.86684,2.27165,1.34828a29.50805,29.50805,0,0,1,2.38919,1.845q1.1352,1.04367,2.17435,2.19186c.575.689,1.11319,1.38955,1.6314,2.12934.57873.89586,1.11043,1.81647,1.60263,2.76009.40716.87985.7763,1.7687,1.11344,2.68656a30.34507,30.34507,0,0,1,.80281,2.98618c.17207.98188.30437,1.96477.38966,2.95491a30.831,30.831,0,0,1-.03,3.4296q-.15156,1.45407-.42917,2.88289c-.22759.98814-.50445,1.96-.82208,2.92415l-.00975.02976c-.00951.029-.01851.05777-.02826.08653-.31263.82558-.70128,1.70893-1.1272,2.58252-.44867.84233-.92561,1.65815-1.44532,2.455-.57872.81707-1.17871,1.59588-1.828,2.35418-.67626.73554-1.37829,1.43831-2.11708,2.10407-.74079.62375-1.51035,1.21073-2.30866,1.7682-.77881.5022-1.57337.96488-2.39394,1.399a28.73509,28.73509,0,0,1-2.99093,1.265c-.8811.27786-1.76345.52371-2.6673.73129a27.83094,27.83094,0,0,1-3.55365.46743C427.10714,658.40607,426.19753,658.40131,425.28142,658.3538Zm27.86373-107.40256a28.189,28.189,0,0,1,.23109,2.99593c-.01176.83282-.06078,1.6584-.14581,2.484a27.03374,27.03374,0,0,1-.5052,2.70006c-.22409.80482-.47594,1.59613-.7648,2.37493a24.96546,24.96546,0,0,1-1.17847,2.50649q-.32637.5736-.68251,1.13045a34.89095,34.89095,0,0,0-22.59115,7.28837q-.41792-.8516-.8826-1.67616c4.92619-3.122,13.83445-16.492,15.33679-18.43051-5.81,4.8194-10.83127,11.26619-16.478,16.54151a33.958,33.958,0,0,0-3.53965-4.501c.25536-.2461.4882-.49394.68778-.70053a105.95519,105.95519,0,0,0,9.5395-11.84666c-4.3317,2.89589-8.3908,6.79843-12.27358,10.52489-.37315-.33988-.73654-.69-1.12494-1.0139a31.122,31.122,0,0,0-2.85138-2.09682c.17457-.22184.34514-.43792.5087-.62875a125.32972,125.32972,0,0,0,8.31128-11.59432,115.93089,115.93089,0,0,0-11.55931,10.61544c-.25235-.13181-.507-.25936-.76305-.38466a26.8943,26.8943,0,0,1-.24134-2.82536,26.506,26.506,0,0,1,.1358-2.72882c.1238-.89361.28161-1.7717.47319-2.64805.2661-.95963.57848-1.89774.93211-2.83311.30788-.71178.64351-1.41531,1.00615-2.11809.47869-.82132.98714-1.61513,1.53711-2.38569.50369-.653,1.03766-1.276,1.59187-1.88774.68452-.68077,1.39255-1.32577,2.13009-1.946.6195-.46268,1.248-.90911,1.89175-1.33152a29.66681,29.66681,0,0,1,2.641-1.39005c.68827-.28736,1.393-.54947,2.10008-.79306.98013-.27936,1.947-.5007,2.94341-.68552.96838-.13381,1.93826-.21384,2.92165-.25285.69952.00925,1.3953.04527,2.09207.097l.002.0015c.2411.0115.48219.03451.723.05727.70052.10354,1.36628.22984,2.04355.3789l.00475-.00175c.22409.04827.44893.092.67327.14455.88385.24835,1.73168.534,2.58452.86485.69577.30362,1.38254.62474,2.0538.97738.7513.43617,1.47959.89135,2.19762,1.3873a27.27975,27.27975,0,0,1,2.19361,1.834c.55122.54421,1.08543,1.10994,1.58238,1.70142l.02626.032c.066.07878.1318.15806.19658.23785.02551.02951.12755.15806.22959.28686.20333.28086.67626.93937,1.12094,1.61539q.72253,1.19934,1.33077,2.466c.3699.87434.70353,1.75769.98714,2.65754C452.77875,549.076,452.98033,550.00912,453.14515,550.95124Zm-9.28141-38.57245a27.60979,27.60979,0,0,1-.7693,3.20276c-.28662.83808-.60824,1.65315-.95263,2.46823a30.09864,30.09864,0,0,1-1.49234,2.74358,25.27443,25.27443,0,0,1-1.74468,2.38769,21.84849,21.84849,0,0,1-1.67616,1.814c-.44668.42442-.91762.83283-1.39881,1.23a25.71292,25.71292,0,0,0-6.40827.04676c-.86534.12055-1.71643.28062-2.55751.46894,3.52039-4.357,7.48945-10.60168,7.612-11.52929-3.74272,3.98582-7.46994,8.56962-11.47052,12.67174a28.90977,28.90977,0,0,0-4.69635,2.23438c-.35239.20808-.69627.43092-1.03841.65626,4.40749-4.25318,10.9143-16.71834,12.01374-18.5143-4.78439,4.97672-9.1336,10.95682-13.58711,16.453a31.39548,31.39548,0,0,0-2.25964-5.77328c5.24682-4.85141,11.73238-19.51444,13.77643-21.9699-5.87982,5.23306-10.83427,12.08326-16.03206,18.22618-.09129-.1308-.17582-.26561-.26936-.39516a3.61393,3.61393,0,0,0-.43117-.63125c-.06077-.07053-.1248-.13705-.19008-.20183-.65976-.85508-1.37529-1.67091-2.12258-2.46222a91.44085,91.44085,0,0,0,8.18522-12.76553,112.26761,112.26761,0,0,0-10.4246,10.61819,30.7942,30.7942,0,0,0-7.2281-4.60332,3.08018,3.08018,0,0,0,.07078-.42791,2.25442,2.25442,0,0,0,.01125-.27536c.05777-1.07893.17232-2.13534.33313-3.19126a30.40649,30.40649,0,0,1,.76906-3.134c.28711-.84959.62-1.67592.97588-2.514.40191-.83808.83783-1.65315,1.30877-2.45671.56247-.86084,1.14795-1.69867,1.7907-2.514.64275-.7463,1.30877-1.46933,2.0203-2.15785q1.03316-.93038,2.13509-1.7567a28.69671,28.69671,0,0,1,2.45672-1.56111c.83808-.43617,1.69916-.83808,2.56-1.20548,1.05592-.37864,2.11234-.71178,3.17976-.98688.86084-.18383,1.71067-.33314,2.57151-.44793,1.09068-.10329,2.1696-.14931,3.26-.14931,1.07918.069,2.1466.17207,3.226.33288.87235.17232,1.72168.3674,2.58252.60849.98739.30987,1.95177.67727,2.90465,1.07893a28.86347,28.86347,0,0,1,2.617,1.412c.82682.52821,1.60738,1.09068,2.37643,1.68767.68877.58523,1.343,1.20547,1.986,1.83672a28.42681,28.42681,0,0,1,1.99753,2.39895,24.87421,24.87421,0,0,1,1.4003,2.16985l.01151.023c.05752.09179.11479.19508.17207.29837l.03476.08028a28.50827,28.50827,0,0,1,1.205,2.62878,26.97145,26.97145,0,0,1,.87285,2.78985,28.70547,28.70547,0,0,1,.53946,3.24853,27.55318,27.55318,0,0,1,.08028,2.91565A26.28843,26.28843,0,0,1,443.86374,512.37879Zm-51.32122,1.91851c.92237.28586,1.82647.61274,2.72207.98038a33.35721,33.35721,0,0,1,3.061,1.60489c.77406.49994,1.51485,1.0289,2.24564,1.58637.74929.60949,1.46607,1.2595,2.15684,1.937q.72253.7443,1.38255,1.55136c.22134.26586.42992.533.64625.78556.21284.31663.44618.62375.66226.94788.3744.57272.72729,1.14545,1.06968,1.73843.42591.78556.81607,1.58638,1.17746,2.4082l.00825.019q.06078.13843.121.27711a30.83442,30.83442,0,0,1,1.03291,3.237,29.48316,29.48316,0,0,1,.52646,2.95692,28.57652,28.57652,0,0,1,.1508,3.25378l-.02676.47319-.00025.00425a.08242.08242,0,0,0-.0075.039,3.9969,3.9969,0,0,0,.02176.47194,28.08165,28.08165,0,0,0-4.65033,16.03532,32.31564,32.31564,0,0,0-7.019-.73729,33.21789,33.21789,0,0,0-18.9197,5.99586,3.5874,3.5874,0,0,0-1.10444-.66677c-.40741-.1503-.81532-.30812-1.21773-.47243a29.41189,29.41189,0,0,1-3.04319-1.57562c-.77281-.49545-1.5181-1.01915-2.25239-1.57012-.74329-.613-1.45983-1.24674-2.16585-1.918-.70328-.747-1.369-1.51259-2.0173-2.30941-.65026-.90285-1.257-1.81621-1.82747-2.75508-.43217-.82082-.83258-1.64315-1.21573-2.48173-.40366-1.05016-.76605-2.09607-1.07442-3.17-.2596-1.13244-.47369-2.25689-.62725-3.40484-.105-1.21048-.14731-2.41145-.13655-3.62293.04477-.49419.13405-1.47158.2561-2.459a36.4316,36.4316,0,0,1,.82307-3.61393c.15932-.43242.46819-1.31252.82208-2.18136a34.838,34.838,0,0,1,1.7952-3.43185c.34139-.4977.95388-1.35979,1.61339-2.19987.637-.75329,1.29926-1.46807,2-2.1641.66126-.606,1.41656-1.24524,2.19886-1.85648.79182-.56072,1.59463-1.09143,2.42746-1.59088.92586-.50244,1.868-.95662,2.83662-1.37379.96238-.37264,1.94226-.684,2.94016-.96438.96463-.23034,1.93926-.42066,2.9234-.56322a34.38292,34.38292,0,0,1,3.6777-.18407c1.04716.056,2.09382.15806,3.132.30587C390.635,513.82011,391.5934,514.03119,392.54252,514.2973Zm-18.07062-6.13042a32.46832,32.46832,0,0,0-8.45033,4.99722,28.50617,28.50617,0,0,0-2.44721,2.25389,18.56238,18.56238,0,0,0-10.7835-3.12673A30.82475,30.82475,0,0,0,339.06,515.70435a31.47914,31.47914,0,0,0-.32637-3.36557,30.72162,30.72162,0,0,0-4.544-11.61208,29.70155,29.70155,0,0,0-9.15011-8.901c.17457-.27386.34164-.556.52321-.82583a34.03035,34.03035,0,0,1,2.25764-2.80961c.80706-.85233,1.6544-1.6569,2.535-2.428.88709-.71979,1.80746-1.3918,2.76033-2.03681,1.04616-.64175,2.11133-1.22,3.21177-1.75919.96588-.43167,1.94126-.81057,2.93415-1.16021a38.83139,38.83139,0,0,1,4.1794-1.00614c1.12344-.15256,2.24764-.26611,3.38108-.32263,1.03616-.00925,2.07132.024,3.09822.092a26.87311,26.87311,0,0,1,7.46744,1.72318c1.03241.42066,2.03255.8911,3.02169,1.39755.84134.47318,1.66616.97938,2.474,1.51184l.00325.00225c.10254.06753.20433.13481.30612.20333.78656.579,1.79671,1.3948,2.77534,2.27015q1.19373,1.14345,2.2739,2.39369a35.31593,35.31593,0,0,1,2.21737,3.039,32.61221,32.61221,0,0,1,1.57262,2.92715,28.53,28.53,0,0,1,1.30877,3.40934,29.50623,29.50623,0,0,1,.84708,3.57991,30.15327,30.15327,0,0,1,.33538,3.58342C374.54768,506.20011,374.53243,507.16024,374.4719,508.16688ZM317.529,496.25394c.86809.35989,1.71518.7513,2.542,1.18322.83283.47518,1.63565.97738,2.422,1.5251.74579.562,1.45982,1.1502,2.1561,1.779.701.674,1.364,1.37254,1.99528,2.10808a28.67205,28.67205,0,0,1,1.72493,2.39919c.46544.7628.88735,1.53486,1.27751,2.33392a28.59449,28.59449,0,0,1,1.22748,3.21652c.23259.82582.42542,1.6634.58423,2.50223a29.77811,29.77811,0,0,1,.32113,3.01569c.021.87235-.02426,1.74419-.058,2.605a3.61429,3.61429,0,0,0,.31263,1.57312,24.20491,24.20491,0,0,0-6.64537,9.39095c-2.16185-4.79389-4.88518-9.35644-7.39566-13.96025a100.48989,100.48989,0,0,0,6.47154,17.62844q-.06564.4802-.10254.96713c-.05752-.00925-.11754-.0185-.17306-.031a3.54046,3.54046,0,0,0-.41792-.04026q-.50757-.0739-1.0169-.13181c-.84033-.09628-1.69117-.15806-2.54575-.19582-2.53525-5.8393-6.44654-11.20992-9.70733-16.70258a123.75421,123.75421,0,0,0,5.96035,16.73909,29.32631,29.32631,0,0,0-5.56594.88235q-.61186.16244-1.22548.33713c-2.00554-5.06549-9.11034-13.56934-10.09723-15.18A154.05329,154.05329,0,0,0,306.058,536.29a2.69653,2.69653,0,0,0,.04127.31813c-.23034.09728-.46443.18732-.69052.29286a42.40993,42.40993,0,0,0-4.13338,2.20537,24.96813,24.96813,0,0,0-3.10072-4.49477,23.22061,23.22061,0,0,0-9.08708-6.401,28.2108,28.2108,0,0,0,3.129-21.29364c-.27311-1.03866-.61324-2.05931-.98939-3.068.504-.659,1.02666-1.29976,1.58513-1.92051.68777-.71653,1.40455-1.3973,2.16585-2.05105q1.20084-.95362,2.47948-1.79271c.7808-.45818,1.57036-.8846,2.38268-1.286,1.00215-.43342,2.00554-.81732,3.03745-1.15195.91536-.25235,1.83222-.46418,2.76509-.64275.96588-.14081,1.925-.2371,2.89214-.28912a31.27971,31.27971,0,0,1,3.40309.13956c.86459.11854,1.72118.27186,2.57727.45143A31.58232,31.58232,0,0,1,317.529,496.25394Zm-34.06567,8.1342a3.69231,3.69231,0,0,0,.59449,1.297c.24209.589.47919,1.18.68327,1.78646a28.37946,28.37946,0,0,1,.70077,2.9299c.13055.87785.21434,1.75094.26736,2.63554l.0005.0035c.00725.12455.01475.2486.02076.37365-.00351.53771-.02551,1.44107-.10455,2.34392a24.394,24.394,0,0,1-.50219,2.98243,25.70007,25.70007,0,0,1-.80432,2.56026c-.31062.78456-.66326,1.55411-1.05041,2.3034a24.32544,24.32544,0,0,1-1.41031,2.2859c-.17657.2456-.35839.4847-.545.725l-.02551.03051c-.31338-.0085-.627-.00775-.94062-.0045-2.69632-5.46515-9.42747-13.36652-11.05936-15.67142,1.97,5.37661,4.97471,10.65619,7.68628,15.93377a27.55652,27.55652,0,0,0-4.3167.97789c-2.72658-6.15243-12.48492-18.24219-13.72241-19.23533a139.6527,139.6527,0,0,0,10.9118,20.27324q-1.22411.52971-2.39169,1.16946a32.45561,32.45561,0,0,0-3.71121,2.39294c-.06078-.095-.12205-.19007-.17407-.27811a86.74041,86.74041,0,0,0-7.12881-9.91816,81.2108,81.2108,0,0,0,5.47941,11.64734,36.25632,36.25632,0,0,0-7.65877,9.17287,29.56418,29.56418,0,0,0-6.239-3.19976,28.53061,28.53061,0,0,0-2.99268-.91461c9.80286-9.08058,10.78575-25.05012,5.0785-36.61093-.35314-.71628-.74179-1.42106-1.15445-2.11433.115-.1348.22134-.27861.33863-.41166.66151-.70878,1.352-1.37154,2.07082-2.01254.71753-.57548,1.45357-1.1227,2.21687-1.63415.71653-.43842,1.44282-.84058,2.19136-1.219.90686-.41191,1.81722-.76955,2.75709-1.09293a30.08779,30.08779,0,0,1,3.01719-.719c.81632-.11805,1.63264-.19433,2.449-.2461.98839-.02176,1.97628.0115,2.96467.08854.8926.10879,1.76745.25585,2.65055.44217.83332.21734,1.64514.46218,2.46547.74179.83182.32788,1.64289.68727,2.44571,1.08368.78056.43042,1.54436.8961,2.29916,1.3973q.18156.1298.36314.25935a27.57065,27.57065,0,0,1,2.12934,1.77695c.32238.32613.96163.99914,1.56511,1.70017.53121.65751,1.03141,1.345,1.5116,2.05356l.00375-.00025c.03151.05777.06428.11555.09929.17257C282.84331,503.20993,283.16018,503.79441,283.4633,504.38814Zm-68.57851-6.80468c-.18883,1.54311-.46143,3.06771-.80157,4.58281a47.829,47.829,0,0,1-1.46457,4.71185,44.91553,44.91553,0,0,1-2.11634,4.5673c-.11054.19458-.23159.38165-.34463.57423-2.96992-6.34-9.72058-15.819-10.50539-17.131a127.61866,127.61866,0,0,0,8.31652,20.50533c-.74779.98514-1.52635,1.94176-2.36143,2.85662l-.009.01c-.057.062-.11254.12405-.17007.18582-.53721.55572-1.17746,1.17722-1.86373,1.79671a161.03558,161.03558,0,0,0-14.79983-27.22548c1.70642,5.163,3.245,10.56142,5.10576,15.80923-.2466-.2676-.47469-.55171-.731-.81032a34.62879,34.62879,0,0,0-6.65512-5.22906c-2.442-5.68023-7.628-13.40778-8.31628-14.97064A61.23789,61.23789,0,0,0,181.5324,500.329a31.3425,31.3425,0,0,0-6.63386-1.852,33.86531,33.86531,0,0,0-8.90276-.19258c.04427-.87284.105-1.74394.19583-2.61328.15106-1.18172.44317-2.83637.81832-4.47976.40616-1.56087.88285-3.093,1.43056-4.61382.57048-1.41406,1.202-2.79435,1.8945-4.15614a45.67342,45.67342,0,0,1,2.48523-4.00308c.79956-1.08342,1.64189-2.11408,2.535-3.11272.94612-.98739,1.92375-1.92676,2.96691-2.81836a37.68442,37.68442,0,0,1,3.36258-2.38794c.91386-.52046,1.83847-1.00665,2.7956-1.45833.92011-.3874,1.85023-.73079,2.7971-1.03791.86484-.23459,1.73118-.44292,2.61253-.61274.83883-.11579,1.67216-.20158,2.51849-.2631.87485-.01351,1.74294.0075,2.61829.06127a28.78888,28.78888,0,0,1,2.87338.48119c.74054.20083,1.45882.42642,2.18311.67752q1.21811.50007,2.37993,1.09418a26.827,26.827,0,0,1,2.40595,1.5286c.71428.546,1.394,1.1257,2.04781,1.72368.601.601,1.17321,1.21223,1.73493,1.853a31.6049,31.6049,0,0,1,1.93026,2.656q.08667.138.17607.27686c.55147.9051,1.04291,1.85248,1.50459,2.8111l.01976.04077c.015.031.03026.062.045.093.498,1.1562.97238,2.40769,1.3893,3.697.3779,1.323.686,2.6573.93136,4.01734a42.58526,42.58526,0,0,1,.44718,4.42874A40.08149,40.08149,0,0,1,214.88479,497.58346Zm66.34788,219.87912c-7.05327-4.13963-22.42958-9.431-23.8619-9.99394,5.08726,3.5419,10.49614,7.22685,16.1211,10.41561q-8.85836.41415-17.72748.48419a3.33548,3.33548,0,0,0-1.09768-.91536c-.03551-.019-.07178-.03752-.10854-.056-.55947-.29061-1.10419-.597-1.63965-.92486-.63775-.41466-1.24749-.85834-1.83972-1.33152a22.79361,22.79361,0,0,1-1.67016-1.56562,23.51465,23.51465,0,0,1-1.64115-2.05681c-.13705-.21634-.50945-.82783-.86209-1.46158q-.45093-.92211-.82807-1.868c-.26411-.7618-.48269-1.5251-.672-2.30666-.1338-.68677-.23409-1.3798-.30887-2.07857a23.7282,23.7282,0,0,1-.038-2.44471c.01851-.43643.11055-1.34578.24085-2.25414a32.78038,32.78038,0,0,1,.8956-3.53139c.17207-.44793.528-1.32027.90686-2.19262l.18107-.38065c.46768-.94237.99539-1.85148,1.54961-2.74358q.94912-1.40718,2.00729-2.73257c.85634-1.00115,1.75244-1.94427,2.69581-2.84738a42.367,42.367,0,0,1,3.49888-2.83111c1.15846-.77906,2.34368-1.49709,3.56316-2.16911,1.25574-.63074,2.53174-1.20147,3.83726-1.72167a43.72148,43.72148,0,0,1,4.36872-1.30327c1.31952-.27586,2.63929-.47243,3.97731-.61824a39.51047,39.51047,0,0,1,4.10062-.08078,34.45451,34.45451,0,0,1,3.51964.42992c.35864.07378.71328.15456,1.06717.23934a31.64655,31.64655,0,0,0-1.96878,8.54737,30.62454,30.62454,0,0,0,.67677,9.46623c-3.92455-1.78145-7.79582-3.95306-11.6806-5.84706a73.49543,73.49543,0,0,0,11.33,8.93152c.46518.27461.99289.60574,1.55286.91911a32.34317,32.34317,0,0,0,3.55115,6.88322,29.95352,29.95352,0,0,0,2.74883,3.45936c-9.21588-3.50788-19.11528-5.76352-28.14408-9.49874,9.7936,6.6191,20.54784,12.05775,31.38761,17.25529-.89235.07754-1.7837.16707-2.6768.2396l.34588-.036Q284.91313,717.231,281.23267,717.46258ZM331.06781,711.56a30.67314,30.67314,0,0,0,7.85009-10.102,31.92683,31.92683,0,0,0,2.99093-16.51626,33.285,33.285,0,0,0,6.44353,1.0239q.8516.05066,1.70593.05077a31.357,31.357,0,0,0,20.23122-7.55848q.54621-.47343,1.06867-.96913a28.48387,28.48387,0,0,0,1.48358,8.75545,27.505,27.505,0,0,0,10.03971,13.38628c-10.80876,3.15349-21.82535,5.93258-32.92247,8.33128Q340.59268,709.94487,331.06781,711.56Zm76.266-19.87182-.44768.16056c-.08028.02326-.60849.21834-1.14795.41341q-7.02314,2.503-14.2266,4.76138a3.70958,3.70958,0,0,0-1.65716-1.68767c-.26135-.1303-.5162-.2676-.7688-.40641a26.917,26.917,0,0,1-2.35243-1.5391c-.579-.45493-1.13794-.93062-1.68166-1.42056a27.97656,27.97656,0,0,1-2.12859-2.34067c-.5127-.68878-.99664-1.397-1.45107-2.1351a27.33357,27.33357,0,0,1-1.229-2.44521q-.44943-1.12883-.80057-2.28265c-.18357-.67076-.39765-1.64164-.57022-2.64254-.11155-.8836-.18007-1.76795-.21009-2.6583a26.29965,26.29965,0,0,1,.13856-2.644c.11705-.84433.2651-1.68116.45768-2.517a27.22415,27.22415,0,0,1,1.05667-3.176c.17431-.3719.56047-1.17246.98413-1.945a30.31612,30.31612,0,0,1,1.73619-2.60077c.29861-.34389.89285-1.03666,1.5336-1.70042q.86509-.837,1.7832-1.59388,1.03016-.7833,2.12909-1.47608c.71253-.40641,1.43382-.78206,2.17061-1.1327.8886-.37414,1.7797-.70127,2.69906-.98789a28.34673,28.34673,0,0,1,2.86913-.599,26.297,26.297,0,0,1,2.69406-.18958c.80832.02126,1.60764.07078,2.414.14756a27.66224,27.66224,0,0,1,2.92691.56547c.80056.23035,1.58637.4947,2.36368.79807.81532.35589,1.61213.741,2.39969,1.16621a23.92,23.92,0,0,1,2.17661,1.43206l.37865.28712c.35789.30111,1.04516.9081,1.71943,1.54435.50044.52646.97963,1.06242,1.44982,1.61939a26.12028,26.12028,0,0,1,1.60413,2.29266c.41841.72953.80707,1.47383,1.16,2.23938a20.84,20.84,0,0,1,1.5346,5.36486,26.74739,26.74739,0,0,1,.19808,2.85538c-.01151.81056-.06128,1.61438-.14856,2.4177a25.79051,25.79051,0,0,1-.55222,2.83511,26.12062,26.12062,0,0,1-.8906,2.601l-.00525.01225c-.014.03552-.02776.07128-.04252.1068-.22383.5067-.51295,1.10943-.82582,1.70142-.03552.05977-.07078.119-.10429.18082.08178-.13631.08753-.14681.09378-.15706l.01926-.03527.01876-.031c-.01051.01751-.02026.03551-.03076.05352l-.01576.028.00375-.00625-.005.0085-.019.03327-.02476.046.02551-.045.01776-.03277c-.095.18408-.02576.04652.05427-.09128a4.2601,4.2601,0,0,0-.5102,1.46708Q411.834,690.0419,407.33385,691.68818ZM36.5963,594.35483a93.4712,93.4712,0,0,1,1.169-10.40685,100.20037,100.20037,0,0,1,2.91264-11.72711A111.66767,111.66767,0,0,1,45.30424,560.397a132.385,132.385,0,0,1,7.11305-13.08341,1.35076,1.35076,0,0,1,.08378-.13655c.03852-.06252.07678-.12555.11555-.18807a160.68626,160.68626,0,0,1,11.06636-15.199,194.6817,194.6817,0,0,1,16.87214-17.676A246.43926,246.43926,0,0,1,104.976,494.60129a314.64585,314.64585,0,0,1,34.28226-20.57761,394.18957,394.18957,0,0,1,46.11891-19.9386,458.93225,458.93225,0,0,1,55.91578-15.89476,492.28288,492.28288,0,0,1,61.77233-9.15386,470.75729,470.75729,0,0,1,58.76816-1.01765c.02626,0,.103.00425.17982.00825.08028.0035.16031.007.24034.011q9.60641.49669,19.27409,1.41205c9.8839.95263,19.745,2.2729,29.52538,4.01759.05277.00925.10505.0165.15732.023.17131.03151.34463.06077.5187.09053.21859.04627.44117.08628.66726.12755a331.2208,331.2208,0,0,1,37.45751,9.07908c8.46633,2.65254,16.80812,5.67523,24.96383,9.1486q2.70594,1.16,5.38487,2.38394a204.79952,204.79952,0,0,1,22.39032,12.02549l.089.05552c.08078.05027.16131.09979.24184.15031A168.1147,168.1147,0,0,1,519.351,478.43292a142.53,142.53,0,0,1,11.88368,11.22192.35343.35343,0,0,1,.03476.03726c.09079.09629.18232.19233.27286.28937a120.79,120.79,0,0,1,8.58538,10.63319,106.273,106.273,0,0,1,6.37,10.39259,81.12148,81.12148,0,0,1,7.40867,20.14744,89.854,89.854,0,0,1,1.60088,10.867c.20633,3.21226.23959,6.41453.12805,9.627l-.002.059c-.0025.06853-.0045.13706-.007.20559a96.81785,96.81785,0,0,1-1.148,9.99168,101.53617,101.53617,0,0,1-2.81235,11.45226,115.17374,115.17374,0,0,1-4.59531,11.87493,135.703,135.703,0,0,1-7.12031,13.17444,159.86527,159.86527,0,0,1-11.73712,16.15061,197.5675,197.5675,0,0,1-16.27817,17.024,236.737,236.737,0,0,1-23.56853,18.977c-.43492.29887-.99789.699-1.56036,1.09294a319.80049,319.80049,0,0,1-33.60749,20.15168q-13.5826,6.97174-27.67541,12.8028a29.68138,29.68138,0,0,0,.85559-4.1679,28.37424,28.37424,0,0,0-.83758-10.70321,15.28039,15.28039,0,0,0,5.7165,1.71042c8.3653.6195,16.79437-2.97117,24.23355-5.9691-8.231-.15556-17.081,2.33017-25.07713.03627.47719-.06028.95763-.10555,1.42881-.19108a30.8672,30.8672,0,0,0,17.667-9.7806,29.70777,29.70777,0,0,0,3.275-4.473c5.1888,1.328,10.50089-.01151,15.36431-1.92226-4.50228.18632-9.44848.73279-14.0728-.46894a30.62658,30.62658,0,0,0,3.05571-11.97346c.01775-.39816-.001-.79832.00075-1.19773.61624.22509,1.282.44093,2.025.64,9.86264,2.72332,19.76079-1.822,28.549-5.92334-9.99394,1.29576-21.34491,4.68885-31.07424-.31587a30.123,30.123,0,0,0-4.11912-10.67571q.649-.293,1.286-.611a36.36442,36.36442,0,0,0,7.33589-4.84416,19.64156,19.64156,0,0,0,6.95649,2.28365c9,1.22549,17.77826-2.14084,26.001-5.37186-9.76285,1.06542-20.8082,4.09036-30.4515.74729a33.13419,33.13419,0,0,0,9.34118-18.406c.02376.005.04752.01151.07128.01651,12.64548,2.27514,25.27621-2.37369,37.14763-6.27923-12.02774.41792-24.79251,4.20091-36.95406,1.893a27.88179,27.88179,0,0,0-.19682-2.90514,24.02835,24.02835,0,0,0-3.36358-9.436,20.36694,20.36694,0,0,0-1.804-2.502c.113.02226.22384.05227.33738.07328,13.73316,3.02194,27.315-2.19261,38.571-9.8959-5.29709,1.33678-11.08762,3.22577-16.66807,4.23642-10.75273,2.53925-21.45645.39566-31.83329-2.86588a27.49647,27.49647,0,0,0,2.32067-13.63012,28.105,28.105,0,0,0,6.81093.99265c10.39559.042,19.90459-4.99747,28.64153-10.1365-11.83416,2.36293-24.82178,6.27347-36.83851,2.503a28.35816,28.35816,0,0,0-4.70285-8.6154,29.91405,29.91405,0,0,0-3.55265-3.63918c.55447.05727,1.10969.10729,1.66665.13705,11.28845,1.18022,22.57465-2.463,31.91258-8.31177-12.64824,3.41034-26.34963,5.597-39.252,2.26939a30.13937,30.13937,0,0,0,5.52393-11.85567c.08053-.37139.14981-.74429.21608-1.11769,8.00716.30162,15.85375-3.708,22.36732-7.68177-7.24286,1.71817-14.479,4.418-21.97066,4.35a30.00874,30.00874,0,0,0-59.87484-4.13388,28.16527,28.16527,0,0,0-3.82925-.44642,34.29906,34.29906,0,0,0-5.86206.20833,34.8927,34.8927,0,0,0-.81207-7.3489,33.94674,33.94674,0,0,0-8.81648-16.35844,34.425,34.425,0,0,0-19.1708-9.98718,35.92355,35.92355,0,0,0-11.83516.18357,33.63873,33.63873,0,0,0-10.33157,3.754,34.69451,34.69451,0,0,0-12.60522,12.24907,28.12283,28.12283,0,0,0-8.31652-1.38279,31.76263,31.76263,0,0,0-11.19241,1.91725,29.27831,29.27831,0,0,0-11.34122,7.66352,29.63381,29.63381,0,0,0-6.5941-6.38651c-.29811-.21834-.99839-.689-1.73318-1.11394a28.25715,28.25715,0,0,0-21.8456-2.83537,28.57626,28.57626,0,0,0-10.148,5.22331,32.12441,32.12441,0,0,0-2.76434,2.567,21.18319,21.18319,0,0,0-10.59843-5.79478,18.51731,18.51731,0,0,0-11.465,1.46332,38.31826,38.31826,0,0,0-5.55269-17.24529,29.73918,29.73918,0,0,0-7.03377-7.79082,28.47542,28.47542,0,0,0-10.7795-5.06224,26.31123,26.31123,0,0,0-11.4335.0115,32.86345,32.86345,0,0,0-10.60718,4.46551c-6.4628,4.07511-11.24968,10.44636-14.39517,17.32232a43.74381,43.74381,0,0,0-3.89178,17.56392,3.91542,3.91542,0,0,0,.04827.58573,33.05012,33.05012,0,0,0-4.88718,2.15085c-.37915.20558-.73679.44568-1.10669.66651a119.521,119.521,0,0,1-13.17243-7.66076,46.22151,46.22151,0,0,0,10.63193,9.34568,33.03363,33.03363,0,0,0-6.97549,6.908c-3.78374-1.7792-7.39167-4.00083-11.14765-6.02613a50.41089,50.41089,0,0,0,9.49349,8.09319c.05853.03352.1203.07.18008.10454a33.01986,33.01986,0,0,0-2.68856,5.26058,33.99932,33.99932,0,0,0-1.788,6.338c-5.25482-1.92225-10.15975-4.81339-15.126-7.20434,4.421,3.837,9.04857,8.66692,14.68429,10.67921-.07378.97163-.11355,1.952-.10079,2.94091a32.13988,32.13988,0,0,0,1.136,8.18572q-1.44207.20034-2.86913.5042c-.04527.00976-.089.02476-.13431.03477a3.21561,3.21561,0,0,0-2.08207-.732c-9.36819-2.26664-17.32557-7.48145-24.94482-13.38552,4.4545,7.24535,11.62508,13.66588,19.95686,16.51a38.99783,38.99783,0,0,0-10.50914,7.17307c-.37165-.1308-.7498-.25334-1.126-.38165a78.24244,78.24244,0,0,1-20.19245-9.9189,35.73149,35.73149,0,0,0,18.06086,13.82594,38.743,38.743,0,0,0-4.72035,7.595c-.3569.75154-.678,1.51734-.97964,2.29015A236.07354,236.07354,0,0,1,86.07079,551.486a48.2811,48.2811,0,0,0,21.07806,15.00891,37.45668,37.45668,0,0,0-1.33253,12.08126c-11.32421-3.72847-21.74982-8.77571-32.49055-14.52472,8.95253,9.16211,19.61873,18.15265,32.68913,20.80019a3.90193,3.90193,0,0,0,.75955.48294,36.98755,36.98755,0,0,0,2.70006,7.63576,90.49092,90.49092,0,0,1-21.87736-7.60375c-8.73044-4.51252-17.877-10.30431-26.19607-15.39381,12.789,13.66763,28.516,25.87844,47.56773,27.91224a41.93791,41.93791,0,0,0-5.33835,8.07218c-.66376-.17757-1.33577-.32312-1.94927-.47943A178.48784,178.48784,0,0,1,67.70181,594.17c-2.72132-1.12169-5.677-2.60477-8.28827-3.51263,12.18905,10.19326,26.48269,17.62069,42.4,19.40264-.31313.84683-.60049,1.70242-.85059,2.568a46.71064,46.71064,0,0,0-1.46783,7.19559q-.34251-.06528-.686-.1268a99.27725,99.27725,0,0,1-15.25626-3.054c-9.62629-3.115-18.97747-8.23449-28.23962-12.53543,12.4484,9.97693,27.07016,20.12893,43.83927,19.85432a39.32654,39.32654,0,0,0,1.03365,10.23753c-11.522-.48469-23.08434-2.71307-34.57737-4.34671a97.42281,97.42281,0,0,0,26.5177,7.3699c2.79985.068,6.10816.7623,8.88925-.0135a42.23076,42.23076,0,0,0,3.873,8.8935,43.64832,43.64832,0,0,0,2.91064,4.3097c-10.63819-.05127-21.26937-2.00754-31.92807-2.56651a124.669,124.669,0,0,0,23.79712,6.80718c1.97478.21858,8.32453,1.09943,12.081.23409a42.47507,42.47507,0,0,0,13.4543,8.83548c-3.4306-.09554-6.879-.24935-10.34758-.37215-9.20637-.43842-18.26094-2.06556-27.33276-3.43285a113.57974,113.57974,0,0,0,42.82987,8.47184c6.49906.10554,13.05789-.22284,19.34187-1.99629a1.95329,1.95329,0,0,0,1.47658.35064,35.13115,35.13115,0,0,0,9.34618,6.99376c-11.972.96037-24.02971.653-36.064.27986,8.77271,1.79545,18.34073,3.42409,27.51634,3.60467,5.84931-.05177,11.75864.05852,17.56817-.71178a35.86716,35.86716,0,0,0,7.499.80881,33.36416,33.36416,0,0,0,4.9592-.36764,36.94622,36.94622,0,0,0,6.05964-1.40055,32.979,32.979,0,0,0,2.415,6.97575c-18.03085,2.98942-36.63868,1.12294-54.85911.41166a188.38763,188.38763,0,0,0,31.44239,4.36247c7.89586.22383,15.963-.23535,23.55578-2.51424.26435-.11855.564-.22934.85108-.3609.02976.05177.055.106.085.15782a27.12911,27.12911,0,0,0,4.77539,6.22195,29.742,29.742,0,0,0,3.54664,2.83361c-12.685,1.79771-25.63585,1.05392-38.42488,1.45333a235.03139,235.03139,0,0,0,26.33387,3.70821,63.2813,63.2813,0,0,0,18.83042-1.48584,2.75688,2.75688,0,0,0,1.72168-.01225,23.31344,23.31344,0,0,0,4.87867.5302,22.18976,22.18976,0,0,0,2.78935-.17431c7.96413-1.0064,14.96239-5.77553,19.638-12.18355a20.75064,20.75064,0,0,0,5.21681,3.65394c-.16807.32913-.35364.64625-.5122.98188a27.92,27.92,0,0,0-2.62354,11.17015c-6.18393.97689-12.679,2.26064-19.05375,2.68681.09378-.01175.17156-.01926.2756-.034-11.99122.99264-24.04122.71028-36.05745.58573a222.65153,222.65153,0,0,0,29.12372,3.62768c2.23313.31787,18.38475-.121,25.983-2.53875a23.93236,23.93236,0,0,0,5.84555,12.31935q-6.51144-.10879-13.02288-.39065a410.16425,410.16425,0,0,1-49.22914-5.38763c-.00926-.00075-.06028-.01025-.112-.0195-.10179-.01751-.20283-.03452-.30487-.052-9.16135-1.65766-18.35523-3.64669-27.47032-6.07265q-3.44422-.91274-6.888-1.91725c-1.19372-.35589-2.38769-.70028-3.56991-1.06767-.49769-.15606-.99264-.32963-1.48833-.45968-.33363-.1243-.67977-.22109-1.02591-.33238a259.01721,259.01721,0,0,1-28.43845-10.896,207.11509,207.11509,0,0,1-22.48986-12.04849,168.09226,168.09226,0,0,1-16.82388-12.114A136.42668,136.42668,0,0,1,61.239,656.52908a118.7153,118.7153,0,0,1-9.08283-11.12489,102.13764,102.13764,0,0,1-6.70339-11.00383l-.03851-.07378c-.037-.06953-.07353-.13855-.11-.20833a97.04553,97.04553,0,0,1-4.3-9.98118l-.06077-.16632c-.01951-.05352-.03952-.10729-.05878-.16106a90.99966,90.99966,0,0,1-2.6868-9.58678,85.968,85.968,0,0,1-1.45733-9.97843A87.74358,87.74358,0,0,1,36.5963,594.35483Z"/>
    <path d="M989.10653,341.65529a133.76934,133.76934,0,0,0-7.086-12.46216c-4.44825-12.597-9.25214-23.82539-10.74148-27.01614-14.54047-34.33078-39.7399-60.15245-70.25267-77.63909l.0095.00325c-.13355-.07678-.2701-.1483-.40391-.22483q-1.82209-1.03842-3.66769-2.03981c-.4917-.26635-.98839-.5237-1.48284-.78581-.9101-.48219-1.822-.96188-2.74058-1.42956-.607-.30962-1.21823-.61149-1.829-.91436q-1.23573-.61337-2.47922-1.212-.98589-.47193-1.978-.93162-1.20386-.56008-2.416-1.10468-1.01478-.45581-2.0343-.90186-1.2181-.53084-2.44522-1.04366c-.67852-.28536-1.35653-.571-2.03855-.84908-.83408-.33989-1.67266-.66977-2.512-.99889-.675-.26511-1.34853-.53321-2.0268-.79132-.84733-.32237-1.70017-.632-2.5525-.94337-.68377-.2501-1.365-.5062-2.05206-.74929-.765-.27061-1.53561-.52721-2.30416-.78906-.73254-.2501-1.46083-.51021-2.19662-.7523-.0115-.01151-.0115-.01151-.023-.01151-1.44257-.18132-2.88739-.34188-4.33321-.49244-.27061-.02826-.54121-.05377-.81182-.081q-1.74856-.1752-3.49913-.32113c-.32888-.02751-.65751-.05577-.98639-.08178q-2.00967-.15793-4.02158-.28011c-.07678-.00475-.15331-.01075-.22984-.01526-.80682-.047-1.61414-.084-2.42121-.122l-.009-.00676c-.18632-.009-.37265-.01275-.55872-.02126q-.60512-.02662-1.21048-.051c-.37164-.01425-.74329-.025-1.11494-.03751-.5092-.01676-1.01865-.036-1.5281-.04952-.49719-.013-.99464-.02051-1.49184-.03026l-.10279-.00225c-.35439-.0065-.70853-.01651-1.06292-.02151-.26485-.00425-.5287-.01276-.79406-.01626l.01051.00751c-.8751-.00926-1.74994-.00951-2.625-.00826-.38915.0005-.7783-.00325-1.16746-.0005q-1.99353.01352-3.98682.06428c-.48119.012-.96163.03026-1.44257.04527q-1.37792.04314-2.75558.102c-.27361.012-.54747.0175-.82108.03051l.03977.0065q-7.2366.34176-14.44169,1.1452l-.0045-.0035c-.11154.01175-.22059.02826-.33188.04027-1.49809.16906-2.99543.34713-4.48977.54521-.68852.08053-1.36579.17207-2.04356.2641l.01551.01051q-10.74123,1.388-20.85747,3.6827l-.02776-.01976c-.89935.19983-1.7787.41967-2.6648.63275-.58148.13806-1.16546.27211-1.74393.41416-.06053.01526-.1228.02852-.18308.04352l.004.00275a237.63253,237.63253,0,0,0-24.6137,7.51821l-.0025-.00175c-1.79071.65426-3.5584,1.32027-5.3266,2.00879l.00425.003q-9.3228,3.6408-18.26394,7.92037l-.004-.00251c-.39966.19108-.79382.39216-1.193.58423-1.57062.7558-3.13749,1.51835-4.69435,2.29941-.1148.05777-.23134.11154-.34614.16957l.007.00375q-8.44231,4.24891-16.65006,8.952c-.46368.26285-.92736.5232-1.391.79081l.0095.00675q-7.62225,4.38885-15.11595,9.08558l-.001-.0005c-.57373.35564-1.148.71153-1.72168,1.07892l.005.00376q-5.68011,3.57929-11.32346,7.29487l-.01151-.00925q-.80957.53946-1.61913,1.07942c-6.75091,4.46051-13.48657,9.04356-20.256,13.68764l-.005-.00425c-.81532.56922-1.63039,1.12744-2.446,1.68591q-7.80232,5.362-15.70293,10.79276l-.0005-.0005c-1.20548.82607-2.4107,1.65315-3.61618,2.46772l.00175.00125q-6.322,4.31157-12.755,8.60864c-7.52672,4.9512-15.17023,9.86013-22.92253,14.66128l-.0025-.00176c-.86535.53772-1.74144,1.07118-2.61128,1.60789q-8.42282,5.17254-17.0127,10.137c-1.319.7603-2.64205,1.5211-3.97757,2.27165l.003.00175q-7.71979,4.3746-15.57038,8.50235c-1.6394.86034-3.2818,1.71842-4.93045,2.56126q-5.96447,3.05182-11.99847,5.92883-3.57929,1.7133-7.18984,3.33356-5.37737,2.43621-10.8055,4.71336l-.00675-.00425c-.115.05727-.21809.10329-.33314.14931l-.01625.00625c-2.38819.96188-4.78189,1.88424-7.17808,2.79335-.19258.072-.38465.14781-.57723.21934l.00576.003q-8.29677,3.13286-16.67332,5.90257c-.67952.22809-1.36679.44693-2.04931.67027-9.42971,3.08971-18.95972,5.91133-28.62228,8.61889-3.01893.84584-6.04388,1.68742-9.09758,2.513-1.186.32263-2.36443.64826-3.5549.96938q-7.9006,2.03668-15.84974,3.85777-3.0507.70453-6.10941,1.3828-1.3948.30874-2.79085.61249-4.06173.88122-8.12795,1.72368l.00375.00225c-60.67515,12.52819-122.91067,18.2692-183.5263,31.58919-51.88769,12.28309-102.99432,29.49087-149.8998,55.11321-37.33145,19.1593-71.98785,48.17948-86.0734,88.886a115.77122,115.77122,0,0,0,2.90364,79.28848C22.80437,686.15375,66.00014,717.51385,108.98307,742.038c45.05725,25.46128,94.12083,46.5721,146.26062,50.46413,51.95621,3.62743,105.14091-1.90575,154.58314-18.62008,69.06071-25.35824,131.3715-69.61168,178.62137-125.96488,19.85982-23.73935,36.33256-50.0162,54.96415-74.69692,17.73548-22.879,37.13613-44.72437,59.567-63.12612,42.94492-34.9205,97.025-54.59626,151.72477-61.002,34.186-4.33946,70.04835-2.82386,103.17815-13.75267C1002.19318,420.81822,1009.63211,379.93912,989.10653,341.65529ZM32.91986,524.15693c40.85584-50.31482,129.09885-80.95364,190.73238-97.97784,74.20048-18.70762,152.12743-24.14777,226.71531-41.65691,24.93057,4.90518,44.68836,17.41761,68.44571,31.9911-17.36108-12.97086-36.61817-27.80471-57.824-34.57487q7.46394-1.88137,14.87586-3.94981c22.85125,7.42017,44.29569,19.88533,64.174,33.14056-16.57728-13.94275-34.79871-27.227-55.0702-35.76984q10.6407-3.17414,21.15033-6.82069c.35139.14856.70253.30662,1.05392.44943A352.06376,352.06376,0,0,1,558.728,399.914a291.73675,291.73675,0,0,0-47.8381-33.06653q7.94939-2.86687,15.81173-6.04713c19.55921,10.4011,38.00347,22.8565,56.16738,35.56651-15.51111-13.53233-31.68223-27.14369-49.18938-38.47991q5.63135-2.4077,11.21092-5.00072c18.937,10.50764,36.25878,23.94519,53.09716,37.488-14.41768-14.32414-29.78348-28.63-46.62461-40.50921q6.316-3.00419,12.50492-6.21695a336.0585,336.0585,0,0,1,49.14636,31.79153c-13.16693-12.60722-27.43781-24.95683-42.87714-35.10583q6.98938-3.76911,13.84145-7.76406a422.74916,422.74916,0,0,1,38.667,26.20157,339.2171,339.2171,0,0,0-34.50159-28.635q6.82619-4.04222,13.54583-8.2595c12.62,7.53972,24.43238,16.66931,36.47587,25.01285-10.23428-9.21838-20.38353-19.44991-31.57894-28.09607q8.389-5.32972,16.67332-10.83376c8.13745,5.12176,16.03632,10.76374,24.13526,15.75295-2.25389-1.73493-12.13829-10.05421-21.88938-17.246q8.45883-5.62722,16.8649-11.34372c6.59935,4.41124,13.09916,8.96628,19.59171,13.52833-1.69116-1.59888-8.94352-8.64541-16.7621-15.44709q8.03716-5.45652,16.07884-10.90854c10.17,8.01965,19.69125,17.19027,29.37107,25.58682-1.57362-2.08807-14.94739-16.09434-27.24149-27.02314q9.66081-6.51744,19.4049-12.90308c13.8272,10.47412,26.26034,23.01681,40.65676,32.71713-12.708-11.01358-24.77826-23.56878-37.83115-34.55411q5.82829-3.77624,11.71437-7.45994c19.33186,14.63427,37.16514,31.46315,55.60715,47.05354-16.74384-16.83688-34.50509-33.70228-53.8317-48.159q7.51346-4.668,15.151-9.13485c3.35232,2.45822,6.68089,4.94295,10.03946,7.33514,18.50529,13.5801,36.11473,28.48072,53.58661,43.38109-18.41776-18.91745-38.48591-37.379-60.65214-52.43716q6.648-3.82125,13.414-7.45193c.87534-.41617,1.76219-.81783,2.644-1.226A155.03577,155.03577,0,0,1,750.459,248.03966c18.76889,13.29324,34.43831,30.17939,51.39374,45.59646-13.41953-15.08394-26.58647-31.46489-42.38244-44.50578-6.15268-5.43989-13.09666-9.67406-20.10692-13.8272q8.94014-3.88278,18.24218-7.16632c10.15525,7.11755,20.24423,14.31989,29.86327,22.11871,12.92584,11.4105,24.66921,24.02672,37.00982,36.0457-11.1924-13.17869-22.44259-27.12618-35.1731-39.14542-8.46008-7.3739-17.46213-14.1058-26.48894-20.79769,8.283-2.73458,16.72759-5.0875,25.27546-6.992,25.28871,19.25333,49.33368,40.15882,70.83666,63.61731-18.09938-24.92532-40.94914-46.29949-65.89-64.672q10.59529-2.138,21.3304-3.32181c8.06468,6.21545,15.7422,13.10766,23.46049,19.50443,19.68726,17.20778,38.26133,35.60928,57.7305,53.05816-19.653-21.63878-39.90272-43.59893-62.18475-62.86177-1.10944-.92436-6.17593-5.31384-12.43015-10.32056a209.02931,209.02931,0,0,1,29.22552-.31963c31.3666,23.41873,59.52144,50.96208,86.371,79.414-22.30654-29.61591-49.15586-55.86125-78.49617-78.79,1.55261.15781,3.10122.34238,4.64858.539,46.18069,15.52812,84.99873,47.59425,104.3431,94.98892.43993,1.07267.88635,2.14034,1.305,3.22952q1.08079,2.817,2.07531,5.701c.01226.03176.02376.063.036.095,1.33,3.50163,2.62628,6.94774,3.85427,10.39335-4.45551.20008-8.90826.46718-13.36052.83033-31.19,3.09947-62.41433,6.93348-93.06466,13.56884-30.74186,7.1058-60.72642,17.47163-89.75811,29.80074-69.9563,28.38893-134.99918,76.43061-168.49662,145.62912-17.54041,34.6454-30.67333,71.91933-55.05569,102.67269-36.218,49.83263-94.91264,76.44237-151.5642,96.21015C336.41541,740.7525,264.0259,743.255,194.7351,733.73849c-35.97642-4.48877-71.3221-12.38663-104.0845-28.87112C63.29482,690.61,35.85851,672.05894,20.02828,644.76044a102.22363,102.22363,0,0,1-5.08851-10.755c-.06152-.15231-.1273-.30337-.18807-.45593-.42142-1.05691-.81757-2.12058-1.20247-3.187q-.17782-.49257-.35064-.98664c-.37665-1.07917-.74179-2.16135-1.08143-3.24878-.041-.13105-.07778-.2626-.118-.39365q-.49257-1.59963-.93087-3.21027c-.05377-.19683-.10854-.39315-.16131-.59023q-.48207-1.809-.90111-3.62893l-.01976-.08979C2.59216,585.67316,11.08651,550.53432,32.91986,524.15693ZM92.826,714.13452c-.26511-.15556-.532-.30762-.79657-.46393.2546.11929.51045.23609.7653.35439C92.802,714.06249,92.81545,714.09775,92.826,714.13452ZM967.91968,422.93706c20.11067-18.938,18.68436-50.49514,7.12131-73.76531-1.96228-3.821-4.00483-7.61675-6.30174-11.23818,1.942,5.98286,4.19065,12.49192,5.46391,18.8952,5.1,26.60673.96087,52.1788-18.909,71.56319q-3.747,1.25337-7.54147,2.2914a58.56244,58.56244,0,0,0,6.45629-9.67231c10.08822-17.68972,14.60525-39.69139,6.865-59.09653a55.19976,55.19976,0,0,0-2.502-6.01537c.5112,2.33867.92936,4.6921,1.27375,7.08279,3.10072,23.59454-6.29373,51.05411-20.72917,69.80275-3.36282.72328-6.7469,1.346-10.147,1.89174,4.503-5.42739,8.81222-13.57635,10.26154-16.18963,7.579-12.1973,11.66484-26.91885,6.45029-40.8791q-1.13482-3.59879-2.30641-7.17457c.031,2.50673.58523,5.51542.70028,8.20773,2.06406,14.522-4.75538,27.73692-11.73262,40.05178-3.33232,5.82254-6.15743,12.06075-10.727,17.04821-4.22491.54722-8.46884.99614-12.72276,1.3863,2.458-2.86113,4.60331-5.99086,6.84044-9.02131,11.08437-14.046,14.8381-29.35831,9.15986-46.59535-.40091-1.43482-.80257-2.88114-1.21573-4.31645.08629,2.31266.67427,5.20755.86434,7.72379.4917,7.18208.79957,14.50421-1.59913,21.49172-4.43349,11.26393-12.13,21.43069-19.40889,31.18078-4.88943.39816-9.78636.74054-14.678,1.08193,1.362-1.47408,2.65355-3.02444,4.00758-4.23717,11.53205-12.97011,19.64049-32.72214,11.57131-49.41972-1.04491-2.12409-2.31916-4.13313-3.52464-6.17618.70053,2.71231,2.09658,5.74826,2.6518,8.74744,2.89589,19.29785-9.1401,37.49252-21.92389,51.05336a2.396,2.396,0,0,0-1.16146.34039,2.26277,2.26277,0,0,0-.40466.31987c-3.68645.27436-7.36515.568-11.02934.90761.01876-.018.04077-.033.05952-.051,13.67114-12.00123,20.20721-30.75461,15.761-48.54687a39.41308,39.41308,0,0,0-2.52474-7.74881,59.17985,59.17985,0,0,1,.97563,6.79593c1.895,19.97312-8.05967,37.73737-23.14362,50.36034l-.06152.063q-5.604.5871-11.19041,1.33227c11.81291-9.84263,16.36245-27.04615,11.64559-41.66992,1.09418,17.28681-5.52243,31.03348-17.61269,42.5105q-7.46544,1.11606-14.87786,2.53925c7.62575-9.94442,12.53219-22.39632,11.26519-35.06206-.78106,12.88683-6.79768,26.00224-15.46384,35.90289q-7.89612,1.62739-15.70369,3.64544c7.15882-9.44172,8.89575-22.62842,7.20359-33.8966-.91536,12.49167-3.49738,26.19081-12.66524,35.36918q-6.16331,1.72-12.25608,3.70046l-.02326.0075c4.98747-8.25475,8.20148-18.58982,5.83455-27.896.85784,6.17868-1.335,12.70576-3.88153,18.48178-1.56462,3.60392-3.07146,7.44343-5.55269,10.56841q-7.6425,2.48874-14.84584,5.26083c4.2094-7.51221,6.327-16.52451,3.6962-24.8668.7553,9.49674-3.0587,19.10678-8.74069,26.86408-42.88339,17.42262-74.43582,42.43322-102.16975,72.74116a264.85013,264.85013,0,0,1,9.68307-51.89344c-6.98,15.27651-12.19106,31.41387-13.48857,48.237a38.941,38.941,0,0,0-.054,7.93537q-2.75508,3.09686-5.46615,6.263c-.63475-15.31153.42016-30.89592,1.71767-46.00487-3.91129,14.37116-7.113,29.05444-6.92247,44.02359.14856,2.413-.09454,5.127.53171,7.52271q-3.63481,4.37272-7.2131,8.8655c-1.97552-13.40128.19433-27.31451,1.97728-40.42393-4.75237,13.844-8.839,28.50348-6.899,43.266.12755.82532.27711,1.7907.5097,2.75383q-4.54718,5.83542-9.04932,11.85442c-2.35393-13.87346-1.68766-28.39168-.24234-42.20362a112.075,112.075,0,0,0-5.37162,38.67473c.34364,2.87388.13931,6.5891,1.11494,9.58077q-4.91256,6.65812-9.83638,13.51258c-2.01879-13.84671-.9016-28.50373-.9036-42.20763-1.34353,8.13095-5.20405,35.21162-1.53761,45.60747q-4.16226,5.80915-8.37154,11.74562c-2.36544-14.00276-1.267-28.66554-.36315-42.557-3.37483,12.9471-5.758,26.1613-5.01572,39.5926.23734,2.82161.14805,6.19093,1.07892,9.02655q-3.427,4.83528-6.90872,9.74309c-.30912.40091-.6285.79481-.93912,1.19472-.96613-12.25383-2.22012-25.05137-4.07661-36.98557-.32137,10.6497-.55346,21.3094-.10329,31.95884.47194,2.54475-.126,6.55258.70628,9.44747q-3.99608,5.00561-8.15871,9.88865c-1.46358-9.28791-1.93551-19.05726-3.193-28.14534-.761,8.972-1.76995,18.02385-.75805,27.01139a14.184,14.184,0,0,0,1.07768,4.49977q-3.46674,3.99645-7.04428,7.90287c-.98564-6.43954-.96813-13.26223-1.75844-19.58222-.66276,7.32439-2.05431,14.9739-.69778,22.26978q-3.76948,4.06246-7.65326,8.02316c-.76055-3.37934-.78606-7.1023-1.63189-10.25579-.029,2.73207-1.10469,8.32553-.43818,12.35886-46.912,47.33815-105.2197,84.0181-168.92054,103.29895-64.90532,16.6453-135.53889,21.05354-199.70917-.95288-36.05745-12.53544-70.40424-30.00732-102.33982-50.86554-16.40446-11.2957-32.958-22.94754-46.13667-38.03173q-1.34528-1.64127-2.65229-3.32081c.70477.6305,1.4093,1.26175,2.12133,1.88049a2.2846,2.2846,0,0,0,1.11769,1.3818c4.498,4.72736,9.17937,9.31642,14.11356,13.59686a205.93281,205.93281,0,0,0,16.89791,12.79929,322.46031,322.46031,0,0,0,36.99832,22.17848c.12755.07.32763.17532.52821.27586,3.60242,1.85823,7.46094,3.78649,11.35322,5.63622,12.87657,6.12341,26.072,11.59632,39.46255,16.453l.01225.00426c.03552.013.071.02626.10654.03876.21409.07628.48019.17582.746.27561l.33388.116c6.68038,2.43245,13.54509,4.72836,20.45581,6.8752,6.899,2.14635,13.8442,4.12088,20.8122,6.01487,6.8647,1.87149,13.77542,3.65044,20.72066,5.189,11.13489,2.52524,22.741,4.5803,34.40405,6.12991a262.66026,262.66026,0,0,0,34.56412,2.36643q3.85839-.00075,7.71479-.12805c13.14417-.43592,26.40315-1.88224,38.95009-5.9806l-.005.00375a.54986.54986,0,0,0,.10479-.03652h.003l-.00075.00351.00825-.0025a1.75975,1.75975,0,0,0,.62425-.19808c.21809-.08.44793-.17207.666-.25235.2396-.08729.46919-.17457.69753-.27136l.02576-.00425c.08028-.023.04577-.13755-.023-.11455l-.01051.00175-.001-.00175-.012.00451c-.1198.02275-.2481.054-.3669.07553h.01151a5.3875,5.3875,0,0,0-.746.1493,5.32033,5.32033,0,0,0-.94162.19508l.001.0025a.197.197,0,0,0-.046.02451c-1.09418.30512-2.26615.45168-3.37583.65976-.15256.026-.32838.05852-.5037.09179l.01175-.0035a162.10089,162.10089,0,0,1-20.63012,2.1751,262.566,262.566,0,0,1-31.83279-.83082c-.07228-.004-.19058-.01251-.30838-.02526-.656-.06228-1.47082-.13081-2.28615-.21134-4.362-.40166-9.0113-.95287-13.64887-1.53835-6.95674-.87235-13.91348-1.9055-20.81245-3.168-7.18608-1.32027-14.32639-2.82411-21.46671-4.40824-4.71811-1.05641-9.75759-2.26139-14.76281-3.58191-13.96025-3.66144-27.67015-8.15621-41.231-13.06264-6.13391-2.24314-12.35511-4.62983-18.50829-7.16408-10.86678-4.46175-21.56874-9.33042-32.10639-14.52272,14.14032,5.766,28.9534,10.09448,43.46712,14.555,30.7191,10.00919,62.02493,19.76128,94.62577,20.11117,11.48828.19983,23.45349-.23785,34.69592-1.17872-26.5462-.33563-56.44223-.80931-83.20753-8.1277-17.0192-4.29119-33.60949-10.42861-50.33832-15.87925-10.161-3.34582-20.393-6.64512-30.46651-10.34408,41.06493,12.6775,85.42791,17.16777,127.59227,18.72313,27.13769.19532,54.36716-.87235,81.28652-4.52278,36.95255-5.36112,72.98675-16.41572,107.253-31.13277,29.54839-13.08665,58.84443-27.95276,83.70872-48.82223,23.533-20.36477,42.25615-46.01012,56.973-73.31988,10.079-18.987,18.21817-38.92684,27.61988-58.24695,26.48318-57.78776,75.01855-103.442,131.2567-132.1293,44.01259-22.27027,90.63095-39.9945,139.1203-49.62605,31.17929-5.44764,62.50663-9.83837,94.04455-11.41174.42092-.02251.84308-.03327,1.2645-.05477C995.97423,367.39368,1002.1249,403.98384,967.91968,422.93706Z"/>
    <path d="M299.304,566.59415a21.99286,21.99286,0,0,0-.551,8.43757,5.847,5.847,0,0,0,1.06492,2.30766l-.02051-.023c.18107.31638.45118,1.07943.92086,1.07943l.02051-.00075c.03451,0,.046-.04577.0115-.06878a.03565.03565,0,0,1-.023-.0115.16044.16044,0,0,1-.03451-.02276l-.0115-.01151-.01151-.0115a.1495.1495,0,0,1-.034-.04577l.0035.001-.0035-.01275-.03452-.1033v.01151a2.35123,2.35123,0,0,1-.05752-.27561v-.03426a8.95194,8.95194,0,0,0-.13755-1.65315v.013a2.57251,2.57251,0,0,1-.03352-.40266c.0015-.10129.008-.20783.00951-.30937l.0005-.01075.0005-.02476c.142-1.0054.44217-2.01205.677-3.00769.3669-1.34128.82558-2.79735,1.31827-4.26468.24835-.59773.49-1.20247.73029-1.80821.73179-1.49959,1.42331-3.00894,2.23988-4.46576a41.8161,41.8161,0,0,1,2.30091-3.51238c.47719-.62625,1.13445-1.38555,1.822-2.13209a17.73755,17.73755,0,0,1,1.50734-1.39655,14.74415,14.74415,0,0,1,1.60689-1.10919,12.60113,12.60113,0,0,1,1.57286-.81482,12.38681,12.38681,0,0,1,1.54011-.579,18.19824,18.19824,0,0,1,2.10333-.46868l-.00475.003c1.12519-.1263,2.27314-.10354,3.39809-.26386.04576-.0115.04576-.069,0-.069-.22959-.01151-.45918-.023-.68877-.046a19.797,19.797,0,0,0-4.28169-.52821,15.57142,15.57142,0,0,0-8.73619,2.81261,19.48683,19.48683,0,0,0-6.10716,7.09429A29.973,29.973,0,0,0,299.304,566.59415Z"/>
    <path d="M282.65173,647.07635a.03579.03579,0,0,0,.03027.01626.03945.03945,0,0,0,.03826-.05077,10.08762,10.08762,0,0,1-.26035-1.12494l.008.0115c-.115-.74629-.27536-1.48083-.3904-2.22713v.00275a32.6682,32.6682,0,0,1-.34414-3.88278c0,.00451,0-.15631-.0055-.31537-.006-1.29176.06252-2.612.18907-3.9323a45.60137,45.60137,0,0,1,.93387-5.088,49.1473,49.1473,0,0,1,1.70867-5.18655,36.25326,36.25326,0,0,1,1.74069-3.62717,49.83413,49.83413,0,0,1,2.7846-4.41374,27.58927,27.58927,0,0,1,1.94877-2.33767c.60348-.615,1.24148-1.20773,1.902-1.76645.13806-.11029.27661-.21884.41492-.33263.53946-.40191,1.2625-.89535,2.0318-1.36629.41141-.22184.98414-.525,1.57787-.80657.61824-.2706,1.34528-.54671,2.09207-.79181a22.69441,22.69441,0,0,1,2.37969-.53671,16.79036,16.79036,0,0,1,1.938-.14881c.67027.00175,1.34053.036,1.99979.10279a14.75312,14.75312,0,0,1,1.49209.27586h-.0115a9.54461,9.54461,0,0,1,.94137.26385c.04576.01151.06877-.05727.023-.06877a18.62321,18.62321,0,0,0-10.2628-1.69892,22.15775,22.15775,0,0,0-15.80722,10.50364,26.96063,26.96063,0,0,0-1.69892,23.95768A23.04032,23.04032,0,0,0,282.65173,647.07635Z"/>
    <path d="M387.28345,520.466a18.86736,18.86736,0,0,0-17.39135,14.25761,16.81129,16.81129,0,0,0,.95288,10.98583,9.01872,9.01872,0,0,0,1.51534,2.39945l.00275-.0025a.20236.20236,0,0,0,.19508.05477l.02026.028a.05468.05468,0,0,0,.03026.009c.025,0,.04652-.01876.03852-.04352l-.00976-.029a.17421.17421,0,0,0,.06728-.18907.042.042,0,0,1-.01151-.03476c-.08053-.27511-.17206-.56223-.2526-.86059v.00575a18.95189,18.95189,0,0,1-.48219-2.18686v.0025a24.82053,24.82053,0,0,1-.24034-2.80586c.00425-.775.04877-1.54085.12555-2.31666.09779-.7688.25985-1.67766.46343-2.59527-.0055.008.005-.03051.01526-.069l.015-.06778c.26611-.99289.58848-2.004.96663-3.01318a31.83815,31.83815,0,0,1,1.42456-3.01494c.51321-.88235,1.10994-1.83547,1.7642-2.75384.03351-.05577.14556-.20333.25735-.35564.539-.67251,1.08968-1.32327,1.68391-1.95176.55572-.55247,1.1232-1.08393,1.73219-1.58413a20.6546,20.6546,0,0,1,1.7907-1.27425,18.88788,18.88788,0,0,1,1.97478-1.04441c.5052-.20683,1.06767-.41341,1.65315-.60849a17.95494,17.95494,0,0,1,2.0308-.45518l-.0105.0075a12.46015,12.46015,0,0,1,1.60713-.14906c.49344-.0115,1.0099.01151,1.52685.04552.04577.01151.04577-.057,0-.06853A14.00739,14.00739,0,0,0,387.28345,520.466Z"/>
    <path d="M133.19761,598.68879a.73417.73417,0,0,1,.93037.529c.19507.06628-.052-.59423-.18383-.65451-17.79876-2.04555-23.04182,20.51758-21.4657,34.41531C117.1728,621.76488,118.93924,601.94582,133.19761,598.68879Z"/>
    <path d="M254.96958,640.38c.46343-.10179,1.53485-.09678,1.69992-.47018a6.07062,6.07062,0,0,1-.92337.14881c-4.27518-.53121-7.14356,3.53814-9.59227,6.463-5.62272,7.17608-7.31764,18.64485-2.457,26.55271C242.87081,664.18034,245.70193,644.359,254.96958,640.38Z"/>
    <path d="M339.4421,488.36658c-1.2,1.217-3.751,2.48673-3.42084,4.396a.04117.04117,0,0,0,.08053-.01125c.0035-.19833-.00951-.39841.011-.59573,8.238-8.153,22.29829-4.64283,28.60727,4.36146C362.569,485.551,347.83941,480.86238,339.4421,488.36658Z"/>
    <path d="M208.75037,483.78953a16.91829,16.91829,0,0,0-12.61572-9.33293c-3.892-.551-8.19648-.023-11.49128,2.29566a15.24386,15.24386,0,0,0-3.89153,3.97206.03689.03689,0,0,0,.05727.046,4.20085,4.20085,0,0,1,.29862-.33313h-.00025a11.34825,11.34825,0,0,1,.83808-.78181l-.0115.0015a13.8496,13.8496,0,0,1,1.22023-.87534l-.00325.0025c.41866-.2601.85909-.4972,1.3-.71328a17.21877,17.21877,0,0,1,1.62739-.618l-.00175.00025c.59648-.17457,1.19422-.31212,1.81-.42942.67852-.09353,1.36429-.16031,2.05906-.19632a19.73789,19.73789,0,0,1,2.07882.09628q.819.10917,1.63765.26986l.03576.00675c.02026.004.04027.00726.06028.01151.06827.02026.18407.04827.30111.07728.82158.21458,1.67216.49669,2.52125.80982l-.00976-.00325a29.31879,29.31879,0,0,1,2.79485,1.287,27.8654,27.8654,0,0,1,2.40245,1.53511,33.6391,33.6391,0,0,1,2.71357,2.27564,30.71167,30.71167,0,0,1,2.45672,2.66205,23.31633,23.31633,0,0,1,1.50209,2.08958c.2526.40165.49369.94112.81507,1.42356a.36151.36151,0,0,0,.30737.17782.46487.46487,0,0,0,.44268-.40891l.0075.0015a8.70305,8.70305,0,0,0-.34439-2.54851A14.81623,14.81623,0,0,0,208.75037,483.78953Z"/>
    <path d="M324.64878,691.00916c-.01151.10329-.01151.21784-.023.32138V691.319a.4982.4982,0,0,0-.01151.05752,7.87017,7.87017,0,0,1-.19507.98714c-.06553.22809-.15356.50345-.26161.77831a8.13362,8.13362,0,0,1-.43142.89635l.00426-.01025c-.15457.26535-.32038.5092-.49645.75254-.20483.25811-.41842.5017-.64751.74355-.20758.19583-.40941.37615-.627.55522-.31863.24059-.64451.47218-.97839.68952l-.00175.00125c-.03576.02326-.07128.04752-.10729.07053-.44443.25009-.98689.5202-1.54986.76905-.49345.20658-1.228.47068-1.97453.70028a1.11849,1.11849,0,0,1-.1278.03926c-.7678.20108-1.58362.3669-2.4187.51045-1.03366.13355-2.06757.19833-3.10122.23109a37.23213,37.23213,0,0,1-3.74373-.19607,33.04567,33.04567,0,0,1-3.3098-.61375c-.70253-.19332-1.39505-.41691-2.08732-.67926a18.11808,18.11808,0,0,1-2.13209-1.04817c-.25886-.16331-.58223-.36939-.89536-.58523-.36914-.28261-.80957-.63475-1.23874-1.02615-.34188-.34789-.674-.72254-.99464-1.11794-.18107-.2496-.35139-.4992-.5217-.74905-.14231-.26335-.30812-.562-.45343-.8911l.0055.00725a7.001,7.001,0,0,1-.29837-.81482,8.22774,8.22774,0,0,1-.22959-1.01014l.01151.0115c-.023-.18382-.04577-.35614-.05728-.53971.01151-.10354-.138-.1148-.16081-.023a9.07633,9.07633,0,0,0,1.49234,6.10715,17.77593,17.77593,0,0,0,12.088,7.57649,21.29417,21.29417,0,0,0,3.01644.21784,15.46716,15.46716,0,0,0,8.865-2.50224c3.184-2.21062,5.56795-6.38727,3.708-10.20327A.05783.05783,0,0,0,324.64878,691.00916Z"/>
    <path d="M355.06476,673.56529a16.82137,16.82137,0,0,0,12.08776-7.04828,16.03488,16.03488,0,0,0,2.12384-14.17708l-.00576.00125a.05615.05615,0,0,0-.10929.02176c-.02276.20658-.03426.41291-.05727.60824a27.35711,27.35711,0,0,1-.57373,3.283,21.22651,21.22651,0,0,1-.82182,2.50674c-.33363.78405-.69527,1.5416-1.09393,2.2969-.3879.66451-.79757,1.31777-1.23874,1.95027-.49394.65851-1.0234,1.283-1.58087,1.89625-.524.53146-1.06892,1.0314-1.6359,1.52059.01076-.0035-.18157.14956-.36839.29812-.58923.43842-1.19722.85784-1.81547,1.25825-.83082.48694-1.67316.93337-2.55725,1.348a22.92025,22.92025,0,0,1-2.3917.88335l-.049.01575-.06177.01926c-.63325.16181-1.316.31988-2.00879.44793a21.16114,21.16114,0,0,1-2.47973.24109,20.71515,20.71515,0,0,1-2.17035-.092h.00075c-.61725-.08-1.21223-.18283-1.81772-.31988a19.5826,19.5826,0,0,1-2.24964-.713c-.66026-.28061-1.30926-.58323-1.94726-.92912a22.66793,22.66793,0,0,1-1.90625-1.24074h.0115c-.1428-.10954-.29562-.21958-.43917-.32938l-.0085-.01525-.00526.00525-.00625-.00525c-.031-.03076-.08.02126-.05677.05727l-.0005.00025a20.23256,20.23256,0,0,0,3.71921,3.21452,18.47139,18.47139,0,0,0,9.91566,3.08246A14.6712,14.6712,0,0,0,355.06476,673.56529Z"/>
    <path d="M398.3278,614.22991a18.60542,18.60542,0,0,1,1.90575.96413c.41316.25285.92987.597,1.43457.97589a21.35714,21.35714,0,0,1,1.65315,1.43481c.36314.38591.85484.93037,1.316,1.49509.39015.52121.80756,1.155,1.21222,1.80871.38791.69328.7548,1.40681,1.08143,2.13059.05627.1288.1143.25711.16732.38591.30987.75754.67726,1.7907.98689,2.84687.16631.608.35714,1.48083.50519,2.37493.01926.13806.04127.27611.05753.41467.069.597.1263,1.43481.13755,2.27264a21.84037,21.84037,0,0,1-.13755,2.75509,21.133,21.133,0,0,1-.52821,2.74383c-.06878.26385-.16056.574-.2526.8841l.0055-.002a5.3541,5.3541,0,0,1-.20033.58723.043.043,0,0,0,.03927.05327.0241.0241,0,0,0,.018-.00726,15.03087,15.03087,0,0,0,3.45537-4.78713,14.69049,14.69049,0,0,0-3.05371-16.03657A17.75214,17.75214,0,0,0,390.9694,613.082c-.09178.023-.05727.16081.023.13756l.00625-.0015c.52071-.04527,1.04166-.09,1.56187-.10154a18.09137,18.09137,0,0,1,1.91.103,17.219,17.219,0,0,1,1.894.36739A19.92674,19.92674,0,0,1,398.3278,614.22991Z"/>
    <path d="M401.95973,663.857c-6.80768-2.48-14.7283,2.05481-17.34583,8.46034-1.27175,3.09371-1.30752,7.27286,1.24949,9.75459.14606.1343.29187.2581.43817.39315l.00275-.00475c.03152.00976.06428-.0115.05478-.041a.55858.55858,0,0,0-.03477-.08054v.01151a7.24231,7.24231,0,0,1-.24084-.70028,6.23224,6.23224,0,0,1-.20658-.98739,9.9302,9.9302,0,0,1-.10254-1.20422,10.584,10.584,0,0,1,.068-1.13745c.02951-.23984.10079-.58748.17407-.94187.14856-.52621.31663-1.04266.5137-1.55886a20.79667,20.79667,0,0,1,.93887-1.94752c.3609-.60949.75905-1.18172,1.169-1.75094q.81633-1.0399,1.71443-1.99779a26.93344,26.93344,0,0,1,2.30891-2.08857c.48219-.3674,1.1477-.83808,1.83672-1.28576a21.37367,21.37367,0,0,1,1.894-1.01015,17.43467,17.43467,0,0,1,1.88124-.66826c.39365-.09754.77806-.18482,1.17246-.2616a14.107,14.107,0,0,1,1.48784-.1143c.33938.00125.68752.01251,1.02615.04552a10.42259,10.42259,0,0,1,1.05592.19508l-.0045-.0035a7.68556,7.68556,0,0,1,.98038.31337l-.004-.00375c.14306.05577.28536.12155.41717.18732h-.01126c.17207.092.34439.19508.505.29862.03451.03426.08053-.02276.046-.05727A8.5879,8.5879,0,0,0,401.95973,663.857Z"/>
  </g>
</svg>
