<svg id="Слой_1" data-name="Слой 1" xmlns="http://www.w3.org/2000/svg" viewBox="0 0 1000 1000">
  <title>Meat_28</title>
  <g>
    <path d="M912.67872,846.13606c-.04088-.74576-.11172-1.48288-.17218-2.22345l.01555.03052c-.015-.17909-.03916-.35589-.05414-.535q-.10192-1.161-.23438-2.31328-.08033-.70833-.17218-1.41435-.13908-1.0668-.30349-2.12727-.12006-.774-.254-1.54276c-.11575-.66744-.2361-1.33315-.36568-1.996-.10653-.54362-.22055-1.08552-.3363-1.62626-.13534-.63346-.273-1.26577-.421-1.89577-.1313-.5563-.27066-1.10971-.41117-1.66312-.15664-.61619-.31212-1.23179-.4797-1.84452-.152-.55457-.31385-1.10625-.47452-1.65794-.17679-.60639-.35128-1.21336-.53844-1.8163-.17046-.54938-.35186-1.09531-.53038-1.64182-.19753-.60178-.391-1.2053-.59776-1.8042-.1814-.524-.37374-1.04464-.562-1.56638-.224-.61964-.44284-1.241-.67665-1.85776-.01958-.05126-.03685-.10366-.05643-.15491l-.01037-.01382a178.7364,178.7364,0,0,0-11.27328-23.56932l.00518.00461c-.55226-.98589-1.11431-1.97179-1.67636-2.95768-.00749-.01325-.01383-.02707-.02074-.04089-1.55255-3.00145-3.04233-6.03342-4.49756-9.08209-.65707-1.37691-1.28765-2.76591-1.92917-4.15031-2.59661-5.59518-5.10857-11.22951-7.58885-16.87767l.00345.00288q-1.86582-4.25772-3.75008-8.5137c-.78779-1.88426-1.6182-3.75469-2.46589-5.61822-.25338-.55744-.51252-1.112-.76994-1.66772-.29254-.63-.57645-1.264-.8736-1.89117l-.02649-.02016c-2.463-5.22086-5.04579-10.391-7.57157-15.58368q-1.97985-4.07113-3.85028-8.18718c-.364-.80162-.736-1.60035-1.09071-2.406-.21537-.48834-.42326-.97956-.634-1.46963q-.91564-2.1267-1.77024-4.27988c-.19694-.49468-.39965-.98762-.59142-1.48518-.73769-1.91362-1.44544-3.84049-2.09214-5.79212-.26548-.9358-.50274-1.87562-.73424-2.8166-.22574-.91909-.4319-1.84049-.6277-2.76361-.07544-.35531-.16124-.70832-.23265-1.06364q-.38267-1.91247-.69105-3.83646c-.05989-.37317-.10884-.74748-.16528-1.1218-.14224-.94789-.27814-1.89692-.39735-2.84884-.05643-.44918-.10769-.89894-.15951-1.34927q-.16672-1.4512-.30579-2.907c-1.15463-12.212-.86381-24.62546-1.78118-36.84375-.319-5.55659-.76591-11.1535-1.408-16.73313l.01612.02822c-.034-.29773-.07717-.59373-.1123-.89088-.08638-.72675-.182-1.45119-.27526-2.17679-.10769-.82926-.21365-1.65852-.33113-2.48662-.11287-.79931-.239-1.59574-.36165-2.39275-.11863-.76764-.23265-1.53585-.36107-2.30177-.15088-.90181-.319-1.80017-.48373-2.69911-.11978-.65131-.23093-1.30378-.3582-1.95336q-.43362-2.21135-.93061-4.406c-.01382-.05989-.02476-.12036-.038-.18025l-.00115-.00058c-2.72388-11.96432-6.922-23.51287-13.51631-34.02658-15.94015-25.35682-33.7876-49.866-54.61979-71.44506-23.36718-22.10429-48.54836-42.19994-71.786-64.47009-19.83824-18.25285-38.97506-37.3534-57.18242-57.30162-15.66316-19.06369-30.95892-38.44065-46.23566-57.81761-12.6502-17.40518-32.01852-27.20883-51.47841-35.13284q-1.16787-.54549-2.33977-1.09876c-5.03485-6.20906-10.25629-12.26436-15.8388-18.011-20.88805-22.049-50.44644-31.66839-78.28181-41.75768-18.20679-6.87361-38.89214-7.57387-54.9705-19.4046-7.33431-5.10454-14.01443-11.09361-21.19211-16.41928-16.81548-12.36514-34.95777-22.80455-50.37273-37.03091-16.19814-16.41007-25.191-38.284-39.41733-56.28809a118.66384,118.66384,0,0,0-20.31678-22.00294c-4.27067-3.70229-8.9554-6.88341-13.52149-10.21022-.4296-.31385-.8569-.63-1.28765-.94847a90.20711,90.20711,0,0,1-7.78349-6.33863c-10.19986-10.04321-13.29575-24.933-22.94277-35.45532C202.62781,5.97019,176.9007-8.53806,151.84794,5.72429l.00576-.02131c-.41866.23553-.83617.49813-1.25425.75151-.19983.1218-.40023.23438-.60064.35992-.78721.4941-1.575,1.01181-2.3651,1.56983-.02477.0167-.04607.03686-.07084.05356-1.62626,1.106-3.17593,2.292-4.67493,3.531-.39966.33027-.77282.68846-1.16441,1.0265-1.108.95537-2.20732,1.91938-3.26463,2.92773-.06968.06594-.14454.12554-.21364.19177l-.00692.02678c-2.20213,2.11258-4.31962,4.31616-6.4037,6.55774l-.00288-.015c-1.64008,1.76908-3.27095,3.55659-4.91968,5.33489v.00057a122.51052,122.51052,0,0,1-11.69827,11.42186l-.00346.00288c-.03916.03225-.07889.06219-.11748.09444-9.3585,7.77111-21.85148,13.19411-27.00842,24.86618-2.69048,6.072-.40542,12.52177,1.465,18.474a160.50607,160.50607,0,0,0,8.01614,20.99862c9.50881,22.01216,28.56329,37.00327,48.17981,49.66325,13.02854,9.12183,21.6436,22.59264,31.41961,34.89328a168.22414,168.22414,0,0,0,26.81263,25.84516C234.15338,236.88128,257.22514,241.691,278.104,277.478c7.94243,13.45238,15.78351,27.40232,17.68159,43.18584.77858,9.07719,2.21481,18.1397,3.46272,27.21171q.60381,4.41665,1.11835,8.82524a157.31473,157.31473,0,0,1,1.17766,20.67412v.01008c-.00346.01583-.00864.03109-.0121.04693-.32537,1.48546-.70083,2.95048-1.1097,4.402-.14052.49784-.30291.98618-.45264,1.48028-.29485.97553-.5943,1.9499-.9237,2.91161-.18082.52923-.37662,1.05155-.56723,1.57674-.34092.93781-.68817,1.87331-1.05846,2.79932-.19.47711-.38756.95163-.58508,1.42586a129.70634,129.70634,0,0,1-5.76219,11.93841c-.239.44055-.48661.87763-.72963,1.31674-.54477.9833-1.0907,1.96574-1.65275,2.94213-.24532.42758-.49755.85258-.74633,1.27872-.57991.99338-1.16038,1.98619-1.753,2.97439-.21365.35617-.43075.7112-.64555,1.06651q-.98733,1.6326-1.98446,3.26088l-.04607.07458c-2.17334,3.531-4.37778,7.04753-6.54306,10.5782-.26606.43421-.53384.86726-.79874,1.30176-.49467.81313-.98071,1.63-1.469,2.44544-.37144.62022-.74575,1.23928-1.112,1.86122-.40253.68414-.79355,1.37317-1.18918,2.06019-.372.64584-.75266,1.28851-1.11776,1.93694.00691-.00489.01151-.01324.01842-.01842-1.69191,3.00893-3.30608,6.04724-4.782,9.14025-3.69595,7.5946-7.32625,15.46563-10.32194,23.54282l-.00691.00806c-.01958.05126-.03571.1028-.05471.15376-.40657,1.09934-.79355,2.20386-1.17421,3.31012-.152.44111-.31212.87964-.46012,1.32191-.35243,1.05644-.67953,2.11892-1.00489,3.182-.13188.43075-.277.85862-.40427,1.29053q-.64872,2.2027-1.20933,4.4227c-.10711.42614-.19464.85459-.29715,1.28131-.25972,1.08322-.51483,2.167-.73942,3.25541-.01958.095-.04549.18889-.0645.28391l.0144-.0167a88.66453,88.66453,0,0,0-1.55543,11.1964l-.02534.02447c-.01152.159-.00691.3199-.01728.47913-.11748,1.75008-.19119,3.50361-.18773,5.264,0,.02822.00288.05644.00288.08466.00518,1.75065.09329,3.50792.228,5.26808.0121.15318.00691.30492.02016.45839l.02131-.02044c.08235.99827.15548,1.99569.28275,2.99655.09329.82638.21365,1.64959.33055,2.47337l-.00864.00519c.01382.10078.03513.19983.04953.3q.26173,1.80018.58911,3.58941c.01958.10683.03225.21423.053.32134.00576.03657.015.07313.02131.11.042.22517.08811.44976.13188.67492.03225.16211.05989.32422.095.486q-2.943,1.643-5.87678,3.30378c-.12324.06968-.24648.13821-.36971.20789q-2.94559,1.67233-5.87391,3.37461c-.41578.24187-.8281.48978-1.2433.73309-.16816.09847-.33574.1981-.50389.29715-.17046.09991-.345.19349-.51483.29369-.59891.35014-1.19782.70948-1.7973,1.06882l-.03.01814q-.75582.45048-1.50936.90556c-.56378.33919-1.12525.68241-1.68731,1.02477-.698.423-1.39764.84452-2.08984,1.27642l-.02015.01267c-.46185.28563-.92025.57587-1.38094.86381-.296.18514-.592.36683-.88858.55572-.24014.15087-.48373.29571-.72329.44745-.68471.433-1.36367.8759-2.04435,1.31529-.22171.14311-.444.28448-.66513.42788-.24187.15721-.48546.3101-.72733.46818.00749.00086.01555-.00086.02246,0-3.00548,1.96545-5.97813,3.98158-8.8955,6.08121A377.63321,377.63321,0,0,0,183.328,570.02473l-.00806.00575c-.03.02736-.05817.05644-.08754.08351q-3.76448,3.48719-7.42184,7.09561c-.3248.32047-.64383.64555-.96689.96775q-3.4397,3.43019-6.76708,6.96864c-.08638.09214-.17795.17967-.26375.27181l.00806.00432A253.7096,253.7096,0,0,0,150.1687,606.3882c-.24129.32134-.4774.64613-.717.96919q-1.89606,2.55342-3.71553,5.15464c-.11115.15952-.23035.31443-.3415.47394l.00634.00288c-.18255.26318-.37029.52232-.55169.78607l-.02591.02131c-.04953.07256-.09445.148-.14455.22055-1.552,2.26146-3.04751,4.55631-4.50562,6.87189-.2649.42039-.531.83962-.7924,1.26232q-2.24763,3.628-4.33229,7.34237c-.02649.0478-.057.09444-.08351.14224l.01037-.00921a177.34406,177.34406,0,0,0-9.12009,18.73889l-.01267.01152c-.20674.49755-.39217,1.00317-.59373,1.50245-.44572,1.108-.89375,2.21538-1.31587,3.33373-.243.64382-.46818,1.29456-.70314,1.94126-.3985,1.09762-.79758,2.19408-1.17247,3.30148-.03571.10539-.07659.209-.1123.31443l.0144-.01382a154.27054,154.27054,0,0,0-4.63,16.87652c-.00921.01209-.019.02361-.02764.0357-.15664.72215-.28966,1.45235-.43478,2.17853-.11.554-.22747,1.10567-.33113,1.662-.311,1.65966-.60006,3.32681-.85287,5.00548l-.01267.07314c-.00518.04089-.00863.08292-.01324.12381-.16816,1.36367-.315,2.73827-.45206,4.11979l-.01382.01325c-.01785.201-.03628.402-.05471.61215l-.00749.06853-.0023.01958c-.00864.09732-.01094.19637-.02016.29427q-.29973,3.25656-.45263,6.54479c-.00115.02995-.00518.05989-.00634.08984-.04607.89375-.07371,1.78751-.09214,2.68126-.02764.87533-.03628,1.75065-.03628,2.626v.0645c0,.11.00231.22171.00346.33112v.00116c.0023.47048.00691.9404.0144,1.41837.00921.562.01842,1.1241.04607,1.69537.00921.49755.02764.99511.05528,1.48345l.01958-.01325c.0144.30982.01267.62137.03052.93119.00346.06277.0023.125.00576.18773l.00921-.01439c.07832,1.33314.21135,2.6588.3461,3.98388-4.15837,16.4642-1.036,35.8999,9.53069,53.74677a169.45417,169.45417,0,0,0,19.87855,29.8826l.02419.072c.15779.19061.32882.36568.48719.55571q5.65794,6.75327,11.88889,12.82354c.15951.15606.30809.32364.46818.47855l-.01728-.04838a212.903,212.903,0,0,0,24.07033,19.98739c.01036.01843.02188.03628.03167.05528.48546.349.98877.68529,1.47826,1.032q1.52463,1.08061,3.07344,2.1457,1.48833,1.02361,2.99569,2.03455,1.61185,1.07977,3.24734,2.14571c.48373.31557.95422.63921,1.44141.95307l-.01037-.03168q8.049,5.18372,16.61393,10.11117c17.58945,10.81777,35.00384,22.22408,50.49251,35.95288,11.33317,11.57331,20.56556,25.09941,33.10576,35.51982,16.99055,14.98248,35.63039,28.64679,57.04364,36.54257,8.30178,3.08668,16.92662,5.01873,25.46566,7.18574l.0023.00173h.00519c.04895.01267.09789.02476.14684.03743,1.05731.26721,2.11115.54363,3.16442.82177.45955.12151.91967.24014,1.37807.36453q1.76821.47769,3.52434.99223c.52.152,1.03714.31327,1.556.47106q1.23006.374,2.45264.77052.73077.23754,1.45868.48431,1.54536.52692,3.07574,1.10222a77.617,77.617,0,0,1,10.52925,4.80566C426.614,984.27119,449.40016,999.57558,475.8903,1000a67.20532,67.20532,0,0,0,14.01847-1.75468l.03282.02246c.4106-.095.80968-.22287,1.218-.3248.95768-.23726,1.91132-.48776,2.85748-.76188q.87849-.254,1.75065-.52634c.975-.30579,1.943-.63346,2.90586-.97553.3651-.129.73654-.235,1.09991-.36914l-.02533-.01382q3.23064-1.19292,6.38354-2.62252l.01728.01036c.24647-.11114.48776-.24129.73366-.35416q1.99454-.9191,3.96143-1.91535c.32652-.1647.65419-.32364.979-.49179q2.43594-1.2603,4.835-2.6185c.02879-.0167.05816-.03052.087-.04722l-.00288-.00173c2.70775-1.53527,5.38268-3.15693,8.03284-4.82984l.00461.00346c.129-.08178.25511-.16874.38411-.25051q3.45956-2.19234,6.87016-4.47568c.08407-.05644.17046-.11.25569-.16643l-.00346-.0023q2.92485-1.95567,5.8261-3.93206c2-1.35445,3.98043-2.7089,5.962-4.04493l-.00057-.00057c.15721-.106.31269-.20732.46991-.31328v.00058c.08408-.057.16873-.11172.25281-.16873,3.64585-2.459,7.279-4.8621,10.91854-7.11376l.02419-.015.00806-.00576c3.42471-2.32019,6.85864-4.63059,10.32943-6.87707h.00057c.63519-.40541,1.27095-.82,1.91651-1.22546.6444-.41463,1.28995-.82,1.93493-1.22545H569.928c2.4417-1.5301,4.89262-3.02218,7.3896-4.46014.68183-.41463,1.38209-.82868,2.09157-1.22488l-.00288-.00288a51.44361,51.44361,0,0,1,7.10857-3.40686,32.93057,32.93057,0,0,1,3.2318-1.03427,24.71572,24.71572,0,0,1,7.09532-.93752v.00058h.07372c.23956.00921.48834.01843.7279.03685.10135,0,.21192.00922.32249.01843.31327.02764.63576.05529.95825.10136h0c.3317.04607.67262.09156,1.00432.15663,6.84137,1.18515,13.14487,4.04493,19.35623,7.09072l.00288.004h.00518c.16931.08293.33862.16528.50792.24878q2.04291,1.00288,4.076,2.00922c1.32681.65361,2.6542,1.3009,3.98619,1.92341l.00288.00173c2.45955,1.26922,4.97611,2.4918,7.51974,3.6804.25223.11806.4918.24763.74518.36453l-.00921-.01958q4.205,1.94443,8.53788,3.67522l.0121.02073c.43939.17507.884.33689,1.32451.5085.75842.29484,1.51454.592,2.27757.87417q2.07055.76879,4.16183,1.47539c.372.125.74576.23956,1.11835.36107q1.88915.61675,3.79327,1.17536c.58739.17161,1.17708.32882,1.7662.49121.54938.15088,1.09531.31616,1.64585.4584.0023-.00864.00172-.01843.004-.02707,13.25428,3.44718,26.91,4.493,40.21145,1.20588l.02189.00979c.91621-.224,1.82551-.52174,2.73769-.78837.68356-.201,1.37116-.36625,2.05241-.59084,1.7-.5609,3.393-1.19149,5.078-1.91017.99568-.40542,2-.82,2.99454-1.23468q.48459.235.968.46992c-.32249-.15664-.645-.31328-.968-.47913l.00518-.00173.004.00173a.38021.38021,0,0,0,.129-.05528q4.01759-1.68357,7.99542-3.46964c.44285-.1981.88224-.40368,1.32451-.60293,1.80421-.81256,3.60841-1.62512,5.40456-2.46013-.01727-.00634-.034-.01152-.05068-.01785.43652-.20271.87418-.40254,1.31011-.6064.01325.00519.02592.01094.03916.01555.60409-.28218,1.20127-.58393,1.80421-.869q7.275-3.43538,14.49529-6.98994h.00058q4.80882-2.36338,9.61937-4.72676c.02937-.0167.05932-.034.08869-.05011,2.79068-1.53873,5.60785-3.15981,8.46072-4.7354q1.21365-.67118,2.43939-1.3245.4941-.26433.98993-.52635c1.06018-.55629,2.12555-1.1028,3.199-1.624.0668-.03283.13533-.0622.20213-.09444q1.51254-.72993,3.04464-1.393c.28218-.12266.56551-.24071.84941-.35992q1.36914-.5753,2.75555-1.08322c.23381-.0858.46589-.17909.70027-.26144.31557-.11172.63461-.21077.95249-.31558.53441-.17737,1.07055-.35013,1.609-.5085.35819-.10481.71811-.2004,1.07745-.296.56609-.152,1.13217-.29945,1.70286-.42787.74057-.16873,1.48921-.30406,2.23957-.43018.23323-.03858.46358-.09156.698-.12611.02764-.00461.05586-.00691.0835-.01152.97956-.144,1.96487-.25453,2.9571-.31558.82753-.053,1.6614-.06853,2.49987-.06046.26432.00288.53037.0167.79585.02591a32.72917,32.72917,0,0,1,5.30955.59373l.00576.00115c1.412.17506,2.82523.40771,4.25339.67492.4106.076.8235.16412,1.23525.24647.888.17564,1.776.35416,2.66859.55457.311.06968.62367.14512.93522.21768q2.49468.57184,5.01182,1.22315c.12266.0311.24532.061.36856.09329,1.28765.33228,2.5753.66571,3.87216,1.0072h0c.07256.019.1457.03513.21826.05471,2.3294.607,4.66226,1.19954,6.994,1.74374.0956.02246.19177.05011.28736.072h0a.78005.78005,0,0,0,.13821.03685c.08465.01958.16873.03456.254.05356,1.30781.29945,2.615.57933,3.92054.83156.04262.00806.08581.019.129.02707a35.42369,35.42369,0,0,0,6.505,2.15606c.65362.10136,1.30839.1935,1.97122.26721.00575-.01209.01036-.02476.01554-.03686.04492.00519.08927.00979.13361.01555.00345.01267.004.02649.00748.03974.717.087,1.43911.148,2.16068.21134.2171.019.43248.04722.65016.06392,1.38382.10712,2.7734.15837,4.16471.1768.33919.0046.67722.00691,1.01641.00576,1.32969-.00288,2.65938-.0311,3.98677-.11691l.004-.00806c.24935-.01612.49813-.03513.74691-.05413l-.02361.01612c.71869-.04607,1.44659-.11978,2.16528-.19349.04664-.02073.09041-.04665.13706-.06795a56.35417,56.35417,0,0,0,20.45672-6.1699c8.163-4.35821,13.6453-12.05186,18.78669-19.506C907.62026,892.51914,915.17571,872.488,912.67872,846.13606ZM274.53817,261.65762c-13.222-18.76884-33.12419-30.41529-52.48272-41.86824-22.05822-13.434-39.56475-32.47-54.40844-53.39491-8.43078-10.8909-19.91137-18.99919-31.32747-26.527C117.09921,127.35492,103.61919,107.849,96.81007,86.0948c-1.56637-5.8693-5.03082-11.9413-3.71323-18.1423,2.7832-7.63319,9.61592-12.3611,16.23673-16.87306a48.55954,48.55954,0,0,0,3.30551,9.806,45.22094,45.22094,0,0,1-2.41-10.41639c1.57674-1.07573,3.131-2.14627,4.60353-3.24792.29024-.20962.55744-.444.84423-.65765a122.50744,122.50744,0,0,0,5.624,13.64934c.0645.07371.65419,1.28074,1.04118.95825.04607-.04607-.04607-.0645-.03686-.03686a.06987.06987,0,0,0-.03685.01843c-2.34611-5.023-3.34813-10.67092-4.38009-16.31188,1.51109-1.22114,2.9859-2.48172,4.41061-3.79586a111.12505,111.12505,0,0,0,9.0913,19.25084c-3.1984-6.736-5.04292-14.11089-6.65133-21.58485q2.15-2.10122,4.23094-4.27816c4.49065,12.86269,11.32165,25.44291,22.03634,33.787C140.59366,58.146,136.18075,44.15342,133.2294,29.90748q1.69049-1.82,3.38844-3.632c-.01037.37576-.04146.7495-.04089,1.12641,1.1886,23.72595,24.288,37.11384,39.19619,52.69465C162.49755,62.1719,147.541,37.18594,150.23089,13.67075,162.08408,5.498,177.7,2.85644,190.77405,10.12568c10.44863,5.639,20.34443,12.789,27.59581,22.28858,6.717,8.4492,10.00637,19.34931,16.56671,27.9828,5.24965,6.62887,12.01155,11.53242,18.79878,16.4377.36741,1.27844.72791,2.55918,1.1028,3.833,2.97611,8.41235,4.64384,17.27618,8.44,25.366,6.01671,11.66487,12.67841,22.9704,18.36342,34.80113,6.72619,12.19007,17.63553,21.31189,28.25,30.00987,10.26435,8.29257,19.67181,17.66317,30.54428,25.17255a348.31133,348.31133,0,0,1-47.802-55.71683c-4.04493-7.34353-7.22375-15.14775-11.80309-22.19643-6.85518-10.54077-14.37378-20.51028-19.57966-32.04616-1.13332-2.02247-2.21078-4.06221-3.25484-6.11519A84.41214,84.41214,0,0,1,270.9908,91.29147c15.461,16.53906,26.25058,36.78213,38.70785,55.54176,16.31793,24.03923,43.47147,36.84663,65.89825,54.20574,21.20133,17.90272,31.55782,24.16822,59.09835,29.80716a334.52056,334.52056,0,0,1,36.25694,12.3375c17.76452,6.41291,35.27105,14.40142,49.5619,26.96926,4.68357,4.387,9.11491,9.00953,13.39134,13.77372q-1.21018-.539-2.42557-1.06306c-12.33634-10.42848-26.428-18.99372-41.87861-23.93528-9.814-2.73626-18.96176-7.14773-28.52585-10.59663-12.95943-4.75268-26.38015-8.02047-39.335-12.81662-13.66833-4.16039-27.79161-7.15061-40.74413-13.36a64.03525,64.03525,0,0,1-23.72538-13.77545c-.48143-.42557-5.52319-4.79817-5.62455-4.30234,1.943,1.66254,3.75872,3.48576,5.548,5.34525-2.26318-1.67406-4.49411-3.38325-6.64442-5.13794a74.79321,74.79321,0,0,0,9.15522,7.76277,74.8863,74.8863,0,0,0,8.20734,7.7213c7.97468,5.21827,16.1037,10.45525,24.8132,14.41121,21.57449,8.529,43.56015,15.96952,65.50839,23.61538,14.02307,6.68588,28.52757,8.2871,43.01422,12.981a97.57024,97.57024,0,0,1,16.62429,6.907,77.13522,77.13522,0,0,0-34.55984-3.29658c-11.85721-5.15723-23.75244-10.188-34.7781-16.44232-.27641.31328.8379,1.05961,1.17018,1.28074,3.169,2.12843,6.44919,4.07257,9.62859,6.17336q7.72073,5.17248,15.49327,10.2776c-2.43766.42614-4.87476.86611-7.31243,1.29168-9.52838-6.69625-19.1-13.32512-29.03261-19.41958-7.41667-4.53327-14.84312-9.69309-22.73085-13.05618,15.495,9.79818,29.123,22.23847,43.38509,33.76571-1.25885.1503-2.52.27527-3.7806.40426a254.058,254.058,0,0,0-23.70119-17.33635c-20.05879-11.71987-41.26933-21.38561-61.89018-32.04587a37.367,37.367,0,0,1-3.833-2.30378,18.11041,18.11041,0,0,0,3.81458,2.79183c25.9805,15.49932,51.62929,31.59842,75.82688,49.74445q-2.71582.19911-5.43221.38324c-5.59691-4.07948-11.214-8.15982-17.04525-12.1201-21.30326-14.34585-46.098-22.36228-69.9714-31.28111-16.35479-5.43653-32.93934-11.83994-45.259-24.38014,16.69627,20.04008,44.117,28.29579,68.09117,37.48239a.009.009,0,0,0,.00922.00922.03385.03385,0,0,1,.02764.00921c10.76191,4.23842,22.04959,7.95165,32.36,13.38789a231.56664,231.56664,0,0,1,26.42161,17.25343q-3.7377.25094-7.47137.54247c-12.29431-6.54681-24.87655-12.61075-37.56244-18.20161-22.40951-8.4754-46.06175-13.37032-68.13552-22.78065-11.07576-10.12327-21.68679-20.80743-32.41645-31.14866-14.43827-16.27157-24.24251-35.86045-36.61686-53.58811a230.52676,230.52676,0,0,0-23.64245-27.96438c-5.75872-6.072-12.75269-11.03861-17.87508-17.64473,3.54737,5.92457,9.37924,10.60527,13.93093,15.98622a228.34852,228.34852,0,0,1,17.7,22.02108c13.563,19.239,22.42679,41.4539,37.13227,60.00132,8.20215,10.57561,18.27359,19.48436,27.74957,28.897-14.899-9.51169-31.24224-16.69225-44.7309-28.35223-13.51746-11.74636-25.86935-25.01849-41.25091-34.44524a332.66822,332.66822,0,0,0-31.71388-17.99516c-4.88973-2.82465-11.04984-4.66975-14.99227-8.58021.04723-.03772.239-.127.12094-.14541-.05183.04521-.18658.06248-.1935.13821.17507.76476.83848,1.12411,1.45581,1.57559,5.49267,3.82351,11.44547,6.98418,17.16561,10.46735A253.36632,253.36632,0,0,1,221.293,178.588c14.75616,11.529,25.52728,27.32918,39.49738,39.67877,14.22808,12.82756,32.04673,19.81175,48.91692,28.2978,10.82468,11.67985,17.03143,26.82242,22.60185,41.95175a94.902,94.902,0,0,0,7.07344,14.75673c-1.76044.97265-3.49843,1.98129-5.19034,3.06163-.224-.50187-.46818-.99712-.68529-1.50044-6.27413-14.9819-11.56294-30.58142-20.41756-44.31915a49.51848,49.51848,0,0,0-10.23729-11.95972c-5.95164-4.84655-13.53473-6.88312-20.35364-10.17222-10.07028-4.35849-19.04526-10.91854-27.47546-17.91223-2.74633-2.3032-5.575-4.52376-8.38528-6.73512,5.446,4.966,11.12125,10.49471,16.83391,15.4331,9.84973,8.947,21.80945,14.1895,33.161,20.94334,18.59147,14.33231,24.53563,37.99578,33.59468,58.91551a68.7608,68.7608,0,0,0-7.537,6.30119c-.66456.63922-1.27383,1.33085-1.91766,1.98993-.88684-9.21482-2.15722-18.35219-5.85893-26.88605-7.29745-19.9298-24.03-33.7876-41.26933-45.03784-14.93641-12.24536-30.121-24.32486-47.35112-33.2624-13.91251-8.311-25.05277-20.197-36.48672-31.57625,9.95972,11.79387,20.50107,24.01158,32.84778,33.64017,16.16992,10.26436,30.00008,23.48639,44.27308,36.14637,14.69627,11.72938,32.06459,22.1688,39.41675,40.37558,4.56091,10.36513,6.45266,21.719,8.81373,32.85872-.14742.17909-.3006.3533-.44687.53326a176.75835,176.75835,0,0,0-8.27472-19.525c-6.25628-12.98248-15.21225-24.50914-22.91512-36.51493.08293,1.4558,1.40052,2.755,2.00864,4.08178a171.08077,171.08077,0,0,1,13.53531,29.1714c3.93667,10.32885,6.05415,21.20651,8.956,31.84518-.78606,1.16614-1.58652,2.32365-2.33977,3.50879-.5799.95077-1.14944,1.9142-1.72416,2.87188-1.431-11.04264-1.95912-22.31881-5.214-33.02917C293.2333,290.36832,284.52611,275.51542,274.53817,261.65762Zm98.69593,28.49763c-6.50391-3.43105-13.07519-6.73627-19.36372-10.3922,4.62138,3.67349,9.25658,7.81517,14.02423,11.86643q-3.92256,1.14282-7.78522,2.48029c-6.09158-10.39335-12.57361-20.60213-20.74812-29.453,3.44257,2.56724,6.98649,4.99743,10.66632,7.23728,10.97728,7.307,23.013,11.77487,35.38564,15.39682Q379.2845,288.57621,373.2341,290.15525Zm22.16476-4.8166c-11.23412-3.87073-22.3692-7.97209-32.54544-14.08008-13.70519-8.01385-26.11122-17.85724-37.9287-28.43371,8.07834,4.53269,16.28914,8.84943,24.39339,13.37809,13.49845,7.63838,26.25115,16.58485,40.08995,23.63381,3.32278,1.725,6.7164,3.29457,10.16127,4.74059C398.178,284.82382,396.789,285.083,395.39886,285.33865Zm-179.545,443.5221c6.459,11.3516,9.002,24.66578,16.6957,35.39083,4.8189,7.04868,10.23728,13.77487,17.12875,18.89783,6.66227,5.04,13.62745,9.63781,20.15093,14.85291,6.67091,5.556,14.641,10.25514,18.64964,18.2805,5.169,11.95051.86553,33.06891-14.67842,33.66782-16.751-1.96258-33.60332-6.37607-48.67736-14.10658-4.67148-2.59834-9.27846-5.49152-12.789-9.58252-3.39995-4.091-5.04925-9.23239-7.22374-14.00522-3.47367-8.88226-9.44431-16.26264-16.11522-22.952a89.98794,89.98794,0,0,1-15.48809-22.68477c-5.65795-12.86269-4.93926-26.96927-4.8834-40.80864.88281-7.28882,4.07314-13.56353,8.18545-19.30958-4.5707,11.6021-7.01586,24.38129-4.66457,36.48786,2.90931,14.47571,14.05244,24.53045,22.68017,35.7686,7.74779,10.76709,15.628,19.71154,22.95313,31.22439,5.45927,9.3205,9.51572,21.0061,20.026,25.76454,13.13508,6.89089,41.98629-.27872,32.57193-19.35047-5.00318-7.89694-12.16589-14.24882-18.00408-21.533-7.47656-7.42588-16.69109-12.90185-23.39483-21.11725-8.75614-11.46965-17.15236-23.05851-23.99258-35.77839,1.02736,2.12785,2.45667,4.63981,3.44545,7.00319,2.679,6.35072,6.56437,12.00809,10.35707,17.71845,4.83848,7.628,9.37232,15.61881,16.1515,21.73516,6.94847,6.37375,13.82958,12.78955,19.00782,20.732,3.47251,5.11029,9.70921,10.08065,10.77919,16.622-.68069,8.16415-16.44462,4.91565-21.3165,2.133-5.7524-3.67637-7.837-10.71353-11.06943-16.39624-5.074-10.21483-12.30985-18.90187-19.24739-27.89988-24.117-31.64016-39.91085-35.19272-21.13625-78.32846.01152-.02131.01612-.042.02764-.06277C199.3534,710.82615,209.17318,718.70985,215.85388,728.86075ZM185.65973,688.393a1.71647,1.71647,0,0,1-.15031-.26662c.106.02649.21077.057.31616.08407C185.76972,688.27037,185.71616,688.33372,185.65973,688.393Zm406.49234-26.41642c11.92286,1.21624,23.05333,5.83243,33.502,11.50823.04377.02362.08581.05011.129.07429-19.08039-4.28449-39.10809-3.54507-58.02953-8.892-8.42847-2.486-16.7124-5.91075-25.11323-8.89492,2.16643.58278,4.33632,1.14656,6.51945,1.65275C563.23866,660.94464,577.79672,660.73272,592.15207,661.97661Zm154.02058,68.22017c11.98621,7.57445,22.789,16.588,33.1121,26.16477q-2.28219-1.41665-4.56725-2.81717c-13.56295-8.65133-27.328-17.07347-40.19994-26.75677a86.19043,86.19043,0,0,1-9.99657-9.29631C731.97566,721.31164,739.16658,725.69,746.17265,730.19678ZM873.706,913.37436c-2.99684,2.87764-6.1221,5.59979-9.25312,8.167,7.85778-11.41725,14.16531-23.82673,20.23271-36.26443C882.6844,895.48373,879.528,904.88024,873.706,913.37436ZM119.55877,734.02979c-.21826-1.5301-.34553-3.06768-.43133-4.607-.06105-1.10913-.09214-2.21883-.08408-3.32681.00288-.42327.01785-.84538.0311-1.26807q.04578-1.50216.17737-2.99569c.03455-.395.06449-.7901.10826-1.18284.14051-1.26577.31846-2.52463.55053-3.77082.01613-.08523.02477-.17161.04089-.25684q.4034-2.10423.98532-4.1578a46.328,46.328,0,0,1,6.57589-14.03344c1.62569-.93,3.27211-1.82436,4.95481-2.65707a129.28725,129.28725,0,0,1,16.82872-5.26924c-15.35564,8.35591-26.89325,23.61136-27.31249,41.62235a76.12322,76.12322,0,0,0,2.797,20.24768A91.2112,91.2112,0,0,1,119.55877,734.02979Zm19.61594,44.504a3.253,3.253,0,0,0-.04722-1.39131q.22115.98646.4607,1.96833C139.45171,778.91733,139.31,778.72729,139.17471,778.5338Zm18.47457,22.96q-2.626-2.92918-5.21107-5.96144c-10.90587-31.83654-17.59521-71.76294,6.67667-98.8468,1.6493-1.60323,3.12353-3.7593,5.3441-4.58855-1.465.05528-2.92083,1.73222-4.13707,2.7089-19.165,17.23932-26.15844,44.57715-23.30211,69.62069a106.4775,106.4775,0,0,0,2.05414,12.48838c-3.52319-12.91049-7.79444-25.76051-9.40573-39.09139-2.26088-20.22752,9.56524-39.97707,27.39771-48.9555,3.1817-.58854,6.43711-1.1051,9.83418-1.56234a47.72246,47.72246,0,0,1,18.32023.744c.05183.2102.10136.42212.15376.62886-8.15435,7.94243-18.6767,13.92229-24.11236,24.417-4.45092,7.09475-6.22,15.30439-6.38585,23.60616-.82868,10.52235-1.032,21.33954,2.46013,31.44726,3.07746,9.49038,8.67955,18.00408,14.98248,25.67009,5.26981,6.67091,12.531,11.57274,17.07289,18.82413,4.18314,6.92889,6.78148,14.76076,11.93208,21.09075a56.55923,56.55923,0,0,0,5.704,5.35562c-5.67-3.518-11.305-7.07863-16.81433-10.79819a126.33482,126.33482,0,0,0-15.56353-27.21171c-13.34239-16.34556-21.84688-24.58285-23.13626-47.12941a158.28338,158.28338,0,0,1,.63519-24.94219c-3.059,16.99054-5.169,35.16969-.43306,52.022,2.93925,11.28711,10.48549,20.23386,17.36832,29.34647,1.28823,1.64988,2.51771,3.33546,3.71323,5.04177A157.74508,157.74508,0,0,1,157.64928,801.49384ZM570.93922,944.82968c-1.59516.98013-3.22949,2.01555-4.9548,3.17536v.00057c-2.39563-2.87533-4.736-5.76793-7.11261-8.5137a308.00189,308.00189,0,0,0-22.98019-25.4121c-3.59287-4.12786-7.131-8.32942-10.94561-12.22635q3.28938,2.44543,6.83618,4.57876c14.39221,8.72562,31.88031,10.01558,46.55815,18.17915a63.35936,63.35936,0,0,1,14.14343,11.4708,38.17542,38.17542,0,0,0-7.98332,1.98273c-7.91595-5.87332-15.81692-12.18085-25.16851-15.453,7.9718,4.4584,14.98881,10.65076,22.08759,16.66633a72.37681,72.37681,0,0,0-6.7331,3.35157c-3.50592-3.18457-7.01183-6.37491-10.48952-9.662-4.80048-4.33-9.46274-9.89579-14.80684-13.36888C556.48885,928.07812,563.53869,936.60852,570.93922,944.82968Zm-57.08913-52.485c.13246.12784.25569.26778.38814.395-.27123-.18486-.55687-.35128-.83213-.52981C513.55467,892.25366,513.69922,892.31528,513.85009,892.34465ZM737.014,945.72977c-.25684.13187-.50274.25511-.75727.38583-5.53529-1.59-11.05215-3.24274-16.4452-5.26-13.11146-5.04925-25.78066-11.87737-38.79077-17.23011-13.65509-6.10943-29.3004-6.1555-43.711-4.01728,22.694-1.06019,35.42769,3.42759,54.05832,16.14228a215.28518,215.28518,0,0,0,31.457,16.94678c-.645.29657-1.27441.57587-1.909.86093-4.30926-1.43508-8.63348-2.83214-12.88861-4.43768-18.41871-7.68444-37.32633-15.70059-56.90542-19.33089,20.17685,6.54019,37.25953,19.32686,55.66384,29.3816q-1.55053.51743-3.07458.97265c-1.73511-.41175-3.46848-.82811-5.21165-1.2197-14.56727-3.271-28.54428-8.34785-42.43029-13.7933,3.56638,2.03628,7.52781,4.33056,11.324,6.3392,7.78522,3.91824,15.61709,7.80135,23.54916,11.45238-10.27933,1.33948-20.43484.34092-32.19992-3.275-13.52149-20.1233-31.43228-38.121-53.91147-47.83429a38.49749,38.49749,0,0,0-5.79615-2.35877,100.66469,100.66469,0,0,1,8.698,5.51859c13.76853,9.47483,23.13741,23.08212,31.711,37.16221-1.41492-.64671-2.84884-1.3153-4.3179-2.01959-2.2983-1.13735-4.47107-2.22344-6.54709-3.25771-6.59317-7.89-13.89293-16.53445-22.04325-23.01129-12.531-10.01558-27.559-15.94937-41.65632-23.32975-6.1365-3.22489-12.26379-7.30667-18.19758-10.52235,3.33546,2.19293,6.63406,4.43192,9.94187,6.68934,28.50569,17.96838,40.7856,23.51691,55.6863,42.62666-6.0052-2.35589-11.3326-3.64988-16.85924-3.46732a73.67127,73.67127,0,0,0-20.25229-19.71788c-11.07518-7.24218-23.726-11.84916-34.23908-19.96666-16.57592-12.9364-29.83481-30.35079-43.278-46.45679-5.02161-6.69855-10.2275-14.08815-12.52177-22.27936,6.63405,6.44056,11.81229,14.17107,17.96722,21.01705,15.65452,16.60356,38.25637,27.53131,61.09778,28.7107,12.38356,1.10568,22.94276-5.76794,31.53018-14.00522,11.38845-9.69309,19.06368-23.55089,22.18722-38.11816,7.12239-39.78589-8.311-73.9789-52.85129-73.62877a36.38915,36.38915,0,0,0-30.5581,18.311c-2.69048-1.61071-5.60958-3.017-8.31272-5.43163,1.6683-13.42013,8.7429-24.914,22.82356-27.35049,8.81891-1.93263,17.45066-5.503,26.55751-5.65161,9.44547.53268,19.11321,4.02189,25.96322,10.68589,16.007,18.59493,21.47429,43.8216,28.50972,66.77185,10.02767,37.0695-1.50648,56.05832-36.98138,69.03849,18.08009-5.03946,38.49881-12.88918,46.63186-31.51175,12.42445-27.54-7.91249-81.2562-24.56327-104.76274-9.84167-13.8745-26.85294-22.01849-43.67476-22.66635a162.78619,162.78619,0,0,0-18.239,1.88138c-7.35562.29254-14.73025.87014-22.09681.77973-7.613.02534-15.2255-1.71092-22.54541-3.79961-21.11264-5.15694-41.39142-13.28826-61.18992-22.02137,22.9658,11.22779,44.1009,30.599,71.03964,32.07438,3.45351.10538,6.90183.0311,10.34786-.12785-11.66949,6.63578-16.05476,17.94247-17.56642,31.62693a67.33859,67.33859,0,0,0-5.69768-12.349c-6.86037-10.341-15.13278-20.75445-26.33178-26.565-27.15527-10.46879-31.83942-6.55919-51.22963-31.96323-16.15956-18.44232-40.29726-39.15127-66.35952-37.11384-10.06971,1.3199-19.04469,6.60641-28.60993,9.70288-7.67638,2.52635-15.16618,5.43393-21.7628,10.17279-15.10571,6.16356-23.47314,16.57016-29.64074,31.33668,13.67467-20.76827,21.75992-22.29778,44.95607-27.734,12.18489-1.04291,23.87222-4.90816,35.94482-6.33575,13.64357.73193,26.0398,8.97785,36.2028,17.58484,10.42963,9.67466,18.2972,21.6079,28.08877,31.82618,8.68012,8.387,20.22349,13.16675,31.87166,15.76451,5.39535,1.27383,11.03315,1.4201,16.2327,3.46618,10.40084,5.18458,20.159,12.785,26.59553,22.57305-7.74779-2.59027-15.901-3.96085-23.68219-6.48835-9.30668-3.52953-17.97989-8.75787-27.4075-12.05417-11.78984-4.178-23.41671-9.16616-33.28947-16.99112-11.332-8.32885-20.17973-19.55145-31.825-27.476-21.86128-15.49155-49.91319-13.62169-71.6017,1.15289a20.78027,20.78027,0,0,0-4.32135,3.37116c5.53644-4.24879,12.24939-6.64384,18.7222-9.18632,16.16071-6.01268,35.65285-3.43105,49.59875,6.88283,9.1224,6.45323,15.58715,15.82383,23.21976,23.84573,8.61793,8.793,18.09622,16.94966,28.98655,22.79592,9.31474,4.9669,19.41957,8.24822,28.87655,12.91222,1.93551.95364,3.87159,1.92514,5.82265,2.86381-1.09013-.1624-2.18025-.33-3.2698-.48143-8.15839-1.69134-16.4498-3.93839-24.42506-6.44747-15.1086-4.75671-30.57711-8.95539-44.3468-16.99a89.00265,89.00265,0,0,1-19.119-14.32771c-4.22287-4.00519-8.43078-9.423-12.69684-12.65134,6.15838,6.2701,10.869,14.239,17.19325,20.52006,9.64356,9.96087,21.4311,17.7173,33.90738,23.67989a213.80653,213.80653,0,0,0,44.08881,14.569c10.6951,1.719,21.84688,2.87015,32.86389,3.90844-1.53758.56954-3.06133,1.17939-4.60352,1.73626-19.8463,7.18574-41.487,10.1486-62.2,4.941a207.82086,207.82086,0,0,0,36.87427,8.21021,98.43085,98.43085,0,0,0,40.22816-4.62541c3.1172-1.47941,8.13535-2.67089,11.61189-4.85172,1.5468,3.75872,3.04925,7.53875,4.65881,11.26464,3.4276,7.41609,5.78,15.76221,11.66488,21.681-6.36742-11.33893-8.60642-24.59206-11.65912-37.55726a22.42925,22.42925,0,0,0,2.69912,1.56983c3.47021,2.15549,6.85058,4.44228,10.34209,6.5661.76764.39332,1.22488,1.15635,1.98331,1.5871l.01324.00806c-1.71552,17.74437.56609,37.8452,14.54424,50.21322,7.362,6.57876,17.46046,11.112,27.476,9.49959-8.23729-1.11489-15.89409-6.09964-21.21976-12.63234-8.33633-10.167-10.33058-25.33609-8.38816-39.0361,2.95135,13.29287,12.95541,27.90448,21.14259,34.87657a49.03107,49.03107,0,0,1-11.57619-29.954c-2.15031-16.05706,6.83215-20.7844,21.53763-18.59378a48.48259,48.48259,0,0,1,12.82526,4.717c-16.28222,1.28189-18.62833,20.96406-14.48089,34.41875.92543,2.56782,2.0645,5.74663,3.98907,7.49095a9.48836,9.48836,0,0,1-1.53816-2.78031c-4.80105-11.02278,3.32567-36.86161,18.09046-24.29837a30.43064,30.43064,0,0,1,6.44114,10.06568q-.07515,1.71638-.21365,3.41838c-6.736.50043-11.05445,6.82581-14.92892,17.53071.42211-1.64412,2.20732-3.13908,3.33488-4.59834,2.372-2.6686,5.0314-5.85548,8.79645-6.49124a6.4013,6.4013,0,0,1,2.08236.13475c-.03628.27815-.07084.56148-.10769.83732-2.998,18.50164-19.859,36.52184-39.70757,29.21287-20.31909-7.60152-34.27881-24.77116-51.65865-37.187-12.22117-8.91336-27.97877-10.98132-42.72572-9.62859-3.22661.36337-8.82409.91909-10.77918,2.54535,13.34642-3.48921,28.713.186,40.64451,6.86959,12.02768,8.25283,20.84947,20.20334,32.05307,29.47661,11.53588,9.814,24.933,20.01445,40.75278,20.09623,20.79188-.00346,33.95575-14.81663,40.1412-32.93761a60.98193,60.98193,0,0,1-22.46422,34.7827c-15.08325,13.70116-37.335,4.20157-52.72228-4.28449-15.47025-8.06221-24.10373-23.28368-33.86131-36.97563-4.35821-5.95222-10.70663-12.63234-18.82413-10.808-6.35763,1.36366-10.63291,7.85029-10.62369,14.17107.10941,10.649,4.94962,20.13481,11.05963,28.75447-.14167-.13475-.2816-.27239-.42327-.40657-10.99744-10.57474-22.49531-20.60587-33.7421-30.90305-12.42042-11.29228-23.09134-24.0542-33.44611-37.34476-10.86844-13.396-25.32457-23.35739-40.86449-30.61742-4.144-1.96315-8.6283-4.13246-12.77919-5.80537,3.80537,2.0645,7.64759,4.07257,11.43453,6.16414,11.33259,6.20157,21.98969,13.76393,30.74641,23.33954,8.36973,9.31992,14.33692,20.57593,22.27994,30.25808,6.79011,8.60065,14.14112,16.70491,21.64705,24.67211-1.32163-.73943-2.63462-1.49555-3.96719-2.21539-16.38127-7.97468-47.38568-28.9278-64.96764-23.28425,16.86385-3.226,34.73663,13.67985,47.97191,23.21227a107.55641,107.55641,0,0,0-61.76349-.03743c-6.77859,2.24245-15.64933,4.0766-20.51315,8.95424,7.02507-4.69106,16.28337-5.01124,24.5673-6.15781,11.75125-.97149,23.42707.35186,34.94107,2.59258-2.82984.53269-5.647,1.11892-8.44517,1.68731-13.83016,3.64873-31.35454,4.54248-39.91489,17.59867-5.26059,8.55977-3.24331,19.119,2.34035,26.93241.06507.23035.14742.46991.22171.70947.00922.03686.06392.02764.05471-.00921-.543-3.76851-2.16471-7.22375-2.13706-11.1489.2482-5.51,2.8926-11.48059,7.69365-14.53963,8.90933-4.911,19.63438-4.2937,29.40118-6.31156,9.67524-1.42817,19.21169-3.94358,29.024-4.32135,7.86008-.41463,15.0464,2.95768,21.08154,7.75816,8.201,6.2747,16.96291,11.76623,25.50425,17.55259,9.924,6.48663,15.6453,17.19326,24.42679,24.86849,7.09417,5.80479,14.82468,10.808,21.73516,16.84312a172.80259,172.80259,0,0,0,25.73517,22.50049c7.37117,6.19178,15.5618,11.176,23.624,16.37321-2.5707,1.69249-5.12872,3.40629-7.6879,5.1172q-4.47885-4.484-9.02623-8.89492c-7.8405-7.54624-16.8984-14.57649-25.03433-21.93845-5.28882-5.13217-11.3516-9.23239-17.44146-13.31417q-19.83392-15.70059-39.25147-31.88952A154.21655,154.21655,0,0,0,441.89136,867.752c-6.43192-3.55659-13.42474-6.33921-20.89727-5.79558-9.79444.58048-19.35853,2.95768-28.95948,4.82811a40.74588,40.74588,0,0,0-14.02422,5.45467c-3.55659,2.18371-7.7668,4.43191-9.29689,8.55977-1.87907,6.5972,3.98965,11.94129,7.20532,17.06426v-.01843c.11978.20271.24014.42384.34149.63576-1.7138-5.685-9.491-12.22693-4.95711-18.42792,5.48173-5.639,13.59-8.79012,21.28367-10.19986,12.66-1.5848,26.68364-6.05357,38.7355.03686,23.14547,13.7933,40.05367,35.89759,64.04625,48.51151,11.31474,5.07689,21.14661,11.77544,30.77463,19.72709a126.56674,126.56674,0,0,1,20.75041,19.45067c.5419.68126,1.0717,1.38958,1.605,2.09042q-1.54536,1.03484-3.09416,2.06681a167.96418,167.96418,0,0,0-31.34993-28.565c-19.04526-12.10715-40.41244-20.11408-61.01485-29.16219-11.324-5.02161-21.49618-12.79819-33.46511-16.41007-9.48117-1.852-28.67385-9.46274-34.25751,1.7783-3.02218,6.67091-.41463,13.87622,1.99021,20.28914-1.51109-6.19178-3.24331-13.87623.99511-19.67181,5.37174-5.7403,14.88976-1.50187,21.46853.00922,16.28107,4.00807,29.29119,15.36888,45.11156,20.51028,42.5374,12.25,62.65666,23.86243,86.16321,54.13375-.45955.30579-.91622.61445-1.37634.91909h0c-.92139-.87533-1.81515-1.7685-2.69911-2.67147-19.03605-21.19211-44.052-43.1582-74.55017-39.89646-9.01125.9859-17.73687,3.72244-26.68363,5.169-12.2275,1.69536-24.51835-.774-36.71763-1.75066-24.85985-3.03139-56.87837-.47912-71.42721-25.18175-5.35331-8.53213-7.82265-18.0133-9.91422-27.82617.06507,12.81662,1.98157,26.7297,9.5733,37.639,16.41007,25.31075,56.52823,23.91944,83.23951,31.521,8.17221,1.77829,16.5022,3.65794,24.91455,3.02218,12.03286-.61734,23.53188-4.90183,35.529-5.59288,19.20189.3317,36.05365,11.34239,51.17434,22.14115,3.46387,2.70891,7.02967,5.38038,10.71526,7.924q-2.73655,1.7829-5.50074,3.53816c-.09962.06507-.19982.12957-.3.19465-3.24964-2.20732-6.58913-4.2845-10.04724-6.1653A101.31665,101.31665,0,0,0,462.245,952.83373c-10.08065-.13821-19.91137,3.06825-29.992,2.66284-16.364-.40542-32.36807-6.34842-47.97652-9.57331,15.75587,4.50563,30.99519,11.37,47.479,13.12068,9.95166,1.30838,19.90216-.7279,29.88146-.562,21.46622-.33343,40.46023,8.52982,57.73756,20.18952-2.78837,1.71955-5.61879,3.38094-8.497,4.94559A157.01211,157.01211,0,0,0,483.068,970.20205c-17.8843-7.6568-37.36262-4.30292-56.14067-5.50074-7.57388-.71869-14.73313-3.24331-22.21486-4.64383,3.51973,1.14253,7.57387,2.33113,11.241,3.62108,15.68216,5.72187,32.73721,4.52406,48.65893,9.22318,12.421,3.73223,23.99776,9.52493,35.1933,16.02308-2.30406.94385-4.64268,1.795-7.02276,2.52923a125.31644,125.31644,0,0,0-26.95372-10.14918c-7.89694-2.03628-16.07836-4.66226-24.05765-5.49152,7.38959,2.38642,14.47513,5.46388,21.68966,8.35706a98.00479,98.00479,0,0,1,19.54742,9.55373c-32.80573,3.3654-59.93221-20.212-88.94755-31.60274a105.32751,105.32751,0,0,0-10.37032-3.40168c-2.15894-2.01728-4.33344-4.01613-6.62887-5.886-11.50823-9.78523-24.9514-16.01386-37.851-23.78123-19.5981-10.19986-29.53075-23.26526-35.59353-44.49422-1.40974-4.36742-2.79183-8.9744-1.63087-13.57217,1.75065-8.311,9.56409-11.18575,15.45181-4.59777,9.72073,9.59174,8.76248,25.42132,19.248,34.57079,20.40892,18.00408,50.33587,15.47024,75.72955,14.39221,10.0985-.645,20.05879-1.207,30.24943-.37778,2.42327.40542,5.252.387,7.362,1.66773-.56206-.99511-3.51052-1.336-5.18746-1.83358-13.05619-2.56148-26.44407-2.48777-39.69375-2.95768-19.939-1.83358-42.84492-1.17017-58.84036-15.1109-9.8313-9.55488-8.58741-25.45817-18.93469-34.85641-15.75587-17.93037-37.60218-2.13764-31.47489,18.82412,7.48173,15.59924,12.79819,34.24829,27.54974,44.69693,12.31907,8.30178,25.61482,15.12932,37.84174,23.5601a60.12691,60.12691,0,0,1,7.34353,5.98965c-7.35447-1.80076-14.65193-3.79673-21.58889-7.05847-21.72652-9.33432-40.31108-24.35308-57.37534-40.60651-8.09907-7.94243-14.6502-17.25717-22.48206-25.43-13.4639-13.2203-29.15816-23.55549-45.149-33.48987,13.97643,6.44863,30.0139,9.26522,44.81728,12.13191,25.13569,5.35331,38.35773-21.7818,32.56214-43.12134-3.97121-14.97269-18.77805-22.85984-29.89009-32.20279-5.60209-4.36742-11.57216-8.2465-16.78783-13.11147-5.4086-5.19668-9.42589-11.27789-13.563-17.69081-6.60641-11.27789-9.776-24.6197-18.861-34.35886a180.31426,180.31426,0,0,0-15.25774-13.77487c-3.91075-3.39362-8.52522-5.95049-12.48377-9.26119a5.96055,5.96055,0,0,0-4.04262-4.06335c-.06911-.08638-.148-.16067-.21595-.24763.581-.725,1.23064-1.60956,1.91477-2.592,11.06885,13.347,27.34934,21.142,39.54633,33.40061,13.69252,13.48406,23.491,30.6514,36.33122,44.9267-8.83043-12.13651-15.65049-26.1855-24.21486-38.70785-6.95136-10.58857-16.5454-19.59291-26.18551-27.78931-.1647-.14282-.3317-.2839-.4964-.42615,2.8569,1.5992,5.71669,3.19437,8.55344,4.82927,8.14053,4.88858,16.78726,9.87564,24.32428,15.83189,14.85521,12.70605,32.85526,21.25776,47.54577,34.10145,7.2462,7.60152,11.79963,17.19152,17.62285,25.83134,15.63033,17.83535,1.65621,29.96265-7.34353,46.53108,15.10457-22.95255,31.68567-25.34357,15.2946-55.84639-15.36543-38.7044-42.84434-42.15733-74.458-62.44245-7.41263-4.28622-14.99054-8.3703-22.5218-12.51428a109.63275,109.63275,0,0,0,18.95773,2.05068c11.02392.512,22.17109-.79758,33.09654-.69105-10.76478-1.26865-22.43714-.96113-33.34071-3.27326a138.64889,138.64889,0,0,1-20.7677-6.02017,51.39765,51.39765,0,0,0,8.201-4.39506c22.0588-1.21855,43.851-6.16011,65.75314-8.45035-17.12933-.41463-34.92092,1.50187-52.27138.62655-1.03427-.04895-2.06739-.114-3.10165-.16758,3.63375-3.13621,7.19092-6.42214,10.8241-9.56179,22.90418-4.19351,46.07038-6.80221,69.2792-8.83734,1.66773-.11921,3.34467-.25742,5.01239-.21135a29.8225,29.8225,0,0,0-5.30724-.30406c-19.39136.26087-38.90019-.3818-58.23915,1.12871.57012-.368,1.131-.75382,1.71092-1.10107q5.55-2.63289,11.0677-5.35907c2.85172-.70429,5.70171-1.41664,8.558-2.095a204.73349,204.73349,0,0,1,72.96536-4.56091c1.87965.22113,3.74087.46991,5.6113.74633a51.742,51.742,0,0,0-6.56034-1.548,192.49515,192.49515,0,0,0-61.3431-2.05414c8.68243-4.281,17.40748-8.47511,26.254-12.37377,50.47121,4.6997,79.653,18.90359,124.10573,58.5075-40.33008-40.41934-67.09031-56.82019-112.53587-63.39608q5.07834-2.02995,10.23268-3.875c.90988-.30118,1.8284-.5465,2.744-.81083,25.10459,6.19466,49.63849,14.76768,70.96824,29.80717,15.43281,10.983,30.599,23.5601,41.02056,39.51868-18.87941-33.22555-53.0085-56.61058-88.74888-69.17842-2.81026-1.0026-5.63031-1.9764-8.45093-2.94847a106.31584,106.31584,0,0,1,19.67872.0167c17.52783,6.19408,34.54775,13.75011,49.63906,24.78728,15.06483,11.12125,30.06516,24.933,37.64825,42.246-2.98532-11.67409-12.23614-23.03491-20.15093-32.2673C434.23571,639.88844,418.815,629.6811,402.26844,621.407c3.86411.67377,7.71555,1.42471,11.53819,2.32249,2.65707.76418,5.32509,1.54968,7.9718,2.40254a139.99115,139.99115,0,0,1,17.41266,11.00378c12.73427,9.51744,23.468,21.68966,32.17516,34.99462,4.85575,7.94244,10.50449,16.35478,12.31042,25.46739-.71926-7.95165-5.34409-16.04151-8.83619-23.39425A150.87955,150.87955,0,0,0,455.43934,644.826c4.25973,2.77628,8.615,5.10741,12.888,6.01268,14.59549,18.21485,24.73488,39.90452,31.59294,62.15566-5.3654-22.40317-11.49729-43.87688-23.582-62.42747a14.90227,14.90227,0,0,0,4.59028-2.49237c13.29,22.36113,19.6338,50.60422,41.83369,65.92416a2.30266,2.30266,0,0,0,.89375.36856c.03628,0,.03628-.04607,0-.05528a11.09272,11.09272,0,0,1-2.15664-1.45581,62.87214,62.87214,0,0,1-14.74234-20.21543c-6.84712-14.85463-9.69193-31.43055-16.69051-46.265a97.71121,97.71121,0,0,1,18.44116.13072c5.6211,1.12814,11.16214,2.63577,16.68534,4.23555a67.393,67.393,0,0,0-13.09189-1.38843c-4.44113-.387-9.22318.20271-13.47081-.76476.63576.562,2.02707.45148,3.02218.66341,10.9554.83847,21.87394,2.69047,31.98166,7.1961,15.11089,7.63837,29.38332,17.08268,46.10666,20.98019,15.03719,4.44113,30.98655,7.45409,46.64107,10.02479a239.5039,239.5039,0,0,0,26.68709,3.8785c5.03658,2.6041,9.7501,5.76564,14.73889,8.34843,4.2292,1.38209,8.80854,1.2531,13.11146,2.39563,1.01987.3173,2.03629.6467,3.05386.97265-15.22435,4.43767-30.84662,8.56783-46.74646,7.0337-12.10715-1.446-24.03-4.3392-36.26616-4.68011-22.29778-.81141-45.71046,1.99885-66.68144-7.67523-9.55487-4.5517-19.229-10.08065-26.57248-17.79216,5.67522,7.233,14.30006,12.88975,22.14115,18.01272,20.14172,12.85347,44.41071,14.12558,67.57461,15.47081,16.96291,1.161,33.23534,7.06711,50.28059,7.3251,3.70113-.0357,7.37866-.28045,11.03833-.66686-17.07347,7.23123-36.2817,8.30581-53.88555,1.62454a105.51193,105.51193,0,0,0,36.79135,9.37175c15.75011.459,30.83279-5.38153,44.34679-13.0199q8.074-3.98043,15.9868-8.24823,1.11777-.36453,2.23208-.73308c.49929.15606,1.00317.29888,1.49958.46185a184.34907,184.34907,0,0,0,24.89785,22.54311c21.77316,15.93094,46.88063,27.01533,66.93021,45.24976,18.106,19.33089,32.31337,44.45679,31.798,71.528.02764.05471.08235-.00921.0455-.04664a.07348.07348,0,0,0-.00864-.03686c.66283-9.14946,1.78693-18.48263.14742-27.60445a102.48557,102.48557,0,0,0-9.20532-24.87309c.763.69047,1.52145,1.3867,2.28909,2.07257a132.93682,132.93682,0,0,0,13.73456,22.8558c12.28221,17.60788,34.838,26.02023,44.86278,45.29584-6.17335-15.89408-20.39971-27.7156-30.94048-40.9837-1.51052-2.06969-2.94041-4.22172-4.34611-6.39449.40541.3795.81889.75094,1.222,1.13332,13.03776,11.6188,42.34737,36.32143,39.15012,55.1087q-.58653,4.36569-1.35618,8.55228c-.01094.0144-.02534.03571-.0357.04953-6.8454,10.44287-14.98709,19.78237-23.07234,29.31882-.07313.08639-.14454.17507-.21768.26145,4.39046-13.2992,4.66457-27.98626,13.62515-39.48125a4.5543,4.5543,0,0,1,.98647-1.032c-1.032.21134-1.981,1.68558-2.84712,2.5062-9.44431,9.81286-13.59059,22.9704-20.42792,34.53335-3.52319,5.9931-7.74779,12.46015-11.5975,18.82067A120.24393,120.24393,0,0,0,847.02,904.80135c1.28938-7.46331,2.368-14.92662,6.26492-21.60674,4.5062-7.03025,11.3516-13.66431,19.18347-16.64042-5.54623,1.01354-11.24967,4.96633-16.09622,8.30178-15.09246,10.43942-18.42792,29.70582-25.34818,45.5354-1.264,2.84769-2.54824,5.81632-3.82322,8.7907a44.72917,44.72917,0,0,0,1.67637-6.20157c3.35388-27.83538-.11-48.90771,30.18494-62.43381,1.61244-.61733,3.37231-1.5203,5.07746-1.29917.368.07371-.11978-.14742-.23956-.129-8.22864.516-15.99544,4.74519-23.21,8.569-17.157,10.26436-21.65281,31.16162-23.37582,49.66325a62.12616,62.12616,0,0,1-2.48546,9.8146c-.15607-.04146-.31213-.07947-.46876-.12093-.77743-1.98331-1.55025-3.96719-2.28852-5.962-3.09589-12.34671-3.10511-25.25547-4.53327-37.86017-.70948-29.25433-4.65305-51.847-27.06141-72.90086-11.582-9.96951-24.38935-18.345-35.3079-29.12534-3.142-2.801-6.29313-5.56523-9.37981-8.42156,4.7544,5.64816,10.45785,11.195,15.51631,16.8247,8.87305,9.647,19.5336,17.4236,28.45271,27.01533,22.27936,24.92377,21.14605,51.00849,20.98019,82.27147.144,7.5278-1.27613,15.20188-.30751,22.683a78.4144,78.4144,0,0,1-6.75038-13.036c-6.11807-14.67841-7.85951-30.64563-12.19007-45.85788-5.97065-21.98509-16.84312-42.90021-32.69114-59.37477-2.05471-2.10078-4.41348-4.30292-6.41291-6.21021,1.9165,2.497,4.16471,4.72676,6.09042,7.21453,14.899,18.51949,22.15958,41.70181,27.09827,64.663,3.89289,19.46564,8.06221,37.75305,17.41553,54.352-1.21854-.02533-2.42672-.00691-3.62108.076-.38008-.45609-.76937-.903-1.14368-1.36424-6.83734-8.68877-11.04754-19.10976-13.95916-29.70581-5.52895-26.7942-21.229-50.25295-40.40322-69.35349-12.68762-12.50335-24.8132-26.0018-30.61857-43.20427-1.29917-3.188-2.32192-6.90126-4.10021-9.66544,2.43306,5.43623,3.40916,11.51745,5.54738,17.11954,9.2416,28.70149,35.57453,46.466,49.99438,72.2006,11.02969,17.16561,12.163,38.31165,21.09076,56.50922.30175.6755.63634,1.33315.95652,1.99886-12.55229-14.05648-18.73947-33.0931-32.671-46.21666-19.79159-21.03547-51.07241-20.89726-74.0981-36.86506-4.47856-2.98532-9.09476-6.3392-13.12068-9.62859a61.156,61.156,0,0,0,5.75872,5.60209c20.55578,19.506,50.37216,24.73027,70.754,44.39287a121.42329,121.42329,0,0,1,13.77545,17.32858,162.27815,162.27815,0,0,1-18.30584-10.63406c-9.43912-6.1509-18.66748-12.751-28.25231-18.68937-11.818-7.6735-25.26007-12.31907-38.09051-17.66259,4.21942,2.68414,10.1843,4.65363,14.82526,7.42645a116.30749,116.30749,0,0,1,21.75244,15.55144c16.24939,15.328,33.74152,30.493,55.31371,37.76861a4.72013,4.72013,0,0,0,1.91535.10941q1.54536,2.32106,3.13563,4.607c-3.078,1.11835-6.12844,2.39621-9.48,1.89174-10.49816-1.83645-17.72363-11.165-25.83538-17.41381a132.5679,132.5679,0,0,0-49.02749-24.94277c-16.43828-4.93-33.40637-.13648-48.05311,7.7668-16.39336,5.94012-33.28371,11.9292-50.70213,13.78581-4.44976.32364-9.02277.14282-13.41552.28448,17.537,5.31185,35.75881,2.292,53.27512-1.51109,14.77747-2.32422,27.68277-11.62859,42.90078-11.44374,19.82787.535,38.97736,8.10138,56.5409,16.85522,9.98391,5.50707,18.55865,13.7432,29.54457,17.26466,5.0147,1.72013,9.958-.21941,14.47053-2.22172a121.076,121.076,0,0,0,9.93207,12.59318c.69105.70717,1.4368,1.35215,2.15607,2.02765-.21883-.05759-.43479-.13015-.65419-.18543A155.77248,155.77248,0,0,1,718.153,906.404c-38.32086-21.17368-50.87028-19.09075-91.63285-7.6568-7.0671,1.66773-14.48434,2.97611-21.48695,4.05472,5.50073-.37835,10.9554-1.11547,16.40085-1.9165,13.77487-1.7783,27.35625-5.51974,41.297-5.64874,28.18551-.31327,50.86107,19.12819,74.154,32.45157a128.20823,128.20823,0,0,0,19.36256,8.31215q-2.42557,1.36135-4.8523,2.70545c-10.74463-3.49382-21.214-7.14428-31.42652-13.20073-24.933-15.54395-54.261-24.288-83.67256-18.88862-3.25253.58969-6.96518.8569-9.95051,1.70458,2.65363-.44227,5.46388-.61733,8.18143-.89375,26.16822-3.38153,52.16081,5.63894,73.82283,20.04958a279.13845,279.13845,0,0,0,31.15817,17.19671C738.67824,945.03354,737.85014,945.40152,737.014,945.72977ZM870.95791,927.265c-1.72244.89433-3.53241,1.7-5.38729,2.4417.8402-.75267,1.67867-1.50821,2.52117-2.25742a84.86808,84.86808,0,0,0,11.77544-7.97123A36.581,36.581,0,0,1,870.95791,927.265Zm34.5322-54.762c.66283-10.18316-3.05328-20.2425-8.88975-28.97446-1.42816-14.334-7.53126-27.97531-15.2589-40.07151-12.35534-16.98134-29.5031-29.669-45.83945-42.55987-9.67409-8.02478-19.2019-16.26206-28.895-24.25978-10.63291-9.76738-20.07722-20.6577-27.09768-33.392-4.35821-8.32884-5.74951-18.57534-8.86441-27.24568,1.42816,13.48982,2.03629,27.53132,9.30668,39.45476,15.15639,28.18493,41.50832,47.95809,66.38659,67.14156,15.028,12.17222,30.599,24.288,39.63846,41.82217a67.04237,67.04237,0,0,1,5.26693,12.04265c-7.51744-9.21914-14.87536-18.72162-23.84285-26.57249-6.80912-5.58366-13.48924-11.33317-20.57478-16.5667-4.67032-3.18343-9.17307-6.56668-13.57965-10.06741q-5.3297-4.85028-10.74463-9.6044c-4.71755-4.3582-9.85894-8.71641-14.30007-13.13911a85.914,85.914,0,0,0,6.21712,6.64384c-17.85723-16.18432-34.8328-33.43228-54.25929-47.75654-13.738-10.14457-28.07494-19.74551-43.85845-26.38878-15.074-6.19178-31.23533-9.72073-45.78418-16.99055-8.827-3.40916-15.78352-9.91422-23.97473-14.4567a152.94052,152.94052,0,0,0-34.34965-14.75155c-20.96176-5.26118-42.98313-4.58856-63.88961-10.421-17.74609-4.07258-35.15126-10.74348-53.62525-9.66545-7.90558.44227-16.54828-1.594-23.69831,2.68126-14.06972-8.88226-28.33293-18.03172-44.65086-22.26093-20.971-5.66659-42.94627-7.31588-64.6083-7.08554-16.29028,1.0504-31.41961,7.8503-45.74732,15.19383-12.24535,4.8189-23.58774,11.48059-35.29868,17.41438-7.90558,4.19236-16.48378,7.03947-24.38936,11.195-18.25286,8.44-31.49274,33.5941-53.66211,29.89009a66.85073,66.85073,0,0,0-26.84949-6.48663,97.2036,97.2036,0,0,0-19.28194,1.696,90.85479,90.85479,0,0,1,2.273-8.89263c7.25139-23.69773,25.79046-41.47146,45.969-54.81328,32.92091-18.58485,68.63423-38.01681,76.51274-78.5306a45.677,45.677,0,0,0,.75554-6.31156c-5.814,22.878-23.23818,41.23248-43.168,53.06321-11.47138,7.5278-23.73517,13.72822-35.57453,20.61163-19.09191,12.30006-35.72253,29.14318-44.05253,50.57543a94.296,94.296,0,0,0-5.89578,24.967,92.66446,92.66446,0,0,0-17.26869,5.69365c4.27124-6.08294,8.70028-12.05935,12.85462-18.22176.8379-1.36367,1.93494-2.9024,2.68127-4.1555-.68184.67262-1.26232,1.4466-1.88886,2.16529-7.14486,8.178-14.69512,16.00637-21.70349,24.29779q-3.14081,1.81487-6.09964,3.905c.16815-1.11259.34379-2.19753.52922-3.23295.10827-.57069.23611-1.13389.35071-1.70228,1.61705-2.38584,3.23352-4.77225,4.8189-7.18,10.67841-16.41928,24.17744-30.78384,38.2748-44.27308a24.8519,24.8519,0,0,0,2.11921-1.95336c-14.95081,12.00752-29.2192,24.96523-41.68454,39.52386a155.33137,155.33137,0,0,1,5.48288-15.0608q.53383-.507,1.06825-1.01353c22.68477-21.70809,45.0102-44.39287,72.56916-59.95525,1.62166-.93982,3.30781-1.77829,4.90183-2.7734a12.54741,12.54741,0,0,0-1.81515.89375c-26.34272,13.09592-49.70875,31.08561-71.16461,51.03786a191.56625,191.56625,0,0,1,12.60239-20.8247,157.0399,157.0399,0,0,1,18.2972-13.17712c15.51689-9.94129,32.8115-16.55691,49.03728-25.18147,16.87941-8.80826,32.14752-20.05879,47.1847-31.79709-2.93983,1.79672-6.09043,4.12785-9.14025,6.072C227.995,572.25969,194.8806,581.42412,166.273,598.44577c5.30609-4.35015,10.63234-8.68474,16.09737-12.84369,23.18233-17.38675,49.88439-29.18983,74.071-45.001,2.12842-1.45581,4.26606-2.9024,6.28392-4.51484-2.3772,1.39131-5.05789,3.17882-7.62916,4.56091-23.61654,12.77919-49.21,22.174-71.47212,37.21634q2.40829-2.30378,4.85633-4.55457,6.84656-4.72762,13.72823-9.40573c20.6577-14.90819,43.98687-24.76713,66.21152-37.03091,2.20214-1.29,4.27528-2.71812,6.33921-4.19235-1.83358.88454-3.89751,2.28506-5.86987,3.27095-12.87133,6.52349-26.94162,10.60527-40.16308,16.43771-1.0049.43478-1.99425.8998-2.9859,1.35963,4.75959-3.13793,9.60613-6.14225,14.49356-9.02565,3.53989-2.04866,7.11721-4.05759,10.69511-6.068,25.98337-9.55891,34.724-19.99487,55.24921-40.94166-5.924,4.26607-11.69251,10.31964-18.10543,14.5212a146.98508,146.98508,0,0,1-23.18751,12.33059c12.12672-11.8601,21.35854-26.40261,29.75706-41.05972a76.37675,76.37675,0,0,0,3.723-7.96086c-.63634.73712-1.07861,2.20214-1.72359,3.17882a147.347,147.347,0,0,1-40.9837,44.07037c-.09444.05932-.18888.12036-.28333.18a67.27523,67.27523,0,0,1-.45263-7.391c20.13769-19.85263,36.6779-43.64078,44.1343-71.16288.00921.02764.01842-.06479.01842-.06479a.00883.00883,0,0,0,.00922-.00892c.01785-.02765-.00922-.0645-.03686-.03686-.22113.47913-.29484,1.02275-.49755,1.52-8.07316,23.00294-25.26526,40.64508-42.633,57.242a103.3471,103.3471,0,0,1,3.514-14.573c18.83334-20.85177,32.113-45.73753,45.42138-70.36587,1.38209-2.67205,2.86554-5.6758,4.05414-8.2465-1.594,2.39563-2.98532,5.00318-4.54248,7.3896-10.85175,16.21225-22.81492,31.64852-35.08734,46.81095q1.30781-2.77283,2.63577-5.50476c7.03543-14.2828,16.48492-27.59582,24.1901-41.69721,3.15924-3.9741,6.28047-7.97008,9.26579-12.01126,15.415-21.43139,30.06516-43.62811,50.00417-61.26335,1.09646-1.08724,2.57991-2.16528,3.51973-3.22488-20.52813,15.472-37.21692,34.85354-53.1755,54.82249.35416-1.09387.71063-2.18658,1.02448-3.298a48.30886,48.30886,0,0,0,.725-5.8238c2.58164-4.06105,5.15982-8.12326,7.6689-12.16185.00864-.00922.01785-.00922.01785-.01843,6.93811-10.65134,12.77113-22.36228,20.28051-32.9307,6.06278-8.37549,13.74723-15.22146,22.14115-21.28425.46933-.42384,1.36309-.76476,1.64008-1.1886-1.89865,1.04118-3.71323,2.24821-5.51916,3.446-20.02194,11.73859-32.3508,31.70524-44.75221,50.62151-.56666.86668-1.1195,1.74547-1.68328,2.61475-.478-5.35706-1.37288-10.71757-2.15146-16.06253,1.95509-3.35158,4.01038-6.63,6.12153-9.85059,1.66484-2.541,3.3533-5.04954,5.059-7.50333.35358-.50907.70256-1.03369,1.0573-1.53931,1.2197-1.68385,2.50908-3.281,3.84856-4.82812a80.63256,80.63256,0,0,1,23.024-18.03229c.88684-.4774,1.77138-.95941,2.67435-1.412.71293-.35762,1.43853-.69393,2.16068-1.03629.95018-.45062,1.8998-.9021,2.86439-1.32738.72214-.31875,1.4535-.61935,2.18313-.924.98013-.40973,1.96142-.81774,2.95365-1.20357.74575-.28967,1.49784-.56493,2.24993-.84193.98878-.364,1.97928-.7256,2.97726-1.06824,4.00808-1.37547,8.08238-2.57761,12.182-3.64643q2.80219-.73121,5.60612-1.37921c4.26088-.98475,8.52407-1.85431,12.73831-2.61216,2.41808-.51483,4.84769-.98762,7.27787-1.45581,1.41665-.273,2.8356-.53124,4.25455-.78376,2.2125-.39447,4.42673-.78175,6.64787-1.12151.51829-.07918,1.03773-.15,1.55659-.226,2.75209-.40254,5.50937-.76908,8.27471-1.06709.29082-.03168.58221-.05471.873-.08466,2.97842-.30809,5.96374-.56262,8.95655-.725.16873-.00576.33631-.01843.50446-.02476,1.98792-.072,3.97525-.16125,5.9551-.28852l-.00345-.00172c1.71955-.10424,3.43565-.2387,5.1506-.37634l.01267.00922c.2816-.02045.5632-.05269.84538-.07487q1.72244-.14339,3.44257-.30463c.33976-.03254.67953-.05673,1.01929-.09013l-.015-.01065c1.65621-.16211,3.31184-.3245,4.96517-.5108l.00634.00518c.48834-.05586.97495-.12381,1.46329-.18111q3.355-.3913,6.706-.83156c.24935-.03282.50043-.0596.74978-.09271l-.00864-.00749c1.29054-.17219,2.58164-.34236,3.8716-.52347l.00691.00576c.18831-.02649.37547-.05643.5632-.08292q4.08495-.577,8.16472-1.2007c.11921-.01785.23784-.03426.35762-.0524l-.00288-.00173q6.29457-.95451,12.58915-1.94242c1.60438-.163,3.20646-.24043,4.80623-.27642.47913-.01036.95768-.00461,1.43623-.004,12.03228.0023,23.85955,3.36137,34.86045,8.186,5.35734,2.698,10.88169,5.11663,16.42158,7.51485,3.29284,1.43133,6.59086,2.848,9.86642,4.31588l-.00115-.00116c9.362,4.19265,18.5097,8.76709,26.694,15.00149,12.36514,9.81286,20.79591,23.44953,30.84834,35.43689,11.093,13.66431,21.73516,27.7156,33.25262,41.02977q6.66342,7.1139,13.47138,14.08988c-6.296-4.142-12.80913-7.9577-19.30325-11.59289-9.87736-6.03515-21.75473-9.518-30.7752-16.751a1.07482,1.07482,0,0,1,.406-.21192c.03628-.00921.01842-.06449-.01843-.05528-.19407.0645-.40542.11057-.48892.2672,3.833,4.57013,9.94244,6.9289,14.7147,10.47628a206.7549,206.7549,0,0,1,38.1147,31.29637c-15.31648-9.43337-31.66608-17.2923-46.37041-27.74439a85.29847,85.29847,0,0,1-9.104-7.08467c.90182,1.3795,2.70084,2.61935,4.01729,3.833,11.99485,10.01989,24.79477,19.05217,37.52846,28.09365,9.42819,6.14629,18.65309,12.73658,26.78441,20.50423-8.23382-4.15751-16.97039-7.34583-25.07579-11.77227-8.30121-4.63923-16.573-10.46073-25.03434-15.0464-5.52837-3.11029-11.33778-5.79385-16.8984-8.77112,1.24561,1.14714,3.35215,2.00634,4.92947,3.02161,13.1322,7.15406,24.4337,16.99025,36.52357,25.73517,12.79876,8.89838,27.79218,14.83678,38.75507,26.19817-8.8742-3.58308-18.07722-6.50275-26.48035-11.30006-20.73429-12.10283-41.71909-28.09942-67.22276-22.80225a29.86674,29.86674,0,0,0-6.32942,1.86036,39.65742,39.65742,0,0,1,5.427-1.40053c22.43887-3.91075,41.305,10.903,58.63707,22.88864,12.97384,9.28594,28.96006,12.67322,42.65719,20.4308.60755,1.30522,1.17939,2.61389,1.73165,3.92688-8.08353-1.69479-15.94937-4.10194-23.25546-8.23325-8.50852-4.33114-15.42878-11.48405-23.65224-16.31793-10.04437-5.56178-21.37812-8.556-32.728-10.04322a49.8336,49.8336,0,0,0-9.22317-.26691,75.44293,75.44293,0,0,1,7.74894.70976c17.571,2.75613,32.81725,11.7622,46.36408,23.03548a122.88547,122.88547,0,0,0,37.45533,18.25516c.62137,1.87216,1.15117,3.7377,1.62108,5.59691-1.88829-1.04-3.79673-2.05011-5.761-2.9646-8.22461-4.50937-17.97989-7.13794-25.10517-13.23182,2.73655,4.42587,9.11837,7.06423,13.46736,10.34785a161.25634,161.25634,0,0,1,19.17944,13.85838c.40887.35416.80507.72329,1.2076,1.08466.69854.62654,1.39189,1.25885,2.06969,1.907.47509.45494.93982.92053,1.404,1.3867a73.20673,73.20673,0,0,1,5.6447,6.28334,114.36519,114.36519,0,0,1,15.61133,25.94479c.061.16528.12612.33113.18831.49669-10.04379-14.55115-23.36373-26.9707-37.65285-37.58-11.93842-8.84109-24.90822-16.3306-35.00327-27.4769a78.49807,78.49807,0,0,1-9.085-11.75673c1.08321,2.80709,3.17881,5.77514,4.865,8.48606,17.518,27.24108,47.40756,42.85932,67.89941,67.31605a104.68805,104.68805,0,0,1,15.20879,27.7513,154.20024,154.20024,0,0,0-12.14227-14.02883c-22.23559-21.199-49.17146-37.73751-66.80122-63.44734-3.98677-5.94387-8.0029-12.019-10.76306-18.62113.774,3.182,2.82005,6.44718,4.27585,9.55459,10.45727,21.0971,26.20278,38.87947,42.91864,55.2377,14.637,14.35219,30.25346,28.495,39.75767,46.96184a34.88448,34.88448,0,0,1-3.28075,5.3176c-3.85662-7.20877-8.6116-14.29661-14.77689-19.87825-11.27674-10.70058-23.85725-20.10573-35.24168-30.71561a176.47738,176.47738,0,0,1-30.76714-38.18669c-1.4201-2.4941-3.13045-5.0026-4.31214-7.58309.1457,1.09877,1.15117,2.44573,1.66715,3.63952a187.0008,187.0008,0,0,0,31.11613,44.42972c16.57188,17.239,36.16307,32.278,46.87545,54.06782a43.84938,43.84938,0,0,1-7.14427,4.96114,35.10054,35.10054,0,0,0-3.69019-10.5831c-13.47715-22.14662-37.73118-34.68711-52.36237-56.03989-4.186-5.78637-8.46187-11.63263-11.74838-17.95772-.02073.77742.79816,1.83789,1.17017,2.70861,7.22145,13.44375,15.56123,26.34042,25.99259,37.52876,11.15523,12.05618,23.56759,23.66289,30.73029,38.69028,1.013,2.58107,2.02822,5.30725,1.7328,8.12787a5.539,5.539,0,0,0-.28333,1.36539,74.96879,74.96879,0,0,1-9.66084,2.74864c.091-13.86355-9.92689-25.23761-17.72133-35.8855-7.4132-10.26838-16.47859-19.20017-24.85984-28.58113,10.23268,12.95771,39.47607,47.10955,34.05595,65.89192-1.94529.23783-3.89462.41808-5.83762.55168.00058-3.91247-1.12295-8.49239-1.49669-10.93466-3.20646-15.28942-14.20447-26.25231-21.67815-39.02-.27181,1.27038,1.34294,3.2269,1.95048,4.569,5.66659,9.503,10.842,19.55664,12.679,30.58949a59.52746,59.52746,0,0,1,.60063,13.69224c-.11229.45321-.21883.92139-.315,1.393-1.60726.00346-3.19782-.019-4.76131-.07141.60927-2.964.02246-7.12987.00345-9.09187-.73539-9.84023-6.5327-18.50624-9.17768-27.62346.38641-.47826-.28275.06047-.12842.43277,1.56753,6.199,3.67177,12.27444,4.46186,18.68994a54.94,54.94,0,0,1-.23265,16.51689c-.04031.205-.0812.41-.11978.61446-.57357-.07544-1.14368-.15261-1.71956-.23208a5.34933,5.34933,0,0,0-.21077-1.80593c-.66225-7.40256-2.92082-14.84974-4.60755-21.99373.60869,6.42357,1.13216,15.85147,1.6038,23.339-2.38872-.3582-4.75555-.74115-7.01182-1.13793a81.09969,81.09969,0,0,0,12.82468,5.12469,2.55059,2.55059,0,0,0,1.46963.47625c.03455-.00346.061-.01728.09444-.02073,2.63059.76072,5.28536,1.43046,7.973,1.96372-3.00548,6.11807-7.24909,11.27444-14.26322,13.99255-11.65566,4.10022-23.99315,7.96087-36.48728,9.14025-12.58628,1.34524-24.7487-2.45033-36.819-5.4823-2.29313-.62367-4.61447-1.18227-6.94618-1.71034,36.07324-17.3211,42.36522-77.97085,6.125-103.26087-5.68156-4.19581-12.35074-6.14715-19.24969-6.7498.66859-1.62857,1.27325-3.31933,1.82436-5.04609.13879.02793.28218.0668.41751.09128,4.66226,1.69537,8.56956,4.4872,12.99226,7.3896,19.65338,13.36024,33.76917,37.52846,32.05537,61.76118-1.21624,14.63177-4.93868,29.669-15.14832,40.7165,13.5353-12.35593,19.79216-31.94481,20.20621-50.14238-1.032-23.44032-15.6908-45.34191-34.77349-58.435-2.5229-1.25828-8.86383-6.45092-13.928-8.406q.32565-1.64124.55687-3.2986a50.12817,50.12817,0,0,1,9.4,4.3703c38.155,22.97041,57.85447,70.73558,36.12795,111.76535,12.8719-20.22464,15.36889-47.10177,5.59287-69.30742-10.1987-22.0611-27.49273-42.78819-50.65893-51.6716a46.95758,46.95758,0,0,0-.0334-5.313,72.86751,72.86751,0,0,1,8.47454,2.98158c43.99609,19.61652,65.953,73.21413,55.36669,119.09045a102.22974,102.22974,0,0,0-2.57991-69.63912c-11.32453-26.62835-32.89384-50.62151-61.40241-58.69294-.26951-.07889-.5396-.15462-.8091-.23323a33.28315,33.28315,0,0,0-1.3153-4.33632c2.47625.27354,4.94963.57933,7.41321.97611,52.38137,11.6188,77.38806,70.25645,70.99357,119.75386,4.70834-24.417,1.83358-51.48762-8.49527-74.36589-12.66-26.67442-38.06287-49.4329-68.22017-52.44587-1.7305-.1814-3.4633-.30694-5.19725-.41808-.17564-.24647-.35762-.48978-.54247-.73193,6.94157-2.4299,14.34959-4.216,21.68966-2.71985,26.81206,5.814,46.90828,28.72913,57.965,52.82364-9.35275-24.804-27.69717-49.79225-54.06753-58.094-10.56669-3.50274-21.52209-1.39418-31.90277,1.96142a21.34225,21.34225,0,0,0-2.0144-1.12928c28.4913-17.9966,63.63392-5.86642,80.75174,23.23473-5.54681-12.59577-16.76941-23.01648-28.637-30.03751-19.64013-12.61536-44.90942-8.76479-63.13176,4.47165a61.61279,61.61279,0,0,0-14.29949,1.97294c.56378-.59718,1.10337-1.20329,1.67809-1.79615,15.571-17.27963,40.46657-21.45874,62.5127-16.732a81.90758,81.90758,0,0,1,10.25053,2.8094c-4.52751-2.45927-10.12729-3.79414-15.2491-5.11375-22.16016-5.62973-47.29181-2.33949-64.20346,14.01674A109.87478,109.87478,0,0,0,516.961,458.12807a56.92221,56.92221,0,0,1-5.97468.94789l-.00518.00057a36.85239,36.85239,0,0,0,4.6853-4.24648c13.67294-16.4115,30.71589-32.73375,53.57054-32.42278a61.75992,61.75992,0,0,1,11.37867,1.15117c-18.60126-5.36483-38.94626-.1431-54.32552,11.17654-8.808,5.67234-15.03027,14.43424-23.74725,20.16705a124.05632,124.05632,0,0,1-11.68907,5.92055c-2.755.09387-5.50879.11086-8.254.01728,12.73139-4.30494,23.70061-13.30986,33.40522-22.81377,17.01243-15.53935,38.8881-27.31825,62.42747-21.19211-21.16793-7.91739-44.51553-.36683-62.24953,12.55834-9.77083,6.70172-17.58369,16.03632-28.13943,21.60616-9.09649,5.16184-18.9226,6.25513-28.91687,5.71784a97.78447,97.78447,0,0,1-10.62831-3.95653c.3127.00547.62367.02793.937.02706,12.11636.07458,24.49647-2.67147,34.66292-9.47195,13.77775-9.67293,26.9589-20.387,41.93965-28.22351,14.48723-7.49556,31.93156-11.0176,47.84119-6.6329.004.02073.28333.17074.21193.04607a15.40748,15.40748,0,0,0-4.21079-1.29c-23.61653-5.273-47.40007,3.71467-66.96707,16.65942-10.55344,6.28277-20.0824,14.54366-31.72424,18.80253-12.57764,4.54046-25.69486,3.45091-38.49766.82378a76.56039,76.56039,0,0,1-8.9433-7.92228,41.16753,41.16753,0,0,0,11.51745,2.0789c15.21455.383,30.32948-4.30148,43.99839-10.719,10.68993-5.04,20.28281-12.27012,30.728-17.79763,14.37551-7.4541,30.81091-11.53127,47.00848-9.2416A74.96111,74.96111,0,0,0,537.826,398.977c-20.91857,1.52578-38.99463,12.59174-57.46747,21.44147-16.90014,6.924-36.59556,12.23815-54.59733,6.78233-4.4204-1.598-8.60239-3.79787-12.83966-5.81544-.13648-.07055-.2793-.14858-.42269-.22661q-1.86237-2.88081-3.62742-5.94588c7.214,2.939,15.07346,4.02563,22.83853,4.4273,34.72685,1.99022,62.32266-27.56817,96.92109-26.16765l-.00864-.00921c-22.20622-5.23353-59.87232,18.2805-88.15919,19.36746a67.24106,67.24106,0,0,1-37.89356-9.603c-.73021-1.51281-1.45351-3.0622-2.1745-4.62944a59.89758,59.89758,0,0,0,25.50079,7.47886c13.51688.81083,26.77577-2.81026,38.76314-8.9744,12.44806-6.25628,26.23215-10.27356,40.24658-8.9099.47913-.02764,1.09646.24878,1.41895.08293a69.70982,69.70982,0,0,0-26.4625.92139c-15.74666,3.98044-30.82991,11.37925-47.48875,10.34728a64.119,64.119,0,0,1-38.00587-13.35218c-1.83127-3.83013-3.68961-7.63607-5.7236-11.28595.91219,3.61187,1.64009,7.29746,2.45956,10.94619l.01554.06219c.61734,2.44458,1.20876,4.907,1.80824,7.3968q.47424,1.9699.95307,3.94962l-.00288-.00173c.02246.09358.0478.18774.07084.2816,4.78665,19.80973,10.19409,40.11759,24.73257,54.91,28.86792,31.44783,77.98467,33.79393,115.88169,18.8748l.0121.00432c.3962-.14742.7924-.313,1.1886-.46962l.00633-.0026c1.12123-.40109,2.24763-.85027,3.37807-1.30636.02361-.0095.04665-.01757.07083-.02707l.00231-.0023a75.21378,75.21378,0,0,1,7.34756-2.69912l.0023.00173c.78722-.22574,1.57962-.421,2.37663-.57414l.01382-.00231a20.05248,20.05248,0,0,1,2.40081-.3173h.00921a15.3133,15.3133,0,0,1,2.05414-.055l.00979-.00029.00288.00115a21.80625,21.80625,0,0,1,2.725,1.237c.18485.09847.35646.209.53556.31212a19.96631,19.96631,0,0,1,4.22345,3.2174c.209.2102.39735.4368.5966.65534.39966.43767.78492.88627,1.14369,1.35561.20846.27181.40772.54967.60294.83156.32421.46818.62712.95163.91563,1.44573.16355.28074.33343.55715.486.84567.32134.60841.611,1.23812.88281,1.8782.08235.19263.17967.37519.25742.57069a30.086,30.086,0,0,1,1.541,5.38182c.09157.463.15606.93666.22805,1.40743.07832.51541.15721,1.03024.2148,1.554.04722.43046.0812.86525.1146,1.3006a44.28771,44.28771,0,0,1,.09329,5.0625c-.02995.79787-.09214,1.59805-.16067,2.39793-.03225.36827-.05183.736-.09214,1.10453-.08062.75382-.19522,1.50475-.30867,2.25569a56.27005,56.27005,0,0,1-1.41607,6.611,77.97353,77.97353,0,0,0-17.75588,1.29341c1.39995.29484,3.245.28822,4.79126.5347,10.28854,1.73193,21.30038,3.64844,28.84776,11.52062,21.35624,21.35969,19.60559,59.14153,1.13908,81.76239A49.78359,49.78359,0,0,1,563.77825,612.273a38.18637,38.18637,0,0,1-3.72935.96862,31.16007,31.16007,0,0,1-13.68331.00518c-10.53962-3.87735-21.41555-9.40457-28.73144-18.18836-.46185-.51137-.70429-1.571-1.08321-1.92571,3.62972,9.95568,26.71818,25.66664,37.26068,26.74928a53.37,53.37,0,0,0,16.5955-.87994c4.97093,2.53039,9.954,5.036,14.87133,7.65738,11.20418,5.75873,23.18233,11.241,36.045,10.92776,16.28107-.32249,32.728-7.46388,46.13431-16.43828,7.06019-5.16788,10.39046-12.46073,12.31791-20.4095a4.09041,4.09041,0,0,0,.86323-.33977,135.60951,135.60951,0,0,0,19.85206,1.36885c20.64618.36165,42.322-11.362,50.3543-30.91255,7.91076-18.36084-1.32105-37.51839-11.90559-52.667A118.28779,118.28779,0,0,0,709.068,487.50276c1.5347-15.11666-4.846-32.246-12.67784-45.24458q21.71616,20.45412,44.24544,40.01853c12.81662,10.98305,25.882,21.791,37.32519,34.23909a448.79921,448.79921,0,0,1,30.16651,38.03465c-2.478-3.13908-5.02392-6.22777-7.73052-9.19495-13.82036-16.622-31.49274-29.07927-48.01338-42.75279-5.15981-4.80047-10.72505-9.80365-14.38357-15.88487,3.78752,8.86383,11.53588,16.235,18.235,23.256,21.339,20.31679,41.70239,42.05252,58.25988,66.50638-.05528-.08293-.10193-.15664-.14742-.23957,8.59086,12.99169,16.5644,26.37554,24.37611,39.85557a219.76821,219.76821,0,0,1,3.77427,29.26585,156.64182,156.64182,0,0,0-6.24937-26.11122,80.1419,80.1419,0,0,0-8.61506-15.51631c-6.9289-11.1391-14.46592-21.78152-23.93787-30.92177a36.31007,36.31007,0,0,0-9.44431-7.14974c10.61448,10.74348,17.138,24.94161,23.21918,38.57885,3.43681,7.52781,7.62,14.79763,9.15868,23.01648,1.50879,7.41781,2.65305,14.922,3.77945,22.43081-8.56841-16.67151-16.38012-33.74843-25.635-50.06406-7.67523-14.17078-17.267-27.15325-26.31507-40.52271-1.08725-1.48345-2.07314-3.49181-3.13275-4.81862.31328.4607.562,1.05961.84769,1.56609,16.05072,26.0663,25.91887,55.08135,38.90134,82.64952a228.82041,228.82041,0,0,0,19.38791,35.59066c1.1264,5.63318,2.43939,11.222,4.11691,16.72622a40.97053,40.97053,0,0,0,4.01095,9.24448,106.47024,106.47024,0,0,1-7.41954-10.02825c-16.54885-24.43485-27.90967-54.8415-42.90021-81.11971,13.66373,27.99259,19.146,60.31459,36.25694,86.97058,7.55027,12.67092,18.17281,22.70147,29.33956,32.13772q1.53672,3.127,3.05673,6.25686c-10.08238-7.61074-20.11868-15.25775-28.85813-24.41643-18.32657-19.73688-27.559-45.59989-39.574-69.30741-2.52463-5.35332-5.72187-10.36571-8.32021-15.66374.69105,2.61619,2.39563,5.41723,3.59345,7.98851,8.36627,18.28971,14.20793,37.64767,22.64791,55.90974,10.58685,24.53678,31.64075,41.7951,52.41823,57.56019,2.02707,1.651,4.02074,3.33718,6.03457,5.0003q2.975,6.64961,5.90212,13.32051c-10.45785-7.94474-21.31938-15.38789-31.19444-24.07953-29.66838-23.73517-45.24977-59.18128-61.60455-92.47132-2.84654-5.72187-5.99829-11.27789-9.21339-16.79705.52462,1.62165,1.66773,3.47366,2.44113,5.18746,9.73915,20.03115,16.07836,41.59182,25.91023,61.5769,14.35478,30.56271,40.18209,53.1277,67.179,72.40331,4.88455,3.643,9.605,7.49268,14.22693,11.46159,2.21193,4.65363,4.61735,9.20821,7.04,13.75415-1.05788-1.169-2.10769-2.34611-3.18-3.49843a274.8711,274.8711,0,0,0-29.54053-28.02887c-28.94048-23.05333-53.79111-41.45362-69.46348-76.47588-1.63087-4.22-4.26607-8.698-4.44113-13.176-.65477.84769.20213,2.99454.497,4.69912,5.4823,19.33089,14.35592,38.11816,27.062,53.75425,13.71037,15.66374,31.10633,27.56818,46.44758,41.53654,15.87565,14.53963,31.19789,29.89009,43.68281,47.50719.88281,1.404,1.72532,2.82811,2.56379,4.254a109.36812,109.36812,0,0,1,3.37,17.88718A92.67458,92.67458,0,0,1,905.49011,872.503Z"/>
    <path d="M434.59505,368.43361c-5.68156,4.29428-11.68676,8.06683-18.721,10.22232-5.88369,1.70055-13.37637,3.23554-18.98594.25972,1.032,1.46271,5.25829,2.28391,7.65277,2.56954,24.78383,2.58106,43.70354-15.04352,63.21526-28.21373,2.93-1.37979,5.89578-2.73885,8.89666-4.03341-18.28281,16.60845-33.74787,37.286-59.02464,42.64078l.00921.00028h-.00921a.009.009,0,0,0-.00922-.00921c-.02764-.02764-.07371.00921-.04607.03686,28.31969-4.0314,49.65462-25.0902,70.864-42.55929a124.09018,124.09018,0,0,1,11.15177-7.71353,72.76139,72.76139,0,0,1,8.22864-1.21365c-25.96206,14.25918-32.95373,42.27078-67.62817,52.64858a80.10919,80.10919,0,0,0,28.74813-12.63119c12.88458-9.03544,23.16909-20.94334,36.47981-29.50887,6.98245-4.856,15.33548-6.76535,23.67066-8.23613a68.29643,68.29643,0,0,1,10.89954,3.65219,34.05272,34.05272,0,0,0-13.02278,3.71466c-16.71873,8.95626-29.6154,23.561-45.84119,33.37268a58.84332,58.84332,0,0,1-7.34179,4.18257c26.33177-10.26522,49.34882-38.46023,79.47675-33.56589,1.68039,1.23755,3.31645,2.53931,4.92428,3.9024a22.93971,22.93971,0,0,0-3.4368-.10481c-19.9298,2.33229-36.37788,15.347-53.37591,24.90505,16.16705-6.79645,32.24253-16.50911,50.44759-17.19037,6.53846-.27037,12.55691,2.708,18.68016,4.57732a4.2143,4.2143,0,0,0,.83847.29456q.87849.8854,1.77138,1.78693c-17.28711-.10912-31.825,4.25282-48.14352,13.75242,21.22666-9.26522,35.08849-8.20993,56.807-5.14686,1.86237,1.79931,3.7927,3.624,5.83129,5.47424-3.76506-6.64989-7.3562-13.69454-11.32108-20.50941a4.046,4.046,0,0,0-1.31472-2.23065c-5.94819-9.91163-12.84023-19.17627-22.44175-25.79995-18.5097-12.23384-42.59442-17.6266-63.71455-9.08439a146.29935,146.29935,0,0,0-24.17743,11.38817c-8.46187,5.19581-15.92864,11.76248-24.326,17.03978-18.277,10.88342-41.67475,15.27761-61.82453,7.87506C395.59754,373.9332,416.204,373.46962,434.59505,368.43361Z"/>
    <path d="M348.395,796.76016a207.93234,207.93234,0,0,0-14.63062,20.39453c-3.42414,4.8834-8.17394,8.55-12.8362,12.2275,8.7452-4.65765,15.81807-12.15494,22.163-19.85378,5.02622-5.36483,11.87046-9.55776,15.46679-16.163,10.35764-20.12732-9.96087-36.6445-18.3594-53.07875-3.33257-7.385-1.93954-15.68734-.63058-23.38791,1.49439-8.57359,4.3847-16.78957,7.43567-24.95141a106.6105,106.6105,0,0,0-13.15754,23.98337C313.86682,758.3414,366.60811,771.006,348.395,796.76016Z"/>
    <path d="M695.28336,841.73812c19.77662,9.01643,40.30648,15.95455,61.18071,21.87394-16.51948-7.25714-33.87225-13.89465-49.77209-22.90763-14.71067-8.57475-29.63153-16.86213-40.49133-30.43545-9.12528-10.39622-14.70664-23.10516-17.23414-36.64335-.7901-5.6591-1.5491-12.44633,2.40254-17.13509a14.42912,14.42912,0,0,1,3.83473-2.4129c-3.7639,10.60872.04434,23.69025,5.21914,33.58892,11.65163,23.81809,36.91861,38.9192,61.00506,48.30938.05068.00691.463.17621.58048.02706.053-.07141-.06911-.053-.0645-.02764a.06794.06794,0,0,0-.04607.019c-22.35825-11.81114-44.20974-29.2071-53.9201-53.33041-3.27787-8.87477-6.00463-21.25545,1.32393-28.71531.27354.09733.5586.17046.827.27873,2.04493.87187,4.0242,1.88655,6.023,2.85632a23.30248,23.30248,0,0,0-2.1123,10.28624c.76361,16.66115,17.14143,32.00988,29.47547,41.73118-12.24651-10.94791-28.60187-35.78587-10.31043-48.62322a7.18512,7.18512,0,0,0,1.11029-.99108c4.9882-.89779,9.91249-1.6637,14.28509,1.746,13.13853,9.33316,14.32656,26.54772,22.27706,39.47549,5.39477,10.63521,14.91279,19.12069,18.81548,30.40607a13.61111,13.61111,0,0,0-.65477-3.54738c-5.01354-12.58857-13.42646-23.696-16.79186-36.9906-2.07487-7.328-2.42328-15.09822-5.40457-22.15382-3.17882-7.07286-8.01384-13.871-14.62256-18.087a24.50683,24.50683,0,0,0-10.38413-3.446c-3.6303-.54823-7.20244.35013-10.76709.71293a6.84764,6.84764,0,0,0-3.207-.30925,13.6992,13.6992,0,0,0-1.43105.32019c-4.18141-1.28017-7.89924-3.71611-12.034-5.12815a33.14567,33.14567,0,0,0-15.09823-1.9833c-4.52117-1.13447-10.66343-1.15635-13.05272-1.5681-10.03-.52117-19.98624-1.63145-29.62289-4.56034.56436.31846,1.64527.59718,2.368.9859a137.55308,137.55308,0,0,0,26.91168,9.935,23.54993,23.54993,0,0,0-4.87016,4.54363c-12.16128,16.565.45091,51.14267,13.57217,64.58066C665.262,827.24,680.22487,835.19275,695.28336,841.73812Z"/>
    <path d="M731.26561,756.0834c3.46733,3.21337,7.5733,5.59979,11.42934,8.31215,6.68013,4.99857,12.62256,10.88226,19.10573,16.12328,11.06366,8.04782,22.03461,16.11867,30.83855,26.72106,5.00837,5.68214,11.01875,10.77573,14.239,17.75646A252.1378,252.1378,0,0,1,817.31537,867.756c.152,1.27844.33574,2.596.51944,3.9263-.02073.04492-.04722.08581-.06795.1313-2.10136,5.01758-2.467,10.44345-2.55227,15.82959-.02361,6.57646-.20731,13.3539,2.02707,19.635-.85632-32.86851,7.53126-42.6998,38.18842-53.2567a24.91617,24.91617,0,0,1,7.31934-.7924,18.97681,18.97681,0,0,0-7.61073-1.73223c-13.09592.37144-27.844,5.32395-35.2699,16.59838.00231-.66859.00231-1.33833.01728-1.99713.08523-11.94071-.66283-23.73516-.56378-35.69949.66168-13.85319-6.99973-25.85495-15.055-36.47347-8.20849-12.88227-20.5621-21.86588-33.63038-29.34589a182.56658,182.56658,0,0,0-30.842-16.00811c-4.72043-2.65534-9.169-5.72762-13.753-8.62138-4.66284-2.94847-10.14515-4.43192-15.35046-6.10886-10.96922-3.80364-22.451-7.074-33.825-8.60584,13.30208,3.22431,25.434,9.51572,37.37125,16.04266C721.18151,744.63736,725.57138,751.12053,731.26561,756.0834Z"/>
    <path d="M527.33415,672.473c7.13334,7.09475,12.72621,15.98449,22.04844,20.50624,20.91338,11.00666,44.87429-1.355,67.046,2.57012,6.64269,1.44544,27.71272,2.65132,29.94077,9.29689-.66916-7.7547-31.41788-14.12846-38.95663-16.15207-17.73112-4.45956-37.59642.81773-54.08077-8.27817-4.96978-2.869-9.00722-7.01125-13.52264-10.51716a56.87823,56.87823,0,0,0-25.51346-11.72074,79.08442,79.08442,0,0,0-13.24968-1.594c3.64758,1.66542,7.67581,3.45178,11.34009,5.41608A68.03518,68.03518,0,0,1,527.33415,672.473Z"/>
    <path d="M384.83333,468.36363c-1.67.43709-2.91795,2.69854-4.10943,4.10022-19.69772,28.15729-36.55582,59.3978-60.41307,84.28183.56666-.85632,1.13677-1.70948,1.67-2.58423a5.10093,5.10093,0,0,0,1.0406-1.25972,170.55971,170.55971,0,0,0,12.34671-24.85927c6.9289-17.92115,12.49413-36.32144,17.62631-54.81386,4.50563-13.51688,7.93322-28.88577,15.9678-40.59671a.399.399,0,0,0,.04607.00921c.02764.01843.05528-.02764.02764-.04607-.16585-.129-.50677.18428-.59891.26721-5.58366,6.80912-8.90069,15.22146-12.79819,23.06254-8.0674,17.55951-15.11205,35.56647-22.62661,53.37332q-.11488-3.05487-.478-6.10195c1.47654-7.36282,2.53327-14.80885,3.79212-22.2186,5.70345-30.01909,8.35707-62.66416,23.229-89.31093C342.73013,417.379,333.7828,447.1672,327.17869,477.091c-1.46732-5.37-2.998-10.7262-4.37548-16.11666.68068-4.3844,1.27959-8.88485,1.87446-13.176,5.594-28.55868,10.89839-61.00679,32.8282-81.88275-20.375,15.444-32.83338,42.81037-39.60852,68.4033a116.08937,116.08937,0,0,1,.00979-27.709c1.9309-18.679,14.26494-33.64593,25.6246-47.72083-23.17484,24.05909-35.36376,42.89877-35.46511,78.9936-.125,20.394,7.0982,39.70238,10.88169,59.494a100.13207,100.13207,0,0,1,1.71149,16.88545c.00979.5871-.00806,1.17449-.00921,1.76188a102.816,102.816,0,0,1-3.65737,27.039c-.2125.57184-.45206,1.13792-.67607,1.70746-.725,1.84221-1.50015,3.66831-2.34265,5.46906A83.161,83.161,0,0,1,290.28656,580.488c-7.94762,3.17277-16.19181,5.70028-24.19989,8.67927a102.03042,102.03042,0,0,0-30.083,19.12818c-8.21425,7.85951-17.14027,15.72708-22.40893,25.95573,10.732-14.869,26.77635-26.39627,43.26934-34.6779a96.12871,96.12871,0,0,1,15.12587-5.73914c-8.82525,7.2583-16.42562,16.02193-23.30729,25.157-3.32855,4.84943-7.73455,9.8647-8.64385,15.79216,6.69452-16.86731,27.94249-30.43948,45.54864-41.72428,9.203-3.20818,22.45615-12.68186,25.7-15.233,36.04214-26.83393,48.73092-68.15855,70.16375-105.51944C382.44288,470.95477,383.28768,469.17734,384.83333,468.36363Z"/>
    <path d="M118.75024,117.483c-6.24188-16.09622-11.25543-34.17286-17.41381-50.01367C105.53281,84.60127,109.83919,102.096,118.75024,117.483Z"/>
    <path d="M113.54147,82.34529c.349,7.52781,4.0933,16.04439,6.62484,23.256,2.94041,6.922,6.02766,13.83447,10.23786,20.09565.55111.75238.95135,1.76217,1.93494,2.02678-4.19005-6.60871-6.42789-15.08988-9.75817-22.39885C119.71137,97.66983,115.58294,90.12734,113.54147,82.34529Z"/>
    <path d="M146.10707,141.12662c-5.91364-15.18893-12.23154-31.07725-20.39914-45.25927C130.0575,111.74934,136.72034,127.58008,146.10707,141.12662Z"/>
    <path d="M139.47589,108.14668c1.70919,9.97066,6.21425,19.216,11.24161,27.90909,2.13879,3.18746,3.62051,7.15177,6.7809,9.472l.0121.00172a18.76343,18.76343,0,0,1-2.47165-5.07862A190.96829,190.96829,0,0,0,139.47589,108.14668Z"/>
    <path d="M165.98907,148.34374c-3.97755-9.31474-8.06164-19.451-14.16244-27.67874A50.42279,50.42279,0,0,0,165.98907,148.34374Z"/>
    <path d="M174.70778,12.25929A196.4117,196.4117,0,0,1,211.923,36.4828C203.282,24.18676,189.65283,14.684,174.70778,12.25929Z"/>
    <path d="M224.61578,55.021c-9.82151-12.009-24.52929-19.07089-38.36348-25.50108C198.92034,37.90866,212.43147,45.6694,224.61578,55.021Z"/>
    <path d="M237.78368,77.277c-7.48634-13.40026-22.77979-20.4262-36.16422-26.4075C213.62064,59.64382,227.0857,66.70229,237.78368,77.277Z"/>
    <path d="M214.70271,68.87217c.92427,2.22978,3.5658,3.53269,5.381,5.04925,9.65623,7.07633,19.25948,14.06972,28.527,21.68967-5.13448-8.2655-12.41811-15.91971-21.15525-20.63985C223.43927,72.50478,218.50923,71.313,214.70271,68.87217Z"/>
    <path d="M307.77869,198.85727c-18.13135-14.56295-31.59122-34.28256-47.96673-50.80636-.311-.22257-.57011-.74431-.83041-.78232C273.49124,165.91419,285.78266,187.98307,307.77869,198.85727Z"/>
    <path d="M346.99446,216.24373a755.22249,755.22249,0,0,1-57.60511-50.35459C302.41732,188.11351,323.72115,205.31511,346.99446,216.24373Z"/>
    <path d="M403.37412,482.57646c.106.09473.19292.6205.27124.54621-.11288-2.12094-1.981.72762-2.22978,1.40052-8.98419,14.95513-16.23616,31.0142-22.67556,47.22156,10.12326-15.08326,17.256-32.52529,24.45328-49.15015C403.25491,482.58855,403.316,482.5825,403.37412,482.57646Z"/>
    <path d="M410.92554,487.28393c-8.0795,7.58194-12.44922,18.40373-17.38675,28.15758-3.89981,9.10022-8.2655,18.25055-10.402,27.94623,4.19869-8.364,9.38039-16.74,13.64588-25.24626C402.121,508.18465,405.26125,496.89466,410.92554,487.28393Z"/>
    <path d="M412.5017,503.38244a19.56462,19.56462,0,0,0-3.15117,4.22921A261.31244,261.31244,0,0,0,388.011,555.34a174.06561,174.06561,0,0,0,12.08929-20.81434c5.49556-9.86181,7.94474-21.23011,12.77862-31.21027.03685.017.08638-.02995.03743-.0527C412.75969,503.20738,412.72284,503.26266,412.5017,503.38244Z"/>
    <path d="M416.8409,568.91761a5.82529,5.82529,0,0,0-2.22978-.98589.098.098,0,0,0-.129.10135c-.02765.49727-.0645.32249.01842.61734.10712.08206.04953-.36165.14858-.47827,5.08207,4.15867,8.74462,10.27184,13.59923,14.86068,8.8074,9.17855,17.87105,18.1374,25.11668,28.65629C446.08717,594.16646,431.43351,580.7014,416.8409,568.91761Z"/>
    <path d="M431.08453,563.94293c-.53671.21308-.12381,1.14023-.11978,1.6303.22229-.1457.05125-.84826.22056-1.15549,4.91795,4.41234,7.59115,11.23153,11.666,16.62573,5.95337,8.9767,11.86873,17.96665,17.66259,27.04355a105.07524,105.07524,0,0,0-27.07984-43.02948A4.18257,4.18257,0,0,0,431.08453,563.94293Z"/>
    <path d="M445.2176,565.39816c.00921.17536.01843.34121.03685.516.11806.1025.06623-.2649.14743-.31328,3.355,3.29572,5.17364,7.95741,7.73973,11.86758,5.6159,9.415,11.47195,18.6911,16.75962,28.28744a72.535,72.535,0,0,0-17.8653-35.03177C450.04744,568.80618,447.9052,565.81625,445.2176,565.39816Z"/>
    <path d="M483.08986,607.13683a81.80232,81.80232,0,0,0-21.15526-38.60678C467.92886,581.6968,475.75439,594.53674,483.08986,607.13683Z"/>
    <path d="M496.3476,609.081c-3.423-13.57389-8.94791-27.41585-18.93469-37.68568C482.5255,584.35474,488.4138,597.2658,496.3476,609.081Z"/>
    <path d="M483.91451,293.06859c7.32683-.649,14.89494-2.65938,22.16821-.52577,2.52693.8759,5.23469,2.37144,7.60152,3.40974a54.64367,54.64367,0,0,0-6.20042-4.04522c-7.59518-3.81256-16.50566-2.09214-24.66635-1.80622-12.50565.6133-24.80341,2.89433-37.04934,5.32653-16.694,2.3605-34.1383,3.07574-48.686,12.62342,15.72477-8.31128,33.30789-7.681,50.66757-9.4256C459.7699,296.56414,471.77339,294.36142,483.91451,293.06859Z"/>
    <path d="M469.3576,301.99577c-7.86239.48661-15.41092,2.7423-22.91512,5.004-7.08957,2.73511-29.61886,7.71669-31.715,14.78755a4.41738,4.41738,0,0,1,1.85891-2.38325c6.50852-3.909,14.307-5.06279,21.60041-6.97756,9.80884-2.18,19.61825-4.75354,29.65917-5.7593,9.04926-.71754,18.08643.708,27.12647.968,5.91652.18514,12.16416.2315,17.93037-.12871C498.601,304.67761,483.97843,301.6609,469.3576,301.99577Z"/>
    <path d="M463.31382,319.08219a130.63383,130.63383,0,0,0-25.2094,9.38874c-.99108.71149-3.08034,1.33689-3.3631,2.497.02534.00806.04262-.03513.02592-.05126,10.92027-5.29658,23.7127-6.80307,35.50312-9.86383,13.56353-3.38815,27.658-6.3274,41.79511-4.38441C496.47947,310.343,479.02074,314.8789,463.31382,319.08219Z"/>
    <path d="M586.30926,332.68287c7.05387,8.57675,12.24939,18.20592,19.40518,26.82155-5.56062-15.96924-16.21427-30.4867-30.97849-39.23852C577.42182,323.3687,583.20589,328.32149,586.30926,332.68287Z"/>
    <path d="M572.7371,333.63306c9.8025,9.50132,18.05821,22.00006,25.17945,34.10778C594.97039,353.50124,586.24361,340.07649,572.7371,333.63306Z"/>
    <path d="M276.49729,713.67211c8.46015,3.06077,17.34644,5.61534,24.44234,11.38731,12.97729,11.37694,22.58515,27.04989,28.06,43.34247-1.99367-9.00607-6.18718-17.91136-10.56957-26.16707-4.178-7.419-8.296-15.29057-15.08325-20.67613-11.17942-9.65278-27.01131-10.13248-40.73493-13.73859A136.3938,136.3938,0,0,0,276.49729,713.67211Z"/>
    <path d="M324.40932,736.81759c4.65478-31.57855-13.35737-30.41184-38.35772-28.86735a119.31531,119.31531,0,0,0,15.60845,2.865C320.99439,712.00151,323.2593,718.79853,324.40932,736.81759Z"/>
    <path d="M349.1131,818.7919c-10.32194,7.98217-20.8391,17.45527-33.91659,20.00293,10.07489,1.25713,20.74293-2.04607,28.84949-8.06164,3.83416-2.88224,6.18775-6.72274,10.12844-9.58309a43.88867,43.88867,0,0,1,20.406-8.78033,3.78122,3.78122,0,0,1,2.59834.35876c-.60467-.92139-2.353-.98071-3.46445-.96746A47.72447,47.72447,0,0,0,349.1131,818.7919Z"/>
    <path d="M298.07178,778.926c-4.372-8.59721-12.37319-14.41813-19.79159-20.25229a80.13,80.13,0,0,0-15.73744-9.389c2.08,2.32653,4.73943,4.70546,6.85519,7.21453,8.02766,10.53559,19.16158,18.37322,26.42391,29.46568,2.41348,4.31328,3.7783,9.09418,5.484,13.71095.99857,3.47769,3.38671,6.89031,3.40053,10.4947.68184-.8091.209-2.51772.03628-3.60208C302.83713,797.29342,302.76515,787.37805,298.07178,778.926Z"/>
    <path d="M367.83529,778.63515c17.54454,3.95855,29.21344,19.39078,44.77064,27.38505C403.10116,791.79038,386.53273,774.77968,367.83529,778.63515Z"/>
    <path d="M462.49608,821.81811c-13.71038-6.48951-17.37408-25.62345-32.93991-30.05594C441.58615,800.24534,447.43931,817.48351,462.49608,821.81811Z"/>
    <path d="M357.9372,728.83657c-.07947-.27469-.68011-.49986-.99454-.68184C357.00428,728.42712,357.63486,728.639,357.9372,728.83657Z"/>
    <path d="M381.992,753.13954A199.489,199.489,0,0,0,405.95806,763.579c3.795,1.74489,8.7308,1.81458,11.94129,4.42443a4.54957,4.54957,0,0,1-.3962.79067c-.01842.03686.03628.05529.05471.02764,0-.00921,0-.01842.00922-.01842h-.00864c1.833-1.924-3.41608-3.02909-4.67148-3.80537-7.613-3.08265-14.80914-7.05617-22.04037-10.92776-13.78179-7.09129-24.80456-18.90532-41.07584-20.10429,4.034,1.90269,8.72965,3.484,12.69741,5.91479C369.09415,743.86166,375.055,749.51846,381.992,753.13954Z"/>
  </g>
</svg>
