<svg id="Слой_1" data-name="Слой 1" xmlns="http://www.w3.org/2000/svg" viewBox="0 0 1000 1000">
  <title>Meat_42</title>
  <g>
    <path d="M480.55788,711.18628q1.947-4.76592,3.67952-9.58567c1.14311-.86663,1.56312-3.16346,2.23682-4.36586a125.11571,125.11571,0,0,1,18.8153-26.33151c42.57558-42.44384,69.24395-69.37645,92.97336-126.30072a.03852.03852,0,0,0-.06626-.03877c-16.09473,32.38365-35.78776,62.857-61.352,88.64777-15.22131,17.46151-34.57351,32.39163-47.27831,51.84692,6.3638-22.17461,9.90019-45.00458,11.84464-68.03947.0024-.00665.00861-.01087.01081-.01775a45.33645,45.33645,0,0,1,4.08873-8.21023c14.45191-21.25961,33.23849-39.33979,47.9515-60.523,9.96392-14.13475,20.40964-28.03542,28.91183-43.1296,8.43052-15.34859,14.804-31.73436,20.83141-48.14379,1.219-3.80329,2.85623-7.93612,3.80462-11.585-1.55087,3.77011-3.06808,7.55976-4.72109,11.28879-7.60142,16.78386-15.22706,33.70125-24.64788,49.57046-11.76823,17.9175-23.97,35.62622-36.89487,52.72722-12.29059,17.06615-28.60633,31.80554-38.742,50.35905,1.2918-18.53283,1.6518-37.16348,1.72135-55.65736.33134-15.43876,1.042-31.51338,1.69157-47.92387A175.032,175.032,0,0,1,516.16178,484.761c23.99072-37.00675,47.42892-75.87422,56.31064-119.6768.95071-4.21053,1.779-8.4472,2.64135-12.66387-1.24246,3.6324-2.28184,8.04755-3.398,11.97215-7.716,28.78706-21.20234,55.64755-35.63467,81.6402-10.23075,17.79345-22.22054,34.7839-30.427,53.63385,1.03244-27.1282,1.74817-55.06723.18694-82.49532a2.01251,2.01251,0,0,0,.12208-.54021,54.62025,54.62025,0,0,1,.64624-5.63467c12.37178-47.85,21.40836-71.40458,11.37775-122.51685-.6399-3.85574-1.28047-7.7113-1.86773-11.5811-.01539,3.068.504,6.68868.74946,9.94966,2.40457,20.06225,3.66226,40.49465.87228,60.58085-2.78361,18.48508-8.95651,36.258-13.02782,54.44991-3.2612-35.74641-11.09076-70.18091-27.96352-100.29088-3.65852-7.03642-9.043-12.94045-13.92674-19.12433,5.21417,8.23566,11.35478,16.62667,14.89515,26.06694,10.74856,22.11269,14.94221,46.51982,18.99073,70.57863,1.15925,7.025,2.09838,14.06887,2.86713,21.12667a506.37645,506.37645,0,0,0-60.22121-82.379c-2.95447-2.96466-5.97345-5.87264-9.0214-8.73866,1.454,1.96087,3.738,4.07638,5.41717,6.146,11.60242,12.84492,20.67134,27.61771,30.27282,41.94686,12.18173,18.13111,24.5802,36.22943,34.45654,55.74746l-.05768-.15277a3.23193,3.23193,0,0,0,.37828.71793c2.18128,27.76644,1.91253,55.72,1.02547,83.63835-1.902-5.05294-3.87627-10.07617-5.719-15.15351-5.51147-15.22073-10.95327-30.99339-18.61293-45.50639-11.72545-21.43917-27.18405-40.50795-41.67153-60.09827-.033-.03706-.0891.01226-.06568.05771,13.20475,20.49462,26.77743,40.85,38.21285,62.40412,10.58308,21.56929,18.65231,44.14947,27.05624,66.64065a1.73585,1.73585,0,0,0,.49228.81339c-.43095,12.07812-.93156,24.14482-1.35869,36.18079-.45424,21.05351-.642,42.137-1.89527,63.12418C484.02679,557.9422,457.93922,514.51328,425.3623,477.064c-2.69-3.08071-5.43753-6.0943-8.184-9.12615,1.67112,2.44236,4.2105,5.08915,6.17561,7.631,32.19287,40.7834,58.38937,86.75671,74.50747,136.31914a373.28836,373.28836,0,0,1-7.013,52.17365c-.89,4.86457-2.01067,9.68131-3.28089,14.46522-7.00692-25.74434-17.51091-50.66582-29.60959-74.446-11.3848-19.495-23.98229-38.28927-37.1574-56.61764,2.36,4.13252,5.46781,8.60626,8.019,12.912,14.552,24.1155,28.49366,48.58986,38.65247,74.93144,6.764,16.51341,13.88839,33.10754,18.04592,50.4854-5.233,17.70593-12.03153,35.04841-16.48517,52.73316,1.7112,2.13806,2.95478-1.07107,3.26073-2.61684C475.19081,727.7195,477.66945,719.36942,480.55788,711.18628Z"/>
    <path d="M552.22981,707.9365q1.55515-1.205,3.07992-2.448c.32527-.26436.66042-.51512.98388-.782l.00853-.02318a194.96486,194.96486,0,0,0,16.63346-15.428l.01135-.01245-.00136.00409q2.32671-2.43516,4.57833-4.96984c.62964-.70515,1.24147-1.43221,1.86288-2.14788.72325-.83322,1.4567-1.65436,2.16913-2.50036l.00821-.03363a230.81289,230.81289,0,0,0,16.2401-21.88458c-.00781.03245-.01517.06492-.02319.09714.36746-.56062.71544-1.13589,1.07825-1.69944q.96611-1.49523,1.91024-3.01078c.37627-.60179.76767-1.19128,1.14013-1.79715l.01423-.07235q6.5519-10.664,12.2146-22.091l-.00984.04c.0625-.12591.1212-.25425.18317-.38052.07783-.15753.15146-.318.22888-.476q1.4031-2.86168,2.74835-5.76127c.346-.74477.68218-1.49544,1.02245-2.24387q.92754-2.04143,1.82967-4.09723.60777-1.39085,1.2013-2.789.7275-1.71148,1.43362-3.4339c.4747-1.1534.94736-2.30748,1.40922-3.46776.07316-.184.151-.36589.22367-.55023l.0041-.03456c17.57652-44.40953,25.67453-93.75,23.71087-137.67775-1.98083-21.03178-1.75939-44.66074-13.53737-63.074a32.17248,32.17248,0,0,1-5.48854-8.33794l.00228-.01479c-.52837-1.09163-1.01973-2.21535-1.46527-3.36324l-.00191.02107c-1.31382-3.278-2.41049-6.67335-3.63643-9.98028q-1.03068-2.74924-2.06775-5.495l.00043-.00326c-.08085-.21249-.16193-.42312-.24258-.63536-3.18328-8.41606-6.44682-16.79335-10.003-25.05752-.051-.11862-.09905-.23859-.15017-.35711l.00023.01012c-1.06359-2.46487-2.14575-4.92292-3.269-7.36506-.02828-.06223-.05641-.12336-.08489-.18583l.00029-.00438c-.13924-.30686-.2774-.60312-.41669-.90911q-1.26639-2.78606-2.5278-5.51456c-.18589-.40247-.37261-.80752-.55841-1.208q-1.37486-2.96127-2.753-5.85894c-.11876-.24975-.23725-.50882-.35606-.75769l.00331.0235q-1.54971-3.24094-3.11446-6.39895l-.00008-.009c-.06086-.12234-.1222-.24053-.18286-.36263-.52581-1.05631-1.05507-2.1001-1.58511-3.142-.22269-.43824-.44425-.88365-.66787-1.31942q-1.10744-2.155-2.23163-4.26637c-.03587-.06712-.0704-.13624-.10618-.203l.00119.00886q-3.68907-6.92146-7.62915-13.371l-.00063-.00894c-.12512-.20743-.25488-.40912-.38105-.61563-.26244-.42477-.52383-.8521-.78866-1.27395q-.97014-1.54823-1.9631-3.06982l.00044.00333q-3.36221-5.14225-7.01168-9.952l-.00122-.00843c-.04431-.05887-.09126-.11583-.13569-.17461-.43017-.56421-.868-1.12046-1.30508-1.67777-.488-.62363-.97517-1.24666-1.47205-1.86121-.19168-.23644-.38611-.47086-.57906-.70618-.48711-.5959-.97052-1.19628-1.4637-1.78477l.014.05582c-2.02762-2.39365-4.12668-4.7237-6.32018-6.97736l-.00225-.01288c-.07043-.07265-.14355-.14294-.2139-.21525-.07976-.08138-.16118-.16089-.24094-.24226q-1.22453-1.2498-2.49534-2.46635c-.25811-.24864-.51886-.49536-.77938-.74229-.21373-.201-.42079-.40654-.637-.60656l.00722.02419a125.60456,125.60456,0,0,0-10.41537-8.72957l-.00456-.01787c-1.26775-.97141-2.57253-1.91028-3.91356-2.83381l.01349.036c-2.9615-2.05094-6.04825-4.0232-9.30423-5.89544-.94178-.54386-1.89166-1.08143-2.86774-1.61125l.01257.02981q-5.40882-2.94208-11.3943-5.564l-.01024-.02856c-.98572-.42478-1.96325-.84024-2.95805-1.257l.00152.00361q-2.35119-.97292-4.79463-1.89864c-1.8929-.756-3.80485-1.45349-5.726-2.12351l-.00278-.00787c-1.27457-.45243-2.568-.88828-3.87163-1.29866l.00263.00512c-4.58475-1.47474-9.22733-2.76989-13.887-4.01l-.00387-.00981c-.581-.15558-1.15963-.305-1.7405-.45735-.09752-.02574-.195-.05114-.29248-.07688-.92275-.24156-1.847-.48466-2.76536-.72682l.00276.005c-4.09846-1.06879-8.19826-2.13021-12.27166-3.26395l-.12443-.03429c-.1908-.04735-.37194-.1032-.55355-.15864l.00375.00661c-7.79729-2.13134-16.12-4.92356-24.35657-5.73864l-.00328-.007c-.04148-.004-.08363-.00452-.12531-.00875-.17707-.01692-.35335-.02215-.53052-.03732-.74541-.06394-1.49086-.1237-2.238-.15809l.0062.00941a34.44161,34.44161,0,0,0-10.87095,1.21007l-.00419-.00994c-.05273.01373-.10421.03545-.157.05006-.18036.05283-.35918.11587-.539.17236-.143.04766-.29076.08546-.42831.137l.00723.01222a28.6373,28.6373,0,0,0-4.58212,1.93852c-17.01344,9.05828-22.41946,29.2167-27.88508,46.33218-7.11518,23.16626-12.48393,46.83255-17.93546,70.42341-10.164,45.57814-27.42481,90.46136-31.37412,137.06873l-.00866.01669c-.11984,1.31371-.21429,2.63731-.30836,3.9618l.00427-.00829q-.659,9.68794-.45047,19.4877l-.011.02038c.00345.18145.01815.36374.02215.54512.05857,2.322.14285,4.64743.28489,6.97988q.19974,3.55185.4934,7.12229c.02571.32491.0408.64925.06738.97422l.00786-.01971c.45588,5.40992,1.08864,10.8295,1.95,16.21123l-.00906.01951c.05483.34514.12128.68707.17835,1.03147q.201,1.21256.41845,2.42179.19683,1.093.408,2.18212.21248,1.09847.44077,2.19334c.08368.40356.15686.80974.24354,1.21273l.011-.0307a132.37364,132.37364,0,0,0,6.0319,20.32836c.33375.85653.672,1.71159,1.02794,2.55934.21878.52091.45033,1.03639.67712,1.554.20247.46055.39292.925.60279,1.38321l.00859-.024a100.30058,100.30058,0,0,0,4.91955,9.51227c1.07406,1.823,2.21436,3.59975,3.39366,5.34925q.10691.15864.2143.31643c3.40837,5.02266,7.17173,9.79694,10.92392,14.581.13583.17407.27126.346.40654.52018l.00029-.00108c1.82663,2.33048,3.64587,4.66663,5.414,7.03946l-.00215.006.00819.00932c.41472.55509.82191,1.10936,1.22814,1.66489.11241.15422.22688.307.33882.46166.48673.67133.968,1.34626,1.44141,2.03135l.0002-.00142q.82513,1.181,1.62558,2.37879a71.50157,71.50157,0,0,1,4.4137,7.15327c.187.34.36942.67826.54985,1.01909,6.05434,11.50889,9.48581,24.29,14.75032,36.185,23.89336,51.90918,47.424,49.38109,40.20424,109.34094-.03.24959-.05741.49451-.08858.746q-.17136,1.3887-.36416,2.82018,2.24453,1.25484,4.52869,2.44185l.0024-.02027c.93966.48672,1.8806.962,2.82445,1.43634l-.00284.00827c.95528.48454,1.90217.95954,2.8587,1.42647.01249.00553.02413.00727.03663.0128a2.35621,2.35621,0,0,0,1.07252.20653,2.01982,2.01982,0,0,0,.64657-.12367l.0045-.01179.01434-.00435c.08569-.24863.17679-.48923.26435-.73455.19441-.53939.39417-1.0748.604-1.6021.12431-.3127.24611-.62732.37824-.93534,5.77656-13.7412,16.734-23.4795,29.33335-31.69161.43331-.28254.8661-.56544,1.30318-.8451.4894-.31242.98326-.62092,1.47721-.92909.58678-.36622,1.17428-.73183,1.768-1.0909,3.18205-1.93894,6.434-3.80681,9.71052-5.634,2.69915-1.50594,5.40641-2.9827,8.09834-4.45341,5.688-3.10917,11.30746-6.19739,16.58429-9.45623.18449-.11342.36413-.23.54757-.34415q1.13653-.70773,2.25162-1.42675c.15013-.09685.30535-.19073.45465-.28808l.00609-.01443c.53674-.3499,1.07636-.69861,1.60407-1.05337,2.20973-1.416,4.37054-2.90447,6.50757-4.42616l-.01292.02663c.23553-.16735.46278-.346.69729-.5145q1.63733-1.17875,3.24548-2.39584C551.19948,708.72508,551.71683,708.33362,552.22981,707.9365ZM541.96958,709.541c5.14268-12.3885,9.95922-24.91756,14.4278-37.27994-8.1589,15.0645-16.98822,29.77632-25.79087,44.50721q-3.64623,2.14914-7.44444,4.26386c6.02107-13.04893,11.98026-26.51231,17.34033-39.56975-8.16818,14.70122-16.40369,29.39557-25.0539,43.84765-2.76693,1.53-5.5469,3.07478-8.31079,4.65124a231.77687,231.77687,0,0,0,19.4936-38.85894,307.35637,307.35637,0,0,1-24.43294,41.73207c-16.52673,9.80308-31.78383,21.18675-39.2181,38.11551q-1.99728-1.01153-3.99379-2.07244c6.01425-55.98269-8.11106-54.22987-36.03584-102.76411-5.32477-9.74845-8.74753-20.52729-12.78446-31.0021,2.49192-9.82687,4.98282-19.64292,7.28469-29.53555-2.97437,8.645-5.7712,17.49172-8.52711,26.38506a108.69,108.69,0,0,0-7.63183-15.71325c2.55472-8.73059,4.93321-17.51144,6.84233-26.416-2.377,8.33259-4.936,16.76854-7.56728,25.21684-.06485-.10314-.12364-.21-.18906-.3126-1.94266-3.09893-4.0362-6.08962-6.20355-9.02742.0859-.39327.1799-.78416.26464-1.178,1.488-8.04333,3.75754-16.59144,3.56891-24.58451a89.12778,89.12778,0,0,1-3.49346,13.86c-.923,2.86593-1.88966,5.70708-2.86963,8.54177-1.93058-2.5305-3.89041-5.04027-5.8463-7.55307,1.90738-8.054,3.51495-16.19049,4.97822-24.28308a14.0243,14.0243,0,0,0-.02224-5.11041c-.00613-.04455-.07727-.03157-.08077.021.01359.33555.03526.68052.048,1.0337a232.17443,232.17443,0,0,1-7.17494,25.421c-2.37925-3.0958-4.69947-6.2348-6.90077-9.46015q1.86042-7.31715,3.6147-14.66279c1.87572-8.45007,3.91612-17.40927,4.60112-25.83944-3.17117,11.83314-7.48979,23.2796-11.8869,34.70507a98.18043,98.18043,0,0,1-6.13707-12.846q3.00777-8.83051,5.4759-17.83272c2.043-7.76959,4.47-16.02558,5.67944-23.70818-3.86191,11.88542-8.52922,23.486-13.51364,34.96779a148.095,148.095,0,0,1-5.14861-21.45781c4.52542-12.90263,9.54049-26.43816,13.08739-39.724-4.46548,10.67416-9.37072,21.15738-14.26666,31.63944q-.4009-3.182-.72035-6.35622c-.438-3.98154-.7352-7.94861-.91734-11.90408,5.96038-14.97576,11.6795-30.17865,17.19147-45.06167-5.73822,10.30061-11.60136,20.53559-17.33077,30.83589.17878-7.49463.74522-14.949,1.62352-22.36989,7.61663-14.8381,15.15686-29.90333,21.62168-44.95835-7.10315,13.58088-13.99567,27.3155-21.11673,40.934,5.59393-41.98656,20.58813-82.95321,29.859-124.23066,5.5056-23.605,10.82829-47.24851,17.9448-70.432,5.25155-15.98392,9.87858-35.2589,26.0221-43.66872a24.40808,24.40808,0,0,1,4.3559-1.69764c.72338,1.21163,1.4513,2.42092,2.19734,3.61842-.30653-.64026-.88539-2.00446-1.63823-3.75521a32.918,32.918,0,0,1,12.18725-.61809q3.29739,5.20727,6.41369,10.5687c-.54752-1.38019-2.2192-5.48157-4.3944-10.29029a92.34892,92.34892,0,0,1,9.86923,2.20667c3.86248,6.64011,7.61147,13.34363,11.10917,20.13879-2.541-6.4922-5.41157-12.9825-8.48862-19.41473,1.13861.31932,2.26952.6388,3.382.9472,3.06286.88926,6.1417,1.72814,9.22565,2.551q4.81282,9.10421,9.18786,18.42267c-.1464-.88167-3.56213-9.13885-7.62067-18.00451,3.82407,1.01275,7.65292,2.011,11.47271,3.03741,3.282,6.02643,6.54165,12.06087,9.72926,18.14337-1.89175-5.63847-3.87235-11.3978-6.01736-17.13193,4.67452,1.29392,9.325,2.66174,13.91539,4.21658.33466.11409.651.23765.98311.35278,3.05564,6.165,5.86012,12.46742,8.6452,18.75878-.582-2.0164-2.86051-9.56718-5.76274-17.72422q5.764,2.11488,11.02532,4.49946c3.42291,8.22075,6.67809,16.50469,9.69029,24.89278-.1183-.90676-3.52637-12.76908-7.22133-23.73135a136.60353,136.60353,0,0,1,12.25015,6.59525c2.65881,6.54758,5.15412,13.16951,7.549,19.75377-.12387-.90558-2.42512-9.26426-5.3046-18.33686q5.21263,3.32434,9.89223,6.98707,3.84378,10.84407,6.99357,21.89313c-.123-1.12718-1.82948-9.87846-4.16532-19.60871a125.186,125.186,0,0,1,11.16689,10.54668c2.34217,9.06724,4.1301,18.2996,5.65624,27.497-.53062-7.8729-1.2472-15.94146-2.44713-23.94928q3.86585,4.42793,7.37,9.1774a251.77743,251.77743,0,0,1,4.61022,28.93538,228.297,228.297,0,0,0-1.10137-24.00762q3.74134,5.4684,7.16419,11.31078c.97835,10.24255,1.42068,20.55165,1.76278,30.79366.55447-8.79007.73927-17.80545.50961-26.83716,3.06548,5.45108,5.98892,11.13057,8.85126,17.01809a269.1942,269.1942,0,0,1,.42289,35.248,278.26264,278.26264,0,0,0,2.65567-28.79311q2.47383,5.28031,4.93363,10.76939a351.41579,351.41579,0,0,1,.4143,41.144c1.41367-10.37668,2.92688-21.00219,3.798-31.683.39426.89251.78678,1.77952,1.18353,2.67933.97562,2.34573,1.91387,4.7053,2.85539,7.06366-.30661,12.67542-1.55727,25.39831-2.27873,37.90834,1.65587-10.73064,3.24036-21.7663,4.28447-32.843q3.049,7.8219,5.96822,15.68978c-.39045,8.59725-1.1586,17.19252-1.76559,25.68166,1.18537-7.17692,2.27839-14.60617,3.11036-22.08q1.51134,4.06768,3.0228,8.13527a30.772,30.772,0,0,0,2.82314,5.42961c-.749,6.72949-1.6818,13.44141-2.50657,20.09264,1.36716-5.976,2.61944-12.12379,3.67487-18.331,3.12092,4.56,6.70324,8.85329,8.11117,14.37914,13.34146,50.32758,8.72614,111.99261-9.43376,167.04716.4293-4.81963.8024-9.64476,1.0741-14.47818.15928-5.46884.67053-11.34685.68191-16.56976a416.28476,416.28476,0,0,1-8.2448,48.989,302.45678,302.45678,0,0,1-15.37422,33.051c2.569-13.56558,4.99149-27.17006,7.6241-40.728-3.86007,15.42483-7.40589,31.16452-11.06641,46.8944a245.00866,245.00866,0,0,1-17.10254,25.85576c1.98744-8.23252,3.95021-16.47926,5.96346-24.739,1.71707-6.95368,4.00283-14.52264,5.7079-21.28377-6.79375,18.29079-12.94965,36.799-19.15211,55.29869a197.65187,197.65187,0,0,1-16.93179,17.35747c4.08464-10.9986,8.07409-22.03531,12.31041-32.98271,1.33532-3.49033,3.09933-7.20835,4.2839-10.54969-8.83419,16.6777-16.90981,33.74948-25.09726,50.76724Q546.74986,706.23769,541.96958,709.541Z"/>
    <path d="M545.40573,501.6861c-7.50576,22.176-14.28476,45.40056-20.3506,68.25968C534.08837,548.26532,540.112,524.75445,545.40573,501.6861Z"/>
    <path d="M538.28938,550.23987c10.11911-21.66726,15.89357-46.31984,22.441-69.25222C552.09411,503.67755,546.617,527.46052,538.28938,550.23987Z"/>
    <path d="M556.22982,521.8513c7.9839-19.214,12.38223-40.357,17.17131-60.76564C565.31755,480.23581,559.79244,501.16705,556.22982,521.8513Z"/>
    <path d="M582.25841,442.93247a237.05579,237.05579,0,0,0-9.76985,33.57442c-2.34881,9.10722-2.35351,18.91935-5.4523,27.71367,3.73386-5.40647,4.32919-13.18418,6.34643-19.57785C576.80621,470.84868,579.36708,456.89441,582.25841,442.93247Z"/>
    <path d="M594.553,417.35154c-5.697,22.7273-10.90829,46.33367-15.41477,69.58233C586.75606,464.84714,591.71369,440.81162,594.553,417.35154Z"/>
    <path d="M474.42445,451.74385a291.92454,291.92454,0,0,0,5.7455,31.62532C479.43208,473.01023,477.00514,462.06578,474.42445,451.74385Z"/>
    <path d="M471.55494,467.37046a30.141,30.141,0,0,0-.422-4.37944l.009.01355a196.44564,196.44564,0,0,0-9.36877-40.06374A377.89879,377.89879,0,0,0,471.55494,467.37046Z"/>
    <path d="M462.12505,450.77458a192.97755,192.97755,0,0,0-11.32-46.38748C454.4496,419.56244,457.595,435.58623,462.12505,450.77458Z"/>
    <path d="M439.71994,387.76037c3.92007,16.61211,7.18946,34.11419,12.90642,50.47171A203.5716,203.5716,0,0,0,439.71994,387.76037Z"/>
    <path d="M441.99553,419.12611c-2.75693-18.524-9.53619-36.89519-18.278-53.6459C429.38827,383.17718,434.5759,401.80832,441.99553,419.12611Z"/>
    <path d="M451.85051,270.64427c8.98786,18.51257,18.67858,37.59323,25.65414,57.276C472.36022,307.8678,462.24483,288.70262,451.85051,270.64427Z"/>
    <path d="M462.64282,571.25243c2.912,13.60318,5.47635,27.29935,9.015,40.751,1.572,6.21492,3.38012,12.45353,5.35108,18.6328C475.13822,610.68675,469.48419,590.04491,462.64282,571.25243Z"/>
    <path d="M466.43521,606.17178c-3.77816-20.49328-10.91074-41.06493-18.97336-60.46522C453.104,565.73605,459.2504,586.38024,466.43521,606.17178Z"/>
    <path d="M450.44031,579.94411C447.542,557.73057,437.73,535.97853,426.55915,516.7573,435.28371,537.47191,443.52491,558.499,450.44031,579.94411Z"/>
    <path d="M411.70117,499.97126c6.32356,16.34286,13.72905,32.95744,20.99891,49.153C429.31345,531.6757,420.46372,515.44206,411.70117,499.97126Z"/>
    <path d="M419.20943,265.0047c.34284-.69994,1.36823-1.09045,1.659-1.56265a4.6169,4.6169,0,0,0-2.48778,2.23518c-7.74282,21.17426-11.19906,43.72581-15.80182,65.752-4.07522,19.3229-9.90579,38.22253-14.90592,57.33547,6.459-19.30083,13.46057-39.32846,18.25464-59.40106C410.812,308.0441,413.47958,286.016,419.20943,265.0047Z"/>
    <path d="M627.01636,545.54272c8.44518-32.54124,8.33255-67.02469,4.032-100.40881-.75139,16.66093-1.16983,34.0974-1.63707,51.022C628.63423,512.61413,627.73746,529.08215,627.01636,545.54272Z"/>
  </g>
</svg>
